<svg width="360" height="737" viewBox="0 0 360 737" fill="none" xmlns="http://www.w3.org/2000/svg">
<g clip-path="url(#clip0_7_123)">
<path d="M365 251C388.748 251 408 231.748 408 208C408 184.252 388.748 165 365 165C341.252 165 322 184.252 322 208C322 231.748 341.252 251 365 251Z" fill="#FFAB07"/>
<path d="M49 519C59.4934 519 68 510.493 68 500C68 489.507 59.4934 481 49 481C38.5066 481 30 489.507 30 500C30 510.493 38.5066 519 49 519Z" fill="#FFAB07"/>
<path d="M266 30C274.284 30 281 23.2843 281 15C281 6.71573 274.284 0 266 0C257.716 0 251 6.71573 251 15C251 23.2843 257.716 30 266 30Z" fill="#FFAB07"/>
<path d="M359 560C367.284 560 374 553.284 374 545C374 536.716 367.284 530 359 530C350.716 530 344 536.716 344 545C344 553.284 350.716 560 359 560Z" fill="#FFAB07"/>
<path d="M23 737C57.7939 737 86 708.794 86 674C86 639.206 57.7939 611 23 611C-11.7939 611 -40 639.206 -40 674C-40 708.794 -11.7939 737 23 737Z" fill="#FFAB07"/>
</g>
<defs>
<clipPath id="clip0_7_123">
<rect width="360" height="737" fill="white"/>
</clipPath>
</defs>
</svg>
