<svg width="54" height="54" viewBox="0 0 54 54" fill="none" xmlns="http://www.w3.org/2000/svg">
<circle cx="27" cy="27" r="27" fill="#154381"/>
<path fill-rule="evenodd" clip-rule="evenodd" d="M40.1731 15.4153L29.3765 10.7882C27.8133 10.1183 26.0438 10.1183 24.4806 10.7882L13.684 15.4153C12.9224 15.7418 12.4286 16.4907 12.4286 17.3193V28.2003C12.4286 32.2141 14.367 35.9808 17.6332 38.3138L24.5206 43.2334C25.961 44.2623 27.8961 44.2623 29.3365 43.2334L36.2239 38.3138C39.4901 35.9808 41.4286 32.2141 41.4286 28.2003V17.3193C41.4286 16.4907 40.9347 15.7418 40.1731 15.4153ZM33.9236 22.7928C34.2687 22.3616 34.1987 21.7323 33.7675 21.3873C33.3362 21.0423 32.7069 21.1122 32.3619 21.5435L24.7741 31.0282L21.4213 27.6753C21.0308 27.2848 20.3976 27.2848 20.0071 27.6753C19.6166 28.0659 19.6166 28.699 20.0071 29.0895L23.7549 32.8374C24.3871 33.4696 25.4284 33.4119 25.9869 32.7138L33.9236 22.7928Z" fill="#A0E3F9"/>
</svg>
