<svg width="171" height="96" viewBox="0 0 171 96" fill="none" xmlns="http://www.w3.org/2000/svg">
<g clip-path="url(#clip0_948_30584)">
<path opacity="0.15" d="M83.0423 72.0973L121.325 76.4362C163.51 72.4611 164.238 35.1263 161.325 27.3839C151.312 0.779321 123.952 12.5747 117.762 13.4841C106.059 15.1988 91.7548 11.3276 78.2829 4.46863C64.785 -2.36439 40.7539 -3.09186 29.3886 14.7052C18.0233 32.4762 25.9296 72.8508 66.3454 73.5523L83.0423 72.0973Z" fill="#84A6CE"/>
<path opacity="0.21" d="M84.8108 70.019L116.618 74.202C157.71 70.8245 152.275 39.3094 149.856 32.8661C141.533 10.7822 118.803 20.5771 113.653 21.3305C103.926 22.7595 92.0409 19.5379 80.8577 13.848C69.6224 8.13217 49.6485 7.53461 40.2078 22.3178C30.767 37.101 37.3209 70.6426 70.9228 71.2142L84.8108 70.019Z" fill="#84CEB8"/>
<path opacity="0.36" d="M58.2866 93.8808C58.3748 92.2618 50.6333 90.5246 40.9954 90.0006C31.3575 89.4766 23.473 90.3643 23.3848 91.9833C23.2966 93.6023 31.0381 95.3396 40.676 95.8635C50.3139 96.3875 58.1984 95.4998 58.2866 93.8808Z" fill="#84A6CE"/>
<path opacity="0.36" d="M154.329 78.0212C156.098 77.5016 157.034 76.93 157.034 76.3584C157.034 72.851 121.872 70.019 78.517 70.019C35.1623 70.019 0 72.851 0 76.3584C0 77.9173 7.04806 79.3462 18.6995 80.4634C15.6306 81.4247 13.9661 82.438 13.9661 83.5292C13.9661 88.4656 49.1284 92.4667 92.483 92.4667C135.838 92.4667 171 88.4656 171 83.5292C171 81.4507 164.784 79.5281 154.329 78.0212Z" fill="#84A6CE"/>
<path d="M143.926 8.20996C146.553 8.20996 149.128 9.14528 151.026 10.964C152.821 12.6527 154.615 16.8357 153.107 19.9794C150.064 26.2668 143.406 26.9683 138.595 29.4365C133.783 31.9047 133.419 34.5288 136.566 33.4116C139.791 32.2424 146.527 27.5918 148.685 32.2944C151.65 38.7117 142.626 41.8814 137.372 43.1285C130.61 44.7393 125.409 47.9869 128.426 48.5585C131.442 49.1301 136.202 45.7526 139.271 49.0262C142.34 52.2998 141.429 57.7299 132.977 59.6524C124.498 61.575 124.03 65.2124 127.567 64.8487C131.104 64.4849 133.159 61.7309 135.578 65.5761C138.022 69.4213 131.234 72.2533 125.227 72.9288C119.245 73.6043 111.599 80.0476 111.599 80.0476C111.599 80.0476 108.296 64.7188 108.53 53.7807C108.738 43.2324 117.97 8.26192 143.926 8.20996Z" fill="#F2C94C"/>
<path opacity="0.34" d="M139.843 18.3426L150.012 15.043L141.377 17.0955C146.865 12.8086 151.026 10.964 151.026 10.964C149.128 9.17126 146.553 8.20996 143.926 8.20996C117.97 8.26192 108.738 43.2324 108.53 53.7807C108.296 64.7447 111.599 80.0476 111.599 80.0476C111.443 79.3201 111.729 74.3577 113.081 67.3688L121.872 62.4844L113.263 66.4075C113.653 64.5109 114.121 62.4584 114.694 60.328L130.064 51.7542L115.162 58.5612C115.786 56.3529 116.488 54.0665 117.32 51.7282L124.29 47.8311L117.632 50.9228C118.517 48.5326 119.505 46.0903 120.623 43.6481L141.663 35.568L122.184 40.4524C122.704 39.4392 123.224 38.4519 123.796 37.4646C124.342 36.5293 124.888 35.62 125.435 34.7366L132.405 31.5929L125.955 33.9052C127.489 31.5409 129.102 29.4105 130.714 27.4359L146.475 22.3437L132.197 25.7472C134.797 22.7853 137.424 20.3431 139.843 18.3426Z" fill="#F2C94C"/>
<path d="M154.745 45.4148C156.332 46.2462 157.554 47.6232 158.126 49.3119C158.672 50.8968 158.412 53.9885 156.488 55.3915C152.665 58.1975 148.451 56.5087 144.784 56.4567C141.117 56.4048 140.051 57.8597 142.314 58.1975C144.628 58.5352 150.142 57.8597 149.934 61.3671C149.674 66.1736 143.25 65.1864 139.713 64.277C135.161 63.1079 131 63.3937 132.613 64.6927C134.251 65.9918 138.152 65.4721 138.959 68.408C139.765 71.3439 137.476 74.3057 131.78 72.7728C126.085 71.2399 124.654 73.2665 126.891 74.1758C129.128 75.0851 131.234 74.0719 131.468 77.1636C131.702 80.2554 126.735 79.7877 122.938 78.2808C119.141 76.7739 112.509 78.2288 112.509 78.2288C112.509 78.2288 115.422 67.9923 119.037 61.497C122.496 55.2356 139.167 37.2048 154.745 45.4148Z" fill="#F2C94C"/>
<path opacity="0.34" d="M149.075 50.1952L156.228 51.4683L150.402 49.9614C155.057 49.13 158.126 49.3378 158.126 49.3378C157.554 47.649 156.306 46.272 154.745 45.4407C139.193 37.2306 122.522 55.2615 119.037 61.5229C115.422 68.0182 112.509 78.2547 112.509 78.2547C112.665 77.7611 114.381 74.8772 117.45 71.1359L124.29 70.98L117.892 70.6163C118.725 69.603 119.661 68.5118 120.675 67.4206L132.613 67.1608L121.507 66.5113C122.574 65.3941 123.744 64.2509 124.966 63.1078L130.376 63.0038L125.409 62.7181C126.683 61.5489 128.061 60.4057 129.518 59.3145L144.706 61.1592L131.468 57.8856C132.093 57.4439 132.743 57.0282 133.393 56.6125C134.017 56.2228 134.641 55.8591 135.239 55.4953L140.415 55.8071L135.812 55.1576C137.476 54.2223 139.115 53.4428 140.727 52.7933L151.78 54.7419L142.131 52.2477C144.628 51.2604 146.995 50.6109 149.075 50.1952Z" fill="#F2C94C"/>
<path d="M48.9463 14.1337C46.9697 14.0558 44.9932 14.7053 43.4847 16.0044C42.0803 17.2255 40.5979 20.3432 41.6642 22.7594C43.7708 27.5919 48.7903 28.3194 52.3533 30.3199C55.9164 32.3205 56.0984 34.321 53.7577 33.3597C51.365 32.3984 46.3976 28.6831 44.6291 32.1646C42.2103 36.9191 48.9203 39.5951 52.8475 40.6864C57.8929 42.0893 61.7421 44.7134 59.4534 45.0512C57.1387 45.4149 53.6797 42.7129 51.261 45.0772C48.8423 47.4414 49.3624 51.5984 55.7083 53.2872C62.0541 54.9759 62.3142 57.7559 59.6354 57.3662C56.9567 56.9765 55.5002 54.846 53.5497 57.678C51.5991 60.5099 56.6446 62.8482 61.1439 63.5237C65.6432 64.1992 71.2348 69.2915 71.2348 69.2915C71.2348 69.2915 74.1737 57.8079 74.3297 49.5459C74.4858 41.5957 68.53 14.9391 48.9463 14.1337Z" fill="#F2C94C"/>
<path opacity="0.34" d="M51.7291 21.9021L44.1349 19.1221L50.6108 20.9148C46.5796 17.5113 43.5107 16.0044 43.5107 16.0044C44.9932 14.7053 46.9698 14.0558 48.9723 14.1337C68.5561 14.9131 74.5118 41.5957 74.3558 49.5719C74.1997 57.8339 71.2609 69.3175 71.2609 69.3175C71.3909 68.7719 71.3389 65.0306 70.5066 59.7045L64.0047 55.7554L70.3766 58.977C70.1425 57.5221 69.8304 55.9632 69.4923 54.3524L58.153 47.4414L69.2063 53.0274C68.8161 51.3386 68.322 49.5979 67.7758 47.8052L62.6263 44.6615L67.5678 47.1556C66.9696 45.311 66.2934 43.4403 65.5392 41.5697L49.8826 34.8406L64.4469 39.1015C64.0828 38.3221 63.7187 37.5686 63.3285 36.7892C62.9644 36.0617 62.5743 35.3602 62.1582 34.6847L56.9827 32.1126L61.7681 34.0612C60.6758 32.2425 59.5314 30.5797 58.3611 29.0468L46.6317 24.76L57.3208 27.7478C55.3962 25.4095 53.4977 23.4869 51.7291 21.9021Z" fill="#F2C94C"/>
<path d="M50.6888 47.5715H37.4509H33.0296H19.7917C19.7917 47.5715 20.2079 70.1231 27.8021 79.892C27.8021 79.892 29.5446 80.4635 31.7032 80.9572C32.8476 81.217 34.0439 81.3469 35.2143 81.3469C36.3846 81.3469 37.5809 81.217 38.7253 80.9572C40.8839 80.4635 42.6264 79.892 42.6264 79.892C50.2727 70.0971 50.6888 47.5715 50.6888 47.5715Z" fill="#677376"/>
<path opacity="0.35" d="M24.4211 73.6824C25.3574 76.0206 26.4757 78.1511 27.8281 79.8658C27.8281 79.8658 29.5706 80.4374 31.7293 80.9311C32.8736 81.1909 34.07 81.3208 35.2403 81.3208C36.4106 81.3208 37.607 81.1909 38.7513 80.9311C40.91 80.4374 42.6525 79.8658 42.6525 79.8658C50.2727 70.097 50.6628 47.5454 50.6628 47.5454C50.6628 47.5454 48.7383 71.1622 24.4211 73.6824Z" fill="#677376"/>
<path d="M35.2403 49.1303C43.7722 49.1303 50.6888 48.4673 50.6888 47.6494C50.6888 46.8315 43.7722 46.1685 35.2403 46.1685C26.7083 46.1685 19.7917 46.8315 19.7917 47.6494C19.7917 48.4673 26.7083 49.1303 35.2403 49.1303Z" fill="#677376"/>
<path d="M35.2403 49.1303C43.7722 49.1303 50.6888 48.4673 50.6888 47.6494C50.6888 46.8315 43.7722 46.1685 35.2403 46.1685C26.7083 46.1685 19.7917 46.8315 19.7917 47.6494C19.7917 48.4673 26.7083 49.1303 35.2403 49.1303Z" fill="#677376"/>
<mask id="mask0_948_30584" style="mask-type:luminance" maskUnits="userSpaceOnUse" x="18" y="25" width="34" height="25">
<path d="M50.6887 47.6494C50.6887 48.4548 43.7707 49.1303 35.2402 49.1303C26.7097 49.1303 19.7917 48.4808 19.7917 47.6494C19.7917 46.844 10.8451 26.241 35.0322 25.8513C56.1763 25.4875 50.6887 46.818 50.6887 47.6494Z" fill="white"/>
</mask>
<g mask="url(#mask0_948_30584)">
<path d="M33.4457 26.5266L31.6512 30.2939L29.9087 72.9028L32.9516 73.0327L34.6941 30.4238" fill="#FC9E86"/>
<path d="M31.6512 30.3979L29.9087 72.903L32.9516 73.0329L34.6941 30.5279L34.0699 31.2034L33.1856 30.4759L32.3014 31.1254L31.6512 30.3979Z" fill="#FF4F68"/>
<path opacity="0.48" d="M32.2754 31.0735L31.6512 30.3979L29.9087 72.903L30.5589 72.9289L32.2754 31.0735Z" fill="#FF4F68"/>
<path opacity="0.48" d="M34.0179 31.1514L34.6941 30.5278L32.9516 73.0328L32.3274 73.0069L34.0179 31.1514Z" fill="#FF4F68"/>
<path d="M32.9517 27.566L33.4718 26.5007L33.8099 27.6179L32.9517 27.566Z" fill="#FF4F68"/>
</g>
<mask id="mask1_948_30584" style="mask-type:luminance" maskUnits="userSpaceOnUse" x="18" y="25" width="34" height="25">
<path d="M50.6887 47.6494C50.6887 48.4548 43.7707 49.1303 35.2402 49.1303C26.7097 49.1303 19.7917 48.4808 19.7917 47.6494C19.7917 46.844 10.8451 26.241 35.0322 25.8513C56.1763 25.4875 50.6887 46.818 50.6887 47.6494Z" fill="white"/>
</mask>
<g mask="url(#mask1_948_30584)">
<path d="M22.8346 29.5144L21.9763 33.6194L30.2988 75.4489L33.2636 74.8513L24.9412 33.0218" fill="#FC9E86"/>
<path d="M22.0024 33.7235L30.2989 75.4491L33.2637 74.8516L24.9673 33.126L24.5252 33.9314L23.5109 33.4118L22.7827 34.2691L22.0024 33.7235Z" fill="#56CBB7"/>
<path opacity="0.54" d="M22.7567 34.243L22.0024 33.7234L30.2989 75.449L30.923 75.3191L22.7567 34.243Z" fill="#56CBB7"/>
<path opacity="0.54" d="M24.4731 33.8794L24.9673 33.126L33.2897 74.8516L32.6655 74.9815L24.4731 33.8794Z" fill="#56CBB7"/>
<path d="M22.5745 30.6577L22.8345 29.4885L23.4327 30.5018L22.5745 30.6577Z" fill="#56CBB7"/>
</g>
<mask id="mask2_948_30584" style="mask-type:luminance" maskUnits="userSpaceOnUse" x="18" y="25" width="34" height="25">
<path d="M50.6887 47.6494C50.6887 48.4548 43.7707 49.1303 35.2402 49.1303C26.7097 49.1303 19.7917 48.4808 19.7917 47.6494C19.7917 46.844 10.8451 26.241 35.0322 25.8513C56.1763 25.4875 50.6887 46.818 50.6887 47.6494Z" fill="white"/>
</mask>
<g mask="url(#mask2_948_30584)">
<path d="M49.3102 35.6721L46.3454 38.634L30.4287 78.2031L33.2635 79.3203L49.1802 39.7511" fill="#FC9E86"/>
<path d="M46.3194 38.7119L30.4287 78.2031L33.2635 79.3203L49.1282 39.8551L48.3219 40.2708L47.7498 39.2835L46.6835 39.6213L46.3194 38.7119Z" fill="#84A6CE"/>
<path opacity="0.54" d="M46.6575 39.5693L46.3194 38.7119L30.4287 78.2031L31.0269 78.4369L46.6575 39.5693Z" fill="#84A6CE"/>
<path opacity="0.54" d="M48.2959 40.219L49.1281 39.8552L33.2635 79.3204L32.6653 79.0866L48.2959 40.219Z" fill="#84A6CE"/>
<path d="M48.478 36.4776L49.3363 35.6462L49.2843 36.8154L48.478 36.4776Z" fill="#84A6CE"/>
</g>
<mask id="mask3_948_30584" style="mask-type:luminance" maskUnits="userSpaceOnUse" x="18" y="25" width="34" height="25">
<path d="M50.6887 47.6494C50.6887 48.4548 43.7707 49.1303 35.2402 49.1303C26.7097 49.1303 19.7917 48.4808 19.7917 47.6494C19.7917 46.844 10.8451 26.241 35.0322 25.8513C56.1763 25.4875 50.6887 46.818 50.6887 47.6494Z" fill="white"/>
</mask>
<g mask="url(#mask3_948_30584)">
<path d="M28.3743 31.9048L27.178 35.9059L31.7813 78.3069L34.7982 77.9692L30.1949 35.5681" fill="#FC9E86"/>
<path d="M27.178 36.0099L31.7813 78.307L34.7982 77.9693L30.1949 35.6721L29.6747 36.4256L28.7124 35.828L27.9322 36.6074L27.178 36.0099Z" fill="#84A6CE"/>
<path opacity="0.54" d="M27.8802 36.5816L27.178 36.01L31.7813 78.3072L32.4055 78.2292L27.8802 36.5816Z" fill="#84A6CE"/>
<path opacity="0.54" d="M29.6487 36.3996L30.2208 35.6721L34.7982 77.9693L34.174 78.0472L29.6487 36.3996Z" fill="#84A6CE"/>
<path d="M28.0361 33.0221L28.4002 31.8789L28.9204 32.9441L28.0361 33.0221Z" fill="#84A6CE"/>
</g>
<path opacity="0.44" d="M133.601 78.8784C134.797 78.5926 135.448 78.3068 135.448 78.021C135.448 76.2024 111.416 74.7214 81.7938 74.7214C52.1712 74.7214 28.1401 76.2024 28.1401 78.021C28.1401 78.8264 32.9515 79.5799 40.9099 80.1515C38.8293 80.6451 37.6849 81.1907 37.6849 81.7363C37.6849 84.3084 61.716 86.3869 91.3386 86.3869C120.961 86.3869 144.992 84.3084 144.992 81.7363C144.992 80.6711 140.753 79.6578 133.601 78.8784Z" fill="#84A6CE"/>
<path d="M98.959 82.256H144.992L128.608 35.3342L98.959 82.256Z" fill="#DAD9DB"/>
<path opacity="0.45" d="M98.959 82.256H144.992L128.608 35.3342L98.959 82.256Z" fill="#DAD9DB"/>
<path opacity="0.45" d="M144.992 82.256L128.764 75.9426L105.877 82.1001L144.992 82.256Z" fill="#DAD9DB"/>
<path d="M109.232 85.6336L128.764 75.9426H89.7783L71.1829 85.6855L109.232 85.6336Z" fill="#DAD9DB"/>
<path opacity="0.15" d="M109.232 85.6336L128.764 75.9426H89.7783L71.1829 85.2958L109.232 85.6336Z" fill="#DAD9DB"/>
<path d="M109.232 85.6595H39.7656L59.1413 35.3342H128.608L109.232 85.6595Z" fill="#DAD9DB"/>
<path d="M104.472 82.1782H45.4612L62.9383 35.1785H121.95L104.472 82.1782Z" fill="white"/>
<path d="M104.472 82.1782H45.4612L62.9383 35.1785H121.95L104.472 82.1782Z" fill="white"/>
<path d="M104.472 82.1782H45.4612L62.9383 35.1785H121.95L104.472 82.1782Z" fill="#DAD9DB"/>
<path d="M63.5885 36.1917C61.0658 44.0639 57.5288 52.0661 54.0697 58.977L46.2415 80.0477C60.0775 81.9183 102.886 79.8918 102.886 79.8918C102.886 79.8918 107.567 71.9156 109.648 67.5768C110.064 66.7194 110.48 65.7841 110.948 64.7708L121.585 36.1917H63.5885Z" fill="#DAD9DB"/>
<path d="M121.95 35.1783C121.95 35.1783 113.835 56.4048 108.972 66.5634C106.891 70.9283 102.21 78.8785 102.21 78.8785C102.21 78.8785 48.9462 81.3986 42.0542 78.2029C42.0542 78.2029 56.1503 56.3009 62.9383 35.1523H121.95V35.1783Z" fill="white"/>
<path d="M68.608 31.4112C67.5938 31.3332 66.6835 32.5803 66.5274 34.2171C66.4494 35.1265 66.6315 35.9579 66.9696 36.5294C66.9176 36.1657 66.9176 35.802 66.9436 35.4123C67.0996 33.7755 67.9058 32.5024 68.7381 32.5803C69.5183 32.6583 70.0385 33.8014 70.0385 35.2304C70.0905 35.0225 70.1165 34.7887 70.1425 34.5549C70.2985 32.8921 69.6223 31.4891 68.608 31.4112Z" fill="#FF4F68"/>
<path d="M74.0177 31.4112C73.0034 31.3332 72.0932 32.5803 71.9371 34.2171C71.8591 35.1265 72.0411 35.9579 72.3792 36.5294C72.3272 36.1657 72.3272 35.802 72.3532 35.4123C72.5093 33.7755 73.3155 32.5024 74.1478 32.5803C74.928 32.6583 75.4481 33.8014 75.4481 35.2304C75.5002 35.0225 75.5262 34.7887 75.5522 34.5549C75.7082 32.8921 75.006 31.4891 74.0177 31.4112Z" fill="#FF4F68"/>
<path d="M79.4013 31.4112C78.387 31.3332 77.4767 32.5803 77.3207 34.2171C77.2426 35.1265 77.4247 35.9579 77.7628 36.5294C77.7108 36.1657 77.7108 35.802 77.7368 35.4123C77.8928 33.7755 78.6991 32.5024 79.5313 32.5803C80.3115 32.6583 80.8317 33.8014 80.8317 35.2304C80.8837 35.0225 80.9097 34.7887 80.9357 34.5549C81.0918 32.8921 80.4156 31.4891 79.4013 31.4112Z" fill="#FF4F68"/>
<path d="M84.8107 31.4112C83.7964 31.3332 82.8861 32.5803 82.7301 34.2171C82.6521 35.1265 82.8341 35.9579 83.1722 36.5294C83.1202 36.1657 83.1202 35.802 83.1462 35.4123C83.3023 33.7755 84.1085 32.5024 84.9407 32.5803C85.721 32.6583 86.2411 33.8014 86.2411 35.2304C86.2931 35.0225 86.3191 34.7887 86.3451 34.5549C86.5012 32.8921 85.799 31.4891 84.8107 31.4112Z" fill="#FF4F68"/>
<path d="M90.1945 31.4112C89.1802 31.3332 88.2699 32.5803 88.1139 34.2171C88.0358 35.1265 88.2179 35.9579 88.556 36.5294C88.504 36.1657 88.504 35.802 88.53 35.4123C88.686 33.7755 89.4923 32.5024 90.3245 32.5803C91.1047 32.6583 91.6249 33.8014 91.6249 35.2304C91.6769 35.0225 91.7029 34.7887 91.7289 34.5549C91.885 32.8921 91.2088 31.4891 90.1945 31.4112Z" fill="#FF4F68"/>
<path d="M95.6039 31.4112C94.5896 31.3332 93.6793 32.5803 93.5233 34.2171C93.4453 35.1265 93.6273 35.9579 93.9654 36.5294C93.9134 36.1657 93.9134 35.802 93.9394 35.4123C94.0955 33.7755 94.9017 32.5024 95.7339 32.5803C96.5142 32.6583 97.0343 33.8014 97.0343 35.2304C97.0863 35.0225 97.1123 34.7887 97.1383 34.5549C97.2944 32.8921 96.5922 31.4891 95.6039 31.4112Z" fill="#FF4F68"/>
<path d="M100.987 31.4112C99.9732 31.3332 99.0629 32.5803 98.9068 34.2171C98.8288 35.1265 99.0109 35.9579 99.349 36.5294C99.297 36.1657 99.297 35.802 99.323 35.4123C99.479 33.7755 100.285 32.5024 101.117 32.5803C101.898 32.6583 102.418 33.8014 102.418 35.2304C102.47 35.0225 102.496 34.7887 102.522 34.5549C102.678 32.8921 102.002 31.4891 100.987 31.4112Z" fill="#FF4F68"/>
<path d="M106.397 31.4112C105.383 31.3332 104.473 32.5803 104.317 34.2171C104.238 35.1265 104.421 35.9579 104.759 36.5294C104.707 36.1657 104.707 35.802 104.733 35.4123C104.889 33.7755 105.695 32.5024 106.527 32.5803C107.307 32.6583 107.828 33.8014 107.828 35.2304C107.88 35.0225 107.906 34.7887 107.932 34.5549C108.088 32.8921 107.385 31.4891 106.397 31.4112Z" fill="#FF4F68"/>
<path d="M111.781 31.4112C110.766 31.3332 109.856 32.5803 109.7 34.2171C109.622 35.1265 109.804 35.9579 110.142 36.5294C110.09 36.1657 110.09 35.802 110.116 35.4123C110.272 33.7755 111.078 32.5024 111.911 32.5803C112.691 32.6583 113.211 33.8014 113.211 35.2304C113.263 35.0225 113.289 34.7887 113.315 34.5549C113.471 32.8921 112.795 31.4891 111.781 31.4112Z" fill="#FF4F68"/>
<path d="M116.488 31.4112C115.474 31.3332 114.564 32.5803 114.408 34.2171C114.33 35.1265 114.512 35.9579 114.85 36.5294C114.798 36.1657 114.798 35.802 114.824 35.4123C114.98 33.7755 115.786 32.5024 116.618 32.5803C117.398 32.6583 117.919 33.8014 117.919 35.2304C117.971 35.0225 117.997 34.7887 118.023 34.5549C118.179 32.8921 117.502 31.4891 116.488 31.4112Z" fill="#FF4F68"/>
<path d="M64.1088 39.9848H70.4026L68.244 45.8046H61.9502L64.1088 39.9848ZM63.9527 39.751L61.6121 46.0384H68.4L70.7407 39.751H63.9527Z" fill="#DAD9DB"/>
<path d="M71.4689 39.9848H77.7627L75.6041 45.8046H69.3103L71.4689 39.9848ZM71.3129 39.751L68.9722 46.0384H75.7601L78.1008 39.751H71.3129Z" fill="#DAD9DB"/>
<path d="M78.855 39.9848H85.1489L82.9902 45.8046H76.6964L78.855 39.9848ZM78.673 39.751L76.3323 46.0384H83.1203L85.4609 39.751H78.673Z" fill="#DAD9DB"/>
<path d="M86.2152 40.0107H92.5091L90.3504 45.8304H84.0566L86.2152 40.0107ZM86.0592 39.7769L83.7185 46.0643H90.5065L92.8472 39.7769H86.0592Z" fill="#DAD9DB"/>
<path d="M93.6535 40.0107H99.9473L97.7887 45.8304H91.4948L93.6535 40.0107ZM93.4974 39.7769L91.1567 46.0643H97.9447L100.285 39.7769H93.4974Z" fill="#DAD9DB"/>
<path d="M101.092 40.0368H107.386L105.227 45.8566H98.9331L101.092 40.0368ZM100.936 39.803L98.595 46.0904H105.383L107.724 39.803H100.936Z" fill="#DAD9DB"/>
<path d="M108.53 40.0368H114.824L112.665 45.8566H106.371L108.53 40.0368ZM108.374 39.803L106.033 46.0904H112.821L115.162 39.803H108.374Z" fill="#DAD9DB"/>
<path opacity="0.74" d="M83.0424 46.0644H76.2544L78.5951 39.751L85.3831 39.777L83.0424 46.0644Z" fill="#FF4F68"/>
<path d="M60.7277 49.0004H67.0215L64.8629 54.8202H58.5691L60.7277 49.0004ZM60.5716 48.7666L58.231 55.054H65.0189L67.3596 48.7666H60.5716Z" fill="#DAD9DB"/>
<path d="M68.1139 49.0263H74.4078L72.2491 54.8461H65.9553L68.1139 49.0263ZM67.9579 48.7925L65.6172 55.0799H72.4052L74.7459 48.7925H67.9579Z" fill="#DAD9DB"/>
<path d="M75.474 49.0263H81.7679L79.6092 54.8461H73.3154L75.474 49.0263ZM75.318 48.7925L72.9773 55.0799H79.7653L82.106 48.7925H75.318Z" fill="#DAD9DB"/>
<path d="M82.8603 49.0263H89.1541L86.9955 54.8461H80.7016L82.8603 49.0263ZM82.7042 48.7925L80.3635 55.0799H87.1515L89.4922 48.7925H82.7042Z" fill="#DAD9DB"/>
<path d="M90.2982 49.0524H96.5921L94.4335 54.8722H88.1396L90.2982 49.0524ZM90.1422 48.8186L87.8015 55.106H94.5895L96.9302 48.8186H90.1422Z" fill="#DAD9DB"/>
<path d="M97.7365 49.0524H104.03L101.872 54.8722H95.5778L97.7365 49.0524ZM97.5804 48.8186L95.2397 55.106H102.028L104.368 48.8186H97.5804Z" fill="#DAD9DB"/>
<path d="M105.175 49.0523H111.469L109.31 54.8721H103.016L105.175 49.0523ZM105.019 48.8445L102.678 55.1319H109.466L111.807 48.8445H105.019Z" fill="#DAD9DB"/>
<path d="M57.3727 58.0417H63.6665L61.5079 63.8614H55.2141L57.3727 58.0417ZM57.2167 57.8079L54.876 64.0953H61.664L64.0046 57.8079H57.2167Z" fill="#DAD9DB"/>
<path d="M64.7588 58.0417H71.0527L68.894 63.8614H62.6002L64.7588 58.0417ZM64.5768 57.8079L62.2361 64.0953H69.0241L71.3648 57.8079H64.5768Z" fill="#DAD9DB"/>
<path d="M72.119 58.0676H78.4129L76.2543 63.8873H69.9604L72.119 58.0676ZM71.963 57.8337L69.6223 64.1212H76.4103L78.751 57.8337H71.963Z" fill="#DAD9DB"/>
<path d="M79.4792 58.0676H85.773L83.6144 63.8873H77.3205L79.4792 58.0676ZM79.3231 57.8337L76.9824 64.1212H83.7704L86.1111 57.8337H79.3231Z" fill="#DAD9DB"/>
<path d="M86.9434 58.0676H93.2372L91.0786 63.8873H84.7848L86.9434 58.0676ZM86.7613 57.8337L84.4207 64.1212H91.2086L93.5493 57.8337H86.7613Z" fill="#DAD9DB"/>
<path d="M94.3816 58.0937H100.675L98.5168 63.9134H92.223L94.3816 58.0937ZM94.1996 57.8599L91.8589 64.1473H98.6469L100.988 57.8599H94.1996Z" fill="#DAD9DB"/>
<path d="M101.82 58.0937H108.113L105.955 63.9134H99.661L101.82 58.0937ZM101.638 57.8599L99.2969 64.1473H106.085L108.426 57.8599H101.638Z" fill="#DAD9DB"/>
<path opacity="0.74" d="M91.2086 64.1471L84.4207 64.1212L86.7613 57.8337L93.5493 57.8597L91.2086 64.1471Z" fill="#FF4F68"/>
<path d="M54.0177 67.0832H60.3116L58.1529 72.903H51.8591L54.0177 67.0832ZM53.8617 66.8494L51.521 73.1368H58.309L60.6497 66.8494H53.8617Z" fill="#DAD9DB"/>
<path d="M61.3778 67.0832H67.6717L65.513 72.903H59.2192L61.3778 67.0832ZM61.2218 66.8494L58.8811 73.1368H65.6691L68.0098 66.8494H61.2218Z" fill="#DAD9DB"/>
<path d="M68.7639 67.0832H75.0578L72.8992 72.903H66.6053L68.7639 67.0832ZM68.5819 66.8494L66.2412 73.1368H73.0292L75.3699 66.8494H68.5819Z" fill="#DAD9DB"/>
<path d="M76.1242 67.1091H82.418L80.2594 72.9288H73.9655L76.1242 67.1091ZM75.9681 66.8752L73.6274 73.1627H80.4154L82.7561 66.8752H75.9681Z" fill="#DAD9DB"/>
<path d="M91.0006 67.1091H97.2945L95.1358 72.9288H88.842L91.0006 67.1091ZM90.8446 66.8752L88.5039 73.1627H95.2919L97.6326 66.8752H90.8446Z" fill="#DAD9DB"/>
<path d="M98.4386 67.1352H104.732L102.574 72.9549H96.28L98.4386 67.1352ZM98.2826 66.9014L95.9419 73.1888H102.73L105.071 66.9014H98.2826Z" fill="#DAD9DB"/>
<path d="M83.5624 67.1091H89.8562L87.6976 72.9288H81.4038L83.5624 67.1091ZM83.4064 66.8752L81.0657 73.1627H87.8537L90.1943 66.8752H83.4064Z" fill="#DAD9DB"/>
<path d="M44.1868 83.2953C44.1868 83.2953 56.7745 79.9437 59.4013 80.6712C62.028 81.3987 62.0281 84.5684 58.6731 87.5822C55.3181 90.596 51.0268 93.7916 45.6173 94.2593C40.2077 94.727 35.1882 94.1814 33.0296 89.8945C30.8969 85.6076 44.1868 83.2953 44.1868 83.2953Z" fill="#84A6CE"/>
<path d="M38.6474 82.9058C38.6474 82.9058 31.6253 75.8909 26.0337 74.0202C24.2132 73.4227 21.5864 75.0335 23.1469 80.8792C24.6813 86.621 31.8594 93.3242 36.8789 93.48C41.8723 93.6359 38.6474 82.9058 38.6474 82.9058Z" fill="#84A6CE"/>
<path d="M61.6121 72.0456C61.6121 72.0456 61.7941 72.0715 62.1062 72.0456C62.7044 71.9936 63.8747 71.0843 64.2388 70.4607C65.7993 67.8107 68.6081 66.2258 67.9059 67.4469C66.6835 69.5774 68.166 69.5514 69.6224 68.1744C71.0788 66.7974 72.7693 68.1484 71.729 70.2529C70.6887 72.3573 68.7641 72.6171 67.5678 72.7471C66.3714 72.877 63.6146 74.176 63.6146 74.176" fill="#FC9E86"/>
<path d="M44.395 61.2374C44.395 61.2374 43.4067 64.1992 43.7968 66.1738C44.1869 68.1483 39.9997 66.8493 39.9997 66.8493L38.6993 66.6154L38.3872 62.3546C38.3872 62.3546 40.2337 61.0555 39.8176 57.2882C39.3755 53.573 44.395 61.2374 44.395 61.2374Z" fill="#FC9E86"/>
<path opacity="0.4" d="M46.9697 91.9731C43.4587 92.5187 39.0634 91.3495 36.6707 90.3363C36.6447 90.3363 36.6967 90.3363 36.6707 90.3363C31.6772 90.1804 25.1493 86.0494 22.6786 77.2158C22.6266 78.1771 22.7306 79.3982 23.1468 80.8791C24.6812 86.621 31.8593 93.3241 36.8788 93.48C36.9048 93.48 36.9568 93.48 36.9828 93.48C39.4015 94.4672 42.4444 94.5452 45.6433 94.2854C51.0529 93.8177 55.3702 90.622 58.6992 87.6082C59.5314 86.8548 60.1816 86.0754 60.5977 85.3219C56.7746 88.9852 51.8331 91.2196 46.9697 91.9731Z" fill="#84A6CE"/>
<path d="M38.3872 62.3806C38.3872 62.3806 39.0114 64.537 41.9762 64.4591C44.9411 64.3812 45.7993 65.2645 45.8774 65.5763C45.9554 65.8881 46.9957 70.8245 46.8397 73.6044C46.6836 76.3844 48.114 82.386 48.114 82.386C48.114 82.386 44.3169 84.4905 42.7044 86.9587C40.3638 90.596 33.3937 91.5054 28.9984 88.9592L27.49 87.6082C27.49 87.6082 29.4926 82.9836 29.9607 79.5021C30.4028 75.9687 32.7955 68.1744 38.3872 62.3806Z" fill="#FF4F68"/>
<path d="M44.4469 74.0201L42.1062 73.9421L47.4118 79.1384L46.7616 75.1632L44.4469 74.0201Z" fill="#FF4F68"/>
<path d="M42.3663 67.6547L43.6927 64.511C43.6927 64.511 45.2531 64.3551 48.166 67.239C51.0528 70.1229 55.11 72.9289 55.11 72.9289L63.3804 70.1229L65.6171 73.7603C65.6171 73.7603 60.4155 78.0471 55.214 78.6447C50.0125 79.2163 42.1582 73.9421 42.1582 73.9421L42.3663 67.6547Z" fill="#FF4F68"/>
<path d="M43.0686 60.8218L41.7422 61.7571C41.7422 61.7571 42.4444 63.4199 43.7968 63.8616L44.2389 62.0689L43.1986 61.0556" fill="#FC9E86"/>
<path d="M43.8227 52.196C45.8253 51.8583 47.2557 52.1441 48.4 54.4824C49.0762 55.8854 48.4781 57.3663 49.0762 58.0938C49.4664 58.5874 49.7264 58.4835 49.5444 58.7693C49.3103 59.159 48.8162 59.2109 48.8162 59.2109C48.8162 59.2109 48.166 62.1208 46.3714 62.8223C43.0685 64.0954 40.3637 60.6659 40.1036 58.0938C39.9216 56.5868 39.1934 52.9755 43.8227 52.196Z" fill="#FC9E86"/>
<path d="M39.3848 54.0401C40.2481 53.1776 40.2481 51.7794 39.3848 50.917C38.5215 50.0545 37.1218 50.0545 36.2585 50.917C35.3952 51.7794 35.3952 53.1776 36.2585 54.0401C37.1218 54.9025 38.5215 54.9025 39.3848 54.0401Z" fill="#261F27"/>
<path d="M48.5043 55.158C49.7253 55.158 50.715 54.1693 50.715 52.9496C50.715 51.7299 49.7253 50.7412 48.5043 50.7412C47.2834 50.7412 46.2937 51.7299 46.2937 52.9496C46.2937 54.1693 47.2834 55.158 48.5043 55.158Z" fill="#261F27"/>
<path d="M48.6109 51.1392C48.8882 49.9513 48.149 48.7639 46.96 48.4869C45.771 48.2099 44.5823 48.9483 44.305 50.1361C44.0277 51.3239 44.7669 52.5114 45.9559 52.7884C47.145 53.0654 48.3336 52.327 48.6109 51.1392Z" fill="#261F27"/>
<path d="M44.7297 52.1968C45.593 51.3344 45.593 49.9361 44.7297 49.0737C43.8664 48.2113 42.4667 48.2113 41.6034 49.0737C40.7401 49.9361 40.7401 51.3344 41.6034 52.1968C42.4667 53.0592 43.8664 53.0592 44.7297 52.1968Z" fill="#261F27"/>
<path d="M41.6384 50.4813C41.6384 51.4686 40.8321 52.248 39.8698 52.248C38.9076 52.248 38.1013 51.4426 38.1013 50.4813C38.1013 49.52 38.9076 48.7146 39.8698 48.7146C40.8321 48.7146 41.6384 49.52 41.6384 50.4813Z" fill="#261F27"/>
<path d="M35.0324 59.4448C36.0092 59.4448 36.8009 58.6538 36.8009 57.6781C36.8009 56.7024 36.0092 55.9114 35.0324 55.9114C34.0557 55.9114 33.2639 56.7024 33.2639 57.6781C33.2639 58.6538 34.0557 59.4448 35.0324 59.4448Z" fill="#261F27"/>
<path d="M35.9946 56.405C36.9713 56.405 37.7631 55.614 37.7631 54.6383C37.7631 53.6626 36.9713 52.8716 35.9946 52.8716C35.0179 52.8716 34.2261 53.6626 34.2261 54.6383C34.2261 55.614 35.0179 56.405 35.9946 56.405Z" fill="#261F27"/>
<path d="M40.4421 59.5227C41.4188 59.5227 42.2106 58.7317 42.2106 57.756C42.2106 56.7802 41.4188 55.9893 40.4421 55.9893C39.4654 55.9893 38.6736 56.7802 38.6736 57.756C38.6736 58.7317 39.4654 59.5227 40.4421 59.5227Z" fill="#261F27"/>
<path d="M45.6955 55.2617C46.6722 55.2617 47.464 54.4707 47.464 53.495C47.464 52.5193 46.6722 51.7283 45.6955 51.7283C44.7188 51.7283 43.927 52.5193 43.927 53.495C43.927 54.4707 44.7188 55.2617 45.6955 55.2617Z" fill="#261F27"/>
<path d="M44.2329 54.782C45.1774 53.8384 45.1774 52.3086 44.2329 51.365C43.2883 50.4214 41.7569 50.4214 40.8123 51.365C39.8678 52.3086 39.8678 53.8384 40.8123 54.782C41.7569 55.7256 43.2883 55.7256 44.2329 54.782Z" fill="#261F27"/>
<path d="M44.0214 55.6667C44.2354 54.3494 43.3399 53.1083 42.0213 52.8945C40.7028 52.6808 39.4604 53.5753 39.2464 54.8925C39.0324 56.2098 39.9278 57.4509 41.2464 57.6647C42.565 57.8784 43.8074 56.9839 44.0214 55.6667Z" fill="#261F27"/>
<path d="M42.0541 54.4167C42.3611 53.118 41.5561 51.8167 40.2561 51.51C38.956 51.2033 37.6533 52.0075 37.3463 53.3062C37.0394 54.6049 37.8444 55.9063 39.1444 56.213C40.4444 56.5196 41.7471 55.7154 42.0541 54.4167Z" fill="#261F27"/>
<path d="M40.9823 56.883C41.1963 55.5658 40.3009 54.3246 38.9823 54.1108C37.6637 53.8971 36.4213 54.7916 36.2073 56.1088C35.9933 57.4261 36.8887 58.6672 38.2073 58.881C39.5259 59.0948 40.7683 58.2002 40.9823 56.883Z" fill="#261F27"/>
<path d="M35.2405 63.3679C36.5763 63.3679 37.6592 62.2861 37.6592 60.9516C37.6592 59.6172 36.5763 58.5354 35.2405 58.5354C33.9047 58.5354 32.8218 59.6172 32.8218 60.9516C32.8218 62.2861 33.9047 63.3679 35.2405 63.3679Z" fill="#261F27"/>
<path d="M39.3442 64.4104C40.2887 63.4668 40.2887 61.937 39.3442 60.9934C38.3996 60.0498 36.8682 60.0498 35.9236 60.9934C34.9791 61.937 34.9791 63.4668 35.9236 64.4104C36.8682 65.354 38.3996 65.354 39.3442 64.4104Z" fill="#261F27"/>
<path d="M37.4512 61.9389C38.787 61.9389 39.8699 60.8571 39.8699 59.5227C39.8699 58.1882 38.787 57.1064 37.4512 57.1064C36.1154 57.1064 35.0325 58.1882 35.0325 59.5227C35.0325 60.8571 36.1154 61.9389 37.4512 61.9389Z" fill="#261F27"/>
<path d="M40.7463 63.2109C41.9805 62.7002 42.5665 61.2868 42.0553 60.0539C41.5441 58.821 40.1292 58.2355 38.895 58.7462C37.6609 59.2569 37.0748 60.6704 37.586 61.9033C38.0973 63.1362 39.5122 63.7216 40.7463 63.2109Z" fill="#261F27"/>
<g opacity="0.25">
<path d="M40.0518 62.6924C38.9595 62.6924 38.0232 61.9649 37.7371 60.9517C37.7111 60.9517 37.6591 60.9517 37.6331 60.9517C36.3067 60.9517 35.2144 59.8604 35.2144 58.5354C35.2144 57.704 35.6305 57.0025 36.2547 56.5609C35.8906 56.2491 35.6825 55.7814 35.6825 55.2618C35.6825 54.3784 36.3587 53.625 37.2169 53.5211C36.8528 53.2093 36.6448 52.7416 36.6448 52.222C36.6448 51.3646 37.269 50.6372 38.0752 50.4813C38.0752 50.4293 38.0752 50.3514 38.0492 50.2994C37.9712 50.2994 37.8931 50.2734 37.8151 50.2734C36.5928 50.2734 35.6045 51.2607 35.6045 52.4818C35.6045 52.6377 35.6305 52.7676 35.6565 52.8975C34.8503 53.0534 34.2261 53.7809 34.2261 54.6383C34.2261 55.1579 34.4601 55.6255 34.7982 55.9373C33.94 56.0672 33.2638 56.7947 33.2638 57.678C33.2638 58.1977 33.4979 58.6653 33.836 58.9771C33.2118 59.4188 32.7957 60.1462 32.7957 60.9517C32.7957 62.2767 33.888 63.3679 35.2144 63.3679C35.2404 63.3679 35.2924 63.3679 35.3184 63.3679C35.6045 64.3811 36.5407 65.1086 37.6331 65.1086C38.7254 65.1086 39.6357 64.3811 39.9477 63.3939C41.0921 63.3419 42.0284 62.4845 42.2104 61.3673C41.8203 62.1468 41.0141 62.6924 40.0518 62.6924Z" fill="#261F27"/>
<path d="M50.5328 52.6897C50.1687 53.3912 49.4405 53.8848 48.5822 53.8848C48.0361 53.8848 47.5419 53.677 47.1518 53.3392C46.9177 53.625 46.5796 53.8588 46.1895 53.9368C45.9295 54.4564 45.4873 54.8461 44.9412 55.08C45.1752 55.1839 45.4093 55.2618 45.6954 55.2618C46.2415 55.2618 46.7357 55.002 47.0738 54.6123C47.4639 54.95 47.958 55.1579 48.5042 55.1579C49.7266 55.1579 50.7148 54.1706 50.7148 52.9495C50.7148 52.8716 50.6888 52.7936 50.6888 52.7157C50.6368 52.7157 50.5848 52.6897 50.5328 52.6897Z" fill="#261F27"/>
</g>
<path d="M102.6 11.7435L90.2205 5.87183L105.929 10.5744L102.6 11.7435Z" fill="#FF4F68"/>
<path d="M102.6 11.7436L101.378 15.1991L90.6106 5.97583L102.6 11.7436Z" fill="#FF4F68"/>
<path opacity="0.45" d="M102.6 11.7436L101.378 15.1991L90.6106 5.97583L102.6 11.7436Z" fill="#FF4F68"/>
<path d="M101.612 12.1073L101.378 15.199L90.2205 5.87183L101.612 12.1073Z" fill="#FF4F68"/>
<path opacity="0.2" d="M101.612 12.1073L101.378 15.199L90.2205 5.87183L101.612 12.1073Z" fill="#FF4F68"/>
<path d="M96.8004 13.6402L101.612 12.1073L90.2205 5.87183L96.8004 13.6402Z" fill="#FF4F68"/>
<path d="M146.371 51.2608C150.844 55.3138 155.37 64.8489 156.592 67.8627C157.294 69.6294 157.398 71.1363 156.748 72.3314C153.445 78.5409 131.807 73.4486 108.452 61.0037C85.097 48.5328 68.8422 33.4118 72.1452 27.2283C74.0177 23.7209 81.716 23.8248 92.2491 26.7866" stroke="#84A6CE" stroke-width="1.538" stroke-miterlimit="10" stroke-dasharray="7.69 7.69"/>
<path d="M103.484 15.7188C116.306 23.1493 133.263 34.633 144.654 48.7666" stroke="#84A6CE" stroke-width="1.538" stroke-miterlimit="10" stroke-dasharray="7.69 7.69"/>
</g>
<defs>
<clipPath id="clip0_948_30584">
<rect width="171" height="96" fill="white"/>
</clipPath>
</defs>
</svg>
