<svg width="59" height="58" viewBox="0 0 59 58" fill="none" xmlns="http://www.w3.org/2000/svg">
<g filter="url(#filter0_d_775_3920)">
<path d="M47.9829 0.86758H4V46.347H47.9829V0.86758Z" fill="#58595B"/>
<path d="M15.9703 50L13.0809 47.7626L10.1457 50V32.6027H15.9703V50Z" fill="#ED4B58"/>
<path d="M44.7266 0.86758H7.21043V43.516H44.7266V0.86758Z" fill="white"/>
<path d="M11.384 3.56164C11.384 4.20091 10.8795 4.7032 10.2374 4.7032C9.59532 4.7032 9.09083 4.20091 9.09083 3.56164C9.09083 2.92237 9.59532 2.42009 10.2374 2.42009C10.8336 2.42009 11.384 2.92237 11.384 3.56164Z" fill="#58595B"/>
<path d="M10.8795 3.51598C10.8795 3.88128 10.5585 4.20091 10.1915 4.20091C9.82464 4.20091 9.5036 3.88128 9.5036 3.51598V0.684932C9.5036 0.319635 9.82464 0 10.1915 0C10.6043 0 10.8795 0.319635 10.8795 0.684932V3.51598Z" fill="#E6E7E8"/>
<path d="M16.5665 3.56164C16.5665 4.20091 16.062 4.7032 15.42 4.7032C14.7779 4.7032 14.2734 4.20091 14.2734 3.56164C14.2734 2.92237 14.7779 2.42009 15.42 2.42009C16.0162 2.42009 16.5665 2.92237 16.5665 3.56164Z" fill="#58595B"/>
<path d="M16.062 3.51598C16.062 3.88128 15.741 4.20091 15.3741 4.20091C15.0072 4.20091 14.6862 3.88128 14.6862 3.51598V0.684932C14.6862 0.319635 15.0072 0 15.3741 0C15.741 0 16.062 0.319635 16.062 0.684932V3.51598Z" fill="#E6E7E8"/>
<path d="M21.7491 3.56164C21.7491 4.20091 21.2446 4.7032 20.6025 4.7032C19.9604 4.7032 19.4559 4.20091 19.4559 3.56164C19.4559 2.92237 19.9604 2.42009 20.6025 2.42009C21.1987 2.42009 21.7491 2.92237 21.7491 3.56164Z" fill="#58595B"/>
<path d="M21.2905 3.51598C21.2905 3.88128 20.9694 4.20091 20.6025 4.20091C20.2356 4.20091 19.9146 3.88128 19.9146 3.51598V0.684932C19.9146 0.319635 20.2356 0 20.6025 0C20.9694 0 21.2905 0.319635 21.2905 0.684932V3.51598Z" fill="#E6E7E8"/>
<path d="M26.9317 3.56164C26.9317 4.20091 26.4272 4.7032 25.7851 4.7032C25.143 4.7032 24.6385 4.20091 24.6385 3.56164C24.6385 2.92237 25.143 2.42009 25.7851 2.42009C26.4272 2.42009 26.9317 2.92237 26.9317 3.56164Z" fill="#58595B"/>
<path d="M26.473 3.51598C26.473 3.88128 26.152 4.20091 25.7851 4.20091C25.4182 4.20091 25.0971 3.88128 25.0971 3.51598V0.684932C25.0971 0.319635 25.3723 0 25.7851 0C26.152 0 26.473 0.319635 26.473 0.684932V3.51598Z" fill="#E6E7E8"/>
<path d="M32.1142 3.56164C32.1142 4.20091 31.6097 4.7032 30.9676 4.7032C30.3255 4.7032 29.821 4.20091 29.821 3.56164C29.821 2.92237 30.3255 2.42009 30.9676 2.42009C31.6097 2.42009 32.1142 2.92237 32.1142 3.56164Z" fill="#58595B"/>
<path d="M31.6556 3.51598C31.6556 3.88128 31.3345 4.20091 30.9676 4.20091C30.6007 4.20091 30.2797 3.88128 30.2797 3.51598V0.684932C30.2797 0.319635 30.6007 0 30.9676 0C31.3345 0 31.6556 0.319635 31.6556 0.684932V3.51598Z" fill="#E6E7E8"/>
<path d="M37.2968 3.56164C37.2968 4.20091 36.7923 4.7032 36.1502 4.7032C35.5081 4.7032 35.0036 4.20091 35.0036 3.56164C35.0036 2.92237 35.5081 2.42009 36.1502 2.42009C36.7923 2.42009 37.2968 2.92237 37.2968 3.56164Z" fill="#58595B"/>
<path d="M36.8381 3.51598C36.8381 3.88128 36.5171 4.20091 36.1502 4.20091C35.7833 4.20091 35.4622 3.88128 35.4622 3.51598V0.684932C35.4622 0.319635 35.7833 0 36.1502 0C36.5171 0 36.8381 0.319635 36.8381 0.684932V3.51598Z" fill="#E6E7E8"/>
<path d="M42.4793 3.56164C42.4793 4.20091 41.9748 4.7032 41.3327 4.7032C40.6907 4.7032 40.1862 4.20091 40.1862 3.56164C40.1862 2.92237 40.6907 2.42009 41.3327 2.42009C41.9748 2.42009 42.4793 2.92237 42.4793 3.56164Z" fill="#58595B"/>
<path d="M42.0207 3.51598C42.0207 3.88128 41.6996 4.20091 41.3327 4.20091C40.9658 4.20091 40.6448 3.88128 40.6448 3.51598V0.684932C40.6448 0.319635 40.9658 0 41.3327 0C41.6996 0 42.0207 0.319635 42.0207 0.684932V3.51598Z" fill="#E6E7E8"/>
<path d="M15.0531 8.85845H9.04496V14.8402H15.0531V8.85845Z" fill="#8DC63F"/>
<path d="M24.1799 8.85845H18.1718V14.8402H24.1799V8.85845Z" fill="#8DC63F"/>
<path d="M33.3525 8.85845H27.3444V14.8402H33.3525V8.85845Z" fill="#8DC63F"/>
<path d="M42.4793 8.85845H36.4712V14.8402H42.4793V8.85845Z" fill="#E6E7E8"/>
<path d="M15.0531 18.9498H9.04496V24.9315H15.0531V18.9498Z" fill="#E6E7E8"/>
<path d="M24.1799 18.9498H18.1718V24.9315H24.1799V18.9498Z" fill="#E6E7E8"/>
<path d="M33.3525 18.9498H27.3444V24.9315H33.3525V18.9498Z" fill="#E6E7E8"/>
<path d="M42.4793 18.9498H36.4712V24.9315H42.4793V18.9498Z" fill="#E6E7E8"/>
<path d="M15.0531 29.0411H9.04496V35.0228H15.0531V29.0411Z" fill="#E6E7E8"/>
<path d="M24.1799 29.0411H18.1718V35.0228H24.1799V29.0411Z" fill="#E6E7E8"/>
<path d="M33.3525 29.0411H27.3444V35.0228H33.3525V29.0411Z" fill="#E6E7E8"/>
<path d="M42.4793 29.0411H36.4712V35.0228H42.4793V29.0411Z" fill="#E6E7E8"/>
<path d="M12.9892 9.54338L11.5674 12.3744L11.1088 10.9589L9.04496 11.3699L11.5216 14.1553L14.7779 9.54338H12.9892Z" fill="white"/>
<path d="M52.6378 6.72423L50.9785 40.0632L52.8109 40.1536L54.4701 6.81462L52.6378 6.72423Z" fill="#58595B"/>
<path d="M51.8798 22.6104L51.7087 26.0309L53.541 26.1218L53.7122 22.7013L51.8798 22.6104Z" fill="#E6E7E8"/>
<path d="M52.6721 5.84332L52.3726 11.8635L54.2049 11.9538L54.5044 5.93366L52.6721 5.84332Z" fill="#58595B"/>
<path d="M50.964 40.0457L51.7437 42.8767L52.7986 40.137L50.964 40.0457Z" fill="#E6E7E8"/>
<path d="M52.0687 7.39567L51.85 11.774L54.7817 11.9191L55.0004 7.54083L52.0687 7.39567Z" fill="#58595B"/>
<path d="M51.5218 7.36797L51.3029 11.7463L53.3185 11.8462L53.5374 7.46789L51.5218 7.36797Z" fill="#58595B"/>
<path d="M50.9977 17.4366L50.779 21.8149L52.7946 21.9147L53.0133 17.5364L50.9977 17.4366Z" fill="#58595B"/>
<path d="M51.5312 7.39603L50.81 21.8079L51.4055 21.8375L52.1267 7.42557L51.5312 7.39603Z" fill="#58595B"/>
<path d="M52.0648 42.1005H51.5603L51.7437 42.8767L52.0648 42.1005Z" fill="#58595B"/>
</g>
<defs>
<filter id="filter0_d_775_3920" x="0" y="0" width="59.0004" height="58" filterUnits="userSpaceOnUse" color-interpolation-filters="sRGB">
<feFlood flood-opacity="0" result="BackgroundImageFix"/>
<feColorMatrix in="SourceAlpha" type="matrix" values="0 0 0 0 0 0 0 0 0 0 0 0 0 0 0 0 0 0 127 0" result="hardAlpha"/>
<feOffset dy="4"/>
<feGaussianBlur stdDeviation="2"/>
<feComposite in2="hardAlpha" operator="out"/>
<feColorMatrix type="matrix" values="0 0 0 0 0 0 0 0 0 0 0 0 0 0 0 0 0 0 0.25 0"/>
<feBlend mode="normal" in2="BackgroundImageFix" result="effect1_dropShadow_775_3920"/>
<feBlend mode="normal" in="SourceGraphic" in2="effect1_dropShadow_775_3920" result="shape"/>
</filter>
</defs>
</svg>
