<svg width="56" height="49" viewBox="0 0 56 49" fill="none" xmlns="http://www.w3.org/2000/svg">
<path d="M43 15C43 22.071 43 25.6066 40.8032 27.8032C38.6066 30 35.071 30 28 30C20.9289 30 17.3934 30 15.1967 27.8032C13 25.6066 13 22.071 13 15C13 7.92893 13 4.39339 15.1967 2.1967C17.3934 -2.14577e-07 20.9289 0 28 0C35.071 0 38.6066 -2.14577e-07 40.8032 2.1967C43 4.39339 43 7.92893 43 15Z" fill="#EB5757"/>
<path d="M20.5 22.125C19.8787 22.125 19.375 22.6287 19.375 23.25C19.375 23.8713 19.8787 24.375 20.5 24.375H29.5C30.1213 24.375 30.625 23.8713 30.625 23.25C30.625 22.6287 30.1213 22.125 29.5 22.125H20.5Z" fill="#FBBB83"/>
<path d="M20.5 16.875C19.8787 16.875 19.375 17.3787 19.375 18C19.375 18.6213 19.8787 19.125 20.5 19.125H34C34.6213 19.125 35.125 18.6213 35.125 18C35.125 17.3787 34.6213 16.875 34 16.875H20.5Z" fill="#FBBB83"/>
<path d="M43 4.5C43 6.98527 40.9853 9 38.5 9C36.0146 9 34 6.98527 34 4.5C34 2.01472 36.0146 0 38.5 0C40.9853 0 43 2.01472 43 4.5Z" fill="#FBBB83"/>
<path d="M1.46484 37.4688H2.77734L5.24414 44.0488L7.70508 37.4688H9.01758L5.75977 46H4.7168L1.46484 37.4688ZM0.867188 37.4688H2.11523L2.33203 43.1641V46H0.867188V37.4688ZM8.36719 37.4688H9.62109V46H8.15039V43.1641L8.36719 37.4688ZM14.0215 46.1172C13.5527 46.1172 13.1289 46.041 12.75 45.8887C12.375 45.7324 12.0547 45.5156 11.7891 45.2383C11.5273 44.9609 11.3262 44.6348 11.1855 44.2598C11.0449 43.8848 10.9746 43.4805 10.9746 43.0469V42.8125C10.9746 42.3164 11.0469 41.8672 11.1914 41.4648C11.3359 41.0625 11.5371 40.7188 11.7949 40.4336C12.0527 40.1445 12.3574 39.9238 12.709 39.7715C13.0605 39.6191 13.4414 39.543 13.8516 39.543C14.3047 39.543 14.7012 39.6191 15.041 39.7715C15.3809 39.9238 15.6621 40.1387 15.8848 40.416C16.1113 40.6895 16.2793 41.0156 16.3887 41.3945C16.502 41.7734 16.5586 42.1914 16.5586 42.6484V43.252H11.6602V42.2383H15.1641V42.127C15.1562 41.873 15.1055 41.6348 15.0117 41.4121C14.9219 41.1895 14.7832 41.0098 14.5957 40.873C14.4082 40.7363 14.1582 40.668 13.8457 40.668C13.6113 40.668 13.4023 40.7188 13.2188 40.8203C13.0391 40.918 12.8887 41.0605 12.7676 41.248C12.6465 41.4355 12.5527 41.6621 12.4863 41.9277C12.4238 42.1895 12.3926 42.4844 12.3926 42.8125V43.0469C12.3926 43.3242 12.4297 43.582 12.5039 43.8203C12.582 44.0547 12.6953 44.2598 12.8438 44.4355C12.9922 44.6113 13.1719 44.75 13.3828 44.8516C13.5938 44.9492 13.834 44.998 14.1035 44.998C14.4434 44.998 14.7461 44.9297 15.0117 44.793C15.2773 44.6562 15.5078 44.4629 15.7031 44.2129L16.4473 44.9336C16.3105 45.1328 16.1328 45.3242 15.9141 45.5078C15.6953 45.6875 15.4277 45.834 15.1113 45.9473C14.7988 46.0605 14.4355 46.1172 14.0215 46.1172ZM21.2168 44.2832C21.2168 44.1426 21.1816 44.0156 21.1113 43.9023C21.041 43.7852 20.9062 43.6797 20.707 43.5859C20.5117 43.4922 20.2227 43.4062 19.8398 43.3281C19.5039 43.2539 19.1953 43.166 18.9141 43.0645C18.6367 42.959 18.3984 42.832 18.1992 42.6836C18 42.5352 17.8457 42.3594 17.7363 42.1562C17.627 41.9531 17.5723 41.7188 17.5723 41.4531C17.5723 41.1953 17.6289 40.9512 17.7422 40.7207C17.8555 40.4902 18.0176 40.2871 18.2285 40.1113C18.4395 39.9355 18.6953 39.7969 18.9961 39.6953C19.3008 39.5938 19.6406 39.543 20.0156 39.543C20.5469 39.543 21.002 39.6328 21.3809 39.8125C21.7637 39.9883 22.0566 40.2285 22.2598 40.5332C22.4629 40.834 22.5645 41.1738 22.5645 41.5527H21.1523C21.1523 41.3848 21.1094 41.2285 21.0234 41.084C20.9414 40.9355 20.8164 40.8164 20.6484 40.7266C20.4805 40.6328 20.2695 40.5859 20.0156 40.5859C19.7734 40.5859 19.5723 40.625 19.4121 40.7031C19.2559 40.7773 19.1387 40.875 19.0605 40.9961C18.9863 41.1172 18.9492 41.25 18.9492 41.3945C18.9492 41.5 18.9688 41.5957 19.0078 41.6816C19.0508 41.7637 19.1211 41.8398 19.2188 41.9102C19.3164 41.9766 19.4492 42.0391 19.6172 42.0977C19.7891 42.1562 20.0039 42.2129 20.2617 42.2676C20.7461 42.3691 21.1621 42.5 21.5098 42.6602C21.8613 42.8164 22.1309 43.0195 22.3184 43.2695C22.5059 43.5156 22.5996 43.8281 22.5996 44.207C22.5996 44.4883 22.5391 44.7461 22.418 44.9805C22.3008 45.2109 22.1289 45.4121 21.9023 45.584C21.6758 45.752 21.4043 45.8828 21.0879 45.9766C20.7754 46.0703 20.4238 46.1172 20.0332 46.1172C19.459 46.1172 18.9727 46.0156 18.5742 45.8125C18.1758 45.6055 17.873 45.3418 17.666 45.0215C17.4629 44.6973 17.3613 44.3613 17.3613 44.0137H18.7266C18.7422 44.2754 18.8145 44.4844 18.9434 44.6406C19.0762 44.793 19.2402 44.9043 19.4355 44.9746C19.6348 45.041 19.8398 45.0742 20.0508 45.0742C20.3047 45.0742 20.5176 45.041 20.6895 44.9746C20.8613 44.9043 20.9922 44.8105 21.082 44.6934C21.1719 44.5723 21.2168 44.4355 21.2168 44.2832ZM27.3926 44.2832C27.3926 44.1426 27.3574 44.0156 27.2871 43.9023C27.2168 43.7852 27.082 43.6797 26.8828 43.5859C26.6875 43.4922 26.3984 43.4062 26.0156 43.3281C25.6797 43.2539 25.3711 43.166 25.0898 43.0645C24.8125 42.959 24.5742 42.832 24.375 42.6836C24.1758 42.5352 24.0215 42.3594 23.9121 42.1562C23.8027 41.9531 23.748 41.7188 23.748 41.4531C23.748 41.1953 23.8047 40.9512 23.918 40.7207C24.0312 40.4902 24.1934 40.2871 24.4043 40.1113C24.6152 39.9355 24.8711 39.7969 25.1719 39.6953C25.4766 39.5938 25.8164 39.543 26.1914 39.543C26.7227 39.543 27.1777 39.6328 27.5566 39.8125C27.9395 39.9883 28.2324 40.2285 28.4355 40.5332C28.6387 40.834 28.7402 41.1738 28.7402 41.5527H27.3281C27.3281 41.3848 27.2852 41.2285 27.1992 41.084C27.1172 40.9355 26.9922 40.8164 26.8242 40.7266C26.6562 40.6328 26.4453 40.5859 26.1914 40.5859C25.9492 40.5859 25.748 40.625 25.5879 40.7031C25.4316 40.7773 25.3145 40.875 25.2363 40.9961C25.1621 41.1172 25.125 41.25 25.125 41.3945C25.125 41.5 25.1445 41.5957 25.1836 41.6816C25.2266 41.7637 25.2969 41.8398 25.3945 41.9102C25.4922 41.9766 25.625 42.0391 25.793 42.0977C25.9648 42.1562 26.1797 42.2129 26.4375 42.2676C26.9219 42.3691 27.3379 42.5 27.6855 42.6602C28.0371 42.8164 28.3066 43.0195 28.4941 43.2695C28.6816 43.5156 28.7754 43.8281 28.7754 44.207C28.7754 44.4883 28.7148 44.7461 28.5938 44.9805C28.4766 45.2109 28.3047 45.4121 28.0781 45.584C27.8516 45.752 27.5801 45.8828 27.2637 45.9766C26.9512 46.0703 26.5996 46.1172 26.209 46.1172C25.6348 46.1172 25.1484 46.0156 24.75 45.8125C24.3516 45.6055 24.0488 45.3418 23.8418 45.0215C23.6387 44.6973 23.5371 44.3613 23.5371 44.0137H24.9023C24.918 44.2754 24.9902 44.4844 25.1191 44.6406C25.252 44.793 25.416 44.9043 25.6113 44.9746C25.8105 45.041 26.0156 45.0742 26.2266 45.0742C26.4805 45.0742 26.6934 45.041 26.8652 44.9746C27.0371 44.9043 27.168 44.8105 27.2578 44.6934C27.3477 44.5723 27.3926 44.4355 27.3926 44.2832ZM33.5859 44.7285V41.7051C33.5859 41.4785 33.5449 41.2832 33.4629 41.1191C33.3809 40.9551 33.2559 40.8281 33.0879 40.7383C32.9238 40.6484 32.7168 40.6035 32.4668 40.6035C32.2363 40.6035 32.0371 40.6426 31.8691 40.7207C31.7012 40.7988 31.5703 40.9043 31.4766 41.0371C31.3828 41.1699 31.3359 41.3203 31.3359 41.4883H29.9297C29.9297 41.2383 29.9902 40.9961 30.1113 40.7617C30.2324 40.5273 30.4082 40.3184 30.6387 40.1348C30.8691 39.9512 31.1445 39.8066 31.4648 39.7012C31.7852 39.5957 32.1445 39.543 32.543 39.543C33.0195 39.543 33.4414 39.623 33.8086 39.7832C34.1797 39.9434 34.4707 40.1855 34.6816 40.5098C34.8965 40.8301 35.0039 41.2324 35.0039 41.7168V44.5352C35.0039 44.8242 35.0234 45.084 35.0625 45.3145C35.1055 45.541 35.166 45.7383 35.2441 45.9062V46H33.7969C33.7305 45.8477 33.6777 45.6543 33.6387 45.4199C33.6035 45.1816 33.5859 44.9512 33.5859 44.7285ZM33.791 42.1445L33.8027 43.0176H32.7891C32.5273 43.0176 32.2969 43.043 32.0977 43.0938C31.8984 43.1406 31.7324 43.2109 31.5996 43.3047C31.4668 43.3984 31.3672 43.5117 31.3008 43.6445C31.2344 43.7773 31.2012 43.9277 31.2012 44.0957C31.2012 44.2637 31.2402 44.418 31.3184 44.5586C31.3965 44.6953 31.5098 44.8027 31.6582 44.8809C31.8105 44.959 31.9941 44.998 32.209 44.998C32.498 44.998 32.75 44.9395 32.9648 44.8223C33.1836 44.7012 33.3555 44.5547 33.4805 44.3828C33.6055 44.207 33.6719 44.041 33.6797 43.8848L34.1367 44.5117C34.0898 44.6719 34.0098 44.8438 33.8965 45.0273C33.7832 45.2109 33.6348 45.3867 33.4512 45.5547C33.2715 45.7188 33.0547 45.8535 32.8008 45.959C32.5508 46.0645 32.2617 46.1172 31.9336 46.1172C31.5195 46.1172 31.1504 46.0352 30.8262 45.8711C30.502 45.7031 30.248 45.4785 30.0645 45.1973C29.8809 44.9121 29.7891 44.5898 29.7891 44.2305C29.7891 43.8945 29.8516 43.5977 29.9766 43.3398C30.1055 43.0781 30.293 42.8594 30.5391 42.6836C30.7891 42.5078 31.0938 42.375 31.4531 42.2852C31.8125 42.1914 32.2227 42.1445 32.6836 42.1445H33.791ZM40.541 39.6602H41.8242V45.8242C41.8242 46.3945 41.7031 46.8789 41.4609 47.2773C41.2188 47.6758 40.8809 47.9785 40.4473 48.1855C40.0137 48.3965 39.5117 48.502 38.9414 48.502C38.6992 48.502 38.4297 48.4668 38.1328 48.3965C37.8398 48.3262 37.5547 48.2129 37.2773 48.0566C37.0039 47.9043 36.7754 47.7031 36.5918 47.4531L37.2539 46.6211C37.4805 46.8906 37.7305 47.0879 38.0039 47.2129C38.2773 47.3379 38.5645 47.4004 38.8652 47.4004C39.1895 47.4004 39.4648 47.3398 39.6914 47.2188C39.9219 47.1016 40.0996 46.9277 40.2246 46.6973C40.3496 46.4668 40.4121 46.1855 40.4121 45.8535V41.0957L40.541 39.6602ZM36.2344 42.9004V42.7773C36.2344 42.2969 36.293 41.8594 36.4102 41.4648C36.5273 41.0664 36.6953 40.7246 36.9141 40.4395C37.1328 40.1504 37.3984 39.9297 37.7109 39.7773C38.0234 39.6211 38.377 39.543 38.7715 39.543C39.1816 39.543 39.5312 39.6172 39.8203 39.7656C40.1133 39.9141 40.3574 40.127 40.5527 40.4043C40.748 40.6777 40.9004 41.0059 41.0098 41.3887C41.123 41.7676 41.207 42.1895 41.2617 42.6543V43.0469C41.2109 43.5 41.125 43.9141 41.0039 44.2891C40.8828 44.6641 40.7227 44.9883 40.5234 45.2617C40.3242 45.5352 40.0781 45.7461 39.7852 45.8945C39.4961 46.043 39.1543 46.1172 38.7598 46.1172C38.373 46.1172 38.0234 46.0371 37.7109 45.877C37.4023 45.7168 37.1367 45.4922 36.9141 45.2031C36.6953 44.9141 36.5273 44.5742 36.4102 44.1836C36.293 43.7891 36.2344 43.3613 36.2344 42.9004ZM37.6465 42.7773V42.9004C37.6465 43.1895 37.6738 43.459 37.7285 43.709C37.7871 43.959 37.875 44.1797 37.9922 44.3711C38.1133 44.5586 38.2656 44.707 38.4492 44.8164C38.6367 44.9219 38.8574 44.9746 39.1113 44.9746C39.4434 44.9746 39.7148 44.9043 39.9258 44.7637C40.1406 44.623 40.3047 44.4336 40.418 44.1953C40.5352 43.9531 40.6172 43.6836 40.6641 43.3867V42.3262C40.6406 42.0957 40.5918 41.8809 40.5176 41.6816C40.4473 41.4824 40.3516 41.3086 40.2305 41.1602C40.1094 41.0078 39.957 40.8906 39.7734 40.8086C39.5898 40.7227 39.373 40.6797 39.123 40.6797C38.8691 40.6797 38.6484 40.7344 38.4609 40.8438C38.2734 40.9531 38.1191 41.1035 37.998 41.2949C37.8809 41.4863 37.793 41.709 37.7344 41.9629C37.6758 42.2168 37.6465 42.4883 37.6465 42.7773ZM46.084 46.1172C45.6152 46.1172 45.1914 46.041 44.8125 45.8887C44.4375 45.7324 44.1172 45.5156 43.8516 45.2383C43.5898 44.9609 43.3887 44.6348 43.248 44.2598C43.1074 43.8848 43.0371 43.4805 43.0371 43.0469V42.8125C43.0371 42.3164 43.1094 41.8672 43.2539 41.4648C43.3984 41.0625 43.5996 40.7188 43.8574 40.4336C44.1152 40.1445 44.4199 39.9238 44.7715 39.7715C45.123 39.6191 45.5039 39.543 45.9141 39.543C46.3672 39.543 46.7637 39.6191 47.1035 39.7715C47.4434 39.9238 47.7246 40.1387 47.9473 40.416C48.1738 40.6895 48.3418 41.0156 48.4512 41.3945C48.5645 41.7734 48.6211 42.1914 48.6211 42.6484V43.252H43.7227V42.2383H47.2266V42.127C47.2188 41.873 47.168 41.6348 47.0742 41.4121C46.9844 41.1895 46.8457 41.0098 46.6582 40.873C46.4707 40.7363 46.2207 40.668 45.9082 40.668C45.6738 40.668 45.4648 40.7188 45.2812 40.8203C45.1016 40.918 44.9512 41.0605 44.8301 41.248C44.709 41.4355 44.6152 41.6621 44.5488 41.9277C44.4863 42.1895 44.4551 42.4844 44.4551 42.8125V43.0469C44.4551 43.3242 44.4922 43.582 44.5664 43.8203C44.6445 44.0547 44.7578 44.2598 44.9062 44.4355C45.0547 44.6113 45.2344 44.75 45.4453 44.8516C45.6562 44.9492 45.8965 44.998 46.166 44.998C46.5059 44.998 46.8086 44.9297 47.0742 44.793C47.3398 44.6562 47.5703 44.4629 47.7656 44.2129L48.5098 44.9336C48.373 45.1328 48.1953 45.3242 47.9766 45.5078C47.7578 45.6875 47.4902 45.834 47.1738 45.9473C46.8613 46.0605 46.498 46.1172 46.084 46.1172ZM53.2793 44.2832C53.2793 44.1426 53.2441 44.0156 53.1738 43.9023C53.1035 43.7852 52.9688 43.6797 52.7695 43.5859C52.5742 43.4922 52.2852 43.4062 51.9023 43.3281C51.5664 43.2539 51.2578 43.166 50.9766 43.0645C50.6992 42.959 50.4609 42.832 50.2617 42.6836C50.0625 42.5352 49.9082 42.3594 49.7988 42.1562C49.6895 41.9531 49.6348 41.7188 49.6348 41.4531C49.6348 41.1953 49.6914 40.9512 49.8047 40.7207C49.918 40.4902 50.0801 40.2871 50.291 40.1113C50.502 39.9355 50.7578 39.7969 51.0586 39.6953C51.3633 39.5938 51.7031 39.543 52.0781 39.543C52.6094 39.543 53.0645 39.6328 53.4434 39.8125C53.8262 39.9883 54.1191 40.2285 54.3223 40.5332C54.5254 40.834 54.627 41.1738 54.627 41.5527H53.2148C53.2148 41.3848 53.1719 41.2285 53.0859 41.084C53.0039 40.9355 52.8789 40.8164 52.7109 40.7266C52.543 40.6328 52.332 40.5859 52.0781 40.5859C51.8359 40.5859 51.6348 40.625 51.4746 40.7031C51.3184 40.7773 51.2012 40.875 51.123 40.9961C51.0488 41.1172 51.0117 41.25 51.0117 41.3945C51.0117 41.5 51.0312 41.5957 51.0703 41.6816C51.1133 41.7637 51.1836 41.8398 51.2812 41.9102C51.3789 41.9766 51.5117 42.0391 51.6797 42.0977C51.8516 42.1562 52.0664 42.2129 52.3242 42.2676C52.8086 42.3691 53.2246 42.5 53.5723 42.6602C53.9238 42.8164 54.1934 43.0195 54.3809 43.2695C54.5684 43.5156 54.6621 43.8281 54.6621 44.207C54.6621 44.4883 54.6016 44.7461 54.4805 44.9805C54.3633 45.2109 54.1914 45.4121 53.9648 45.584C53.7383 45.752 53.4668 45.8828 53.1504 45.9766C52.8379 46.0703 52.4863 46.1172 52.0957 46.1172C51.5215 46.1172 51.0352 46.0156 50.6367 45.8125C50.2383 45.6055 49.9355 45.3418 49.7285 45.0215C49.5254 44.6973 49.4238 44.3613 49.4238 44.0137H50.7891C50.8047 44.2754 50.877 44.4844 51.0059 44.6406C51.1387 44.793 51.3027 44.9043 51.498 44.9746C51.6973 45.041 51.9023 45.0742 52.1133 45.0742C52.3672 45.0742 52.5801 45.041 52.752 44.9746C52.9238 44.9043 53.0547 44.8105 53.1445 44.6934C53.2344 44.5723 53.2793 44.4355 53.2793 44.2832Z" fill="#333333"/>
</svg>
