<svg width="48" height="49" viewBox="0 0 48 49" fill="none" xmlns="http://www.w3.org/2000/svg">
<path d="M16.4114 0.00109863C17.0351 0.00109863 17.5408 0.487393 17.5408 1.08726V3.27827C18.5426 3.25958 19.6656 3.25958 20.929 3.25958H26.9527C28.2161 3.25958 29.3391 3.25958 30.3409 3.27827V1.08726C30.3409 0.487393 30.8465 0.00109863 31.4703 0.00109863C32.094 0.00109863 32.5998 0.487393 32.5998 1.08726V3.37437C34.7672 3.54128 36.1902 3.95093 37.2355 4.95627C38.2809 5.96162 38.7069 7.33003 38.8805 9.41449L39 10.5007H9.00126V9.41449C9.17482 7.33003 9.60078 5.96162 10.6462 4.95627C11.6916 3.95093 13.1145 3.54128 15.2819 3.37437V1.08726C15.2819 0.487393 15.7876 0.00109863 16.4114 0.00109863Z" fill="#FBBB83"/>
<path d="M38.9993 18.0005V15.0006C38.9993 13.742 38.9944 11.4985 38.9751 10.5007H9.01501C8.99565 11.4985 9.00055 13.742 9.00055 15.0006V18.0005C9.00055 23.6571 9.00055 26.4853 10.7578 28.2427C12.5151 30 15.3434 30 21.0001 30H26.9998C32.6565 30 35.4847 30 37.2421 28.2427C38.9992 26.4853 38.9993 23.6571 38.9993 18.0005Z" fill="#EB5757"/>
<path d="M33.0003 22.5002C33.0003 23.3286 32.3287 24.0001 31.5003 24.0001C30.6719 24.0001 30.0004 23.3286 30.0004 22.5002C30.0004 21.6717 30.6719 21.0002 31.5003 21.0002C32.3287 21.0002 33.0003 21.6717 33.0003 22.5002Z" fill="white"/>
<path d="M33.0003 16.5004C33.0003 17.3288 32.3287 18.0003 31.5003 18.0003C30.6719 18.0003 30.0004 17.3288 30.0004 16.5004C30.0004 15.672 30.6719 15.0005 31.5003 15.0005C32.3287 15.0005 33.0003 15.672 33.0003 16.5004Z" fill="white"/>
<path d="M25.5006 22.5002C25.5006 23.3286 24.829 24.0001 24.0006 24.0001C23.1722 24.0001 22.5007 23.3286 22.5007 22.5002C22.5007 21.6717 23.1722 21.0002 24.0006 21.0002C24.829 21.0002 25.5006 21.6717 25.5006 22.5002Z" fill="white"/>
<path d="M25.5006 16.5004C25.5006 17.3288 24.829 18.0003 24.0006 18.0003C23.1722 18.0003 22.5007 17.3288 22.5007 16.5004C22.5007 15.672 23.1722 15.0005 24.0006 15.0005C24.829 15.0005 25.5006 15.672 25.5006 16.5004Z" fill="white"/>
<path d="M18.0009 22.5002C18.0009 23.3286 17.3293 24.0001 16.5009 24.0001C15.6726 24.0001 15.001 23.3286 15.001 22.5002C15.001 21.6717 15.6726 21.0002 16.5009 21.0002C17.3293 21.0002 18.0009 21.6717 18.0009 22.5002Z" fill="white"/>
<path d="M18.0009 16.5004C18.0009 17.3288 17.3293 18.0003 16.5009 18.0003C15.6726 18.0003 15.001 17.3288 15.001 16.5004C15.001 15.672 15.6726 15.0005 16.5009 15.0005C17.3293 15.0005 18.0009 15.672 18.0009 16.5004Z" fill="white"/>
<path d="M5.90625 43.2227H7.37109C7.32422 43.7812 7.16797 44.2793 6.90234 44.7168C6.63672 45.1504 6.26367 45.4922 5.7832 45.7422C5.30273 45.9922 4.71875 46.1172 4.03125 46.1172C3.50391 46.1172 3.0293 46.0234 2.60742 45.8359C2.18555 45.6445 1.82422 45.375 1.52344 45.0273C1.22266 44.6758 0.992188 44.252 0.832031 43.7559C0.675781 43.2598 0.597656 42.7051 0.597656 42.0918V41.3828C0.597656 40.7695 0.677734 40.2148 0.837891 39.7188C1.00195 39.2227 1.23633 38.7988 1.54102 38.4473C1.8457 38.0918 2.21094 37.8203 2.63672 37.6328C3.06641 37.4453 3.54883 37.3516 4.08398 37.3516C4.76367 37.3516 5.33789 37.4766 5.80664 37.7266C6.27539 37.9766 6.63867 38.3223 6.89648 38.7637C7.1582 39.2051 7.31836 39.7109 7.37695 40.2812H5.91211C5.87305 39.9141 5.78711 39.5996 5.6543 39.3379C5.52539 39.0762 5.33398 38.877 5.08008 38.7402C4.82617 38.5996 4.49414 38.5293 4.08398 38.5293C3.74805 38.5293 3.45508 38.5918 3.20508 38.7168C2.95508 38.8418 2.74609 39.0254 2.57812 39.2676C2.41016 39.5098 2.2832 39.8086 2.19727 40.1641C2.11523 40.5156 2.07422 40.918 2.07422 41.3711V42.0918C2.07422 42.5215 2.11133 42.9121 2.18555 43.2637C2.26367 43.6113 2.38086 43.9102 2.53711 44.1602C2.69727 44.4102 2.90039 44.6035 3.14648 44.7402C3.39258 44.877 3.6875 44.9453 4.03125 44.9453C4.44922 44.9453 4.78711 44.8789 5.04492 44.7461C5.30664 44.6133 5.50391 44.4199 5.63672 44.166C5.77344 43.9082 5.86328 43.5938 5.90625 43.2227ZM12.1406 44.7285V41.7051C12.1406 41.4785 12.0996 41.2832 12.0176 41.1191C11.9355 40.9551 11.8105 40.8281 11.6426 40.7383C11.4785 40.6484 11.2715 40.6035 11.0215 40.6035C10.791 40.6035 10.5918 40.6426 10.4238 40.7207C10.2559 40.7988 10.125 40.9043 10.0312 41.0371C9.9375 41.1699 9.89062 41.3203 9.89062 41.4883H8.48438C8.48438 41.2383 8.54492 40.9961 8.66602 40.7617C8.78711 40.5273 8.96289 40.3184 9.19336 40.1348C9.42383 39.9512 9.69922 39.8066 10.0195 39.7012C10.3398 39.5957 10.6992 39.543 11.0977 39.543C11.5742 39.543 11.9961 39.623 12.3633 39.7832C12.7344 39.9434 13.0254 40.1855 13.2363 40.5098C13.4512 40.8301 13.5586 41.2324 13.5586 41.7168V44.5352C13.5586 44.8242 13.5781 45.084 13.6172 45.3145C13.6602 45.541 13.7207 45.7383 13.7988 45.9062V46H12.3516C12.2852 45.8477 12.2324 45.6543 12.1934 45.4199C12.1582 45.1816 12.1406 44.9512 12.1406 44.7285ZM12.3457 42.1445L12.3574 43.0176H11.3438C11.082 43.0176 10.8516 43.043 10.6523 43.0938C10.4531 43.1406 10.2871 43.2109 10.1543 43.3047C10.0215 43.3984 9.92188 43.5117 9.85547 43.6445C9.78906 43.7773 9.75586 43.9277 9.75586 44.0957C9.75586 44.2637 9.79492 44.418 9.87305 44.5586C9.95117 44.6953 10.0645 44.8027 10.2129 44.8809C10.3652 44.959 10.5488 44.998 10.7637 44.998C11.0527 44.998 11.3047 44.9395 11.5195 44.8223C11.7383 44.7012 11.9102 44.5547 12.0352 44.3828C12.1602 44.207 12.2266 44.041 12.2344 43.8848L12.6914 44.5117C12.6445 44.6719 12.5645 44.8438 12.4512 45.0273C12.3379 45.2109 12.1895 45.3867 12.0059 45.5547C11.8262 45.7188 11.6094 45.8535 11.3555 45.959C11.1055 46.0645 10.8164 46.1172 10.4883 46.1172C10.0742 46.1172 9.70508 46.0352 9.38086 45.8711C9.05664 45.7031 8.80273 45.4785 8.61914 45.1973C8.43555 44.9121 8.34375 44.5898 8.34375 44.2305C8.34375 43.8945 8.40625 43.5977 8.53125 43.3398C8.66016 43.0781 8.84766 42.8594 9.09375 42.6836C9.34375 42.5078 9.64844 42.375 10.0078 42.2852C10.3672 42.1914 10.7773 42.1445 11.2383 42.1445H12.3457ZM16.5469 37V46H15.1289V37H16.5469ZM20.8887 46.1172C20.4199 46.1172 19.9961 46.041 19.6172 45.8887C19.2422 45.7324 18.9219 45.5156 18.6562 45.2383C18.3945 44.9609 18.1934 44.6348 18.0527 44.2598C17.9121 43.8848 17.8418 43.4805 17.8418 43.0469V42.8125C17.8418 42.3164 17.9141 41.8672 18.0586 41.4648C18.2031 41.0625 18.4043 40.7188 18.6621 40.4336C18.9199 40.1445 19.2246 39.9238 19.5762 39.7715C19.9277 39.6191 20.3086 39.543 20.7188 39.543C21.1719 39.543 21.5684 39.6191 21.9082 39.7715C22.248 39.9238 22.5293 40.1387 22.752 40.416C22.9785 40.6895 23.1465 41.0156 23.2559 41.3945C23.3691 41.7734 23.4258 42.1914 23.4258 42.6484V43.252H18.5273V42.2383H22.0312V42.127C22.0234 41.873 21.9727 41.6348 21.8789 41.4121C21.7891 41.1895 21.6504 41.0098 21.4629 40.873C21.2754 40.7363 21.0254 40.668 20.7129 40.668C20.4785 40.668 20.2695 40.7188 20.0859 40.8203C19.9062 40.918 19.7559 41.0605 19.6348 41.248C19.5137 41.4355 19.4199 41.6621 19.3535 41.9277C19.291 42.1895 19.2598 42.4844 19.2598 42.8125V43.0469C19.2598 43.3242 19.2969 43.582 19.3711 43.8203C19.4492 44.0547 19.5625 44.2598 19.7109 44.4355C19.8594 44.6113 20.0391 44.75 20.25 44.8516C20.4609 44.9492 20.7012 44.998 20.9707 44.998C21.3105 44.998 21.6133 44.9297 21.8789 44.793C22.1445 44.6562 22.375 44.4629 22.5703 44.2129L23.3145 44.9336C23.1777 45.1328 23 45.3242 22.7812 45.5078C22.5625 45.6875 22.2949 45.834 21.9785 45.9473C21.666 46.0605 21.3027 46.1172 20.8887 46.1172ZM25.9277 41.0137V46H24.5156V39.6602H25.8457L25.9277 41.0137ZM25.6758 42.5957L25.2188 42.5898C25.2227 42.1406 25.2852 41.7285 25.4062 41.3535C25.5312 40.9785 25.7031 40.6562 25.9219 40.3867C26.1445 40.1172 26.4102 39.9102 26.7188 39.7656C27.0273 39.6172 27.3711 39.543 27.75 39.543C28.0547 39.543 28.3301 39.5859 28.5762 39.6719C28.8262 39.7539 29.0391 39.8887 29.2148 40.0762C29.3945 40.2637 29.5312 40.5078 29.625 40.8086C29.7188 41.1055 29.7656 41.4707 29.7656 41.9043V46H28.3477V41.8984C28.3477 41.5938 28.3027 41.3535 28.2129 41.1777C28.127 40.998 28 40.8711 27.832 40.7969C27.668 40.7188 27.4629 40.6797 27.2168 40.6797C26.9746 40.6797 26.7578 40.7305 26.5664 40.832C26.375 40.9336 26.2129 41.0723 26.0801 41.248C25.9512 41.4238 25.8516 41.627 25.7812 41.8574C25.7109 42.0879 25.6758 42.334 25.6758 42.5957ZM35.0742 44.6875V37H36.4922V46H35.209L35.0742 44.6875ZM30.9492 42.9004V42.7773C30.9492 42.2969 31.0059 41.8594 31.1191 41.4648C31.2324 41.0664 31.3965 40.7246 31.6113 40.4395C31.8262 40.1504 32.0879 39.9297 32.3965 39.7773C32.7051 39.6211 33.0527 39.543 33.4395 39.543C33.8223 39.543 34.1582 39.6172 34.4473 39.7656C34.7363 39.9141 34.9824 40.127 35.1855 40.4043C35.3887 40.6777 35.5508 41.0059 35.6719 41.3887C35.793 41.7676 35.8789 42.1895 35.9297 42.6543V43.0469C35.8789 43.5 35.793 43.9141 35.6719 44.2891C35.5508 44.6641 35.3887 44.9883 35.1855 45.2617C34.9824 45.5352 34.7344 45.7461 34.4414 45.8945C34.1523 46.043 33.8145 46.1172 33.4277 46.1172C33.0449 46.1172 32.6992 46.0371 32.3906 45.877C32.0859 45.7168 31.8262 45.4922 31.6113 45.2031C31.3965 44.9141 31.2324 44.5742 31.1191 44.1836C31.0059 43.7891 30.9492 43.3613 30.9492 42.9004ZM32.3613 42.7773V42.9004C32.3613 43.1895 32.3867 43.459 32.4375 43.709C32.4922 43.959 32.5762 44.1797 32.6895 44.3711C32.8027 44.5586 32.9492 44.707 33.1289 44.8164C33.3125 44.9219 33.5312 44.9746 33.7852 44.9746C34.1055 44.9746 34.3691 44.9043 34.5762 44.7637C34.7832 44.623 34.9453 44.4336 35.0625 44.1953C35.1836 43.9531 35.2656 43.6836 35.3086 43.3867V42.3262C35.2852 42.0957 35.2363 41.8809 35.1621 41.6816C35.0918 41.4824 34.9961 41.3086 34.875 41.1602C34.7539 41.0078 34.6035 40.8906 34.4238 40.8086C34.248 40.7227 34.0391 40.6797 33.7969 40.6797C33.5391 40.6797 33.3203 40.7344 33.1406 40.8438C32.9609 40.9531 32.8125 41.1035 32.6953 41.2949C32.582 41.4863 32.498 41.709 32.4434 41.9629C32.3887 42.2168 32.3613 42.4883 32.3613 42.7773ZM41.543 44.7285V41.7051C41.543 41.4785 41.502 41.2832 41.4199 41.1191C41.3379 40.9551 41.2129 40.8281 41.0449 40.7383C40.8809 40.6484 40.6738 40.6035 40.4238 40.6035C40.1934 40.6035 39.9941 40.6426 39.8262 40.7207C39.6582 40.7988 39.5273 40.9043 39.4336 41.0371C39.3398 41.1699 39.293 41.3203 39.293 41.4883H37.8867C37.8867 41.2383 37.9473 40.9961 38.0684 40.7617C38.1895 40.5273 38.3652 40.3184 38.5957 40.1348C38.8262 39.9512 39.1016 39.8066 39.4219 39.7012C39.7422 39.5957 40.1016 39.543 40.5 39.543C40.9766 39.543 41.3984 39.623 41.7656 39.7832C42.1367 39.9434 42.4277 40.1855 42.6387 40.5098C42.8535 40.8301 42.9609 41.2324 42.9609 41.7168V44.5352C42.9609 44.8242 42.9805 45.084 43.0195 45.3145C43.0625 45.541 43.123 45.7383 43.2012 45.9062V46H41.7539C41.6875 45.8477 41.6348 45.6543 41.5957 45.4199C41.5605 45.1816 41.543 44.9512 41.543 44.7285ZM41.748 42.1445L41.7598 43.0176H40.7461C40.4844 43.0176 40.2539 43.043 40.0547 43.0938C39.8555 43.1406 39.6895 43.2109 39.5566 43.3047C39.4238 43.3984 39.3242 43.5117 39.2578 43.6445C39.1914 43.7773 39.1582 43.9277 39.1582 44.0957C39.1582 44.2637 39.1973 44.418 39.2754 44.5586C39.3535 44.6953 39.4668 44.8027 39.6152 44.8809C39.7676 44.959 39.9512 44.998 40.166 44.998C40.4551 44.998 40.707 44.9395 40.9219 44.8223C41.1406 44.7012 41.3125 44.5547 41.4375 44.3828C41.5625 44.207 41.6289 44.041 41.6367 43.8848L42.0938 44.5117C42.0469 44.6719 41.9668 44.8438 41.8535 45.0273C41.7402 45.2109 41.5918 45.3867 41.4082 45.5547C41.2285 45.7188 41.0117 45.8535 40.7578 45.959C40.5078 46.0645 40.2188 46.1172 39.8906 46.1172C39.4766 46.1172 39.1074 46.0352 38.7832 45.8711C38.459 45.7031 38.2051 45.4785 38.0215 45.1973C37.8379 44.9121 37.7461 44.5898 37.7461 44.2305C37.7461 43.8945 37.8086 43.5977 37.9336 43.3398C38.0625 43.0781 38.25 42.8594 38.4961 42.6836C38.7461 42.5078 39.0508 42.375 39.4102 42.2852C39.7695 42.1914 40.1797 42.1445 40.6406 42.1445H41.748ZM45.8555 40.8672V46H44.4434V39.6602H45.791L45.8555 40.8672ZM47.7949 39.6191L47.7832 40.9316C47.6973 40.916 47.6035 40.9043 47.502 40.8965C47.4043 40.8887 47.3066 40.8848 47.209 40.8848C46.9668 40.8848 46.7539 40.9199 46.5703 40.9902C46.3867 41.0566 46.2324 41.1543 46.1074 41.2832C45.9863 41.4082 45.8926 41.5605 45.8262 41.7402C45.7598 41.9199 45.7207 42.1211 45.709 42.3438L45.3867 42.3672C45.3867 41.9688 45.4258 41.5996 45.5039 41.2598C45.582 40.9199 45.6992 40.6211 45.8555 40.3633C46.0156 40.1055 46.2148 39.9043 46.4531 39.7598C46.6953 39.6152 46.9746 39.543 47.291 39.543C47.377 39.543 47.4688 39.5508 47.5664 39.5664C47.668 39.582 47.7441 39.5996 47.7949 39.6191Z" fill="#333333"/>
</svg>
