<svg width="67" height="68" viewBox="0 0 67 68" fill="none" xmlns="http://www.w3.org/2000/svg">
<rect x="16.0002" y="2.22205" width="50" height="53" rx="10" fill="url(#paint0_linear_3465_109616)"/>
<g filter="url(#filter0_d_3465_109616)">
<path d="M36.6197 53.1278C35.163 54.7851 35.8268 56.7774 37.7998 57.2535L45.1385 59.0871C47.1115 59.5631 47.9229 58.8579 48.7711 55.7724C52.3114 42.7606 55.7595 30.1544 55.7595 30.1544C56.6261 28.4441 55.6857 26.6281 53.9893 25.7289L48.6051 22.714C47.0193 21.8325 44.5301 22.6787 44.3457 24.9532C44.3457 24.9355 43.5343 45.2995 36.6197 53.1278Z" fill="white"/>
<path d="M41.5245 42.9362C44.1428 33.3273 44.3457 24.9348 44.3457 24.9348C44.5301 22.6604 47.0193 21.8317 48.6051 22.6957L53.9893 25.7106C55.6857 26.6098 56.6261 28.4258 55.7595 30.136C55.7595 30.136 54.0078 36.8182 51.5922 45.4222C48.5313 44.6641 45.0464 43.8002 41.5245 42.9362Z" fill="#CACCCC"/>
<path d="M18.8814 2.40285C27.7875 16.878 41.0821 21.5679 41.0821 21.5679C49.9328 23.7718 56.6816 25.3057 61.2545 26.5752C61.2729 26.5752 61.2729 26.5752 61.2913 26.5928L57.4744 40.6448C57.456 40.6448 57.456 40.6448 57.4376 40.6448C53.0306 39.5341 47.3514 38.1412 37.2652 35.6376C37.2652 35.6376 21.5735 36.3076 8.1498 42.4256C6.69311 43.0956 4.14851 41.6146 4.94139 38.7054L14.29 4.30702C15.0829 1.41551 18.07 1.08052 18.8814 2.40285Z" fill="white"/>
<path d="M10.9524 32.1112C24.376 25.9932 38.3344 31.6881 38.3344 31.6881C48.4206 34.1917 54.0815 35.6022 58.5068 36.6953C58.5253 36.6953 58.5253 36.6953 58.5437 36.6953L57.4744 40.6448C57.456 40.6448 57.456 40.6448 57.4376 40.6448C53.0306 39.5341 47.3514 38.1412 37.2652 35.6376C37.2652 35.6376 21.5735 36.3076 8.1498 42.4256C6.69311 43.0956 4.14851 41.6146 4.94139 38.7054L7.74395 28.391C6.95107 31.3002 9.49567 32.7812 10.9524 32.1112Z" fill="#CACCCC"/>
<path d="M37.0807 36.3076C36.9332 36.8542 37.2835 37.4184 37.8551 37.5594L55.9439 42.0554C56.5155 42.1964 57.6956 41.5264 58.2672 41.0857C62.7848 37.63 63.8543 31.0712 62.3792 26.346C62.2132 25.7994 61.2359 24.865 60.6643 24.7239L42.5755 20.228C42.0039 20.087 41.4139 20.4219 41.2664 20.9685L37.0807 36.3076Z" fill="#15446E"/>
<path d="M39.6806 30.8773L57.7694 35.3732C58.341 35.5143 59.5211 34.8443 60.0927 34.4035C61.3097 33.4867 62.2685 32.323 62.9877 31.0536C62.877 34.7914 61.4019 38.6878 58.2672 41.0857C57.6956 41.5088 56.5155 42.1964 55.9439 42.0554L37.8551 37.5594C37.2835 37.4184 36.9332 36.8542 37.0807 36.3076L38.9062 29.6255C38.7587 30.172 39.0906 30.7362 39.6806 30.8773Z" fill="#002A4C"/>
<path d="M18.2361 0.921482C19.1396 1.99698 20.9098 3.63668 20.5963 4.81797L10.547 41.72C10.0307 43.5889 7.61519 44.3999 6.30601 44.9112C5.10747 45.3696 3.41107 44.3118 4.20395 41.4203C4.84932 39.04 14.1426 4.88849 14.788 2.50829C15.5809 -0.400855 17.4248 -0.0482315 18.2361 0.921482Z" fill="#15446E"/>
<path d="M15.7096 0.727679C13.1097 10.2661 8.26024 28.0912 7.72551 30.0659C6.93263 32.9751 8.62902 34.0153 9.82757 33.5569C10.768 33.1866 12.3168 32.6577 13.2757 31.688L10.5467 41.7378C10.0304 43.6067 7.61488 44.4177 6.3057 44.929C5.10716 45.3874 3.41075 44.3295 4.20363 41.438C4.849 39.0578 14.1423 4.90626 14.7877 2.52606C15.0274 1.66213 15.3409 1.09793 15.7096 0.727679Z" fill="#002A4C"/>
</g>
<defs>
<filter id="filter0_d_3465_109616" x="0" y="0.222046" width="67" height="67.0004" filterUnits="userSpaceOnUse" color-interpolation-filters="sRGB">
<feFlood flood-opacity="0" result="BackgroundImageFix"/>
<feColorMatrix in="SourceAlpha" type="matrix" values="0 0 0 0 0 0 0 0 0 0 0 0 0 0 0 0 0 0 127 0" result="hardAlpha"/>
<feOffset dy="4"/>
<feGaussianBlur stdDeviation="2"/>
<feComposite in2="hardAlpha" operator="out"/>
<feColorMatrix type="matrix" values="0 0 0 0 0 0 0 0 0 0 0 0 0 0 0 0 0 0 0.25 0"/>
<feBlend mode="normal" in2="BackgroundImageFix" result="effect1_dropShadow_3465_109616"/>
<feBlend mode="normal" in="SourceGraphic" in2="effect1_dropShadow_3465_109616" result="shape"/>
</filter>
<linearGradient id="paint0_linear_3465_109616" x1="41.3626" y1="-71.8327" x2="41.3626" y2="90.7974" gradientUnits="userSpaceOnUse">
<stop stop-color="#EB5757"/>
<stop offset="1" stop-color="#F2994A"/>
</linearGradient>
</defs>
</svg>
