<svg width="68" height="71" viewBox="0 0 68 71" fill="none" xmlns="http://www.w3.org/2000/svg">
<rect x="15.1742" y="5.58813" width="50" height="53" rx="10" fill="url(#paint0_linear_3465_109622)"/>
<g filter="url(#filter0_d_3465_109622)">
<path d="M60.899 25.3257C56.9336 11.8483 42.7083 4.17626 29.1055 8.17859C15.5027 12.1809 7.69911 26.3345 11.6645 39.8118C13.7596 46.9325 18.73 52.4363 24.9754 55.4604L22.7904 59.4234C22.2052 60.4849 22.6065 61.849 23.6734 62.4244C24.7403 62.9998 26.1171 62.5947 26.7024 61.5332L29.1605 57.0748C33.6669 58.3576 38.5922 58.4202 43.4385 56.9943C48.2849 55.5684 52.3914 52.8483 55.485 49.3294L59.966 51.7461C61.0329 52.3215 62.4097 51.9164 62.9949 50.8549C63.5802 49.7934 63.1788 48.4293 62.1119 47.8539L58.1289 45.7057C61.8045 39.7923 63.0021 32.4736 60.899 25.3257ZM41.8205 51.3934C31.3293 54.4802 20.3402 48.5535 17.2819 38.1591C14.2235 27.7646 20.2518 16.8309 30.743 13.7441C41.2343 10.6573 52.2233 16.584 55.2816 26.9785C58.34 37.3729 52.3393 48.2985 41.8205 51.3934Z" fill="#0C4175"/>
<path d="M20.2558 37.2841C22.8325 46.0416 32.1145 51.0476 40.9536 48.4469C49.7926 45.8462 54.8845 36.611 52.3078 27.8535C49.731 19.0959 40.449 14.0899 31.61 16.6906C22.7709 19.2913 17.6791 28.5265 20.2558 37.2841ZM34.4165 22.7719L37.3705 32.8117L47.6299 38.5973C48.2069 38.9315 48.4236 39.6681 48.092 40.2696C47.7523 40.8438 47.0089 41.0626 46.4043 40.7365L35.7181 34.7207C35.4336 34.5673 35.2352 34.2996 35.1469 33.9995L32.0484 23.4686C31.8558 22.8138 32.2264 22.1416 32.8873 21.9471C33.5482 21.7527 34.2239 22.1171 34.4165 22.7719Z" fill="#82BFAB"/>
<path d="M17.2819 38.1591C20.3402 48.5535 31.3293 54.4802 41.8205 51.3934C52.3117 48.3066 58.34 37.3729 55.2816 26.9785C52.2233 16.584 41.2343 10.6573 30.743 13.7441C20.2518 16.8309 14.2235 27.7646 17.2819 38.1591ZM52.3353 27.8454C54.912 36.6029 49.8202 45.8381 40.9811 48.4388C32.142 51.0395 22.86 46.0335 20.2833 37.276C17.7066 28.5184 22.7984 19.2832 31.6375 16.6825C40.4766 14.0818 49.7586 19.0878 52.3353 27.8454Z" fill="white"/>
<path d="M32.8873 21.9471C32.2264 22.1416 31.8558 22.8138 32.0484 23.4686L35.1469 33.9995C35.2352 34.2996 35.4336 34.5673 35.7181 34.7207L46.4043 40.7365C46.9813 41.0707 47.7603 40.8711 48.092 40.2696C48.4317 39.6954 48.2345 38.9234 47.6299 38.5973L37.3705 32.8117L34.4165 22.7719C34.2239 22.1171 33.5482 21.7527 32.8873 21.9471Z" fill="black"/>
<path d="M40.351 1.75725C39.5706 3.1726 40.0924 4.94594 41.5149 5.71315L54.3532 12.6372C55.7758 13.4044 57.5656 12.8778 58.346 11.4624C59.1263 10.0471 58.6045 8.27373 57.182 7.50652L44.3712 0.574371C42.9487 -0.192837 41.1589 0.333786 40.351 1.75725Z" fill="#0C4175"/>
<path d="M12.1816 10.0455L5.13886 22.8191C4.35851 24.2344 4.88027 26.0078 6.3028 26.775C7.72533 27.5422 9.51517 27.0156 10.2955 25.6002L17.3382 12.8266C18.1186 11.4112 17.5968 9.63791 16.1743 8.8707C14.7518 8.10349 12.9619 8.63011 12.1816 10.0455Z" fill="#0C4175"/>
</g>
<defs>
<filter id="filter0_d_3465_109622" x="0.776489" y="0.222046" width="66.4879" height="70.4645" filterUnits="userSpaceOnUse" color-interpolation-filters="sRGB">
<feFlood flood-opacity="0" result="BackgroundImageFix"/>
<feColorMatrix in="SourceAlpha" type="matrix" values="0 0 0 0 0 0 0 0 0 0 0 0 0 0 0 0 0 0 127 0" result="hardAlpha"/>
<feOffset dy="4"/>
<feGaussianBlur stdDeviation="2"/>
<feComposite in2="hardAlpha" operator="out"/>
<feColorMatrix type="matrix" values="0 0 0 0 0 0 0 0 0 0 0 0 0 0 0 0 0 0 0.25 0"/>
<feBlend mode="normal" in2="BackgroundImageFix" result="effect1_dropShadow_3465_109622"/>
<feBlend mode="normal" in="SourceGraphic" in2="effect1_dropShadow_3465_109622" result="shape"/>
</filter>
<linearGradient id="paint0_linear_3465_109622" x1="40.5365" y1="-68.4667" x2="40.5365" y2="94.1635" gradientUnits="userSpaceOnUse">
<stop stop-color="#EB5757"/>
<stop offset="1" stop-color="#F2994A"/>
</linearGradient>
</defs>
</svg>
