<svg width="25" height="26" viewBox="0 0 25 26" fill="none" xmlns="http://www.w3.org/2000/svg">
<path d="M4.16663 10.8333L3.44579 11.5264L2.77934 10.8333L3.44579 10.1402L4.16663 10.8333ZM21.8333 19.5C21.8333 20.0523 21.3856 20.5 20.8333 20.5C20.281 20.5 19.8333 20.0523 19.8333 19.5L21.8333 19.5ZM8.65413 16.9431L3.44579 11.5264L4.88746 10.1402L10.0958 15.5569L8.65413 16.9431ZM3.44579 10.1402L8.65413 4.72356L10.0958 6.10978L4.88746 11.5264L3.44579 10.1402ZM4.16663 9.83333L14.8333 9.83333L14.8333 11.8333L4.16663 11.8333L4.16663 9.83333ZM21.8333 16.8333L21.8333 19.5L19.8333 19.5L19.8333 16.8333L21.8333 16.8333ZM14.8333 9.83333C18.6993 9.83333 21.8333 12.9673 21.8333 16.8333L19.8333 16.8333C19.8333 14.0719 17.5947 11.8333 14.8333 11.8333L14.8333 9.83333Z" fill="#33363F"/>
</svg>
