<svg width="153" height="94" viewBox="0 0 153 94" fill="none" xmlns="http://www.w3.org/2000/svg">
<g clip-path="url(#clip0_856_2739)">
<path d="M120.675 73.7829L0.849745 82.5163L-1.25581 64.1561L101.471 44.6705L120.675 73.7829Z" fill="black"/>
<path d="M27.0876 82.9745L49.065 81.2246L49.1284 74.1179L25.1848 78.3497L27.3685 83.988" fill="#010000"/>
<path d="M61.8378 75.7973C62.2614 79.4911 61.9308 82.8311 60.413 84.4361C59.9273 84.9871 56.9471 85.3288 56.2969 85.4034C53.6961 85.7017 51.5554 81.8746 50.9823 76.8771C50.4092 71.8797 52.0614 67.6176 54.608 67.3256C55.1499 67.2635 57.3172 67.0149 57.8423 67.2849C59.7861 68.4379 61.3955 71.9406 61.8378 75.7973Z" fill="#120B30"/>
<path d="M55.8759 85.5618C58.0006 85.3181 59.2683 81.1564 58.7075 76.2664C58.1468 71.3764 55.9698 67.6097 53.8451 67.8534C51.7204 68.097 50.4527 72.2587 51.0134 77.1488C51.5742 82.0388 53.7512 85.8054 55.8759 85.5618Z" fill="#251554"/>
<path d="M55.4027 81.4334C56.5697 81.2995 57.2676 79.0266 56.9614 76.3565C56.6552 73.6865 55.4609 71.6305 54.2938 71.7644C53.1268 71.8982 52.4289 74.1712 52.7351 76.8412C53.0413 79.5112 54.2356 81.5672 55.4027 81.4334Z" fill="#949797"/>
<path d="M56.4737 76.4125C56.7291 78.6397 56.1761 80.5192 55.2008 80.6311C54.2255 80.7429 53.2613 79.0374 53.0059 76.8102C52.7505 74.5831 53.3035 72.7035 54.2788 72.5917C55.2541 72.4798 56.2245 74.2397 56.4737 76.4125Z" fill="#585950"/>
<path d="M55.1604 76.453C55.2164 76.9419 55.1037 77.3951 54.887 77.42C54.6702 77.4448 54.4579 77.0289 54.4018 76.54C54.3457 76.0511 54.4584 75.5979 54.6752 75.5731C54.8377 75.5544 55.1043 75.9641 55.1604 76.453Z" fill="#251554"/>
<path d="M54.682 74.1964C54.738 74.6852 54.6795 75.1322 54.5711 75.1447C54.4627 75.1571 54.3045 74.735 54.2485 74.2461C54.1924 73.7572 54.2509 73.3102 54.3593 73.2978C54.4677 73.2853 54.6259 73.7075 54.682 74.1964Z" fill="#251554"/>
<path d="M55.1068 79.8162C55.2265 79.8024 55.2761 79.3779 55.2176 78.8679C55.1591 78.3579 55.0147 77.9556 54.895 77.9693C54.7753 77.983 54.7256 78.4076 54.7841 78.9176C54.8426 79.4276 54.9871 79.8299 55.1068 79.8162Z" fill="#251554"/>
<path d="M55.8125 76.8736C55.5957 76.8985 55.4082 76.6998 55.3833 76.4825C55.3522 76.2109 55.496 76.0293 55.7128 76.0045C55.9295 75.9796 56.117 76.1783 56.1419 76.3955C56.2272 76.6609 56.0292 76.8487 55.8125 76.8736Z" fill="#251554"/>
<path d="M53.7534 77.1097C53.5366 77.1345 53.3492 76.9359 53.3242 76.7186C53.2931 76.447 53.437 76.2654 53.6537 76.2406C53.8704 76.2157 54.0579 76.4143 54.0828 76.6316C54.1682 76.897 53.9701 77.0848 53.7534 77.1097Z" fill="#251554"/>
<path d="M55.5534 78.4442C55.3473 78.0826 55.2432 77.6542 55.2787 77.4851C55.3142 77.3159 55.5434 77.3997 55.7496 77.7613C55.9557 78.1229 56.0598 78.5512 56.0243 78.7204C55.9408 78.9501 55.7596 78.8058 55.5534 78.4442Z" fill="#251554"/>
<path d="M53.7106 75.2984C53.5045 74.9368 53.4005 74.5085 53.436 74.3393C53.4715 74.1701 53.7006 74.2539 53.9068 74.6155C54.113 74.9771 54.217 75.4055 54.1815 75.5746C54.1522 75.7981 53.9168 75.66 53.7106 75.2984Z" fill="#251554"/>
<path d="M54.022 78.0144C54.1409 77.6155 54.291 77.4882 54.4181 77.6388C54.4909 77.7955 54.4866 78.2363 54.3677 78.6352C54.2487 79.0341 54.0986 79.1613 53.9716 79.0108C53.8445 78.8603 53.8968 78.359 54.022 78.0144Z" fill="#251554"/>
<path d="M55.1051 74.5332C55.2241 74.1343 55.3742 74.007 55.5012 74.1576C55.5741 74.3143 55.5697 74.7551 55.4508 75.154C55.3319 75.5528 55.1818 75.6801 55.0547 75.5296C54.9756 75.3185 54.9799 74.8778 55.1051 74.5332Z" fill="#251554"/>
<path d="M56.6548 76.5569C57.0784 80.2506 56.7478 83.5906 55.23 85.1956C54.7443 85.7466 51.7642 86.0884 51.114 86.1629C48.5131 86.4612 46.3725 82.6341 45.7993 77.6367C45.2262 72.6392 46.8305 68.4377 49.4313 68.1394C49.9731 68.0773 52.1405 67.8288 52.6655 68.0987C54.5969 69.1431 56.2125 72.7001 56.6548 76.5569Z" fill="#120B30"/>
<path d="M50.6928 86.3213C52.8175 86.0776 54.0852 81.916 53.5244 77.0259C52.9636 72.1359 50.7867 68.3692 48.662 68.6129C46.5373 68.8566 45.2696 73.0182 45.8303 77.9083C46.3911 82.7983 48.5681 86.565 50.6928 86.3213Z" fill="#251554"/>
<path d="M50.2196 82.1929C51.3866 82.0591 52.0845 79.7861 51.7783 77.1161C51.4721 74.446 50.2778 72.3901 49.1107 72.5239C47.9437 72.6577 47.2458 74.9307 47.552 77.6007C47.8582 80.2708 49.0525 82.3267 50.2196 82.1929Z" fill="#949797"/>
<path d="M50.0177 81.3906C50.9753 81.2808 51.5452 79.3921 51.2906 77.1721C51.036 74.952 50.0533 73.2414 49.0957 73.3512C48.1381 73.461 47.5682 75.3497 47.8228 77.5697C48.0774 79.7898 49.0601 81.5004 50.0177 81.3906Z" fill="#585950"/>
<path d="M49.9778 77.2125C50.0338 77.7014 49.9211 78.1546 49.7044 78.1795C49.4876 78.2043 49.2752 77.7884 49.2192 77.2995C49.1631 76.8107 49.2758 76.3575 49.4926 76.3326C49.6551 76.314 49.9217 76.7237 49.9778 77.2125Z" fill="#251554"/>
<path d="M49.4993 74.9559C49.5554 75.4448 49.4969 75.8918 49.3885 75.9042C49.2801 75.9166 49.1219 75.4945 49.0659 75.0056C49.0098 74.5167 49.0683 74.0697 49.1767 74.0573C49.2851 74.0449 49.437 74.4127 49.4993 74.9559Z" fill="#251554"/>
<path d="M50.035 79.6274C50.091 80.1163 50.0325 80.5633 49.9241 80.5757C49.8158 80.5881 49.6576 80.166 49.6015 79.6771C49.5454 79.1882 49.604 78.7412 49.7123 78.7288C49.8207 78.7164 49.9789 79.1385 50.035 79.6274Z" fill="#251554"/>
<path d="M50.6298 77.6331C50.4131 77.658 50.2256 77.4593 50.2007 77.2421C50.1696 76.9705 50.3134 76.7889 50.5302 76.764C50.7469 76.7391 50.9344 76.9378 50.9593 77.1551C50.9842 77.3723 50.8466 77.6083 50.6298 77.6331Z" fill="#251554"/>
<path d="M48.5708 77.8692C48.354 77.8941 48.1665 77.6954 48.1416 77.4781C48.1105 77.2065 48.2544 77.0249 48.4711 77.0001C48.6878 76.9752 48.8753 77.1739 48.9002 77.3911C48.9793 77.6022 48.7875 77.8443 48.5708 77.8692Z" fill="#251554"/>
<path d="M50.3708 79.2037C50.1646 78.8421 50.0606 78.4138 50.0961 78.2446C50.1316 78.0754 50.3608 78.1592 50.567 78.5208C50.7731 78.8824 50.8771 79.3107 50.8416 79.4799C50.7582 79.7096 50.577 79.5653 50.3708 79.2037Z" fill="#251554"/>
<path d="M48.528 76.058C48.3219 75.6964 48.2178 75.268 48.2533 75.0988C48.2888 74.9297 48.518 75.0134 48.7242 75.375C48.9303 75.7366 49.0344 76.165 48.9989 76.3342C48.9696 76.5577 48.7342 76.4196 48.528 76.058Z" fill="#251554"/>
<path d="M48.8331 78.7196C48.9521 78.3207 49.1022 78.1934 49.2292 78.344C49.3021 78.5007 49.2978 78.9415 49.1788 79.3404C49.0599 79.7392 48.9098 79.8665 48.7827 79.716C48.7099 79.5593 48.7142 79.1185 48.8331 78.7196Z" fill="#251554"/>
<path d="M49.9162 75.2384C50.0351 74.8395 50.1852 74.7122 50.3122 74.8628C50.3851 75.0195 50.3808 75.4603 50.2618 75.8592C50.1429 76.258 49.9928 76.3853 49.8657 76.2348C49.7929 76.078 49.7972 75.6373 49.9162 75.2384Z" fill="#251554"/>
<path d="M97.6629 67.9466C98.3294 73.7589 97.0559 79.4084 93.9999 81.9603C92.9493 82.8512 89.8608 83.2054 88.5604 83.3546C83.4129 83.9449 79.2225 78.0414 78.3317 70.2736C77.4409 62.5058 80.8905 55.7262 86.0921 55.1297C87.23 54.9992 88.7888 54.7104 89.8264 55.1417C93.6748 56.6266 96.9652 61.8628 97.6629 67.9466Z" fill="#120B30"/>
<path d="M87.7603 83.5564C92.0395 83.0657 94.7973 76.4663 93.92 68.8162C93.0427 61.1662 88.8625 55.3624 84.5832 55.8531C80.304 56.3439 77.5462 62.9433 78.4235 70.5934C79.3008 78.2434 83.481 84.0472 87.7603 83.5564Z" fill="#251554"/>
<path d="M87.0187 77.0923C89.3528 76.8246 90.8573 73.2271 90.3791 69.0571C89.9009 64.8871 87.621 61.7236 85.2869 61.9913C82.9527 62.259 81.4482 65.8564 81.9264 70.0265C82.4047 74.1965 84.6845 77.36 87.0187 77.0923Z" fill="#D6FFFF"/>
<path d="M86.6586 75.8678C88.5738 75.6482 89.8028 72.649 89.4037 69.169C89.0047 65.689 87.1286 63.0459 85.2134 63.2655C83.2982 63.4852 82.0691 66.4843 82.4682 69.9644C82.8673 73.4444 84.7434 76.0875 86.6586 75.8678Z" fill="#55B5CA"/>
<path d="M86.7302 69.3105C86.8237 70.1253 86.5129 70.7663 86.0794 70.816C85.646 70.8657 85.1919 70.2574 85.1047 69.4969C85.0113 68.6821 85.322 68.0411 85.7555 67.9914C86.1827 67.8873 86.6368 68.4957 86.7302 69.3105Z" fill="#251554"/>
<path d="M85.8857 65.775C85.9792 66.5898 85.8852 67.206 85.6684 67.2309C85.4517 67.2557 85.2144 66.6225 85.1272 65.862C85.04 65.1015 85.1278 64.4311 85.3445 64.4062C85.555 64.327 85.7923 64.9602 85.8857 65.775Z" fill="#251554"/>
<path d="M86.7266 73.1083C86.82 73.9231 86.726 74.5393 86.5092 74.5641C86.2925 74.589 86.0552 73.9558 85.968 73.1953C85.8746 72.3805 85.9686 71.7643 86.1853 71.7395C86.3958 71.6603 86.6331 72.2935 86.7266 73.1083Z" fill="#251554"/>
<path d="M88.0636 69.928C87.6301 69.9777 87.2135 69.6953 87.1699 69.3151C87.1262 68.9348 87.4682 68.5654 87.9016 68.5157C88.3351 68.466 88.7518 68.7484 88.7954 69.1286C88.839 69.5089 88.4971 69.8783 88.0636 69.928Z" fill="#251554"/>
<path d="M83.9454 70.4003C83.512 70.45 83.0953 70.1676 83.0517 69.7873C83.0081 69.4071 83.35 69.0377 83.7835 68.988C84.2169 68.9383 84.6336 69.2207 84.6772 69.6009C84.7208 69.9812 84.3789 70.3506 83.9454 70.4003Z" fill="#251554"/>
<path d="M87.4704 72.4176C87.083 71.9117 86.8937 71.2179 87.0251 70.9277C87.1565 70.6375 87.5607 70.8112 87.9481 71.3172C88.3355 71.8231 88.5249 72.5168 88.3935 72.8071C88.2141 73.1578 87.8099 72.984 87.4704 72.4176Z" fill="#251554"/>
<path d="M83.9529 67.5928C83.5655 67.0868 83.3761 66.3931 83.5075 66.1029C83.6389 65.8126 84.0431 65.9864 84.4305 66.4923C84.8179 66.9983 85.0073 67.692 84.8759 67.9822C84.7445 68.2725 84.3403 68.0987 83.9529 67.5928Z" fill="#251554"/>
<path d="M84.433 71.7754C84.6958 71.1949 85.0439 70.8798 85.2438 71.1871C85.4375 71.44 85.4101 72.1586 85.1473 72.7391C84.8845 73.3196 84.5364 73.6347 84.3365 73.3274C84.1365 73.0201 84.1701 72.3559 84.433 71.7754Z" fill="#251554"/>
<path d="M86.7607 66.2251C87.0235 65.6446 87.3716 65.3295 87.5715 65.6368C87.7652 65.8898 87.7379 66.6084 87.4751 67.1889C87.2122 67.7693 86.8641 68.0844 86.6642 67.7772C86.4163 67.5304 86.4979 66.8056 86.7607 66.2251Z" fill="#251554"/>
<path d="M93.201 68.2932C93.8675 74.1055 92.594 79.755 89.538 82.3068C88.4874 83.1978 85.3989 83.552 84.0985 83.7011C78.951 84.2914 74.7606 78.388 73.8698 70.6202C72.979 62.8524 76.4285 56.0728 81.6302 55.4762C82.768 55.3457 84.3269 55.0569 85.3645 55.4883C89.1587 56.9794 92.5033 62.2093 93.201 68.2932Z" fill="#120B30"/>
<path d="M83.2441 83.9092C87.5234 83.4185 90.2812 76.8191 89.4039 69.169C88.5266 61.5189 84.3464 55.7152 80.0671 56.2059C75.7879 56.6967 73.03 63.2961 73.9074 70.9461C74.7847 78.5962 78.9649 84.4 83.2441 83.9092Z" fill="#251554"/>
<path d="M82.5089 77.4994C84.843 77.2317 86.3476 73.6343 85.8693 69.4642C85.3911 65.2942 83.1113 62.1307 80.7771 62.3984C78.443 62.6661 76.9385 66.2635 77.4167 70.4336C77.8949 74.6036 80.1748 77.7671 82.5089 77.4994Z" fill="#D6FFFF"/>
<path d="M82.203 76.2687C84.1182 76.0491 85.3473 73.0499 84.9482 69.5699C84.5491 66.0898 82.673 63.4468 80.7578 63.6664C78.8426 63.886 77.6136 66.8852 78.0127 70.3652C78.4117 73.8453 80.2878 76.4883 82.203 76.2687Z" fill="#55B5CA"/>
<path d="M81.6176 71.1626C82.0665 71.1111 82.3579 70.4371 82.2684 69.6571C82.179 68.8771 81.7426 68.2865 81.2937 68.3379C80.8448 68.3894 80.5535 69.0635 80.6429 69.8435C80.7324 70.6235 81.1688 71.2141 81.6176 71.1626Z" fill="#251554"/>
<path d="M81.4238 66.1216C81.5173 66.9364 81.4232 67.5526 81.2065 67.5774C80.9898 67.6023 80.7525 66.9691 80.6653 66.2086C80.578 65.4481 80.6658 64.7776 80.8826 64.7528C81.0931 64.6736 81.3304 65.3068 81.4238 66.1216Z" fill="#251554"/>
<path d="M82.2646 73.4548C82.3581 74.2696 82.2641 74.8858 82.0473 74.9107C81.8306 74.9355 81.5933 74.3023 81.5061 73.5418C81.4126 72.727 81.5067 72.1109 81.7234 72.086C81.9339 72.0068 82.1712 72.64 82.2646 73.4548Z" fill="#251554"/>
<path d="M83.608 70.3289C83.1746 70.3786 82.7579 70.0962 82.7143 69.7159C82.6707 69.3357 83.0126 68.9663 83.4461 68.9166C83.8795 68.8668 84.2962 69.1493 84.3398 69.5295C84.3292 69.916 84.0415 70.2792 83.608 70.3289Z" fill="#251554"/>
<path d="M79.4899 70.8012C79.0564 70.8509 78.6397 70.5685 78.5961 70.1882C78.5525 69.808 78.8944 69.4386 79.3279 69.3888C79.7614 69.3391 80.178 69.6216 80.2216 70.0018C80.2652 70.382 79.9233 70.7515 79.4899 70.8012Z" fill="#251554"/>
<path d="M82.9607 72.8247C82.5733 72.3188 82.3839 71.625 82.5153 71.3348C82.6467 71.0446 83.0509 71.2183 83.4383 71.7243C83.8257 72.2302 84.0151 72.9239 83.8837 73.2142C83.7523 73.5044 83.3481 73.3306 82.9607 72.8247Z" fill="#251554"/>
<path d="M79.491 67.9393C79.1036 67.4334 78.9142 66.7397 79.0456 66.4494C79.177 66.1592 79.5812 66.333 79.9686 66.8389C80.356 67.3448 80.5454 68.0385 80.414 68.3288C80.2826 68.619 79.8784 68.4452 79.491 67.9393Z" fill="#251554"/>
<path d="M79.971 72.1219C80.2338 71.5414 80.582 71.2263 80.7819 71.5336C80.9756 71.7866 80.9482 72.5052 80.6854 73.0857C80.4226 73.6661 80.0745 73.9812 79.8745 73.674C79.6808 73.421 79.7082 72.7024 79.971 72.1219Z" fill="#251554"/>
<path d="M82.2445 66.5779C82.5073 65.9974 82.8554 65.6823 83.0553 65.9896C83.249 66.2425 83.2217 66.9611 82.9589 67.5416C82.696 68.1221 82.3479 68.4372 82.148 68.1299C81.9543 67.8769 81.9879 67.2127 82.2445 66.5779Z" fill="#251554"/>
<path d="M31.7841 79.409C32.2077 83.1028 31.877 86.4428 30.3593 88.0478C29.8735 88.5988 26.8934 88.9405 26.2432 89.0151C23.6424 89.3134 21.5017 85.4863 20.9286 80.4888C20.3555 75.4914 22.0077 71.2293 24.5543 70.9373C25.0962 70.8752 27.2635 70.6266 27.7886 70.8966C29.7803 71.989 31.3418 75.5523 31.7841 79.409Z" fill="#120B30"/>
<path d="M25.8764 89.1672C28.0011 88.9236 29.2688 84.7619 28.708 79.8719C28.1472 74.9818 25.9703 71.2152 23.8456 71.4588C21.7209 71.7025 20.4531 75.8642 21.0139 80.7542C21.5747 85.6443 23.7517 89.4109 25.8764 89.1672Z" fill="#251554"/>
<path d="M25.4032 85.0388C26.5702 84.905 27.2681 82.632 26.9619 79.962C26.6557 77.292 25.4614 75.236 24.2943 75.3698C23.1273 75.5037 22.4294 77.7767 22.7356 80.4467C23.0418 83.1167 24.2361 85.1727 25.4032 85.0388Z" fill="#949797"/>
<path d="M25.2012 84.2365C26.1588 84.1267 26.7287 82.238 26.4742 80.018C26.2196 77.798 25.2369 76.0873 24.2793 76.1972C23.3217 76.307 22.7518 78.1957 23.0064 80.4157C23.261 82.6357 24.2437 84.3464 25.2012 84.2365Z" fill="#585950"/>
<path d="M25.1067 80.0646C25.1627 80.5535 25.05 81.0067 24.8333 81.0315C24.6165 81.0564 24.4042 80.6405 24.3481 80.1516C24.292 79.6627 24.4047 79.2095 24.6215 79.1847C24.8382 79.1598 25.0506 79.5757 25.1067 80.0646Z" fill="#251554"/>
<path d="M24.6282 77.8081C24.6843 78.2969 24.6258 78.7439 24.5174 78.7564C24.409 78.7688 24.2508 78.3467 24.1948 77.8578C24.1387 77.3689 24.1972 76.9219 24.3056 76.9095C24.4682 76.8908 24.5659 77.2649 24.6282 77.8081Z" fill="#251554"/>
<path d="M25.1639 82.4796C25.2199 82.9684 25.1614 83.4154 25.053 83.4279C24.9447 83.4403 24.7865 83.0182 24.7304 82.5293C24.6743 82.0404 24.7329 81.5934 24.8412 81.581C25.0038 81.5623 25.1078 81.9907 25.1639 82.4796Z" fill="#251554"/>
<path d="M25.8129 80.4791C25.5962 80.5039 25.4087 80.3053 25.3838 80.088C25.3527 79.8164 25.4965 79.6348 25.7133 79.6099C25.93 79.5851 26.1175 79.7837 26.1424 80.001C26.1673 80.2183 26.0297 80.4542 25.8129 80.4791Z" fill="#251554"/>
<path d="M23.7539 80.7152C23.5371 80.74 23.3497 80.5414 23.3247 80.3241C23.2936 80.0525 23.4375 79.8709 23.6542 79.846C23.8709 79.8212 24.0584 80.0198 24.0833 80.2371C24.1082 80.4544 23.9706 80.6903 23.7539 80.7152Z" fill="#251554"/>
<path d="M25.5539 82.0497C25.3477 81.6881 25.2437 81.2597 25.2792 81.0905C25.3147 80.9214 25.5439 81.0051 25.7501 81.3667C25.9562 81.7283 26.0602 82.1567 26.0247 82.3259C25.9413 82.5556 25.7059 82.4175 25.5539 82.0497Z" fill="#251554"/>
<path d="M23.7111 78.9039C23.505 78.5423 23.4009 78.114 23.4364 77.9448C23.4719 77.7756 23.7011 77.8594 23.9073 78.221C24.1134 78.5826 24.2175 79.0109 24.182 79.1801C24.0985 79.4098 23.9173 79.2655 23.7111 78.9039Z" fill="#251554"/>
<path d="M24.0163 81.5655C24.1352 81.1667 24.2853 81.0394 24.4123 81.1899C24.4852 81.3467 24.4809 81.7874 24.3619 82.1863C24.243 82.5852 24.0929 82.7125 23.9658 82.5619C23.893 82.4052 23.8973 81.9644 24.0163 81.5655Z" fill="#251554"/>
<path d="M25.0991 78.0842C25.2181 77.6853 25.3682 77.5581 25.4952 77.7086C25.5681 77.8653 25.5637 78.3061 25.4448 78.705C25.3259 79.1039 25.1758 79.2312 25.0487 79.0806C24.9216 78.9301 24.9802 78.4831 25.0991 78.0842Z" fill="#251554"/>
<path d="M27.3788 80.2445C27.8024 83.9383 27.4718 87.2783 25.954 88.8832C25.4683 89.4342 22.4882 89.776 21.838 89.8506C19.2371 90.1488 17.0965 86.3217 16.5233 81.3243C15.9502 76.3268 17.6024 72.0648 20.1491 71.7727C20.6909 71.7106 22.8583 71.4621 23.3833 71.732C25.3209 72.8307 26.9303 76.3334 27.3788 80.2445Z" fill="#120B30"/>
<path d="M21.4106 89.9546C23.5352 89.7109 24.803 85.5493 24.2422 80.6592C23.6814 75.7692 21.5044 72.0025 19.3798 72.2462C17.2551 72.4899 15.9873 76.6515 16.5481 81.5416C17.1089 86.4316 19.2859 90.1983 21.4106 89.9546Z" fill="#251554"/>
<path d="M20.9437 85.8805C22.1108 85.7467 22.8086 83.4737 22.5024 80.8037C22.1962 78.1337 21.0019 76.0777 19.8348 76.2115C18.6678 76.3454 17.9699 78.6183 18.2761 81.2884C18.5823 83.9584 19.7766 86.0144 20.9437 85.8805Z" fill="#D6FFFF"/>
<path d="M22.0147 80.8597C22.2701 83.0868 21.7171 84.9664 20.7418 85.0782C19.7665 85.1901 18.8023 83.4845 18.5469 81.2574C18.2915 79.0302 18.8445 77.1507 19.8198 77.0388C20.7951 76.927 21.7593 78.6326 22.0147 80.8597Z" fill="#55B5CA"/>
<path d="M20.6955 80.8457C20.7516 81.3346 20.6389 81.7878 20.4221 81.8127C20.2054 81.8375 19.993 81.4216 19.937 80.9327C19.8809 80.4438 19.9936 79.9906 20.2103 79.9658C20.4271 79.9409 20.6395 80.3568 20.6955 80.8457Z" fill="#251554"/>
<path d="M20.2171 78.5892C20.2732 79.0781 20.2146 79.5251 20.1063 79.5375C19.9979 79.5499 19.8397 79.1278 19.7836 78.6389C19.7276 78.15 19.7861 77.703 19.8945 77.6906C20.0028 77.6782 20.161 78.1003 20.2171 78.5892Z" fill="#251554"/>
<path d="M20.7527 83.2607C20.8088 83.7496 20.7503 84.1966 20.6419 84.209C20.5335 84.2214 20.3753 83.7993 20.3193 83.3104C20.2632 82.8215 20.3217 82.3745 20.4301 82.3621C20.5385 82.3497 20.6967 82.7718 20.7527 83.2607Z" fill="#251554"/>
<path d="M21.354 81.3207C21.1372 81.3456 20.9498 81.147 20.9248 80.9297C20.8937 80.6581 21.0375 80.4765 21.2543 80.4516C21.471 80.4268 21.6585 80.6254 21.6834 80.8427C21.7625 81.0538 21.5707 81.2959 21.354 81.3207Z" fill="#251554"/>
<path d="M19.3491 81.5506C19.1323 81.5755 18.9449 81.3768 18.92 81.1595C18.8888 80.8879 19.0327 80.7063 19.2494 80.6815C19.4661 80.6566 19.6536 80.8553 19.6785 81.0725C19.7034 81.2898 19.5658 81.5257 19.3491 81.5506Z" fill="#251554"/>
<path d="M21.0949 82.8913C20.8888 82.5297 20.7847 82.1014 20.8202 81.9322C20.8557 81.763 21.0849 81.8468 21.2911 82.2084C21.4972 82.57 21.6013 82.9984 21.5658 83.1675C21.5303 83.3367 21.2948 83.1986 21.0949 82.8913Z" fill="#251554"/>
<path d="M19.2521 79.7456C19.046 79.384 18.942 78.9556 18.9775 78.7865C19.013 78.6173 19.2421 78.7011 19.4483 79.0627C19.6545 79.4243 19.7585 79.8526 19.723 80.0218C19.6875 80.191 19.4521 80.0529 19.2521 79.7456Z" fill="#251554"/>
<path d="M19.5572 82.4072C19.6762 82.0083 19.8263 81.881 19.9533 82.0315C20.0262 82.1883 20.0218 82.6291 19.9029 83.0279C19.7839 83.4268 19.6339 83.5541 19.5068 83.4036C19.4277 83.1925 19.4862 82.7455 19.5572 82.4072Z" fill="#251554"/>
<path d="M20.6403 78.9259C20.7592 78.527 20.9093 78.3997 21.0364 78.5503C21.1092 78.707 21.1049 79.1478 20.986 79.5467C20.867 79.9455 20.7169 80.0728 20.5899 79.9223C20.5108 79.7112 20.5151 79.2705 20.6403 78.9259Z" fill="#251554"/>
<path d="M136.15 63.2026C136.817 69.0149 135.543 74.6644 132.487 77.2163C131.437 78.1072 128.348 78.4614 127.048 78.6105C121.9 79.2008 117.71 73.2974 116.819 65.5296C115.928 57.7618 119.378 50.9822 124.579 50.3857C125.717 50.2552 127.276 49.9663 128.314 50.3977C132.168 51.9369 135.452 57.1188 136.15 63.2026Z" fill="#120B30"/>
<path d="M126.199 78.873C130.478 78.3822 133.236 71.7828 132.359 64.1327C131.482 56.4827 127.301 50.6789 123.022 51.1697C118.743 51.6604 115.985 58.2598 116.862 65.9099C117.74 73.5599 121.92 79.3637 126.199 78.873Z" fill="#160D33"/>
<path d="M125.458 72.4088C127.792 72.1411 129.297 68.5437 128.819 64.3736C128.34 60.2036 126.06 57.0401 123.726 57.3078C121.392 57.5755 119.888 61.173 120.366 65.343C120.844 69.513 123.124 72.6765 125.458 72.4088Z" fill="#425B73"/>
<path d="M124.779 66.4878C125.288 66.4295 125.617 65.6526 125.514 64.7526C125.41 63.8526 124.914 63.1703 124.406 63.2286C123.897 63.2869 123.568 64.0638 123.671 64.9638C123.774 65.8638 124.271 66.5461 124.779 66.4878Z" fill="#251554"/>
<path d="M124.619 60.7826C124.718 61.6518 124.589 62.4371 124.372 62.4619C124.101 62.493 123.858 61.8055 123.752 60.882C123.652 60.0129 123.782 59.2276 123.998 59.2027C124.215 59.1779 124.513 59.8592 124.619 60.7826Z" fill="#251554"/>
<path d="M125.559 68.985C125.659 69.8541 125.529 70.6395 125.313 70.6643C125.042 70.6954 124.798 70.0079 124.692 69.0844C124.586 68.161 124.722 67.43 124.939 67.4051C125.156 67.3803 125.46 68.1159 125.559 68.985Z" fill="#251554"/>
<path d="M127.022 65.4601C127.53 65.4018 127.901 64.9897 127.849 64.5397C127.798 64.0897 127.343 63.7722 126.835 63.8305C126.326 63.8889 125.955 64.301 126.007 64.751C126.059 65.201 126.513 65.5185 127.022 65.4601Z" fill="#251554"/>
<path d="M122.416 65.9883C121.928 66.0443 121.451 65.7137 121.402 65.2792C121.352 64.8446 121.687 64.4209 122.229 64.3587C122.717 64.3028 123.194 64.6333 123.244 65.0679C123.294 65.5025 122.904 65.9324 122.416 65.9883Z" fill="#251554"/>
<path d="M126.352 68.2337C125.952 67.6192 125.702 66.8773 125.834 66.5871C125.959 66.2425 126.423 66.4644 126.871 67.0184C127.271 67.633 127.521 68.3748 127.389 68.6651C127.216 69.0702 126.752 68.8483 126.352 68.2337Z" fill="#251554"/>
<path d="M122.434 62.7943C122.035 62.1797 121.785 61.4379 121.916 61.1476C122.041 60.8031 122.506 61.0249 122.954 61.579C123.354 62.1935 123.603 62.9354 123.472 63.2256C123.299 63.6307 122.834 63.4088 122.434 62.7943Z" fill="#251554"/>
<path d="M122.97 67.4658C123.22 66.7767 123.629 66.5097 123.883 66.8108C124.083 67.118 124.062 67.891 123.751 68.532C123.501 69.2211 123.092 69.4881 122.838 69.187C122.59 68.9403 122.665 68.1612 122.97 67.4658Z" fill="#251554"/>
<path d="M125.554 61.2808C125.805 60.5916 126.213 60.3246 126.467 60.6257C126.667 60.933 126.646 61.7059 126.335 62.3469C126.085 63.036 125.677 63.303 125.422 63.002C125.175 62.7552 125.25 61.9761 125.554 61.2808Z" fill="#251554"/>
<path d="M-1.17776 46.6462L71.0149 10.2995C71.0149 10.2995 79.1349 7.38701 89.319 7.15469C95.8896 7.00655 105.46 8.60569 109.461 10.4584C113.455 12.2568 114.225 13.7094 114.614 14.7104C115.004 15.7114 115.658 21.415 115.658 21.415L114.634 23.0184L116.089 38.0962C116.089 38.0962 122.419 38.2507 125.593 39.5929C128.76 40.8807 130.478 42.9401 131.43 44.537C132.375 46.0796 132.412 46.4055 132.412 46.4055C132.412 46.4055 135.763 46.9018 137.573 49.2809C139.329 51.6662 140.386 55.6175 140.386 55.6175C140.386 55.6175 141.437 58.0836 141.386 60.5109C141.389 62.9321 141.176 65.3781 141.176 65.3781L141.023 66.4413L140.821 67.0699L92.4272 70.6384C92.4272 70.6384 90.5893 70.4089 89.3424 67.1948C88.1016 64.035 85.8219 53.7298 84.1845 52.3766C82.5534 51.0777 75.7972 51.5223 75.7972 51.5223C75.7972 51.5223 73.8243 55.3808 73.5765 59.9221C73.3287 64.4634 73.988 77.8712 73.988 77.8712L56.4636 80.1561L54.6373 71.8902L23.5702 78.1497C23.5702 78.1497 23.0475 72.1558 21.4749 70.41C19.896 68.6098 18.3645 68.18 17.4222 69.0586C16.48 69.9371 15.7246 72.4453 15.7234 75.3072C15.7764 78.1629 15.8007 79.8112 15.8007 79.8112L0.841659 81.967C0.841659 81.967 -2.25437 54.9698 -2.54093 52.4711C-2.83371 49.918 -2.80821 48.7043 -2.28071 48.0385C-1.86781 47.3307 -1.17776 46.6462 -1.17776 46.6462Z" fill="#FFCD40"/>
<path d="M107.586 48.2069C107.544 48.3218 107.509 48.491 107.534 48.7082C107.646 49.686 110.603 54.41 111.024 55.6827C111.444 56.9553 112.086 57.7623 112.086 57.7623C112.086 57.7623 112.465 57.7188 117.029 57.3055C121.593 56.8921 128.032 57.0342 128.939 56.3249C129.791 55.6217 129.489 50.5932 129.081 49.4292C128.673 48.2652 128.561 47.2875 127.427 46.9772C126.294 46.6669 120.04 46.2283 115.272 46.7751C112.292 47.1169 110.137 47.4741 108.849 47.7319C108.476 47.8297 108.157 47.9213 107.947 48.0005C107.73 48.0253 107.628 48.0921 107.586 48.2069Z" fill="#251554"/>
<path d="M-2.49058 51.4746L54.0936 25.5033L56.343 43.6819L-0.77819 63.0556L-2.49058 51.4746Z" fill="url(#paint0_linear_856_2739)"/>
<path d="M0.753171 49.1214L-0.11377 49.2208L1.51212 63.3984L2.37906 63.299L0.753171 49.1214Z" fill="#FFC931"/>
<path d="M4.04809 47.6979L3.18115 47.7974L4.80704 61.9749L5.67398 61.8755L4.04809 47.6979Z" fill="#FFC931"/>
<path d="M8.57986 45.087L7.82129 45.174L9.80225 62.4478L10.5608 62.3608L8.57986 45.087Z" fill="#FFC931"/>
<path d="M12.0442 42.2681L11.2856 42.3551L13.2666 59.6289L14.0252 59.5419L12.0442 42.2681Z" fill="#FFC931"/>
<path d="M16.2044 40.25L15.4458 40.337L17.4268 57.6109L18.1853 57.5239L16.2044 40.25Z" fill="#FFC931"/>
<path d="M20.3479 38.564L19.5894 38.651L21.5703 55.9248L22.3289 55.8378L20.3479 38.564Z" fill="#FFC931"/>
<path d="M24.9851 36.8765L24.2266 36.9635L26.2075 54.2373L26.9661 54.1503L24.9851 36.8765Z" fill="#FFC931"/>
<path d="M29.8103 35.3876L29.0518 35.4746L31.0327 52.7484L31.7913 52.6614L29.8103 35.3876Z" fill="#FFC931"/>
<path d="M35.0773 32.9675L34.0479 33.0856L36.1846 51.7174L37.214 51.5993L35.0773 32.9675Z" fill="#FFC931"/>
<path d="M42.4386 30.142L41.084 30.2974L43.2394 49.0922L44.594 48.9368L42.4386 30.142Z" fill="#FFC931"/>
<path d="M48.6896 26.7284L47.335 26.8838L49.59 46.5477L50.9446 46.3924L48.6896 26.7284Z" fill="#FFC931"/>
<path d="M65.0921 25.6728L66.5373 38.2751L115.802 35.5974L114.533 23.5802C114.384 22.2765 113.332 21.2414 112.007 21.1732L105.211 20.7968C104.326 20.7333 113.692 21.0349 104.326 20.7333C94.9585 20.4316 73.0253 21.1308 71.0036 21.6928C69.7761 21.9987 67.7856 22.8323 66.4267 23.4285C65.543 23.86 64.9862 24.7494 65.0921 25.6728Z" fill="url(#paint1_linear_856_2739)"/>
<path d="M88.8249 57.8981L106.243 56.1208C106.243 56.1208 103.966 53.0247 103.127 52.4056C102.281 51.7321 89.7814 52.8353 89.1978 53.0123C88.6205 53.2436 88.187 53.2934 88.2368 53.7279C88.2867 54.1625 88.5166 57.6033 88.5166 57.6033L88.8249 57.8981Z" fill="#DAE3EE"/>
<path d="M89.9797 57.4356L105.068 55.9254C105.068 55.9254 103.064 53.2934 102.393 52.7099C101.668 52.1326 90.8484 53.0432 90.3253 53.2683C89.7959 53.4391 89.4166 53.4826 89.4602 53.8628C89.5038 54.2431 89.6839 57.2493 89.6839 57.2493L89.9797 57.4356Z" fill="#55B5CA"/>
<path d="M94.7135 54.1959C94.7695 54.6848 94.4339 55.1085 94.0004 55.1582C93.5669 55.2079 93.144 54.8712 93.088 54.3823C93.0319 53.8934 93.3676 53.4697 93.801 53.42C94.2345 53.3703 94.6574 53.707 94.7135 54.1959Z" fill="#F2F2F2"/>
<path d="M93.7855 55.6782C93.1895 55.7466 92.6395 55.2593 92.5648 54.6074C92.5149 54.1729 92.6881 53.7678 92.9403 53.5738C92.8319 53.5862 92.7173 53.5443 92.609 53.5567C91.7962 53.6499 91.2332 54.485 91.3329 55.3541C91.4388 56.2775 92.17 56.9091 92.9827 56.8159C93.6329 56.7414 94.1729 56.1841 94.2545 55.4593C94.1585 55.5804 94.0022 55.6534 93.7855 55.6782Z" fill="#FF5DA2"/>
<path d="M101.701 54.3302C101.782 55.0363 101.356 55.6355 100.706 55.71C100.11 55.7784 99.506 55.2973 99.425 54.5912C99.344 53.885 99.7694 53.2859 100.42 53.2113C101.07 53.1367 101.62 53.624 101.701 54.3302Z" fill="#FF5DA2"/>
<path d="M138.225 49.7013L133.276 50.1038C133.276 50.1038 133.005 50.1349 132.911 50.751C132.817 51.3672 133.051 54.3672 133.051 54.3672L139.878 53.5843L138.225 49.7013Z" fill="#DAE3EE"/>
<path d="M138.221 50.1421L134.211 50.6019C134.211 50.6019 133.995 50.6268 133.936 51.0738C133.877 51.5208 134.012 53.6517 134.012 53.6517L139.051 53.0738L138.221 50.1421Z" fill="#55B5CA"/>
<path d="M138.16 51.5249C138.241 52.231 137.815 52.8302 137.165 52.9047C136.569 52.9731 135.965 52.492 135.884 51.7859C135.803 51.0797 136.228 50.4806 136.879 50.406C137.475 50.3377 138.079 50.8187 138.16 51.5249Z" fill="#FF5DA2"/>
<path d="M146.043 32.1845L143.604 32.4641C142.25 32.6194 141.046 31.2165 141.015 29.5139L140.985 27.8114C140.97 27.2076 141.348 26.669 141.848 26.7218L146.299 26.7616C146.739 26.7663 147.168 27.1573 147.236 27.7548L147.563 29.6436C147.706 30.893 147.072 32.0664 146.043 32.1845Z" fill="#022235"/>
<path d="M112.064 63.3231C111.948 62.7861 112.38 62.2413 112.928 62.2335L119.49 61.5359C120.14 61.4614 120.744 61.9424 120.825 62.6486C120.825 62.6486 120.825 62.6486 120.832 62.7029C120.879 64.0734 120.654 64.9798 120.51 65.1614C120.366 65.343 113.701 66.1073 113.357 65.9816C113.068 65.8497 112.472 65.918 112.372 65.0489C112.31 64.5057 112.181 63.8601 112.064 63.3231Z" fill="#020202"/>
<path d="M123.089 62.279C122.972 61.742 123.404 61.1972 123.952 61.1894L130.515 60.4919C131.165 60.4173 131.769 60.8984 131.85 61.6045C131.85 61.6045 131.783 61.5021 131.789 61.5564C131.837 62.9269 130.872 64.0832 130.728 64.2648C130.584 64.4464 124.726 65.0632 124.382 64.9375C124.092 64.8056 123.496 64.874 123.397 64.0049C123.334 63.4617 123.205 62.816 123.089 62.279Z" fill="#020202"/>
<path d="M55.9874 26.2217L63.7325 22.912C63.7325 22.912 69.9868 77.4495 69.8617 77.794C69.7303 78.0843 69.7303 78.0843 69.7303 78.0843L61.7298 79.1669L55.9874 26.2217Z" fill="#152754"/>
<path d="M60.0351 24.6568L65.8647 78.3625" stroke="#55B5CA" stroke-width="0.5489" stroke-miterlimit="10"/>
<path d="M87.2212 60.6687C87.2212 60.6687 90.3327 60.0367 91.0994 60.4991C91.9265 61.0097 92.5282 62.4266 93.1616 62.6842C93.7887 62.8874 98.6441 63.1011 108.904 62.0897C119.163 61.0782 141.73 59.2056 141.73 59.2056C141.73 59.2056 141.342 56.7737 141.171 56.2429C141 55.7121 133.144 56.6131 133.144 56.6131C133.144 56.6131 132.251 57.9262 131.742 58.7551C131.233 59.5839 110.452 60.7563 109.819 60.4987C109.192 60.2955 108.19 58.264 107.563 58.0607C106.936 57.8575 86.959 59.8182 86.959 59.8182L87.2212 60.6687Z" fill="#1A3046"/>
<path d="M108.904 62.0896C98.6445 63.101 93.7954 62.9417 93.162 62.6841C92.5348 62.4808 91.9269 61.0096 91.0998 60.4991C90.5685 60.1747 88.5637 60.4046 87.3237 60.6019C88.0625 63.2139 88.7408 65.7777 89.2758 67.0923C90.5165 70.252 92.3606 70.5359 92.3606 70.5359L140.754 66.9673L140.957 66.3387L141.109 65.2756C141.109 65.2756 141.269 62.8358 141.32 60.4084C141.33 60.022 141.287 59.6417 141.249 59.3158C138.359 59.4822 118.405 61.1651 108.904 62.0896Z" fill="#100A0A"/>
<path d="M-1.66391 62.9921L56.3429 43.6819L56.5485 45.4744L-1.47079 64.676L-1.66391 62.9921Z" fill="#1F192A"/>
<path d="M-1.10315 67.8809L57.4176 50.6581L57.6231 52.4507L-0.910032 69.5648L-1.10315 67.8809Z" fill="#1F192A"/>
<path d="M-0.415162 71.4892L57.7444 55.9039L58.0496 58.5656L-0.288692 73.0707L-0.415162 71.4892Z" fill="#1F192A"/>
<path d="M73.0031 40.5606C73.0031 40.5606 85.9774 40.7237 94.3579 42.9547C102.738 45.1856 105.887 46.3105 105.887 46.3105C105.887 46.3105 116.409 44.7185 120.331 44.9292C126.572 45.2591 128.103 45.6889 128.103 45.6889C128.103 45.6889 128.714 44.7933 127.509 42.8953C125.509 39.8225 119.085 38.8532 115.278 38.6844C112.796 38.5838 97.323 38.6521 90.8732 38.8965C84.4235 39.1408 73.0031 40.5606 73.0031 40.5606Z" fill="#FF9F00"/>
<path d="M129.769 48.2495C129.33 46.814 129.193 45.6189 127.932 45.1581C126.672 44.6973 119.689 44.1222 114.325 44.7374C111.019 45.1164 108.594 45.5047 107.149 45.8354C106.722 45.9394 106.349 46.0373 106.139 46.1164C105.874 46.2018 105.778 46.3229 105.73 46.3834C105.695 46.5526 105.659 46.7218 105.696 47.0477C105.833 48.2428 109.205 54.1851 109.717 55.7774C109.985 56.6822 110.343 57.4116 110.61 57.8213C110.81 58.1286 111.106 58.3148 111.491 58.3257C114.55 58.195 128.967 57.5323 129.759 56.781C129.957 56.5932 130.124 56.1338 130.218 55.5176L130.224 55.572C130.511 53.2827 130.006 48.8827 129.769 48.2495ZM129.166 49.6945C129.252 49.9599 129.283 50.2315 129.326 50.6118C128.67 50.632 127.242 50.6306 123.791 50.6962C123.754 50.3702 123.717 50.0443 123.679 49.7184C126.968 49.6715 128.504 49.6605 129.166 49.6945ZM129.002 49.2181C128.285 49.1902 126.749 49.2013 123.629 49.2838C123.592 48.9579 123.548 48.5777 123.517 48.3061C126.806 48.2592 128.179 48.2668 128.727 48.259C128.812 48.5244 128.91 48.8984 129.002 49.2181ZM123.787 51.1369C127.292 51.0652 128.666 51.0728 129.322 51.0525C129.359 51.3785 129.403 51.7587 129.386 52.0908C128.398 52.0941 126.7 52.1237 123.851 52.1752C123.868 51.8431 123.831 51.5172 123.787 51.1369ZM128.508 47.7887C127.852 47.809 126.425 47.8076 123.407 47.8234C123.345 47.2802 123.241 46.8519 123.197 46.4716C125.294 46.5614 126.902 46.7071 127.469 46.8623C127.988 47.078 128.242 47.379 128.508 47.7887ZM123.871 54.2643C123.925 54.2581 124.034 54.2456 124.088 54.2394C128.141 54.1598 128.973 54.2296 129.412 54.2342C129.389 54.512 129.372 54.8441 129.343 55.0676C129.066 55.0444 128.626 55.0398 124.567 55.065C124.35 55.0899 124.073 55.0666 123.856 55.0915C123.886 54.868 123.854 54.5964 123.871 54.2643ZM123.423 55.1412C121.345 55.2144 119.057 55.3667 116.998 55.6028C116.913 55.3374 116.767 55.0239 116.675 54.7042C118.849 54.51 121.246 54.3452 123.492 54.3078C123.415 54.5918 123.392 54.8696 123.423 55.1412ZM116.463 54.2883C116.311 53.9205 116.159 53.5527 116.001 53.1306C118.391 52.9115 121.059 52.7156 123.413 52.6657C123.445 52.9373 123.415 53.1608 123.446 53.4324C123.465 53.5954 123.423 53.7102 123.442 53.8732C121.189 53.8564 118.691 54.0879 116.463 54.2883ZM114.195 50.3107C114.341 50.6242 114.487 50.9377 114.693 51.2993C112.194 51.5308 110.141 51.8213 109.112 51.9393C108.906 51.5777 108.76 51.2642 108.56 50.957C109.752 50.8202 111.805 50.5298 114.195 50.3107ZM108.348 50.541C108.142 50.1794 107.99 49.8116 107.85 49.5524C108.988 49.422 111.041 49.1315 113.485 48.9062C113.631 49.2197 113.831 49.527 113.983 49.8948C111.538 50.1201 109.431 50.4168 108.348 50.541ZM113.973 48.8503C116.58 48.6063 119.464 48.3857 121.927 48.3233C122.313 48.3341 122.692 48.2906 123.023 48.3077C123.061 48.6336 123.098 48.9595 123.136 49.2854C122.919 49.3103 122.75 49.2746 122.533 49.2995C120.016 49.368 117.078 49.5949 114.471 49.8389C114.319 49.4711 114.119 49.1638 113.973 48.8503ZM114.905 51.7152C115.051 52.0287 115.203 52.3965 115.349 52.71C113.067 52.9167 111.068 53.2009 109.876 53.3376C109.676 53.0303 109.524 52.6625 109.324 52.3553C110.462 52.2248 112.521 51.9886 114.905 51.7152ZM115.513 53.1865C115.671 53.6086 115.823 53.9764 115.975 54.3442C113.748 54.5447 111.803 54.8227 110.665 54.9532C110.52 54.6397 110.307 54.2238 110.095 53.8079C111.178 53.6836 113.177 53.3994 115.513 53.1865ZM111.023 55.6826C111.011 55.574 110.938 55.4172 110.865 55.2605C112.003 55.13 113.954 54.9063 116.181 54.7058C116.327 55.0193 116.419 55.339 116.565 55.6525C114.391 55.8468 112.447 56.1248 111.309 56.2553C111.175 56.0504 111.103 55.8937 111.023 55.6826ZM115.843 52.7084C115.691 52.3406 115.545 52.0271 115.399 51.7136C118.006 51.4697 120.89 51.249 123.408 51.1804C123.445 51.5064 123.435 51.8928 123.472 52.2187C121.003 52.2268 118.287 52.4831 115.843 52.7084ZM115.181 51.2434C115.029 50.8756 114.883 50.5621 114.683 50.2548C117.236 50.0171 120.12 49.7964 122.529 49.7403C122.746 49.7154 122.969 49.7449 123.185 49.72C123.223 50.0459 123.26 50.3718 123.298 50.6978C120.78 50.7663 117.788 50.9994 115.181 51.2434ZM115.266 46.7208C117.65 46.4474 120.39 46.4083 122.703 46.4732C122.747 46.8535 122.851 47.2818 122.913 47.825C122.582 47.808 122.257 47.8453 121.871 47.8344C119.348 47.8487 116.361 48.1361 113.7 48.3863C113.421 47.8679 113.148 47.4039 112.882 46.9942C113.64 46.9072 114.399 46.8202 115.266 46.7208ZM107.586 48.2069C107.634 48.1463 107.736 48.0796 107.947 48.0004C108.157 47.9212 108.476 47.8296 108.849 47.7318C109.649 47.53 110.889 47.3327 112.454 47.0982C112.661 47.4598 112.933 47.9238 113.267 48.436C110.822 48.6613 108.715 48.9579 107.686 49.076C107.613 48.9192 107.594 48.7563 107.588 48.702C107.509 48.4909 107.544 48.3217 107.586 48.2069ZM117.029 57.3054C112.465 57.7187 112.085 57.7622 112.085 57.7622C112.085 57.7622 111.765 57.3587 111.467 56.6774C112.605 56.5469 114.495 56.2751 116.723 56.0747C116.893 56.6054 117.045 56.9733 117.137 57.293C117.029 57.3054 117.029 57.3054 117.029 57.3054ZM117.102 56.0312C119.113 55.8556 121.287 55.6614 123.364 55.5882C123.331 56.2525 123.326 56.6932 123.297 56.9167C121.388 57.0256 119.311 57.0987 117.51 57.1952C117.425 56.9298 117.327 56.5557 117.102 56.0312ZM128.878 56.2767C128.428 56.6586 126.302 56.7923 123.737 56.9213C123.76 56.6435 123.764 56.2028 123.804 55.5928C124.021 55.5679 124.298 55.5912 124.515 55.5663C128.243 55.524 128.899 55.5038 129.176 55.5271C129.166 55.9135 129.082 56.1432 128.878 56.2767ZM129.471 53.7872C128.977 53.7888 127.929 53.7439 124.147 53.7924C124.092 53.7986 123.984 53.8111 123.93 53.8173C123.917 53.7086 123.953 53.5395 123.94 53.4308C123.963 53.153 123.938 52.9357 123.962 52.6579C126.864 52.6002 128.563 52.5705 129.496 52.5735C129.432 52.9662 129.481 53.4007 129.471 53.7872Z" fill="#55B5CA"/>
<path opacity="0.67" d="M103.799 28.1133L107.816 26.2768L108.563 34.2262L104.485 34.0885L103.799 28.1133Z" fill="#D6FFFF"/>
<path opacity="0.67" d="M108.399 26.0997L112.416 24.2633L113.237 34.2955L109.159 34.1578L108.399 26.0997Z" fill="#D6FFFF"/>
<path d="M73.2182 24.2456L111.25 23.1863L101.893 27.2861L73.5833 28.3864L73.2182 24.2456Z" fill="#1F192A"/>
<path d="M114.588 23.574L119.425 23.6247C119.425 23.6247 120.233 23.9723 120.447 24.8833C120.709 25.7338 120.915 27.5263 120.915 27.5263" stroke="#8AB6D1" stroke-width="0.8233" stroke-miterlimit="10"/>
<path d="M114.989 26.1146L120.608 25.8005" stroke="#8AB6D1" stroke-width="0.8233" stroke-miterlimit="10"/>
<path d="M120.723 37.3445L120.392 37.3275C119.338 37.2282 118.527 36.3856 118.457 35.293L117.841 28.4843C117.777 27.446 118.89 27.0982 119.967 26.9196L120.238 26.8886C121.159 26.7829 121.951 27.4626 122.05 28.3318L122.792 34.7959C122.935 36.0452 122.024 37.1954 120.723 37.3445Z" fill="#002234"/>
<path d="M146.043 32.1845L143.604 32.4641C142.25 32.6194 141.046 31.2165 141.015 29.5139L140.985 27.8114C140.97 27.2076 141.348 26.669 141.848 26.7218L146.299 26.7616C146.739 26.7663 147.168 27.1573 147.236 27.7548L147.563 29.6436C147.706 30.893 147.072 32.0664 146.043 32.1845Z" fill="#022235"/>
<path opacity="0.67" d="M142.101 28.4538L142.066 27.192C141.741 27.2293 141.514 27.6406 141.57 28.1295L141.624 29.5542C141.677 30.979 142.525 32.1476 143.5 32.0357L144.692 31.899C143.338 32.0544 142.163 30.428 142.101 28.4538Z" fill="#D6FFFF"/>
<path d="M145.073 28.9935C145.073 28.9935 145.589 31.576 145.424 32.5305C145.259 33.485 145.025 33.842 144.61 34.0547C144.196 34.2674 136.547 36.0251 136.151 36.4007C135.749 36.722 135.315 36.7717 135.666 38.8778C135.827 39.795 136.52 46.3196 136.77 47.0615C137.019 47.8033 136.167 48.5065 136.167 48.5065" stroke="#8AB6D1" stroke-width="0.8233" stroke-miterlimit="10"/>
<path d="M127.724 40.9444L127.659 39.9061C127.61 39.4716 127.945 39.0478 128.433 38.9919L135.585 38.1717" stroke="#8AB6D1" stroke-width="0.8233" stroke-miterlimit="10"/>
<path d="M143.883 34.4133L144.012 35.0589L136.224 44.7025" stroke="#8AB6D1" stroke-width="0.8233" stroke-miterlimit="10"/>
<path d="M141.987 34.6308C142.043 35.1197 141.767 35.5916 141.359 35.8586L129.972 42.833" stroke="#8AB6D1" stroke-width="0.8233" stroke-miterlimit="10"/>
<path opacity="0.67" d="M145.821 29.293C145.81 29.6795 145.516 29.9884 145.077 29.9838C144.637 29.9791 144.329 29.6843 144.291 29.3584C144.254 29.0324 144.596 28.663 145.036 28.6676C145.475 28.6723 145.838 28.9609 145.821 29.293Z" fill="#D6FFFF"/>
<path d="M131.454 44.7543L131.075 44.7978C130.479 44.8661 129.935 44.4332 129.867 43.8356L129.736 42.6949C129.667 42.0974 130.099 41.5526 130.695 41.4842L131.074 41.4407C131.67 41.3724 132.214 41.8054 132.283 42.4029L132.413 43.5436C132.482 44.1411 132.05 44.6859 131.454 44.7543Z" fill="#99082D"/>
<path d="M95.876 65.2897L139.721 61.3072C139.191 62.909 137.731 64.0669 136.046 64.2052L99.5742 66.9018C98.3218 66.9904 97.1154 66.5234 96.1905 65.6388L95.876 65.2897Z" fill="#FFCD40"/>
<path d="M84.526 47.219L83.6049 47.3247C82.9005 47.4054 82.2963 46.9244 82.2154 46.2182L82.1281 45.4577C82.0472 44.7516 82.5267 44.1462 83.2311 44.0655L84.1522 43.9598C84.8566 43.879 85.4607 44.3601 85.5417 45.0663L85.6289 45.8268C85.7641 46.5267 85.2304 47.1383 84.526 47.219Z" fill="#99082D"/>
<path d="M99.9916 34.1634L96.9031 34.5176C95.2234 34.7102 93.6944 33.3446 93.718 31.6358L93.7416 29.927C93.7273 29.3233 94.2673 28.7661 94.8757 28.8064L100.411 28.722C100.959 28.7142 101.442 29.099 101.565 29.6903L101.891 31.5791C102.197 32.8098 101.292 34.0143 99.9916 34.1634Z" fill="#022235"/>
<path d="M99.4026 32.8551L97.4519 33.0788C96.3683 33.2031 95.4558 32.4272 95.4521 31.437L95.4483 30.4468C95.4589 30.0603 95.7591 29.8058 96.1925 29.756L99.6977 29.6843C100.083 29.6951 100.379 29.8813 100.416 30.2072L100.595 31.2874C100.791 32.0355 100.215 32.7619 99.4026 32.8551Z" fill="#03334F"/>
<path d="M94.1293 30.433L94.232 28.9353C93.8714 29.1417 93.7108 29.6555 93.7064 30.0962L93.6828 31.805C93.6592 33.5138 94.2714 34.5443 96.1803 34.4354L97.2285 34.4803C95.1863 34.3843 94.0198 33.3073 94.1293 30.433Z" fill="#DAE3EE"/>
<path d="M98.3231 32.5386C98.3231 32.5386 98.7099 34.4755 98.4844 35.3819C98.3132 36.2821 97.9713 36.6515 96.3227 37.1157C94.6742 37.58 92.0211 38.3795 92.0211 38.3795C92.0211 38.3795 91.5564 38.1577 91.843 40.6564C92.1358 43.2094 92.7893 50.344 92.7893 50.344" stroke="#658696" stroke-width="0.8233" stroke-miterlimit="10"/>
<path d="M97.3211 36.7261L97.8 37.5518L92.4784 46.1971" stroke="#658696" stroke-width="0.8233" stroke-miterlimit="10"/>
<path d="M97.2725 38.2175L99.5041 43.7953" stroke="#658696" stroke-width="0.8233" stroke-miterlimit="10"/>
<path d="M93.2125 50.6807L92.9957 50.7056C92.3997 50.7739 91.856 50.341 91.7875 49.7435L91.5196 47.4077C91.4511 46.8102 91.8827 46.2654 92.4787 46.197L92.6954 46.1722C93.2914 46.1038 93.8352 46.5368 93.9037 47.1343L94.1716 49.4701C94.1859 50.0738 93.7543 50.6186 93.2125 50.6807Z" fill="#071723"/>
<path d="M99.0526 32.675C99.0962 33.0553 98.8023 33.3642 98.4772 33.4014C98.0979 33.4449 97.7896 33.1501 97.7522 32.8242C97.7086 32.4439 98.0025 32.135 98.3277 32.0978C98.7007 31.9999 99.009 32.2948 99.0526 32.675Z" fill="#658696"/>
<path d="M68.7316 22.9441C68.7316 22.9441 67.5699 15.2074 67.9747 13.9502C68.4336 12.6868 69.5073 11.518 72.6898 10.5476C75.8723 9.57728 97.9868 9.02244 102.115 9.5947C106.243 10.167 109.862 11.5681 111.322 12.3362C112.777 13.0499 113.153 13.9423 113.153 13.9423L113.976 21.1126L112.708 22.0284L68.7316 22.9441Z" fill="#1F192A"/>
<path d="M72.6533 18.3667C73.7605 18.2397 74.5438 17.1397 74.4027 15.9096C74.2616 14.6796 73.2497 13.7854 72.1425 13.9124C71.0353 14.0394 70.252 15.1395 70.3931 16.3695C70.5342 17.5995 71.5461 18.4937 72.6533 18.3667Z" fill="#FF5DA2"/>
<path d="M73.5757 15.3991C73.6317 15.888 73.3023 16.3661 72.8688 16.4158C72.4353 16.4655 72.0062 16.0744 71.9501 15.5856C71.8941 15.0967 72.2235 14.6186 72.657 14.5689C73.0905 14.5192 73.5196 14.9103 73.5757 15.3991Z" fill="#F2F2F2"/>
<path d="M79.6605 15.802C79.8038 17.0513 78.9948 18.1347 77.9111 18.259C76.8274 18.3833 75.7942 17.5112 75.6509 16.2618C75.5076 15.0124 76.3166 13.929 77.4003 13.8048C78.484 13.6805 79.5172 14.5526 79.6605 15.802Z" fill="#F37634"/>
<path d="M79.0273 15.5444C79.0834 16.0333 78.7539 16.5113 78.3205 16.5611C77.887 16.6108 77.4579 16.2197 77.4018 15.7308C77.3457 15.2419 77.6752 14.7639 78.1087 14.7142C78.5421 14.6645 78.9712 15.0555 79.0273 15.5444Z" fill="#F2F2F2"/>
<path d="M107.618 15.4577C107.749 16.5984 107.048 17.6694 106.019 17.7874C104.989 17.9055 104.07 17.0753 103.933 15.8802C103.796 14.6852 104.503 13.6685 105.533 13.5504C106.562 13.4324 107.487 14.3169 107.618 15.4577Z" fill="#FF5DA2"/>
<path d="M107.291 14.9998C107.347 15.4887 107.018 15.9668 106.584 16.0165C106.151 16.0662 105.722 15.6751 105.665 15.1863C105.609 14.6974 105.939 14.2193 106.372 14.1696C106.806 14.1199 107.235 14.511 107.291 14.9998Z" fill="#F2F2F2"/>
<path d="M112.436 15.3454C112.567 16.4861 111.866 17.5571 110.836 17.6751C109.807 17.7932 108.888 16.9629 108.751 15.7679C108.62 14.6272 109.321 13.5562 110.351 13.4381C111.38 13.3201 112.299 14.1503 112.436 15.3454Z" fill="#F37634"/>
<path d="M112.127 15.0505C112.183 15.5394 111.854 16.0174 111.421 16.0672C110.987 16.1169 110.558 15.7258 110.502 15.2369C110.446 14.748 110.775 14.27 111.209 14.2203C111.642 14.1706 112.071 14.5616 112.127 15.0505Z" fill="#F2F2F2"/>
<path d="M80.8574 9.00553L82.1463 21.6808L102.039 21.3807L102.475 20.3951L100.998 8.95219L80.8574 9.00553Z" fill="#FFCC13"/>
<path d="M82.975 17.8985L83.3126 17.9698C83.4209 17.9574 83.4689 17.8969 83.5168 17.8363C83.5586 17.7215 83.6003 17.6066 83.6358 17.4374C83.6588 17.1596 83.6819 16.8818 83.6569 16.6645C83.632 16.4473 83.5467 16.1819 83.4676 15.9708C83.3885 15.7597 83.2552 15.5549 83.1761 15.3438C83.0428 15.139 82.9637 14.9279 82.8367 14.7774C82.5639 14.3133 82.3994 13.8369 82.3434 13.348C82.3122 13.0764 82.3353 12.7986 82.3645 12.5751C82.4293 12.1824 82.6273 11.9946 82.8441 11.9697C82.9524 11.9573 83.0128 12.0054 83.1274 12.0473C83.1879 12.0954 83.2545 12.1978 83.2607 12.2522C83.2794 12.4151 83.2315 12.4757 83.1231 12.4881C83.0689 12.4943 83.0085 12.4462 82.9543 12.4524C82.7918 12.4711 82.7083 12.7008 82.704 13.1415C82.7164 13.2502 82.7289 13.3588 82.7413 13.4675C82.7538 13.5761 82.7725 13.7391 82.8516 13.9501C82.9307 14.1612 83.0036 14.3179 83.0764 14.4747C83.1493 14.6314 83.2764 14.782 83.3492 14.9387C83.4221 15.0955 83.5554 15.3003 83.6283 15.4571C83.8344 15.8187 83.9447 16.3013 84.0007 16.7902C84.0443 17.1705 84.0338 17.5569 83.9086 17.9015C83.8731 18.0706 83.7772 18.1917 83.6813 18.3128C83.5854 18.4339 83.429 18.5068 83.2603 18.4711C83.0373 18.4417 82.9165 18.3455 82.8915 18.1282L82.975 17.8985Z" fill="black"/>
<path d="M84.2448 16.0467L84.1825 15.5035L84.1576 15.2862C84.0517 14.3628 83.9769 13.711 84.0479 13.3726C84.0522 12.9318 84.1837 12.6416 84.2733 12.4662C84.4652 12.2241 84.7236 12.0844 85.0549 12.1014C85.1091 12.0952 85.1695 12.1433 85.2299 12.1914C85.2904 12.2395 85.2966 12.2938 85.3028 12.3481C85.3091 12.4025 85.3153 12.4568 85.2673 12.5173C85.2194 12.5778 85.2194 12.5778 85.1652 12.5841L84.7797 12.5732C84.6713 12.5857 84.6234 12.6462 84.5337 12.8216C84.4982 12.9908 84.4627 13.1599 84.4396 13.4378C84.4353 13.8785 84.4247 14.265 84.5101 14.5304L84.5163 14.5847L84.7219 16.3773C84.7655 16.7575 84.7966 17.0291 84.8695 17.1858C84.9423 17.3426 84.9548 17.4512 85.0214 17.5537C85.0881 17.6561 85.0943 17.7104 85.1547 17.7585C85.2818 17.909 85.4506 17.9447 85.6131 17.9261C85.6673 17.9199 85.7215 17.9137 85.7694 17.8531C85.8236 17.8469 85.884 17.895 85.9382 17.8888C85.9986 17.9369 86.0049 17.9912 86.0111 18.0456C86.0423 18.3172 85.9463 18.4382 85.6692 18.415C85.5608 18.4274 85.4462 18.3855 85.3316 18.3436C85.217 18.3017 85.1024 18.2598 85.042 18.2117C84.6254 17.9293 84.3818 17.2418 84.2448 16.0467Z" fill="black"/>
<path d="M86.1656 12.6895L86.4335 15.0253C86.5481 15.0672 86.6565 15.0548 86.8252 15.0904L87.1024 15.1137C87.1024 15.1137 87.0899 15.005 87.0712 14.8421C87.0525 14.6791 87.0089 14.2989 86.8862 13.7076C86.7635 13.1163 86.7137 12.6817 86.6825 12.4101C86.6763 12.3558 86.6701 12.3015 86.718 12.2409C86.766 12.1804 86.8202 12.1742 86.8202 12.1742C86.8202 12.1742 86.8744 12.168 86.9285 12.1618C86.9285 12.1618 86.9827 12.1555 86.989 12.2099C87.0431 12.2036 87.0494 12.258 87.0494 12.258C87.1428 13.0728 87.3278 14.2073 87.5627 15.7764C87.7975 17.3454 87.9389 18.0997 87.9451 18.154C87.9514 18.2083 87.9576 18.2627 87.9096 18.3232C87.8617 18.3837 87.8075 18.3899 87.7533 18.3962C87.6991 18.4024 87.6387 18.3543 87.5658 18.1975C87.4992 18.0951 87.4743 17.8778 87.3952 17.6667C87.3703 17.4495 87.3453 17.2322 87.2725 17.0754C87.2662 17.0211 87.2538 16.9125 87.2413 16.8038C87.2289 16.6952 87.2102 16.5322 87.1915 16.3693C87.1603 16.0977 87.1416 15.9347 87.1354 15.8804L87.1292 15.8261L87.098 15.5545L87.0314 15.452C86.9772 15.4582 86.923 15.4645 86.923 15.4645L86.4167 15.3574L86.5413 16.4438L86.7699 17.9586C86.7823 18.0672 86.7886 18.1215 86.7406 18.1821C86.6927 18.2426 86.6447 18.3031 86.5905 18.3094C86.4822 18.3218 86.4155 18.2194 86.3302 17.954C86.2511 17.7429 86.2137 17.417 86.1701 17.0367L86.0081 15.6244C85.977 15.3528 85.9583 15.1899 85.9521 15.1355L85.9458 15.0812C85.9085 14.7553 85.8898 14.5923 85.8835 14.538L85.5864 12.4257C85.5802 12.3714 85.574 12.3171 85.6219 12.2566C85.6699 12.196 85.724 12.1898 85.7782 12.1836C86.0429 12.0982 86.122 12.3093 86.1656 12.6895Z" fill="black"/>
<path d="M88.067 15.3884L88.0296 15.0624C88.0234 15.0081 88.0234 15.0081 88.0234 15.0081L88.0047 14.8452C87.8926 13.8674 87.872 13.2093 87.8764 12.7686C87.8932 12.4364 87.9766 12.2067 88.0246 12.1462C88.0725 12.0857 88.1747 12.0189 88.2288 12.0127C88.8311 11.9987 89.2602 12.3897 89.5579 13.071C89.7162 13.4932 89.8806 13.9696 89.9553 14.6215L89.9616 14.6758L90.0799 15.7079C90.2793 17.4461 90.0538 18.3525 89.3974 18.3728C89.1202 18.3495 88.8848 18.2114 88.6724 17.7955C88.4663 17.4339 88.3685 17.0599 88.2769 16.7402C88.2209 16.2513 88.1168 15.8229 88.067 15.3884ZM88.3634 14.1436L88.4089 15.0189C88.5086 15.8881 88.6562 16.6967 88.8935 17.3299C89.0455 17.6977 89.185 17.9568 89.3538 17.9925C89.4622 17.9801 89.5101 17.9196 89.5581 17.859C89.5998 17.7442 89.6415 17.6293 89.6832 17.5145C89.7187 17.3453 89.7001 17.1823 89.7355 17.0132C89.7169 16.8502 89.7524 16.681 89.7274 16.4637C89.6901 16.1378 89.7131 15.86 89.6882 15.6427C89.6633 15.4254 89.6197 15.0452 89.5094 14.5625C89.3992 14.0799 89.3618 13.7539 89.3306 13.4823L89.3119 13.3194C89.287 13.1021 89.2079 12.891 89.0809 12.7405C88.9538 12.59 88.7788 12.5 88.61 12.4643C88.4475 12.4829 88.3516 12.604 88.3223 12.8275C88.293 13.051 88.3179 13.2683 88.3491 13.5399L88.3634 14.1436Z" fill="black"/>
<path d="M90.482 15.3865L90.4447 15.0606C90.4384 15.0063 90.4384 15.0063 90.4384 15.0063L90.4198 14.8433C90.3076 13.8656 90.2871 13.2075 90.2914 12.7667C90.3082 12.4346 90.3917 12.2049 90.4396 12.1444C90.4876 12.0838 90.5897 12.0171 90.6439 12.0109C91.2461 11.9968 91.6753 12.3879 91.973 13.0692C92.1312 13.4913 92.2956 13.9678 92.3641 14.5653L92.3704 14.6196L92.4887 15.6517C92.6881 17.39 92.4626 18.2964 91.8062 18.3166C91.5291 18.2934 91.2936 18.1553 91.0875 17.7937C90.8813 17.4321 90.7835 17.058 90.692 16.7383C90.5817 16.2557 90.5257 15.7668 90.482 15.3865ZM90.7243 14.148L90.7698 15.0233C90.8694 15.8925 91.0171 16.701 91.2544 17.3342C91.4063 17.7021 91.5459 17.9612 91.7146 17.9969C91.823 17.9845 91.871 17.9239 91.9189 17.8634C91.9606 17.7486 92.0024 17.6337 92.0441 17.5189C92.0796 17.3497 92.0609 17.1867 92.0964 17.0175C92.0777 16.8546 92.1132 16.6854 92.0883 16.4681C92.0509 16.1422 92.0739 15.8644 92.049 15.6471C92.0241 15.4298 91.9805 15.0496 91.8703 14.5669C91.76 14.0842 91.7226 13.7583 91.6915 13.4867L91.6728 13.3238C91.6479 13.1065 91.5688 12.8954 91.4417 12.7449C91.3147 12.5944 91.1397 12.5044 90.9709 12.4687C90.8083 12.4873 90.7124 12.6084 90.6831 12.8319C90.6539 13.0554 90.6788 13.2727 90.7099 13.5443L90.7243 14.148Z" fill="black"/>
<path d="M93.0691 13.0536L93.3725 15.2202C93.3245 15.2807 93.337 15.3894 93.3557 15.5523L93.3744 15.7153L93.5425 17.1819C93.5924 17.6165 93.7257 17.8213 93.8882 17.8027L94.2133 17.7654C94.4842 17.7344 94.6051 17.8306 94.63 18.0478C94.6362 18.1022 94.6424 18.1565 94.5945 18.217C94.5465 18.2776 94.4923 18.2838 94.4382 18.29C94.2632 18.2 94.0402 18.1705 93.7693 18.2016C93.7213 18.2621 93.613 18.2746 93.5588 18.2808C93.5046 18.287 93.4442 18.2389 93.3838 18.1908C93.3233 18.1427 93.3109 18.034 93.3047 17.9797C93.2548 17.5451 93.1738 16.839 93.1284 15.9636C93.0225 15.0402 93.0019 14.3821 92.952 13.9476L92.9458 13.8933C92.848 13.5192 92.8169 13.2476 92.792 13.0303C92.7234 12.4328 92.7465 12.155 92.9694 12.1845C93.0236 12.1783 93.084 12.2264 93.0903 12.2807C93.1507 12.3288 93.1569 12.3831 93.1631 12.4374L93.0691 13.0536Z" fill="black"/>
<path d="M95.2555 12.9679L95.1453 12.4853L95.1391 12.431C95.1266 12.3223 95.1141 12.2137 95.1621 12.1531C95.2101 12.0926 95.258 12.0321 95.4268 12.0677C95.5352 12.0553 95.7039 12.091 95.8248 12.1872C95.9456 12.2834 96.0664 12.3796 96.1935 12.5302C96.3934 12.8375 96.485 13.1572 96.5286 13.5374C96.5722 13.9176 96.6033 14.1892 96.5741 14.4127C96.5448 14.6362 96.5155 14.8597 96.4258 15.0351C96.6737 15.2819 96.8257 15.6497 96.8818 16.1386C96.8942 16.2472 96.9129 16.4102 96.9316 16.5731C96.9503 16.7361 96.969 16.899 96.9335 17.0682C96.9522 17.2312 96.9167 17.4004 96.8749 17.5152C96.8395 17.6844 96.7977 17.7992 96.6956 17.866C96.558 18.1019 96.2995 18.2416 96.0223 18.2184C95.914 18.2308 95.8536 18.1827 95.7869 18.0803C95.7745 17.9716 95.7078 17.8692 95.6954 17.7605L95.5315 15.8531L95.2555 12.9679ZM96.0852 17.3306L96.1351 17.7652C96.2914 17.6922 96.3873 17.5711 96.477 17.3957C96.5667 17.2204 96.5417 17.0031 96.523 16.8401C96.5044 16.6772 96.4919 16.5685 96.4794 16.4599C96.467 16.3512 96.4545 16.2426 96.3816 16.0858C96.363 15.9229 96.2963 15.8205 96.2839 15.7118C96.1985 15.4464 96.0715 15.2959 95.9027 15.2602C95.9463 15.6405 95.9419 16.0812 96.0584 16.6182L96.0852 17.3306ZM95.6367 13.4195L95.7924 14.7775C96.0634 14.7465 96.1344 14.4081 96.0471 13.6476C95.9599 12.8872 95.808 12.5193 95.585 12.4899C95.5974 12.5985 95.5806 12.9307 95.6367 13.4195Z" fill="black"/>
<path d="M98.8435 14.0974L98.8622 14.2604C99.1674 16.922 98.9919 18.263 98.3834 18.2227C98.1666 18.2476 97.9312 18.1095 97.7917 17.8503C97.6522 17.5911 97.5127 17.332 97.4877 17.1147C97.39 16.7406 97.3401 16.3061 97.2841 15.8172C97.228 15.3283 97.147 14.6222 97.0349 13.6444L96.8312 12.3469C96.8729 12.2321 96.9209 12.1715 96.9751 12.1653C97.0292 12.1591 97.0897 12.2072 97.1563 12.3096C97.2229 12.4121 97.2354 12.5207 97.2541 12.6837L97.5344 15.1281C97.5593 15.3454 97.5967 15.6713 97.7007 16.0996C97.8047 16.528 97.8421 16.8539 97.867 17.0712C97.9169 17.5057 98.1043 17.7044 98.4357 17.7214C98.767 17.7385 98.7969 16.084 98.4293 12.8791L98.3733 12.3902L98.3546 12.2273C98.3483 12.1729 98.3421 12.1186 98.3901 12.0581C98.3838 12.0038 98.438 11.9975 98.5464 11.9851C98.6006 11.9789 98.6547 11.9727 98.7152 12.0208C98.7756 12.0689 98.7756 12.0689 98.7818 12.1232C98.788 12.1775 98.8547 12.28 98.8671 12.3886L98.9126 13.2639L98.8435 14.0974Z" fill="black"/>
<path d="M99.8089 17.7291L100.146 17.8005C100.255 17.788 100.303 17.7275 100.351 17.667C100.392 17.5521 100.434 17.4372 100.47 17.2681C100.493 16.9903 100.516 16.7124 100.491 16.4952C100.466 16.2779 100.387 16.0668 100.308 15.8557C100.229 15.6447 100.15 15.4336 100.022 15.2831C99.8892 15.0782 99.8163 14.9215 99.683 14.7166C99.4102 14.2526 99.252 13.8305 99.2022 13.3959C99.171 13.1243 99.2003 12.9008 99.2296 12.6773C99.3485 12.2784 99.4924 12.0968 99.7153 12.1263C99.8237 12.1139 99.8841 12.162 99.9987 12.2039C100.059 12.252 100.126 12.3544 100.132 12.4087C100.151 12.5717 100.103 12.6322 99.9881 12.5903C99.9339 12.5965 99.8735 12.5484 99.8194 12.5546C99.6568 12.5733 99.5671 12.7487 99.5628 13.1894C99.5752 13.2981 99.5877 13.4067 99.6002 13.5154C99.6126 13.624 99.6313 13.787 99.7042 13.9437C99.777 14.1005 99.8499 14.2572 99.9228 14.414C99.9957 14.5707 100.123 14.7212 100.196 14.878C100.268 15.0347 100.396 15.1853 100.468 15.342C100.675 15.7036 100.779 16.132 100.828 16.5665C100.872 16.9468 100.855 17.2789 100.73 17.6235C100.695 17.7926 100.599 17.9137 100.503 18.0348C100.407 18.1558 100.244 18.1745 100.082 18.1931C99.8587 18.1637 99.7379 18.0674 99.713 17.8502L99.8089 17.7291Z" fill="black"/>
<path d="M80.8843 9.7179C80.8843 9.7179 88.3679 8.91471 90.8915 8.90048C93.4693 8.88003 101.061 9.49539 101.061 9.49539L101.148 10.2559L80.959 10.3697L80.8843 9.7179Z" fill="#FF9F00"/>
<path d="M72.2283 34.7607L69.0314 35.1273C68.4896 35.1894 68.0063 34.8046 67.944 34.2614L66.8538 24.7554C66.7915 24.2121 67.1752 23.7279 67.717 23.6657L70.9138 23.2991C71.4557 23.237 71.939 23.6218 72.0013 24.165L73.0914 33.6711C73.1537 34.2143 72.7701 34.6986 72.2283 34.7607Z" fill="#002234"/>
<path d="M71.4721 33.9118L69.5215 34.1355C69.1422 34.179 68.7255 33.8965 68.6757 33.462L67.7537 25.4226C67.7101 25.0424 67.9916 24.6248 68.4251 24.5751L70.3757 24.3514C70.755 24.3079 71.1716 24.5903 71.2215 25.0249L72.1497 33.1186C72.1933 33.4989 71.9055 33.8621 71.4721 33.9118Z" fill="#1F192A"/>
<path d="M63.9738 24.5353L65.8123 23.3338L66.503 21.2183C66.6157 20.7651 66.9638 20.45 67.3848 20.2917L68.329 19.9082C68.4311 19.8415 68.5395 19.8291 68.6541 19.871C68.8771 19.9004 69.1729 20.0866 69.2414 20.6842C69.3598 21.7162 69.6339 24.1063 69.6339 24.1063" stroke="#8AB6D1" stroke-width="0.8233" stroke-miterlimit="10"/>
</g>
<defs>
<linearGradient id="paint0_linear_856_2739" x1="-2.91791" y1="47.6775" x2="56.0186" y2="40.9186" gradientUnits="userSpaceOnUse">
<stop stop-color="#55A7CA"/>
<stop offset="0.2576" stop-color="#2D97B9"/>
<stop offset="1" stop-color="#26649E"/>
</linearGradient>
<linearGradient id="paint1_linear_856_2739" x1="65.8227" y1="31.8228" x2="114.872" y2="26.1979" gradientUnits="userSpaceOnUse">
<stop stop-color="#55A7CA"/>
<stop offset="0.2576" stop-color="#2D7EB9"/>
<stop offset="1" stop-color="#26819E"/>
</linearGradient>
<clipPath id="clip0_856_2739">
<rect width="152" height="76" fill="white" transform="translate(-6.83447 17.9062) rotate(-6.5421)"/>
</clipPath>
</defs>
</svg>
