<svg width="21" height="20" viewBox="0 0 21 20" fill="none" xmlns="http://www.w3.org/2000/svg">
<path d="M6.25 0.740741C6.25 0.331644 5.91421 0 5.5 0C5.08579 0 4.75 0.331644 4.75 0.740741V2.3005C3.31067 2.41433 2.36577 2.6937 1.67157 3.37933C0.97737 4.06496 0.69451 4.99819 0.57926 6.41975H20.4207C20.3055 4.99819 20.0226 4.06496 19.3284 3.37933C18.6342 2.6937 17.6893 2.41433 16.25 2.3005V0.740741C16.25 0.331644 15.9142 0 15.5 0C15.0858 0 14.75 0.331644 14.75 0.740741V2.23496C14.0847 2.22222 13.339 2.22222 12.5 2.22222H8.5C7.66097 2.22222 6.91527 2.22222 6.25 2.23496V0.740741Z" fill="white"/>
<path fill-rule="evenodd" clip-rule="evenodd" d="M0.5 10.1235C0.5 9.29482 0.5 8.55832 0.5129 7.90123H20.4871C20.5 8.55832 20.5 9.29482 20.5 10.1235V12.0988C20.5 15.8234 20.5 17.6858 19.3284 18.8429C18.1569 20 16.2712 20 12.5 20H8.5C4.72876 20 2.84315 20 1.67157 18.8429C0.5 17.6858 0.5 15.8234 0.5 12.0988V10.1235ZM15.5 12.0988C16.0523 12.0988 16.5 11.6566 16.5 11.1111C16.5 10.5656 16.0523 10.1235 15.5 10.1235C14.9477 10.1235 14.5 10.5656 14.5 11.1111C14.5 11.6566 14.9477 12.0988 15.5 12.0988ZM15.5 16.0494C16.0523 16.0494 16.5 15.6072 16.5 15.0617C16.5 14.5162 16.0523 14.0741 15.5 14.0741C14.9477 14.0741 14.5 14.5162 14.5 15.0617C14.5 15.6072 14.9477 16.0494 15.5 16.0494ZM11.5 11.1111C11.5 11.6566 11.0523 12.0988 10.5 12.0988C9.9477 12.0988 9.5 11.6566 9.5 11.1111C9.5 10.5656 9.9477 10.1235 10.5 10.1235C11.0523 10.1235 11.5 10.5656 11.5 11.1111ZM11.5 15.0617C11.5 15.6072 11.0523 16.0494 10.5 16.0494C9.9477 16.0494 9.5 15.6072 9.5 15.0617C9.5 14.5162 9.9477 14.0741 10.5 14.0741C11.0523 14.0741 11.5 14.5162 11.5 15.0617ZM5.5 12.0988C6.05228 12.0988 6.5 11.6566 6.5 11.1111C6.5 10.5656 6.05228 10.1235 5.5 10.1235C4.94772 10.1235 4.5 10.5656 4.5 11.1111C4.5 11.6566 4.94772 12.0988 5.5 12.0988ZM5.5 16.0494C6.05228 16.0494 6.5 15.6072 6.5 15.0617C6.5 14.5162 6.05228 14.0741 5.5 14.0741C4.94772 14.0741 4.5 14.5162 4.5 15.0617C4.5 15.6072 4.94772 16.0494 5.5 16.0494Z" fill="white"/>
</svg>
