<svg width="87" height="57" viewBox="0 0 87 57" fill="none" xmlns="http://www.w3.org/2000/svg">
<g filter="url(#filter0_d_775_3323)">
<path d="M12.451 34.3483V47.9172C12.451 48.7235 13.2733 49.2303 13.9813 48.9078L36.205 32.298L12.451 34.3483Z" fill="url(#paint0_linear_775_3323)"/>
<path d="M12.451 34.3483V47.9172C12.451 48.7235 13.2733 49.2303 13.9813 48.9078L36.205 32.298L12.451 34.3483Z" fill="url(#paint1_linear_775_3323)"/>
<path d="M55.3682 30.6393C55.117 34.141 52.3761 36.9515 48.9044 37.2049C46.4604 37.3662 42.7146 37.5044 38.4663 37.5505C28.8276 37.6887 16.5852 37.5735 11.0578 37.1819C7.70027 36.9285 4.98226 34.2792 4.61681 30.8927C3.77172 22.9449 3.8174 14.8819 4.6625 6.72678C5.0051 3.29425 7.76879 0.621942 11.172 0.414608C19.2804 -0.0922093 41.0929 -0.138284 48.7673 0.345496C52.2619 0.575868 55.0941 3.36336 55.3225 6.88804C55.391 7.78649 55.4367 8.70798 55.4824 9.60643C55.8707 16.771 55.8479 23.7973 55.3682 30.6393Z" fill="url(#paint2_linear_775_3323)"/>
<path d="M55.3682 30.6393C55.117 34.141 52.3761 36.9515 48.9044 37.2049C46.4604 37.3662 42.7146 37.5044 38.4663 37.5505C38.4435 37.4353 38.4434 37.3201 38.4206 37.1819C37.9409 30.2477 37.9866 23.1062 38.4662 15.7804C38.6718 12.6013 41.2299 10.0902 44.3819 9.88287C46.8487 9.72161 50.9143 9.62946 55.4595 9.58339C55.8706 16.771 55.8479 23.7973 55.3682 30.6393Z" fill="url(#paint3_linear_775_3323)"/>
<path d="M78.8481 38.5872V47.8942C78.8481 48.7005 78.0258 49.2303 77.2949 48.9078L55.0941 36.5368L78.8481 38.5872Z" fill="url(#paint4_linear_775_3323)"/>
<path d="M78.8481 38.5872V47.8942C78.8481 48.7005 78.0258 49.2303 77.2949 48.9078L55.0941 36.5368L78.8481 38.5872Z" fill="url(#paint5_linear_775_3323)"/>
<path d="M81.5204 36.5138C81.2235 39.2092 79.0765 41.3286 76.3813 41.5129C72.2929 41.8124 63.5907 41.9045 56.2361 41.8354C52.1705 41.7893 48.5389 41.6972 46.2777 41.5359C43.514 41.3286 41.3213 39.094 41.1386 36.3065C40.8188 31.8142 40.7503 27.2298 40.9102 22.5763C40.9787 20.8716 41.0472 19.1438 41.1842 17.416C41.367 14.6055 43.6053 12.3709 46.3919 12.2096C52.4902 11.818 69.849 11.8641 76.3128 12.2557C79.0308 12.417 81.2235 14.5594 81.4976 17.2778C82.1599 23.7743 82.2056 30.2016 81.5204 36.5138Z" fill="url(#paint6_linear_775_3323)"/>
<path d="M56.2361 41.8354C52.1705 41.7893 48.5389 41.6972 46.2777 41.5359C43.514 41.3286 41.3213 39.094 41.1386 36.3065C40.8188 31.8142 40.7503 27.2298 40.9102 22.5763C44.6331 22.6224 47.8765 22.7146 49.955 22.8528C53.1069 23.0601 55.6422 25.5712 55.8706 28.7503C56.1676 33.1734 56.2818 37.5505 56.2361 41.8354Z" fill="url(#paint7_linear_775_3323)"/>
<path d="M48.6759 43.2867V48.2167C48.6759 48.7926 48.082 49.1612 47.5796 48.9308L32.2308 41.8584L48.6759 43.2867Z" fill="url(#paint8_linear_775_3323)"/>
<path d="M48.6759 43.2867V48.2167C48.6759 48.7926 48.082 49.1612 47.5796 48.9308L32.2308 41.8584L48.6759 43.2867Z" fill="url(#paint9_linear_775_3323)"/>
<path d="M34.8346 45.314C39.2428 45.6135 46.1635 45.6135 50.5717 45.314C52.4217 45.1758 53.9292 43.7244 54.1348 41.8584C54.5916 37.4583 54.5687 33.0122 54.1119 28.5199C53.9064 26.6309 52.3989 25.1565 50.526 25.0413C46.0493 24.7649 39.1514 24.7418 34.926 24.9952C32.9845 25.1104 31.4314 26.6539 31.3172 28.6121C31.0203 33.0813 30.9974 37.4583 31.2943 41.7202C31.4085 43.6323 32.916 45.1758 34.8346 45.314Z" fill="url(#paint10_linear_775_3323)"/>
<path d="M37.8162 36.2943C38.5922 35.5116 38.5922 34.2426 37.8162 33.4599C37.0402 32.6772 35.7821 32.6772 35.006 33.4599C34.23 34.2426 34.23 35.5116 35.006 36.2942C35.7821 37.0769 37.0402 37.0769 37.8162 36.2943Z" fill="white"/>
<path d="M44.1662 36.2953C44.9422 35.5126 44.9422 34.2436 44.1662 33.4609C43.3902 32.6782 42.1321 32.6782 41.3561 33.4609C40.58 34.2436 40.58 35.5126 41.3561 36.2953C42.1321 37.078 43.3902 37.078 44.1662 36.2953Z" fill="white"/>
<path d="M50.2844 36.4989C51.1698 35.8449 51.362 34.5908 50.7136 33.6978C50.0652 32.8047 48.8218 32.6109 47.9364 33.2649C47.051 33.9188 46.8588 35.1729 47.5072 36.066C48.1556 36.959 49.399 37.1529 50.2844 36.4989Z" fill="white"/>
</g>
<defs>
<filter id="filter0_d_775_3323" x="0.00537109" y="0.00732422" width="86.0093" height="56.9988" filterUnits="userSpaceOnUse" color-interpolation-filters="sRGB">
<feFlood flood-opacity="0" result="BackgroundImageFix"/>
<feColorMatrix in="SourceAlpha" type="matrix" values="0 0 0 0 0 0 0 0 0 0 0 0 0 0 0 0 0 0 127 0" result="hardAlpha"/>
<feOffset dy="4"/>
<feGaussianBlur stdDeviation="2"/>
<feComposite in2="hardAlpha" operator="out"/>
<feColorMatrix type="matrix" values="0 0 0 0 0 0 0 0 0 0 0 0 0 0 0 0 0 0 0.25 0"/>
<feBlend mode="normal" in2="BackgroundImageFix" result="effect1_dropShadow_775_3323"/>
<feBlend mode="normal" in="SourceGraphic" in2="effect1_dropShadow_775_3323" result="shape"/>
</filter>
<linearGradient id="paint0_linear_775_3323" x1="42.0318" y1="17.6353" x2="40.2848" y2="51.1636" gradientUnits="userSpaceOnUse">
<stop offset="0.1419" stop-color="#7532FF"/>
<stop offset="0.3041" stop-color="#7E44FD"/>
<stop offset="1" stop-color="#A58CF4"/>
</linearGradient>
<linearGradient id="paint1_linear_775_3323" x1="42.732" y1="15.0711" x2="43.5053" y2="45.9839" gradientUnits="userSpaceOnUse">
<stop offset="0.00357556" stop-color="#19004D"/>
<stop offset="1" stop-color="#A58CF4" stop-opacity="0"/>
</linearGradient>
<linearGradient id="paint2_linear_775_3323" x1="55.7328" y1="41.5342" x2="32.6808" y2="0.464955" gradientUnits="userSpaceOnUse">
<stop offset="0.1419" stop-color="#7532FF"/>
<stop offset="0.3041" stop-color="#7E44FD"/>
<stop offset="1" stop-color="#A58CF4"/>
</linearGradient>
<linearGradient id="paint3_linear_775_3323" x1="53.3907" y1="28.6196" x2="34.9139" y2="-18.0382" gradientUnits="userSpaceOnUse">
<stop offset="0.00357556" stop-color="#19004D"/>
<stop offset="1" stop-color="#A58CF4" stop-opacity="0"/>
</linearGradient>
<linearGradient id="paint4_linear_775_3323" x1="42.7365" y1="1.72648" x2="58.3486" y2="88.037" gradientUnits="userSpaceOnUse">
<stop offset="0.366" stop-color="#D06F8B"/>
<stop offset="0.4753" stop-color="#D37981"/>
<stop offset="0.6631" stop-color="#DB9565"/>
<stop offset="0.9054" stop-color="#E7C239"/>
<stop offset="1" stop-color="#EDD526"/>
</linearGradient>
<linearGradient id="paint5_linear_775_3323" x1="41.3342" y1="-28.0414" x2="47.5662" y2="53.2044" gradientUnits="userSpaceOnUse">
<stop offset="0.402" stop-color="#19004D"/>
<stop offset="1" stop-color="#D06F8B" stop-opacity="0"/>
</linearGradient>
<linearGradient id="paint6_linear_775_3323" x1="92.8018" y1="88.8336" x2="34.5308" y2="-9.76705" gradientUnits="userSpaceOnUse">
<stop offset="0.3087" stop-color="#D06F8B"/>
<stop offset="0.4278" stop-color="#D37981"/>
<stop offset="0.6326" stop-color="#DB9565"/>
<stop offset="0.8968" stop-color="#E7C239"/>
<stop offset="1" stop-color="#EDD526"/>
</linearGradient>
<linearGradient id="paint7_linear_775_3323" x1="24.5968" y1="34.0177" x2="47.9468" y2="-12.3533" gradientUnits="userSpaceOnUse">
<stop stop-color="#19004D" stop-opacity="0.54"/>
<stop offset="0.9943" stop-color="#EDD526" stop-opacity="0"/>
</linearGradient>
<linearGradient id="paint8_linear_775_3323" x1="43.0855" y1="15.3304" x2="41.8637" y2="45.4803" gradientUnits="userSpaceOnUse">
<stop offset="0.00570437" stop-color="#7532FF"/>
<stop offset="1" stop-color="#D06F8B"/>
</linearGradient>
<linearGradient id="paint9_linear_775_3323" x1="43.0855" y1="15.3304" x2="41.8637" y2="45.4803" gradientUnits="userSpaceOnUse">
<stop offset="0.00357556" stop-color="#19004D"/>
<stop offset="1" stop-color="#D06F8B" stop-opacity="0"/>
</linearGradient>
<linearGradient id="paint10_linear_775_3323" x1="31.0885" y1="51.9083" x2="43.5709" y2="-5.29228" gradientUnits="userSpaceOnUse">
<stop offset="0.00570437" stop-color="#7532FF"/>
<stop offset="0.0809944" stop-color="#823BEE"/>
<stop offset="0.2621" stop-color="#9E4ECA"/>
<stop offset="0.4451" stop-color="#B45CAF"/>
<stop offset="0.6287" stop-color="#C4679B"/>
<stop offset="0.8132" stop-color="#CD6D8F"/>
<stop offset="1" stop-color="#D06F8B"/>
</linearGradient>
</defs>
</svg>
