<svg width="39" height="55" viewBox="0 0 39 55" fill="none" xmlns="http://www.w3.org/2000/svg">
<path d="M27.9214 41.4871L19.3743 39.6645L19.3466 39.3037L10.7393 41.4171C10.7393 41.4171 5.57701 61.5915 6.17349 66.2027L19.0866 68.1734L32.0739 66.3886C32.8048 61.7358 27.9214 41.4871 27.9214 41.4871Z" fill="#0A5975"/>
<path d="M15.9424 43.7989C15.9424 43.7989 18.9301 46.4723 22.2001 44.1645L21.9088 42.7353L19.5593 42.8555L19.0736 42.8324L15.9424 43.7989Z" fill="#E2D16D"/>
<path d="M16.146 37.7957L19.2355 37.8605L22.561 37.8467L22.2186 40.4738L20.461 42.7863L19.5545 42.7955L19.0689 42.7723L17.6397 42.2774L16.146 37.7957Z" fill="#E2D16D"/>
<mask id="mask0_4133_96535" style="mask-type:luminance" maskUnits="userSpaceOnUse" x="15" y="44" width="9" height="21">
<path d="M21.0809 46.9104L20.5676 44.1677L19.4807 44.1908L18.3291 44.1584L17.811 46.8594L15.5627 61.6688L19.3227 64.9481L23.0692 61.757L21.0809 46.9104Z" fill="white"/>
</mask>
<g mask="url(#mask0_4133_96535)">
<path d="M21.0809 46.9104L20.5676 44.1677L19.4807 44.1908L18.3291 44.1584L17.811 46.8594L15.5627 61.6688L19.3227 64.9481L23.0692 61.757L21.0809 46.9104Z" fill="#CC111E"/>
</g>
<mask id="mask1_4133_96535" style="mask-type:luminance" maskUnits="userSpaceOnUse" x="15" y="44" width="9" height="21">
<path d="M21.0809 46.9104L20.5676 44.1677L19.4807 44.1908L18.3291 44.1584L17.811 46.8594L15.5627 61.6688L19.3227 64.9481L23.0692 61.757L21.0809 46.9104Z" fill="white"/>
</mask>
<g mask="url(#mask1_4133_96535)">
<g opacity="0.5">
<path d="M21.2996 40.7252L4.65405 53.1049L5.19386 53.8307L21.8394 41.451L21.2996 40.7252Z" fill="#A31321"/>
<path d="M22.5513 42.0467L5.90356 54.4244L6.44329 55.1504L23.0911 42.7726L22.5513 42.0467Z" fill="#A31321"/>
<path d="M23.8497 43.3279L7.2019 55.7057L7.74163 56.4316L24.3894 44.0538L23.8497 43.3279Z" fill="#A31321"/>
<path d="M25.0984 44.6378L8.45288 57.0175L8.99269 57.7433L25.6382 45.3636L25.0984 44.6378Z" fill="#A31321"/>
<path d="M26.4337 45.9728L9.78589 58.3506L10.3256 59.0765L26.9734 46.6987L26.4337 45.9728Z" fill="#A31321"/>
<path d="M27.731 47.2481L11.0854 59.6278L11.6253 60.3536L28.2708 47.9739L27.731 47.2481Z" fill="#A31321"/>
<path d="M28.9818 48.5722L12.334 60.95L12.8737 61.6759L29.5215 49.2981L28.9818 48.5722Z" fill="#A31321"/>
<path d="M30.2801 49.8533L13.6323 62.2311L14.1721 62.957L30.8198 50.5792L30.2801 49.8533Z" fill="#A31321"/>
<path d="M31.5774 51.1251L14.9319 63.5048L15.4717 64.2306L32.1172 51.8509L31.5774 51.1251Z" fill="#A31321"/>
<path d="M32.8643 52.4993L16.2166 64.8771L16.7563 65.603L33.4041 53.2252L32.8643 52.4993Z" fill="#A31321"/>
</g>
</g>
<path d="M17.8849 46.2495L17.6859 47.5954C17.6859 47.5954 19.2307 48.0209 21.1362 47.6325L20.979 46.3744L17.8849 46.2495Z" fill="#CC111E"/>
<path d="M17.8849 46.2495L17.6859 47.5954C17.6859 47.5954 19.2307 48.0209 21.1362 47.6325L20.979 46.3744L17.8849 46.2495Z" fill="#CC111E"/>
<path d="M17.8849 46.2495L17.6859 47.5954C17.6859 47.5954 19.2307 48.0209 21.1362 47.6325L20.979 46.3744L17.8849 46.2495Z" fill="#CC111E"/>
<mask id="mask2_4133_96535" style="mask-type:luminance" maskUnits="userSpaceOnUse" x="16" y="41" width="7" height="6">
<path d="M19.453 41.4701L16.6686 43.8011L17.8109 46.8583L19.4436 46.8537L21.0809 46.9093L22.2974 43.8521L19.453 41.4701Z" fill="white"/>
</mask>
<g mask="url(#mask2_4133_96535)">
<path d="M19.453 41.4701L16.6686 43.8011L17.8109 46.8583L19.4436 46.8537L21.0809 46.9093L22.2974 43.8521L19.453 41.4701Z" fill="#CC111E"/>
</g>
<mask id="mask3_4133_96535" style="mask-type:luminance" maskUnits="userSpaceOnUse" x="16" y="41" width="7" height="6">
<path d="M19.453 41.4701L16.6686 43.8011L17.8109 46.8583L19.4436 46.8537L21.0809 46.9093L22.2974 43.8521L19.453 41.4701Z" fill="white"/>
</mask>
<g mask="url(#mask3_4133_96535)">
<g opacity="0.5">
<path d="M21.2996 40.7242L4.65405 53.1039L5.19386 53.8297L21.8394 41.45L21.2996 40.7242Z" fill="#A31321"/>
<path d="M22.5513 42.0457L5.90356 54.4235L6.44329 55.1494L23.0911 42.7716L22.5513 42.0457Z" fill="#A31321"/>
<path d="M23.8648 43.3295L7.21704 55.7073L7.75677 56.4332L24.4045 44.0554L23.8648 43.3295Z" fill="#A31321"/>
<path d="M25.0984 44.6368L8.45288 57.0165L8.99269 57.7423L25.6382 45.3626L25.0984 44.6368Z" fill="#A31321"/>
<path d="M26.4337 45.9718L9.78589 58.3496L10.3256 59.0755L26.9734 46.6978L26.4337 45.9718Z" fill="#A31321"/>
</g>
</g>
<path d="M17.506 35.8167L17.4689 40.0533L19.0691 42.7729L19.5547 42.796L21.3262 39.8777L20.9563 35.8539L17.506 35.8167Z" fill="#B25F52"/>
<path d="M23.3104 46.7999L19.5549 42.7944L22.5614 37.8457L24.5871 40.5931L23.3104 46.7999Z" fill="#FFF39A"/>
<path d="M15.2626 46.7548L19.0692 42.7728L16.1463 37.7961L14.1158 40.4925L15.2626 46.7548Z" fill="#FFF39A"/>
<path d="M7.42852 24.3139C6.64226 24.3138 5.88836 24.7347 5.51371 25.3683C5.13443 25.9418 5.06503 26.6124 5.05576 27.2785C5.02337 27.6438 5.05111 28.0046 5.25461 28.2914C5.38873 28.4625 5.52747 28.6937 5.72172 28.8603C5.91597 29.0268 6.11021 29.1933 6.35996 29.295C6.60972 29.3968 6.91497 29.4338 7.14623 29.2951C7.37748 29.1563 7.41912 28.9112 7.5255 28.7216C7.86317 27.6069 8.13147 26.3767 7.68749 25.3221" fill="#B25F52"/>
<path d="M31.8489 24.1296C32.6351 24.1296 33.3982 24.6153 33.7451 25.1934C34.092 25.7716 34.1474 26.4931 34.1983 27.1545C34.226 27.5152 34.1936 27.8806 34.0364 28.1951C33.93 28.3847 33.7635 28.579 33.5322 28.7177C33.3657 28.912 33.1345 29.0507 32.8986 29.1294C32.6627 29.208 32.3019 29.2357 32.1123 29.1293C31.9227 29.0229 31.8441 28.7871 31.7655 28.5512C31.4371 27.4273 31.2244 26.234 31.6823 25.1101" fill="#B25F52"/>
<path d="M6.89646 26.8339C6.64182 34.5346 9.89767 40.6954 20.0451 40.5199C30.0722 40.3538 33.1897 35.2755 32.3852 26.3861C31.738 18.7547 27.3305 12.5616 19.8425 12.714C12.3545 12.8664 7.15572 19.1933 6.89646 26.8339Z" fill="#C17462"/>
<path d="M35.7852 13.1813L30.3001 5.55897C29.9625 5.10107 29.5138 4.77268 28.9542 4.57378L20.6431 1.88634C20.1482 1.74294 19.6024 1.72442 19.0705 1.88628L10.7407 4.46217C10.2088 4.62403 9.75091 4.96164 9.42252 5.41027L3.77505 12.9813C3.50216 13.3652 3.48364 13.9109 3.75651 14.3133L7.73849 20.4787L19.736 19.1933L31.7056 20.6922L35.7759 14.6335C36.1043 14.1849 36.1228 13.6392 35.7852 13.1813Z" fill="#0A5975"/>
<path d="M4.88473 21.9077C4.31121 22.3146 3.75156 22.902 3.62666 23.6374C3.50176 24.3728 3.80698 25.196 4.49149 25.4458C5.05111 25.6447 5.75876 25.4089 6.2074 24.951C6.59592 24.4978 6.78557 23.8179 6.79947 23.212C6.83646 23.693 7.05844 24.2203 7.44693 24.5533C7.83081 24.8262 8.49682 24.8354 8.82984 24.447C9.05185 24.188 9.08886 23.8827 9.12587 23.5774C9.19064 22.8467 9.25542 22.1159 9.13519 21.3389C9.79655 22.0743 11.0129 22.1622 11.8131 21.5564C12.6133 20.9505 12.8862 19.7804 12.3959 18.9109C12.1185 18.4483 11.73 18.1153 11.2906 17.9072C10.657 17.5325 9.91697 17.3475 9.21394 17.6435C9.42671 17.2642 9.02897 16.811 8.59422 16.6629C7.72471 16.3669 6.60543 16.7554 6.18915 17.6341C5.76824 18.4528 6.09658 19.5767 6.86433 20.1224C6.37407 20.0392 5.81907 19.9004 5.32881 19.8171C4.95881 19.7246 4.59343 19.6922 4.30667 19.8957C4.13554 20.0299 4.08928 20.2149 3.9829 20.4045C3.784 20.9641 3.7701 21.57 4.10772 22.0279C4.38521 22.4904 5.01421 22.8049 5.5461 22.6431" fill="#292525"/>
<path d="M4.81541 21.7914C3.72387 22.5406 2.6508 24.3166 4.06141 25.3573C5.60614 26.5691 6.90123 24.5341 6.9799 23.1974C6.85965 23.2067 6.73477 23.1558 6.61452 23.1651C6.79487 23.9375 7.17409 24.9365 8.19624 24.8579C9.21838 24.7793 9.32017 23.7433 9.38032 22.9524C9.3757 22.8923 9.35261 21.8054 9.46824 21.736C9.52374 21.6713 9.84748 21.9488 9.97236 21.9997C10.5135 21.9581 10.9575 22.2263 11.5449 21.9997C12.5439 21.6205 13.1175 20.4272 12.8585 19.419C12.5903 18.2904 11.4479 17.592 10.4026 17.37C10.0326 17.2775 9.80139 17.4162 9.54701 17.2543C9.23251 17.0971 9.14003 16.6808 8.76078 16.468C6.25865 15.3903 5.01439 18.8729 6.76724 20.4317C6.87362 20.242 6.97538 19.9923 7.08176 19.8027C5.60638 19.4927 3.86275 18.8405 3.6638 20.9727C3.57588 22.1891 4.4546 23.3916 5.74964 22.9292C5.92539 22.8552 5.96241 22.5499 5.71728 22.5083C4.49626 22.3602 4.46396 20.3668 5.60635 20.279C5.96711 20.2512 6.52673 20.4501 6.89674 20.5427C7.26674 20.6352 7.47026 20.1357 7.21126 19.9137C6.30477 19.1366 6.18917 18.4197 6.80433 17.7676C7.21599 16.8287 7.94213 16.8334 9.10299 17.7723C9.11686 17.9527 9.30186 17.9989 9.42211 17.9897C10.7865 17.6429 11.6051 18.0638 11.8826 19.3126C13.2146 20.9036 12.3543 21.5141 9.37113 21.2596C9.24163 21.1486 9.06587 21.2226 9.07974 21.403C9.10748 21.7637 9.13522 22.1245 9.10283 22.4899C9.33404 23.9237 8.68652 24.1549 7.10015 23.1882C7.08628 23.0078 6.77641 22.9107 6.73477 23.1558C6.855 23.9328 6.32773 24.1548 5.27323 23.8125C3.32605 24.4461 3.2197 23.8495 5.00966 21.9579C5.00504 21.8977 4.93104 21.722 4.81541 21.7914Z" fill="#292525"/>
<path d="M34.5964 22.1027C35.1745 22.5421 35.7017 23.1064 35.8173 23.8233C35.9329 24.5402 35.5721 25.3542 34.9292 25.6456C34.3419 25.8722 33.6573 25.6224 33.255 25.109C32.8572 24.6557 32.6861 24.0036 32.6954 23.3376C32.6723 23.8232 32.4086 24.3273 32.0109 24.6603C31.6085 24.9332 30.9425 24.9239 30.6095 24.5261C30.4106 24.2995 30.3875 23.9989 30.3644 23.6983C30.3089 22.9767 30.3089 22.1905 30.3737 21.4597C29.703 22.1766 28.5005 22.269 27.668 21.6678C26.8956 21.0618 26.6228 19.8732 27.164 19.0453C27.4322 18.6013 27.83 18.2683 28.2971 18.051C28.9354 17.6995 29.7078 17.5191 30.3368 17.8337C30.1241 17.4266 30.5773 17.0289 30.9289 16.8809C31.8122 16.5711 32.876 17.0336 33.3015 17.8476C33.727 18.6617 33.3939 19.8364 32.5845 20.322C33.121 20.2203 33.5974 20.1232 34.1339 20.0214C34.4901 19.9336 34.8508 19.9058 35.1699 20.1232C35.2994 20.2342 35.3734 20.41 35.452 20.6459C35.6139 21.1778 35.6 21.7836 35.3364 22.2878C35.0727 22.7919 34.4298 23.0833 33.8702 22.8844" fill="#292525"/>
<path d="M34.5408 22.1691C35.6184 22.812 35.475 23.3069 34.106 23.5936C33.1578 24.6342 32.7276 24.5463 32.8202 23.39C32.8063 23.2096 32.5011 23.1726 32.4548 23.3576C31.0164 24.315 30.3458 24.2456 30.4429 23.1494C30.4013 22.6083 30.4198 22.0625 30.4985 21.5122C30.4892 21.3919 30.3551 21.2208 30.2441 21.3503C28.468 22.636 27.728 21.6647 27.9687 18.5012C28.6532 17.9647 29.4302 17.8444 30.2951 18.0803C30.4801 18.1266 30.5911 17.9971 30.5772 17.8167C32.159 16.3645 32.8204 17.0999 32.441 20.0322C32.2144 20.2311 32.3161 20.7676 32.6723 20.6797C33.0885 20.5872 33.5557 20.3699 33.9858 20.4578C34.7767 20.5179 36.9134 22.3495 33.9117 22.6408C33.7314 22.6547 33.6342 22.9645 33.8238 23.0709C35.0078 23.5242 35.9051 22.6085 35.9376 21.4568C36.0671 19.2091 34.1662 19.6576 32.6168 19.9582C32.6954 20.1941 32.7694 20.3698 32.848 20.6057C34.4946 19.209 33.8333 16.1148 31.3219 16.4894C30.605 16.605 30.6374 17.0258 30.1147 17.308C29.8233 17.4513 29.8187 17.3912 29.2822 17.4929C28.2046 17.6363 27.0529 18.3901 26.7754 19.5001C26.4932 20.55 27.0065 21.7202 28.0055 22.1272C28.5698 22.3862 28.9768 22.1735 29.5226 22.192C30.2533 22.2568 29.9527 21.4936 30.1007 22.6314C30.1654 23.4732 30.022 24.7543 31.0719 25.0365C32.1217 25.3186 32.7092 24.3058 32.8849 23.4455C32.7647 23.4548 32.6398 23.4039 32.5196 23.4131C32.6166 24.6758 33.4815 26.4842 35.0633 25.8183C36.9364 25.0089 35.8034 22.8582 34.7119 22.0349C34.5223 21.9285 34.4159 22.1182 34.5408 22.1691Z" fill="#292525"/>
<mask id="mask4_4133_96535" style="mask-type:luminance" maskUnits="userSpaceOnUse" x="11" y="23" width="5" height="6">
<path d="M15.7257 26.8159C15.6979 28.0276 14.5139 28.3606 13.3067 28.3929C12.095 28.3651 11.1145 27.4123 11.1423 26.2006C11.1701 24.9888 11.7621 24.0361 12.8999 23.8881C14.1672 23.8511 15.7859 25.2387 15.7257 26.8159Z" fill="white"/>
</mask>
<g mask="url(#mask4_4133_96535)">
<path d="M15.7257 26.8181C15.6979 28.0299 14.5139 28.3628 13.3068 28.3952C12.095 28.3674 11.1145 27.4146 11.1423 26.2028C11.1701 24.9911 11.7529 23.9181 12.9647 23.9458C14.2366 23.969 15.7859 25.241 15.7257 26.8181Z" fill="#292525"/>
</g>
<mask id="mask5_4133_96535" style="mask-type:luminance" maskUnits="userSpaceOnUse" x="11" y="23" width="5" height="6">
<path d="M15.7257 26.8159C15.6979 28.0276 14.5139 28.3606 13.3067 28.3929C12.095 28.3651 11.1145 27.4123 11.1423 26.2006C11.1701 24.9888 11.7621 24.0361 12.8999 23.8881C14.1672 23.8511 15.7859 25.2387 15.7257 26.8159Z" fill="white"/>
</mask>
<g mask="url(#mask5_4133_96535)">
<path d="M15.9291 27.1039C15.9013 28.3156 14.7173 28.6486 13.5101 28.6809C12.2984 28.6532 11.3179 27.7004 11.3457 26.4886C11.3735 25.2768 12.1366 24.19 13.168 24.2316C14.3798 24.2594 15.9847 25.4666 15.9291 27.1039Z" fill="#FBFBFB"/>
</g>
<path d="M15.5962 26.7081C15.5961 27.4944 14.9209 28.1511 14.1346 28.1511C13.3483 28.1511 12.6916 27.4758 12.6916 26.6895C12.6916 25.9033 13.3669 25.2465 14.1532 25.2465C14.9395 25.2466 15.5962 25.9219 15.5962 26.7081Z" fill="#292525"/>
<path d="M15.4111 26.6612C15.3879 27.1469 14.9994 27.6001 14.4537 27.5816C13.968 27.5584 13.5148 27.1699 13.5333 26.6242C13.5565 26.1385 13.945 25.6853 14.4907 25.7038C14.9764 25.727 15.3741 26.1802 15.4111 26.6612Z" fill="#464344"/>
<path d="M14.4722 26.2496C14.4815 26.3699 14.3704 26.4994 14.1901 26.5132C14.0698 26.5225 13.9403 26.4115 13.9265 26.2311C13.9172 26.1109 14.0282 25.9814 14.2086 25.9675C14.3335 26.0184 14.463 26.1294 14.4722 26.2496Z" fill="#FBFBFB"/>
<path d="M10.393 23.5396C10.393 23.5396 10.3838 23.4194 10.4347 23.2945C10.4809 23.1095 10.5272 22.9245 10.6891 22.6701C10.7399 22.5453 10.8509 22.4158 10.962 22.2863C11.073 22.1568 11.184 22.0273 11.3551 21.8932C11.5262 21.759 11.6419 21.6897 11.8176 21.6157C11.9934 21.5417 12.1691 21.4677 12.3449 21.3937C12.5206 21.3197 12.7611 21.3012 12.9415 21.2873C13.1219 21.2735 13.3023 21.2596 13.4873 21.3058C13.6723 21.3521 13.8573 21.3984 13.9775 21.3891C14.1625 21.4354 14.2874 21.4862 14.4123 21.5371C14.662 21.6389 14.8563 21.8054 14.9812 21.8563C15.1107 21.9673 15.1754 22.0228 15.1754 22.0228C15.1754 22.0228 15.0551 22.032 14.9349 22.0413C14.7545 22.0551 14.5695 22.0089 14.2643 21.9719C14.144 21.9811 14.0191 21.9302 13.8388 21.9441C13.7185 21.9534 13.5381 21.9672 13.4179 21.9765C13.2976 21.9857 13.1172 21.9996 12.9369 22.0135C12.7565 22.0273 12.6409 22.0967 12.4605 22.1106C12.3449 22.1799 12.1645 22.1938 12.0488 22.2632C11.9332 22.3326 11.7575 22.4066 11.6418 22.4759C11.3504 22.6193 11.1192 22.758 10.9527 22.9523C10.615 23.2807 10.393 23.5396 10.393 23.5396Z" fill="#292525"/>
<mask id="mask6_4133_96535" style="mask-type:luminance" maskUnits="userSpaceOnUse" x="23" y="23" width="6" height="6">
<path d="M23.5929 26.878C23.5651 28.0898 24.7445 28.4829 25.9516 28.4506C27.1634 28.4784 28.1162 27.4979 28.144 26.2862C28.1718 25.0744 27.5521 24.0938 26.3958 24.0013C25.2395 23.9088 23.5883 25.2454 23.5929 26.878Z" fill="white"/>
</mask>
<g mask="url(#mask6_4133_96535)">
<path d="M23.5929 26.8782C23.5651 28.09 24.7445 28.4832 25.9517 28.4508C27.1634 28.4786 28.1162 27.4981 28.144 26.2864C28.1718 25.0746 27.5475 24.0339 26.3357 24.0061C25.1887 24.0339 23.5884 25.2456 23.5929 26.8782Z" fill="#292525"/>
</g>
<mask id="mask7_4133_96535" style="mask-type:luminance" maskUnits="userSpaceOnUse" x="23" y="23" width="6" height="6">
<path d="M23.5929 26.878C23.5651 28.0898 24.7445 28.4829 25.9516 28.4506C27.1634 28.4784 28.1162 27.4979 28.144 26.2862C28.1718 25.0744 27.5521 24.0938 26.3958 24.0013C25.2395 23.9088 23.5883 25.2454 23.5929 26.878Z" fill="white"/>
</mask>
<g mask="url(#mask7_4133_96535)">
<path d="M23.3754 27.1974C23.3476 28.4092 24.527 28.8024 25.7341 28.77C26.9459 28.7978 27.8987 27.8173 27.9265 26.6056C27.9543 25.3938 27.2051 24.3023 26.1783 24.3207C24.9712 24.3531 23.431 25.5602 23.3754 27.1974Z" fill="#FBFBFB"/>
</g>
<path d="M23.7639 26.7448C23.7639 27.5311 24.4206 28.2064 25.2069 28.2064C25.9931 28.2064 26.6684 27.5497 26.6684 26.7634C26.6685 25.9772 26.0117 25.3019 25.2255 25.3018C24.4392 25.3018 23.7639 25.9586 23.7639 26.7448Z" fill="#292525"/>
<path d="M23.9442 26.731C23.9211 27.2166 24.3789 27.6653 24.8646 27.6884C25.3502 27.7115 25.7988 27.2537 25.822 26.768C25.8451 26.2824 25.3873 25.8338 24.9016 25.8106C24.416 25.7875 23.9673 26.2453 23.9442 26.731Z" fill="#464344"/>
<path d="M24.8832 26.3561C24.8925 26.4764 25.0266 26.6475 25.1469 26.6382C25.2671 26.629 25.4382 26.4949 25.429 26.3746C25.4197 26.2544 25.2856 26.0832 25.1654 26.0925C25.0451 26.1017 24.8694 26.1757 24.8832 26.3561Z" fill="#FBFBFB"/>
<path d="M29.0321 23.679C29.0321 23.679 29.0228 23.5588 29.0136 23.4385C28.9997 23.2581 28.9211 23.0222 28.7222 22.7956C28.6529 22.68 28.5835 22.5644 28.4494 22.3932C28.3199 22.2822 28.2459 22.1065 28.0563 22.0001C27.9268 21.8891 27.7371 21.7827 27.5475 21.6763C27.3579 21.5699 27.1729 21.5237 26.9879 21.4774C26.8029 21.4312 26.6179 21.3849 26.3774 21.4034C26.197 21.4173 26.012 21.371 25.8316 21.3849C25.6512 21.3987 25.4755 21.4727 25.2951 21.4866C25.1193 21.5606 24.9991 21.5698 24.8835 21.6392C24.5875 21.7225 24.4163 21.8566 24.3053 21.9861C24.1897 22.0554 24.0741 22.1248 24.0741 22.1248C24.0741 22.1248 24.1943 22.1156 24.3146 22.1063C24.4949 22.0925 24.6753 22.0786 24.976 22.0555C25.0962 22.0462 25.2165 22.037 25.3968 22.0231C25.5171 22.0139 25.7021 22.0601 25.8223 22.0509C25.9426 22.0416 26.1276 22.0879 26.308 22.074C26.4328 22.1249 26.6132 22.111 26.7381 22.1619C26.863 22.2128 27.048 22.259 27.1729 22.3099C27.2977 22.3608 27.4226 22.4117 27.6122 22.5181C27.8666 22.68 28.121 22.8418 28.3152 23.0084C28.7685 23.3969 29.0321 23.679 29.0321 23.679Z" fill="#292525"/>
<path d="M9.81972 17.6581C9.81972 17.6581 11.6511 21.8115 19.0929 21.8441C27.9267 21.8906 29.6983 18.186 29.6983 18.186L20.18 15.5309L9.81972 17.6581Z" fill="#054C6A"/>
<path d="M9.52359 16.9548C9.52359 16.9548 18.4686 13.7268 29.9756 17.0758" stroke="#2A2E31" stroke-width="5" stroke-miterlimit="10"/>
<path d="M10.1205 17.6337C10.4395 18.6373 9.977 19.7011 9.20923 19.9415C8.38134 20.1866 7.4841 19.5298 7.2205 18.4614C6.90141 17.4578 7.36395 16.394 8.13172 16.1536C8.90411 15.9732 9.79673 16.5699 10.1205 17.6337Z" fill="#FF9126"/>
<path d="M32.3347 18.6471C32.0525 19.6969 31.1321 20.312 30.3274 20.0715C29.5226 19.831 29.1388 18.7718 29.4256 17.7821C29.7077 16.7322 30.6281 16.1171 31.4329 16.3576C32.2376 16.5982 32.6169 17.5972 32.3347 18.6471Z" fill="#FF9126"/>
<mask id="mask8_4133_96535" style="mask-type:luminance" maskUnits="userSpaceOnUse" x="14" y="34" width="11" height="5">
<path d="M23.8888 34.658C22.8574 35.4026 21.3265 35.9437 19.6938 35.9483C18.0611 35.9529 16.4424 35.3516 15.4157 34.5838C15.0965 34.3664 14.6895 34.5791 14.6618 35.0046C14.6756 35.185 14.6941 35.4255 14.9022 35.7724C15.4803 36.998 16.8354 38.8897 19.6197 38.9176C22.404 38.9454 23.7685 37.0261 24.4021 35.8282C24.5594 35.5137 24.601 35.2686 24.6473 35.0836C24.6195 34.7228 24.1755 34.4545 23.8888 34.658Z" fill="white"/>
</mask>
<g mask="url(#mask8_4133_96535)">
<path d="M23.8888 34.6584C22.8574 35.403 21.3265 35.9441 19.6938 35.9487C18.0611 35.9532 16.4424 35.3519 15.4157 34.5841C15.0965 34.3667 14.6895 34.5795 14.6618 35.005C14.6756 35.1854 14.6941 35.4259 14.9022 35.7727C15.4803 36.9984 16.8354 38.8901 19.6197 38.918C22.404 38.9458 23.7685 37.0264 24.4021 35.8286C24.5594 35.5141 24.601 35.2689 24.6473 35.0839C24.6195 34.7232 24.1755 34.4549 23.8888 34.6584Z" fill="#292525" stroke="#292525" stroke-width="0.25" stroke-miterlimit="10"/>
</g>
<mask id="mask9_4133_96535" style="mask-type:luminance" maskUnits="userSpaceOnUse" x="14" y="34" width="11" height="5">
<path d="M23.8888 34.658C22.8574 35.4026 21.3265 35.9437 19.6938 35.9483C18.0611 35.9529 16.4424 35.3516 15.4157 34.5838C15.0965 34.3664 14.6895 34.5791 14.6618 35.0046C14.6756 35.185 14.6941 35.4255 14.9022 35.7724C15.4803 36.998 16.8354 38.8897 19.6197 38.9176C22.404 38.9454 23.7685 37.0261 24.4021 35.8282C24.5594 35.5137 24.601 35.2686 24.6473 35.0836C24.6195 34.7228 24.1755 34.4545 23.8888 34.658Z" fill="white"/>
</mask>
<g mask="url(#mask9_4133_96535)">
<path d="M15.6423 34.385C15.6423 34.385 15.9799 36.4154 19.0232 36.6653C22.0665 36.9151 24.1894 35.4213 23.6761 34.2512L15.6423 34.385Z" fill="#FDFDFD"/>
</g>
<mask id="mask10_4133_96535" style="mask-type:luminance" maskUnits="userSpaceOnUse" x="14" y="34" width="11" height="5">
<path d="M23.8888 34.658C22.8574 35.4026 21.3265 35.9437 19.6938 35.9483C18.0611 35.9529 16.4424 35.3516 15.4157 34.5838C15.0965 34.3664 14.6895 34.5791 14.6618 35.0046C14.6756 35.185 14.6941 35.4255 14.9022 35.7724C15.4803 36.998 16.8354 38.8897 19.6197 38.9176C22.404 38.9454 23.7685 37.0261 24.4021 35.8282C24.5594 35.5137 24.601 35.2686 24.6473 35.0836C24.6195 34.7228 24.1755 34.4545 23.8888 34.658Z" fill="white"/>
</mask>
<g mask="url(#mask10_4133_96535)">
<path d="M17.2794 38.3722C17.2794 38.3722 19.6059 37.1652 21.997 38.3724L20.7806 39.0707L18.1628 38.8486L17.2794 38.3722Z" fill="#DB3A37"/>
</g>
<path d="M25.0033 31.8532C24.8738 31.7422 21.6778 31.867 21.6778 31.867L19.8833 32.1259L18.0518 31.9039C18.0518 31.9039 14.842 31.8483 14.731 31.9778C14.62 32.1073 14.9021 32.6299 15.2675 32.6623C15.2675 32.6623 15.5079 33.4301 16.3543 33.4255C16.3543 33.4255 16.7706 34.1192 17.9823 34.147C17.9823 34.147 18.8009 34.5679 19.948 34.5402C21.0996 34.5726 21.909 34.087 21.909 34.087C23.1115 33.9946 23.5417 33.2962 23.5417 33.2962C24.3835 33.2315 24.5685 32.4915 24.5685 32.4915C24.8784 32.5886 25.1374 32.0244 25.0033 31.8532Z" fill="#292525"/>
<path d="M19.5599 26.3446C18.4776 26.4278 17.0993 28.1668 16.8264 29.3369C16.609 30.4423 16.5812 31.6541 16.8633 32.1767C17.6403 33.629 22.5012 33.9206 22.7372 31.4832C22.913 29.0504 21.1833 26.2198 19.5599 26.3446Z" fill="#B25F52"/>
<path d="M13.6253 41.9812L10.7347 41.3567C10.7347 41.3567 -1.11035 47.7713 -0.269032 61.0731L3.7965 58.0993C3.7965 58.0993 4.93914 50.9351 10.4384 49.3026" fill="#0A5975"/>
<path d="M25.0031 42.0741L27.9215 41.4868C27.9215 41.4868 39.6782 48.0826 38.6418 61.3473L34.5996 58.3316C34.5996 58.3316 33.314 51.0517 27.8565 49.294" fill="#0A5975"/>
<path d="M14.0557 40.4974L8.17714 41.9171L7.45098 42.6987L14.2268 41.1495L14.0557 40.4974Z" fill="#FF9126"/>
<path d="M24.5822 40.5339L28.6985 41.3665L29.5449 42.1482L24.462 41.3294L24.5822 40.5339Z" fill="#FF9126"/>
</svg>
