<svg width="48" height="48" viewBox="0 0 48 48" fill="none" xmlns="http://www.w3.org/2000/svg">
<g filter="url(#filter0_d_3104_27847)">
<rect x="4" width="40" height="40" rx="20" fill="#F2994A" shape-rendering="crispEdges"/>
<path d="M33.9233 19.2861C33.8908 20.1488 33.7646 20.9951 33.5449 21.8252C33.3252 22.6553 32.9915 23.404 32.5439 24.0713C32.1045 24.7386 31.543 25.2716 30.8594 25.6704C30.1839 26.061 29.3701 26.2563 28.418 26.2563C27.9053 26.2563 27.4333 26.1668 27.002 25.9878C26.5788 25.8088 26.2126 25.5524 25.9033 25.2188C25.6022 24.8851 25.3703 24.4823 25.2075 24.0103C25.0529 23.5382 24.9919 23.0093 25.0244 22.4233L25.647 15.2578H28.3936L27.7832 22.4233C27.7425 22.7651 27.7466 23.0459 27.7954 23.2656C27.8524 23.4854 27.9378 23.6562 28.0518 23.7783C28.1738 23.9004 28.3122 23.9899 28.4668 24.0469C28.6296 24.0957 28.7923 24.1201 28.9551 24.1201C29.305 24.1201 29.6265 24.0021 29.9194 23.7661C30.2205 23.5301 30.481 23.2005 30.7007 22.7773C30.9285 22.346 31.1076 21.8455 31.2378 21.2759C31.368 20.6981 31.4412 20.0755 31.4575 19.4082C31.5063 18.391 31.4535 17.4469 31.2988 16.5762C31.1442 15.6973 30.8797 14.9079 30.5054 14.208C30.1392 13.5081 29.6631 12.9141 29.0771 12.4258C28.4912 11.9294 27.7954 11.5509 26.9897 11.2905C26.1841 11.022 25.2604 10.8877 24.2188 10.8877C23.234 10.8877 22.3267 11.0423 21.4966 11.3516C20.6665 11.6608 19.9219 12.1043 19.2627 12.6821C18.6117 13.2518 18.0501 13.9313 17.5781 14.7207C17.1143 15.5101 16.748 16.3849 16.4795 17.3452C16.2109 18.3055 16.0522 19.3268 16.0034 20.4092C15.9465 21.5811 16.0075 22.639 16.1865 23.583C16.3737 24.5189 16.6707 25.3368 17.0776 26.0366C17.4845 26.7446 17.9932 27.3306 18.6035 27.7944C19.2139 28.2664 19.9219 28.6204 20.7275 28.8564C21.5413 29.0924 22.4406 29.2104 23.4253 29.2104C24.1333 29.2104 24.8535 29.1331 25.5859 28.9785C26.3265 28.8239 26.9531 28.6367 27.4658 28.417L27.9297 30.4434C27.36 30.8096 26.6479 31.0822 25.7935 31.2612C24.939 31.4403 24.1333 31.5298 23.3765 31.5298C22.0581 31.5298 20.8577 31.3792 19.7754 31.0781C18.693 30.777 17.7368 30.3254 16.9067 29.7231C16.0848 29.1209 15.3971 28.3722 14.8438 27.4771C14.2985 26.59 13.8957 25.5565 13.6353 24.3765C13.3748 23.1965 13.2731 21.874 13.3301 20.4092C13.387 19.0745 13.5946 17.8213 13.9526 16.6494C14.3107 15.4694 14.8031 14.3993 15.4297 13.439C16.0645 12.4787 16.8213 11.6527 17.7002 10.9609C18.5791 10.2611 19.5679 9.72396 20.6665 9.34961C21.7733 8.97526 22.9736 8.78809 24.2676 8.78809C25.5534 8.78809 26.7171 8.95085 27.7588 9.27637C28.8086 9.60189 29.7282 10.0739 30.5176 10.6924C31.307 11.3027 31.9621 12.0392 32.4829 12.9019C33.0119 13.7645 33.3944 14.7329 33.6304 15.8071C33.8745 16.8813 33.9722 18.041 33.9233 19.2861ZM21.7041 20.6777C21.6634 21.1986 21.6634 21.6624 21.7041 22.0693C21.7529 22.4681 21.8384 22.8018 21.9604 23.0703C22.0907 23.3389 22.2575 23.5423 22.4609 23.6807C22.6725 23.819 22.9207 23.8882 23.2056 23.8882C23.3439 23.8882 23.5026 23.8556 23.6816 23.7905C23.8607 23.7173 24.0438 23.5911 24.231 23.4121C24.4181 23.2249 24.6012 22.9645 24.7803 22.6309C24.9593 22.2891 25.1139 21.8455 25.2441 21.3003L26.3794 22.6919C26.1922 23.2778 25.9644 23.7905 25.6958 24.23C25.4272 24.6694 25.118 25.0356 24.7681 25.3286C24.4263 25.6216 24.0438 25.8413 23.6206 25.9878C23.2056 26.1343 22.7498 26.2075 22.2534 26.2075C21.6593 26.2075 21.1222 26.0773 20.6421 25.8169C20.1701 25.5565 19.7713 25.1862 19.4458 24.7061C19.1203 24.2178 18.8843 23.6359 18.7378 22.9604C18.5994 22.2769 18.571 21.516 18.6523 20.6777C18.75 19.8558 18.9168 19.0949 19.1528 18.395C19.397 17.6951 19.6981 17.0726 20.0562 16.5273C20.4142 15.974 20.8252 15.502 21.2891 15.1113C21.7529 14.7207 22.2575 14.4237 22.8027 14.2202C23.3561 14.0168 23.938 13.915 24.5483 13.915C25.5168 13.915 26.2736 14.0534 26.8188 14.3301C27.3722 14.5986 27.8971 14.9079 28.3936 15.2578L27.0508 17.1621C26.8148 16.9505 26.5055 16.7471 26.123 16.5518C25.7487 16.3483 25.3011 16.2466 24.7803 16.2466C24.292 16.2466 23.8729 16.3442 23.5229 16.5396C23.173 16.7267 22.876 17.0116 22.6318 17.394C22.3877 17.7684 22.1883 18.2323 22.0337 18.7856C21.8872 19.3309 21.7773 19.9616 21.7041 20.6777Z" fill="black"/>
</g>
<defs>
<filter id="filter0_d_3104_27847" x="0" y="0" width="48" height="48" filterUnits="userSpaceOnUse" color-interpolation-filters="sRGB">
<feFlood flood-opacity="0" result="BackgroundImageFix"/>
<feColorMatrix in="SourceAlpha" type="matrix" values="0 0 0 0 0 0 0 0 0 0 0 0 0 0 0 0 0 0 127 0" result="hardAlpha"/>
<feOffset dy="4"/>
<feGaussianBlur stdDeviation="2"/>
<feComposite in2="hardAlpha" operator="out"/>
<feColorMatrix type="matrix" values="0 0 0 0 0 0 0 0 0 0 0 0 0 0 0 0 0 0 0.25 0"/>
<feBlend mode="normal" in2="BackgroundImageFix" result="effect1_dropShadow_3104_27847"/>
<feBlend mode="normal" in="SourceGraphic" in2="effect1_dropShadow_3104_27847" result="shape"/>
</filter>
</defs>
</svg>
