<svg width="101" height="90" viewBox="0 0 101 90" fill="none" xmlns="http://www.w3.org/2000/svg">
<g filter="url(#filter0_d_801_3129)">
<path d="M4.53976 63.2159C5.8911 49.5454 9.26945 15.5976 10.0062 10.634C10.9332 4.39877 18.5455 5.77604 18.5455 5.77604L20.1752 68.8886H9.56145C8.13541 68.8886 6.77389 68.2716 5.8198 67.1875C4.86232 66.1034 4.39716 64.6647 4.53976 63.2159Z" fill="url(#paint0_linear_801_3129)"/>
<path d="M90.4008 70.4772C93.7146 70.4057 96.346 67.6511 96.2747 64.3238L95.1916 13.0885C95.1305 10.2624 92.876 7.97832 90.0613 7.89309L15.999 5.68741C13.7954 5.62263 11.9789 7.39877 11.9823 9.61127L12.1589 68.3568C12.1657 70.4363 13.8701 72.1034 15.9379 72.0625L90.4008 70.4772Z" fill="url(#paint1_linear_801_3129)"/>
<path d="M95.1746 66.1784C96.234 66.1613 97.0353 65.2068 96.8723 64.1568C95.779 57.1818 92.3497 33.1818 93.4498 13.2556C93.5007 12.3454 92.7979 11.5749 91.8913 11.5442L17.4929 9.16127C16.4743 9.12718 15.6187 9.92832 15.578 10.951C15.2622 19.3272 14.084 53.8238 15.6255 66.0863C15.7206 66.8329 16.3589 67.3886 17.1093 67.375L95.1746 66.1784Z" fill="url(#paint2_linear_801_3129)"/>
<path d="M93.297 65.3909C94.319 65.3738 95.0897 64.4568 94.9302 63.4443C93.8776 56.7318 90.5774 33.6352 91.6367 14.4624C91.6842 13.5897 91.0086 12.8431 90.1394 12.8158L18.5387 10.5249C17.5574 10.4942 16.7358 11.2647 16.6984 12.2499C16.3929 20.3124 15.2588 53.5102 16.7426 65.3091C16.8342 66.0284 17.4488 66.5602 18.1686 66.55L93.297 65.3909Z" fill="#F2C63F"/>
<path d="M49.2902 24.9999L49.3988 30.1783C49.4158 30.9693 48.7843 31.6204 47.9966 31.6238L42.7066 31.6545C41.9359 31.6579 41.3044 31.0408 41.2908 30.2704L41.1753 24.8261C41.1584 24.0079 41.834 23.3465 42.6489 23.3806L47.9422 23.6158C48.6858 23.6499 49.2766 24.2533 49.2902 24.9999Z" fill="white"/>
<path d="M67.7811 31.5795L62.4912 31.6102C61.7205 31.6136 61.0889 30.9965 61.0754 30.2261L60.9769 25.5965C60.9599 24.7817 61.6288 24.1238 62.4369 24.1511L67.7302 24.342C68.4772 24.3692 69.0748 24.9761 69.0883 25.7261L69.18 30.134C69.2004 30.9249 68.5688 31.5727 67.7811 31.5795Z" fill="white"/>
<path d="M63.1465 54.6386L68.1784 54.5909C69.0204 54.5841 69.7131 55.2556 69.73 56.1011L69.8285 60.8329C69.8455 61.6716 69.1902 62.3738 68.3549 62.4079L63.3265 62.6227C62.464 62.6602 61.7408 61.9784 61.7239 61.1125L61.622 56.217C61.605 55.3579 62.2909 54.6488 63.1465 54.6386Z" fill="white"/>
<path d="M71.6111 60.7204L71.5126 56.0943C71.4956 55.2488 72.1679 54.5534 73.0099 54.5431L78.0927 54.492C78.9212 54.4852 79.6003 55.1465 79.6206 55.9784L79.7157 60.4375C79.7327 61.2625 79.091 61.9511 78.2693 61.9852L73.1899 62.2C72.341 62.2409 71.6314 61.5693 71.6111 60.7204Z" fill="white"/>
<path d="M71.1697 39.8397L71.0882 36.042C71.0678 35.1249 71.8046 34.3715 72.7179 34.3749L77.5733 34.3852C78.456 34.3852 79.1792 35.0977 79.1962 35.984L79.2743 39.6113C79.2947 40.5045 78.5919 41.2511 77.7023 41.2784L72.8503 41.4386C71.9472 41.4659 71.19 40.7465 71.1697 39.8397Z" fill="white"/>
<path d="M71.4039 50.8716L71.2817 45.0659C71.2647 44.234 71.9166 43.542 72.7451 43.5147L77.7091 43.3511C78.6156 43.3204 79.3694 44.0397 79.3898 44.9499L79.512 50.8068C79.529 51.659 78.8465 52.3579 78.0011 52.3579H72.9149C72.0932 52.3579 71.4209 51.6966 71.4039 50.8716Z" fill="white"/>
<path d="M57.8905 31.634L52.6006 31.6647C51.8299 31.6681 51.1983 31.0511 51.1848 30.2806L51.0795 25.2386C51.0625 24.4238 51.7314 23.7658 52.5395 23.7931L57.8328 23.984C58.5798 24.0113 59.1774 24.6181 59.1909 25.3681L59.2928 30.1886C59.3098 30.9795 58.6783 31.6306 57.8905 31.634Z" fill="url(#paint3_linear_801_3129)"/>
<path d="M61.51 50.8477L61.3945 45.417C61.3776 44.5715 62.0396 43.8693 62.8817 43.842L67.9102 43.6784C68.7658 43.6511 69.4822 44.3295 69.4992 45.1886L69.618 50.7863C69.635 51.6522 68.9423 52.3647 68.0799 52.3647H63.048C62.2128 52.3579 61.5303 51.6863 61.51 50.8477Z" fill="white"/>
<path d="M52.4648 34.3374L58.2403 34.3477C58.8752 34.3477 59.3913 34.859 59.4049 35.4931L59.5135 40.7159C59.5271 41.3568 59.0246 41.892 58.3863 41.9124L52.6142 42.1034C51.9657 42.1238 51.4224 41.609 51.4089 40.9579L51.2934 35.534C51.2832 34.8761 51.8095 34.334 52.4648 34.3374Z" fill="white"/>
<path d="M49.5177 35.7693L49.6229 40.7431C49.6399 41.5511 49.0084 42.2193 48.2037 42.2465L43.0326 42.417C42.2177 42.4443 41.5353 41.7965 41.5183 40.9749L41.4096 35.8204C41.3926 34.9954 42.0547 34.3136 42.8798 34.317L48.0543 34.3272C48.8522 34.3306 49.5007 34.9681 49.5177 35.7693Z" fill="white"/>
<path d="M68.2734 41.5886L62.5014 41.7795C61.8529 41.7999 61.3096 41.2852 61.2961 40.634L61.1874 35.5545C61.1738 34.8965 61.7001 34.3579 62.3554 34.3579L68.1308 34.3681C68.7658 34.3681 69.2819 34.8795 69.2954 35.5136L69.3973 40.392C69.4143 41.0329 68.9118 41.5647 68.2734 41.5886Z" fill="white"/>
<path d="M52.9979 44.1624L58.0264 43.9988C58.882 43.9715 59.5984 44.6499 59.6154 45.509L59.7274 50.7829C59.7444 51.6488 59.0517 52.3613 58.1893 52.3613H53.1575C52.3188 52.3613 51.6363 51.6897 51.6194 50.8477L51.5107 45.7409C51.4937 44.8954 52.1558 44.1897 52.9979 44.1624Z" fill="white"/>
<path d="M42.9409 44.4931L48.3225 44.3159C49.0797 44.292 49.7146 44.892 49.7282 45.6556L49.8402 50.9636C49.8572 51.7306 49.2426 52.3613 48.4787 52.3613H43.0937C42.3535 52.3613 41.7458 51.7647 41.7322 51.0215L41.6235 45.8909C41.6066 45.1409 42.1939 44.5204 42.9409 44.4931Z" fill="white"/>
<path d="M76.9349 31.4568L72.9217 31.4806C71.8555 31.4874 70.9795 30.6318 70.9558 29.5613L70.8845 26.2374C70.8641 25.2317 71.6892 24.417 72.6874 24.4545L77.1556 24.6147C78.1708 24.6522 78.9789 25.4772 78.9993 26.4931L79.057 29.2715C79.0842 30.4647 78.1267 31.4499 76.9349 31.4568Z" fill="white"/>
<path d="M81.4066 56.1147C81.3862 55.2045 82.1128 54.4545 83.0194 54.4477L84.768 54.4306C86.0955 54.417 87.182 55.3 87.2058 56.4113L87.2737 59.6261C87.2975 60.7272 86.2653 61.6511 84.9479 61.7056L83.0703 61.7841C82.2249 61.8216 81.5118 61.15 81.4949 60.2977L81.4066 56.1147Z" fill="white"/>
<path d="M25.18 55.0102L28.6194 54.9761C29.4615 54.9693 30.1575 55.6443 30.1745 56.4897L30.3001 62.5136C30.3171 63.3556 29.6618 64.0545 28.8265 64.092L25.404 64.2386C24.0391 64.2966 22.8949 63.4034 22.8711 62.2613L22.7625 57.0966C22.7353 55.9613 23.8218 55.0238 25.18 55.0102Z" fill="white"/>
<path d="M84.6287 52.3579H82.9209C82.0347 52.3579 81.3115 51.6488 81.2945 50.759L81.1689 44.8545C81.1485 43.9613 81.8514 43.2147 82.7409 43.1874L84.459 43.1295C85.8137 43.0852 86.941 43.9749 86.9647 45.1068L87.0734 50.2715C87.1005 51.4136 85.9937 52.3579 84.6287 52.3579Z" fill="white"/>
<path d="M84.4827 41.0534L82.3335 41.1249C81.6476 41.1488 81.0772 40.6034 81.0637 39.9147L80.972 35.6499C80.9584 34.9579 81.5152 34.3852 82.2045 34.3886L84.3741 34.392C85.6915 34.3954 86.7576 35.2715 86.778 36.3727L86.8323 38.9704C86.8595 40.0818 85.8137 41.0124 84.4827 41.0534Z" fill="white"/>
<path d="M24.6299 22.7158L28.0796 22.8386C28.8571 22.8658 29.475 23.4999 29.492 24.2772L29.6176 30.2261C29.6346 31.0477 28.9793 31.7261 28.1611 31.7295L24.6095 31.7499C23.2854 31.7568 22.2056 30.8772 22.1819 29.7693L22.0766 24.792C22.0529 23.6227 23.2242 22.6647 24.6299 22.7158Z" fill="#7D97F4"/>
<path d="M53.2593 54.734L58.2912 54.6863C59.1332 54.6795 59.8259 55.3511 59.8429 56.2L59.9481 61.2556C59.9651 62.0943 59.3098 62.7966 58.4745 62.8306L53.4461 63.0454C52.5836 63.0829 51.8604 62.4011 51.8435 61.5352L51.7348 56.3159C51.7178 55.4534 52.4003 54.7443 53.2593 54.734Z" fill="white"/>
<path d="M24.7759 34.2863L28.2697 34.2931C29.0676 34.2931 29.7161 34.934 29.7331 35.7352L29.8519 41.3943C29.8689 42.2022 29.2374 42.8704 28.4327 42.8977L24.9219 43.0136C23.5672 43.0579 22.4399 42.1681 22.4162 41.0363L22.3177 36.3727C22.2973 35.2272 23.4076 34.2829 24.7759 34.2863Z" fill="white"/>
<path d="M24.9015 45.0863L28.5515 44.967C29.3087 44.9431 29.9436 45.5431 29.9572 46.3068L30.0556 50.967C30.0726 51.734 29.4581 52.3647 28.6941 52.3647H25.0272C23.7098 52.3647 22.6403 51.4852 22.6165 50.384L22.5486 47.1693C22.5248 46.0579 23.574 45.1306 24.9015 45.0863Z" fill="white"/>
<path d="M39.841 45.9795L39.9462 50.9636C39.9632 51.7306 39.3487 52.3613 38.5847 52.3613H33.1997C32.4595 52.3613 31.8518 51.7681 31.8382 51.0216L31.7363 46.2147C31.7194 45.4647 32.3068 44.8443 33.0537 44.817L38.4353 44.6397C39.1925 44.6159 39.8274 45.2193 39.841 45.9795Z" fill="white"/>
<path d="M33.4781 54.9284L38.5066 54.8806C39.3487 54.8738 40.0447 55.5454 40.0617 56.3943L40.1805 62.0943C40.1975 62.9363 39.5422 63.6352 38.7069 63.6727L33.6819 63.8875C32.8194 63.925 32.0962 63.2431 32.0759 62.3772L31.9536 56.5136C31.9367 55.6477 32.6225 54.9352 33.4781 54.9284Z" fill="white"/>
<path d="M84.2009 31.4158L82.0958 31.4295C81.4236 31.4329 80.8735 30.8942 80.8599 30.2192L80.7717 26.0499C80.7581 25.3408 81.3387 24.7647 82.0449 24.7886L84.2722 24.8704C85.5489 24.9147 86.5573 25.7806 86.5777 26.8477L86.6286 29.3363C86.6591 30.4715 85.5625 31.409 84.2009 31.4158Z" fill="white"/>
<path d="M43.3687 54.8329L48.3123 54.7852C49.2019 54.775 49.9353 55.4875 49.9523 56.384L50.0643 61.675C50.0813 62.517 49.426 63.2159 48.5907 63.2534L43.5657 63.4681C42.7032 63.5056 41.98 62.8238 41.9597 61.9579L41.8442 56.4181C41.8272 55.5488 42.5131 54.8397 43.3687 54.8329Z" fill="white"/>
<path d="M39.3928 24.6386L39.5082 30.1749C39.5252 30.9965 38.8699 31.6749 38.0516 31.6783L32.8772 31.709C32.0759 31.7124 31.4206 31.0715 31.4036 30.267L31.2814 24.5158C31.2644 23.6704 31.957 22.9817 32.7991 23.0124L37.9803 23.1999C38.7545 23.2272 39.3758 23.8579 39.3928 24.6386Z" fill="white"/>
<path d="M39.6271 35.7522L39.7391 41.0704C39.7561 41.8784 39.1246 42.5465 38.3199 42.5738L33.1488 42.7443C32.3339 42.7715 31.6515 42.1238 31.6345 41.3022L31.519 35.8068C31.5021 34.9818 32.1641 34.2999 32.9892 34.3033L38.1637 34.3136C38.9582 34.3102 39.6101 34.9511 39.6271 35.7522Z" fill="white"/>
<path d="M84.7747 20.384L84.5371 22.1363C84.4624 22.6988 83.9904 23.1215 83.4234 23.1317L83.3419 23.1352C82.707 23.1488 82.1841 22.6442 82.1705 22.0067L82.1332 20.2136C82.1196 19.5181 82.7172 18.9692 83.4064 19.0442L83.7663 19.0851C84.4046 19.1533 84.863 19.7397 84.7747 20.384Z" fill="white"/>
<path d="M76.6701 19.9306L76.4324 21.6829C76.3577 22.2454 75.8858 22.6681 75.3188 22.6783L75.2373 22.6817C74.6023 22.6954 74.0795 22.1908 74.0659 21.5533L74.0285 19.7601C74.015 19.0647 74.6125 18.5158 75.3018 18.5908L75.6617 18.6317C76.3 18.7033 76.7584 19.2897 76.6701 19.9306Z" fill="white"/>
<path d="M66.698 20.0704L66.4603 21.8226C66.3856 22.3851 65.9137 22.8079 65.3467 22.8181L65.2652 22.8215C64.6303 22.8351 64.1074 22.3306 64.0938 21.6931L64.0564 19.8999C64.0429 19.2045 64.6404 18.6556 65.3297 18.7306L65.6896 18.7715C66.3313 18.8397 66.7863 19.4295 66.698 20.0704Z" fill="white"/>
<path d="M56.984 19.634L56.7463 21.3863C56.6716 21.9488 56.1997 22.3715 55.6326 22.3817H55.5512C54.9162 22.3954 54.3934 21.8908 54.3798 21.2533L54.3424 19.4601C54.3288 18.7647 54.9264 18.2158 55.6157 18.2908L55.9756 18.3317C56.6139 18.4033 57.0723 18.9897 56.984 19.634Z" fill="white"/>
<path d="M47.0051 18.359L46.7674 20.1113C46.6927 20.6738 46.2208 21.0965 45.6538 21.1067L45.5723 21.1101C44.9374 21.1238 44.4145 20.6192 44.4009 19.9817L44.3636 18.1886C44.35 17.4931 44.9475 16.9442 45.6368 17.0192L45.9967 17.0601C46.635 17.1283 47.0934 17.7181 47.0051 18.359Z" fill="white"/>
<path d="M36.4355 18.584L36.1978 20.3363C36.1231 20.8988 35.6511 21.3215 35.0841 21.3317L35.0026 21.3351C34.3677 21.3488 33.8448 20.8442 33.8313 20.2067L33.7939 18.4136C33.7803 17.7181 34.3779 17.1692 35.0671 17.2442L35.4271 17.2851C36.0654 17.3533 36.5237 17.9431 36.4355 18.584Z" fill="white"/>
<path d="M27.5125 18.3965L27.2749 20.1488C27.2002 20.7113 26.7282 21.134 26.1612 21.1442L26.0797 21.1476C25.4448 21.1613 24.9219 20.6567 24.9083 20.0192L24.871 18.2261C24.8574 17.5306 25.455 16.9817 26.1442 17.0567L26.5041 17.0976C27.1425 17.1658 27.6008 17.7556 27.5125 18.3965Z" fill="white"/>
<path d="M11.9857 67.9136C12.0876 67.9136 12.1725 67.8284 12.1725 67.7261L12.3999 34.6477C12.3999 34.542 12.3185 34.4602 12.2132 34.4568C12.1113 34.4568 12.0265 34.542 12.0265 34.6443L11.799 67.7227C11.7956 67.8284 11.8805 67.9136 11.9857 67.9136Z" fill="white"/>
<path d="M12.2641 27.2397C12.366 27.2397 12.4509 27.1545 12.4509 27.0522L12.529 15.4988C12.529 15.3931 12.4475 15.3113 12.3422 15.3079C12.2404 15.3079 12.1555 15.3931 12.1555 15.4954L12.0774 27.0488C12.0774 27.1545 12.1589 27.2397 12.2641 27.2397Z" fill="#F2C63F"/>
<path d="M82.7783 17.5408C83.8865 17.5408 84.7849 16.6388 84.7849 15.5261C84.7849 14.4133 83.8865 13.5113 82.7783 13.5113C81.67 13.5113 80.7716 14.4133 80.7716 15.5261C80.7716 16.6388 81.67 17.5408 82.7783 17.5408Z" fill="url(#paint4_linear_801_3129)"/>
<path d="M66.3313 17.384C67.4396 17.384 68.338 16.482 68.338 15.3692C68.338 14.2565 67.4396 13.3545 66.3313 13.3545C65.2231 13.3545 64.3247 14.2565 64.3247 15.3692C64.3247 16.482 65.2231 17.384 66.3313 17.384Z" fill="url(#paint5_linear_801_3129)"/>
<path d="M49.7316 16.842C50.8398 16.842 51.7382 15.9399 51.7382 14.8272C51.7382 13.7145 50.8398 12.8124 49.7316 12.8124C48.6233 12.8124 47.7249 13.7145 47.7249 14.8272C47.7249 15.9399 48.6233 16.842 49.7316 16.842Z" fill="url(#paint6_linear_801_3129)"/>
<path d="M33.2812 16.0647C34.3894 16.0647 35.2878 15.1626 35.2878 14.0499C35.2878 12.9372 34.3894 12.0351 33.2812 12.0351C32.173 12.0351 31.2746 12.9372 31.2746 14.0499C31.2746 15.1626 32.173 16.0647 33.2812 16.0647Z" fill="url(#paint7_linear_801_3129)"/>
<path d="M31.7567 0.0862649C35.1351 0.826038 34.8159 9.75105 34.5443 13.3715C34.4798 14.2238 33.7735 14.8817 32.9213 14.8817C32.6836 14.8817 32.4595 14.7795 32.3034 14.6022C32.1438 14.4249 32.0691 14.1897 32.0962 13.9545C32.3882 11.217 33.0096 3.33172 30.5208 2.90899C30.5208 2.90899 28.7383 2.59195 28.4361 6.06241H26.5075C26.5041 6.06241 27.5092 -0.844418 31.7567 0.0862649Z" fill="url(#paint8_linear_801_3129)"/>
<path d="M48.2037 0.543083C51.582 1.28286 51.2629 10.2079 50.9912 13.8317C50.9267 14.684 50.2205 15.342 49.3683 15.342C49.1306 15.342 48.9065 15.2397 48.7503 15.0624C48.5907 14.8851 48.516 14.6499 48.5432 14.4147C48.8352 11.6772 49.4566 3.78513 46.9678 3.3624C46.9678 3.3624 45.1852 3.11354 44.883 6.509H42.9545C42.9511 6.51241 43.9561 -0.387599 48.2037 0.543083Z" fill="url(#paint9_linear_801_3129)"/>
<path d="M64.6506 1.00672C68.029 1.74649 67.7098 10.6749 67.4382 14.2988C67.3737 15.1511 66.6675 15.8124 65.8152 15.8124C65.5776 15.8124 65.3535 15.7101 65.1973 15.5363C65.0377 15.359 64.963 15.1238 64.9902 14.8886C65.2822 12.1511 65.9035 4.25559 63.4147 3.83286C63.4147 3.83286 61.6322 3.63172 61.33 7.04423L59.3981 6.97604C59.4015 6.96923 60.4031 0.0760373 64.6506 1.00672Z" fill="url(#paint10_linear_801_3129)"/>
<path d="M81.0976 1.53854C84.476 2.27831 84.1568 11.2101 83.8852 14.834C83.8207 15.6863 83.1144 16.3476 82.2622 16.3476C82.0245 16.3476 81.8004 16.2488 81.6442 16.0715C81.4847 15.8942 81.41 15.659 81.4371 15.4238C81.7291 12.6863 82.3505 4.78059 79.8617 4.36127C79.8617 4.36127 78.0792 4.09877 77.777 7.49423H75.8484C75.8484 7.49423 76.8501 0.607855 81.0976 1.53854Z" fill="url(#paint11_linear_801_3129)"/>
<path d="M14.9261 34.3886L16.7765 40.2795C16.7765 40.2795 18.9224 41.8681 21.6624 40.3511C22.0834 40.1193 22.518 39.8159 22.9594 39.4204C26.2834 36.4443 24.0765 32.1113 24.0765 32.1113C24.0765 32.1113 26.6128 31.0852 25.4855 28.9238C25.4074 28.7772 25.1901 28.8011 25.146 28.9613C24.983 29.5579 24.5824 30.5977 23.7437 30.9693C23.6996 30.9863 23.6588 31.0068 23.6215 31.0238C23.5842 30.9113 23.5842 30.7784 23.6724 30.6352C23.9339 30.2363 23.4619 29.6874 23.4619 29.6874C23.4619 29.6874 23.4314 30.1715 23.0681 30.4715C22.7557 30.734 22.6029 31.3136 22.8168 31.7909C23.2718 33.5602 23.9508 35.9022 21.3025 37.617C21.0309 37.7909 20.7491 37.8965 20.4605 37.9443C17.9309 38.3704 14.9261 34.3886 14.9261 34.3886Z" fill="url(#paint12_linear_801_3129)"/>
<path d="M14.9261 34.3886L16.7765 40.2795C16.7765 40.2795 18.9224 41.8681 21.6624 40.3511L20.4638 37.9443C17.9309 38.3704 14.9261 34.3886 14.9261 34.3886Z" fill="url(#paint13_linear_801_3129)"/>
<path d="M14.3692 27.1613C14.3692 27.1613 15.4184 23.4965 11.4968 24.5056C11.4968 24.5056 9.57503 24.2363 9.5207 26.0534C9.5207 26.0534 8.69224 27.3079 8.6549 28.8556C8.6549 28.8556 4.88269 29.834 4.28511 31.3545C3.67735 32.909 4.01348 35.3772 5.56175 35.8034C5.56175 35.8034 4.32925 36.4613 4.95399 37.8659C5.57873 39.2704 8.59039 40.2011 10.3152 38.4318C10.3152 38.4318 15.3539 38.9806 15.1705 35.4215C15.1705 35.4215 17.4726 33.8534 14.9498 30.9659C12.4271 28.0784 14.3692 27.1613 14.3692 27.1613Z" fill="url(#paint14_linear_801_3129)"/>
<path d="M14.6782 33.7409C13.8871 33.5022 11.5783 33.0625 9.38489 35.0943C9.01141 35.4386 8.86201 35.9636 8.99443 36.4545C9.58522 38.6329 11.1369 45.0693 9.77535 47.8511C9.77535 47.8511 12.1792 50.5102 14.797 48.3659C14.797 48.3659 15.9718 43.2216 17.5133 40.9613C18.576 39.4034 15.819 35.1045 15.1196 34.0681C15.0143 33.9113 14.8582 33.7954 14.6782 33.7409Z" fill="url(#paint15_linear_801_3129)"/>
<path d="M12.4916 29.4113C12.4916 29.4113 11.3202 32.7386 11.2319 34.2079C11.2319 34.2079 12.5256 34.7977 13.7479 33.8022C13.7479 33.8022 13.8769 30.4784 14.0603 29.8852L12.4916 29.4113Z" fill="url(#paint16_linear_801_3129)"/>
<path d="M14.3692 26.1249C14.3692 26.1249 17.5337 30.3556 15.7308 31.6511C13.9278 32.9431 11.6767 29.9363 11.6767 29.9363C11.6767 29.9363 10.9094 27.5977 11.636 26.7795C12.3592 25.9647 14.3692 26.1249 14.3692 26.1249Z" fill="url(#paint17_linear_801_3129)"/>
<path d="M12.9262 25.1295C12.9262 25.1295 14.3421 25.4295 14.5526 26.067C14.7631 26.7011 12.5867 27.3454 11.9721 27.3897L11.5375 29.9806C11.5375 29.9806 10.0164 27.5874 10.5631 26.1727C11.1131 24.7579 12.9262 25.1295 12.9262 25.1295Z" fill="url(#paint18_linear_801_3129)"/>
<path d="M12.2641 29.6056C12.2641 29.6056 11.0384 28.2488 10.5868 29.1624C10.1353 30.0761 11.6971 30.7204 12.2234 30.2636L12.2641 29.6056Z" fill="url(#paint19_linear_801_3129)"/>
<path d="M17.8562 59.1693C17.846 59.4045 18.2569 61.2557 18.4776 62.2443C18.5659 62.6432 18.5047 63.0591 18.3044 63.4136L10.6038 76.4227C10.5121 76.5795 10.4442 76.75 10.4001 76.9273C10.2575 77.5375 9.96549 79.0341 10.1183 80.3943L10.5155 81.2261L8.79411 80.8341L8.42062 76.1909L8.90955 75.8909C9.33057 75.6318 9.65991 75.2466 9.84666 74.7898C10.5427 73.092 12.2709 68.7693 12.7157 66.6625C13.2216 64.2693 15.87 62.3227 15.87 62.3227L15.4048 61.2182L17.8562 59.1693Z" fill="url(#paint20_linear_801_3129)"/>
<path d="M6.88254 79.2352C6.88254 79.2352 7.81286 77.7557 7.92151 77.1796C8.03016 76.6034 8.33574 75.5841 8.90955 75.8909C8.90955 75.8909 9.18117 78.6898 9.0861 79.7841C8.99443 80.8784 10.3186 80.8443 10.3186 80.8443C10.3186 80.8443 10.6853 80.8955 10.9501 81.1648C11.1335 81.3489 11.0011 81.6727 10.743 81.6898C10.3084 81.717 9.61917 81.7239 8.89936 81.5841C8.64811 81.5364 8.45797 81.3182 8.44439 81.0625L8.25425 77.8409L7.07946 79.3273L6.88254 79.2352Z" fill="url(#paint21_linear_801_3129)"/>
<path d="M13.259 61.242C13.259 61.242 12.9873 72.8807 12.95 74.5341C12.9126 76.1875 13.2114 79.8489 14.8616 80.9432L14.1451 81.4784C14.1451 81.4784 13.2488 80.7114 12.3694 79.2386C11.3847 77.5818 11.086 77.2818 11.086 77.2818L11.4119 76.6102C11.5545 76.317 11.5986 75.983 11.5307 75.6625C11.1742 73.9307 9.98587 68.1659 9.65991 66.925C9.27624 65.4591 9.24908 63.5023 10.5834 61.8659C11.9144 60.2227 13.259 61.242 13.259 61.242Z" fill="url(#paint22_linear_801_3129)"/>
<path d="M11.7345 82C11.6835 82 11.6394 81.9625 11.6326 81.9114C11.5783 81.5227 11.3474 79.9682 11.1606 79.5659C10.9467 79.1057 10.2473 77.1625 11.1606 76.9989C11.1606 76.9989 13.4355 80.333 13.8701 80.783C14.3081 81.233 14.8582 80.9398 14.8582 80.9398C14.8582 80.9398 15.2826 81.0659 15.6051 81.4784C15.7579 81.6727 15.6153 81.9625 15.3675 81.9625L13.8362 81.9761C13.3914 81.9795 12.9907 81.7102 12.8244 81.2943C12.5561 80.6193 12.091 79.6273 11.5511 79.1875L11.8329 81.8841C11.8397 81.9489 11.7922 82 11.7345 82Z" fill="url(#paint23_linear_801_3129)"/>
<path d="M15.1603 47.1113C15.1603 47.1113 14.814 48.2159 15.3471 50.0363L18.6372 61.5693C18.6881 61.75 18.593 61.9409 18.4131 62.0023C17.4284 62.3568 14.1961 63.3591 9.77875 63.0523C9.55805 63.0352 9.37131 62.8784 9.32038 62.6602C9.02838 61.3443 8.03695 56.8579 7.83323 55.9375C7.0557 52.4261 6.18649 48.6386 10.0096 46.3477C11.7718 47.1079 13.4185 47.5545 15.1603 47.1113Z" fill="url(#paint24_linear_801_3129)"/>
<path d="M4.52618 42.6522H4.50241C4.91664 42.325 7.11681 42.3147 7.11681 42.3147C7.11681 42.3147 8.71601 39.9897 9.25587 39.4136C9.27285 39.3966 9.28982 39.3795 9.3068 39.3625C9.31698 39.3522 9.33057 39.3386 9.34754 39.325C9.54447 39.1409 9.75498 38.9568 9.98247 38.7659C10.2337 38.5545 10.434 38.2852 10.5563 37.9784C11.4017 35.8375 10.7328 34.4397 9.19475 35.3363C9.19475 35.3363 5.94203 38.05 4.67897 41.8954C4.66539 41.9431 4.65181 41.9875 4.63822 42.0318C4.58729 42.2091 4.53636 42.3795 4.49222 42.5363C4.48883 42.5466 4.50241 42.5636 4.49902 42.5772C4.49223 42.6011 4.53636 42.625 4.52618 42.6522Z" fill="url(#paint25_linear_801_3129)"/>
<path d="M12.5697 44.05C12.5697 44.05 8.79071 46.1943 7.51407 44.3636C7.24923 43.9818 7.04891 42.6727 7.11681 42.3147C5.98277 41.742 5.13055 42.5841 4.49562 42.5363C4.32925 43.4159 4.24776 44.2681 4.76046 45.2125C6.99458 49.317 13.0688 44.9841 13.0688 44.9841L12.5697 44.05Z" fill="url(#paint26_linear_801_3129)"/>
<path d="M12.1147 46.7636L14.1791 39.5295C14.2029 39.4477 14.2708 39.3863 14.3557 39.3761C14.7291 39.3318 15.8122 39.209 17.0617 39.1034C18.5693 38.9738 20.3178 38.8715 21.3636 38.9602C21.513 38.9738 21.6013 39.1306 21.5368 39.2636C20.9426 40.4704 18.4979 45.3829 17.2722 46.992C17.2315 47.0466 17.1704 47.0772 17.1025 47.0772L12.3151 47.0329C12.1758 47.0295 12.0774 46.8966 12.1147 46.7636Z" fill="url(#paint27_linear_801_3129)"/>
<path d="M17.2756 38.4761L18.773 38.2272C18.8511 38.2136 18.919 38.292 18.8918 38.367L18.7424 38.817C18.7288 38.8579 18.6949 38.8852 18.6541 38.8886L17.2145 39.0829C17.1398 39.0931 17.0787 39.025 17.0957 38.95L17.1874 38.5579C17.2009 38.517 17.2349 38.4829 17.2756 38.4761Z" fill="url(#paint28_linear_801_3129)"/>
<path d="M16.1586 39.7477L16.2808 39.1034C16.2944 39.0386 16.3453 38.9909 16.4098 38.984L19.4317 38.6772C19.5335 38.667 19.615 38.759 19.5912 38.8613L19.3977 39.6659C19.3807 39.7306 19.3264 39.775 19.2619 39.7784L16.3114 39.9284C16.2129 39.9318 16.1382 39.8431 16.1586 39.7477Z" fill="url(#paint29_linear_801_3129)"/>
<path d="M12.6138 45.0147C12.6138 45.0147 12.3252 43.8284 12.4441 43.4091C12.5595 42.9897 12.7836 42.4477 13.534 42.567C14.281 42.6863 15.1671 43.0034 15.1671 43.0034C15.1671 43.0034 15.123 43.5522 14.5526 43.375L14.9057 43.6477C14.9057 43.6477 14.8548 44.0875 14.376 43.8522L14.7054 44.217C14.7054 44.217 14.4983 44.5784 14.1451 44.3466C13.7852 44.1147 13.6155 45.1579 12.6138 45.0147Z" fill="url(#paint30_linear_801_3129)"/>
<path d="M79.8753 79.5318C80.938 79.6239 82.7851 79.7739 84.2417 79.8386C85.1177 79.8761 85.6202 79.7909 85.9122 79.675C85.9122 79.7091 85.9122 79.7398 85.9088 79.767C85.902 79.9205 85.7764 80.0432 85.6236 80.0534C82.8734 80.2068 80.6834 80.108 79.9058 80.0602C79.7463 80.05 79.6478 79.8761 79.7327 79.7364C79.77 79.6682 79.821 79.6 79.8753 79.5318Z" fill="url(#paint31_linear_801_3129)"/>
<path d="M84.2417 79.8386C82.7851 79.7739 80.938 79.6239 79.8753 79.5318C80.921 78.2432 84.2417 77.3739 84.2417 77.3739H85.1788C85.8239 78.308 85.919 79.1977 85.9088 79.675C85.6202 79.7909 85.1177 79.8795 84.2417 79.8386Z" fill="url(#paint32_linear_801_3129)"/>
<path d="M85.3384 75.8363L85.2501 77.5818C85.2399 77.7693 85.1007 77.9295 84.9106 77.9568C84.7238 77.9841 84.4726 77.9875 84.2043 77.8989C84.0414 77.8443 83.9191 77.7045 83.8886 77.5375L83.5864 75.8398H85.3384V75.8363Z" fill="url(#paint33_linear_801_3129)"/>
<path d="M96.2238 81.5432C96.6855 81.458 96.8927 81.1477 96.9809 80.817C96.9809 80.8205 96.9809 80.8239 96.9843 80.8273C97.0522 81.1784 96.8961 81.5432 96.5803 81.7136C96.2 81.9216 95.7824 81.9591 95.4598 81.942C95.1135 81.925 94.7943 81.7375 94.6212 81.4409L94.6178 81.4375C94.9675 81.6591 95.4564 81.683 96.2238 81.5432Z" fill="url(#paint34_linear_801_3129)"/>
<path d="M94.0508 76.375H94.8249C96.0031 76.3443 96.7433 79.5693 96.9843 80.817C96.8961 81.1511 96.6889 81.4614 96.2272 81.5432C95.4564 81.683 94.9709 81.6557 94.6212 81.4341C93.9863 80.3466 93.6705 78.7545 93.5177 77.8273C93.3446 76.7705 94.0508 76.375 94.0508 76.375Z" fill="url(#paint35_linear_801_3129)"/>
<path d="M94.7231 74.7557L95.1543 76.4705C95.2086 76.6818 95.1067 76.9 94.9132 76.9989C94.6721 77.1216 94.336 77.2511 94.0236 77.2136C93.8776 77.1966 93.7554 77.0909 93.7078 76.9545L93.0763 75.1511L94.7231 74.7557Z" fill="url(#paint36_linear_801_3129)"/>
<path d="M79.6138 52.1636C79.6138 52.1636 83.454 76.2557 83.3894 76.3886C83.3894 76.3886 84.4488 76.8727 85.6066 76.45C85.6066 76.45 85.2603 63.5704 84.4454 58.6341C84.4454 58.6341 90.995 70.1466 93.0763 75.8807C93.0763 75.8807 94.1628 75.7511 95.0592 75.158C95.0592 75.158 88.0037 54.4375 86.1227 51.6795L79.6138 52.1636Z" fill="url(#paint37_linear_801_3129)"/>
<path d="M84.2892 58.5079C84.3096 58.5079 84.33 58.5011 84.3503 58.4909C84.4046 58.4568 84.4182 58.3886 84.3877 58.3341L82.9548 56.0329C82.9379 56.0057 82.9107 55.9886 82.8801 55.9818L81.8242 55.767C81.7631 55.7534 81.702 55.7943 81.6918 55.8557C81.6782 55.917 81.7189 55.9784 81.7801 55.9886L82.7885 56.1932L84.1975 58.4534C84.2145 58.4875 84.2519 58.5079 84.2892 58.5079Z" fill="url(#paint38_linear_801_3129)"/>
<path d="M61.9989 28.5727C61.9989 28.5727 64.5895 29.1454 66.1649 29.8749C66.4773 30.0215 66.7286 30.2738 66.8712 30.5874C67.3431 31.6238 68.7522 34.2215 71.4854 35.4625C71.0916 35.9875 70.4566 37.0784 70.1816 38.9125C68.5383 37.6852 67.1224 35.6363 66.44 32.2749C66.44 32.2749 65.9205 32.5579 65.2754 32.2443C64.9324 32.0772 64.5386 31.842 64.2432 31.6545C63.9478 31.4704 63.7271 31.1806 63.6422 30.8465C63.5302 30.4034 63.5947 30.0113 63.5947 29.5954L62.2637 29.1829C62.2637 29.1795 61.8631 29.0261 61.9989 28.5727Z" fill="url(#paint39_linear_801_3129)"/>
<path d="M70.1782 38.9125C70.4532 37.0784 71.0882 35.9875 71.482 35.4625C73.1797 36.2329 75.3901 36.4784 78.2014 35.5C78.4594 35.4113 78.7311 35.3568 79.0061 35.3397C80.5034 35.2511 85.4402 35.0909 89.5214 36.4443C90.3804 36.7306 91.0765 37.3681 91.4364 38.1931C92.5398 40.7397 94.3292 46.5352 89.3652 49.4602C88.9849 48.5091 88.5435 47.7454 88.1667 47.1829C88.9646 45.8295 89.2022 43.9784 87.783 41.5715C86.7474 44.3772 86.2619 48.4681 86.16 50.2818C86.1261 50.8784 86.2313 51.475 86.4622 52.0238L86.486 52.0852C86.5369 52.2045 86.4656 52.3375 86.3434 52.3682C83.549 52.9988 80.6426 52.8284 79.7734 52.7568C79.6172 52.7432 79.4882 52.6341 79.4543 52.4806C78.0961 46.7295 78.0927 42.809 78.4255 40.3272C77.159 40.6136 73.2714 41.2238 70.1782 38.9125Z" fill="url(#paint40_linear_801_3129)"/>
<path d="M78.4255 40.484C78.4832 40.484 78.5307 40.4431 78.5375 40.3852C78.8567 37.9647 79.5052 36.9079 79.512 36.8977C79.5459 36.8431 79.529 36.775 79.478 36.7409C79.4237 36.7068 79.3558 36.7238 79.3218 36.775C79.2947 36.8193 78.6394 37.8761 78.3134 40.3545C78.3066 40.4159 78.3474 40.4738 78.4119 40.4806C78.4153 40.484 78.4187 40.484 78.4255 40.484Z" fill="url(#paint41_linear_801_3129)"/>
<path d="M85.3214 31.992C85.3214 31.992 85.6032 34.9954 85.8544 35.8818C85.8918 36.0181 85.8341 36.1579 85.7118 36.2295C85.2908 36.4715 84.2756 36.867 82.8903 36.1852C82.6662 36.0761 82.5304 35.8409 82.5406 35.592L82.6628 32.6909L85.3214 31.992Z" fill="url(#paint42_linear_801_3129)"/>
<path d="M82.6017 28.1534C82.6017 28.1534 81.6986 30.2397 81.6375 31.334C81.5763 32.4284 81.3421 33.1409 82.6017 33.359C83.8614 33.5806 84.9241 32.95 85.5013 31.859C85.5013 31.859 86.4045 30.1784 86.2008 29.4897C85.9971 28.8011 82.6017 28.1534 82.6017 28.1534Z" fill="url(#paint43_linear_801_3129)"/>
<path d="M85.0701 31.0749L84.9988 31.0443C84.9072 31.0034 84.8698 30.8943 84.9139 30.8056C85.0905 30.4613 85.4368 29.6704 84.992 29.4863C84.4148 29.2477 82.1298 28.7806 81.6375 27.9659C81.1621 27.1818 81.5831 26.1727 82.2147 25.8863C82.2554 25.8659 82.3063 25.8829 82.3267 25.9238L82.3776 26.0227C82.415 26.0909 82.5135 26.0806 82.5372 26.0056C82.5576 25.934 82.6527 25.9204 82.69 25.9818C82.8428 26.2238 83.2502 26.6193 84.3469 26.8238C85.902 27.1136 86.9308 27.7443 86.9579 28.8249C86.9579 28.8931 87.0326 28.9306 87.0904 28.8965C87.2058 28.8249 87.3892 28.7943 87.6336 29.0022C88.0614 29.3636 87.8849 30.2977 86.9511 31.0681C86.907 31.1056 86.907 31.1738 86.9545 31.2045C87.1243 31.317 87.379 31.5795 86.7203 31.9306C86.0412 32.2954 85.5353 32.2647 85.3418 32.234C85.2942 32.2272 85.2603 32.1795 85.2739 32.1318L85.481 31.184C85.4912 31.1295 85.4504 31.0784 85.3961 31.0784H85.0701V31.0749Z" fill="url(#paint44_linear_801_3129)"/>
<path d="M85.0294 31.2727C85.0294 31.2727 85.3757 29.9397 85.9699 30.3147C86.5641 30.6897 85.6609 31.8079 85.1822 31.859L85.0294 31.2727Z" fill="url(#paint45_linear_801_3129)"/>
<path d="M65.7473 31.9647C65.7711 31.9647 65.7983 31.9579 65.8186 31.9409C65.8662 31.9 65.8729 31.8284 65.8356 31.7806C65.7371 31.6579 64.8679 30.5909 64.5352 30.4034C64.413 30.3352 64.3417 30.2636 64.3247 30.1954C64.3179 30.1647 64.3213 30.1272 64.3383 30.0897L65.3603 30.2943L65.9375 30.792C65.985 30.8329 66.0563 30.8261 66.097 30.7784C66.1378 30.7306 66.131 30.659 66.0835 30.6181L65.4825 30.1C65.4689 30.0863 65.4485 30.0795 65.4316 30.0761L64.3009 29.8477C64.2568 29.8374 64.2092 29.8579 64.1855 29.8954C64.104 30.0181 64.0768 30.134 64.1006 30.2465C64.1311 30.3795 64.2364 30.4954 64.4197 30.5977C64.671 30.7409 65.3976 31.6 65.659 31.9204C65.6828 31.9511 65.7168 31.9647 65.7473 31.9647Z" fill="url(#paint46_linear_801_3129)"/>
<path d="M85.0735 50.9091L81.0772 50.9602L82.4761 49.6375C82.8224 49.3102 83.3555 49.2556 83.7561 49.5181C83.9904 49.6716 84.2451 49.8795 84.4658 50.1557C84.4658 50.1557 86.9579 49.242 88.1667 47.1931C88.5435 47.7556 88.9849 48.5193 89.3652 49.4704C88.2821 50.1045 86.8798 50.6057 85.0735 50.9091Z" fill="url(#paint47_linear_801_3129)"/>
<path d="M84.6423 51.4272C84.6355 51.4272 84.6253 51.4272 84.6185 51.4272L74.4699 51.417C74.2187 51.417 74.0149 51.2159 74.0149 50.967C74.0149 50.7181 74.2187 50.5102 74.4699 50.517L84.6185 50.5272C84.8698 50.5272 85.0735 50.7284 85.0735 50.9772C85.0735 51.2159 84.8834 51.4136 84.6423 51.4272Z" fill="url(#paint48_linear_801_3129)"/>
<path d="M65.3501 42.2738H73.801C74.4258 42.2738 74.9928 42.6318 75.2576 43.1909L79.1657 51.4204H68.6605C68.2599 51.4204 67.8966 51.175 67.7506 50.8068L64.7219 43.1909C64.5488 42.7511 64.8747 42.2738 65.3501 42.2738Z" fill="url(#paint49_linear_801_3129)"/>
<path d="M71.3021 46.4943C71.4854 47.0602 71.3496 47.6091 70.9999 47.7216C70.6502 47.8341 70.219 47.4659 70.0356 46.9C69.8523 46.3341 69.9881 45.7852 70.3378 45.6727C70.6875 45.5602 71.1221 45.9284 71.3021 46.4943Z" fill="url(#paint50_linear_801_3129)"/>
</g>
<defs>
<filter id="filter0_d_801_3129" x="0" y="0" width="101" height="90" filterUnits="userSpaceOnUse" color-interpolation-filters="sRGB">
<feFlood flood-opacity="0" result="BackgroundImageFix"/>
<feColorMatrix in="SourceAlpha" type="matrix" values="0 0 0 0 0 0 0 0 0 0 0 0 0 0 0 0 0 0 127 0" result="hardAlpha"/>
<feOffset dy="4"/>
<feGaussianBlur stdDeviation="2"/>
<feComposite in2="hardAlpha" operator="out"/>
<feColorMatrix type="matrix" values="0 0 0 0 0 0 0 0 0 0 0 0 0 0 0 0 0 0 0.25 0"/>
<feBlend mode="normal" in2="BackgroundImageFix" result="effect1_dropShadow_801_3129"/>
<feBlend mode="normal" in="SourceGraphic" in2="effect1_dropShadow_801_3129" result="shape"/>
</filter>
<linearGradient id="paint0_linear_801_3129" x1="40.5038" y1="-4.29703" x2="40.9337" y2="68.7091" gradientUnits="userSpaceOnUse">
<stop stop-color="#09005D"/>
<stop offset="1" stop-color="#1A0F91"/>
</linearGradient>
<linearGradient id="paint1_linear_801_3129" x1="50.7228" y1="84.8707" x2="48.6023" y2="-49.3893" gradientUnits="userSpaceOnUse">
<stop stop-color="#09005D"/>
<stop offset="1" stop-color="#1A0F91"/>
</linearGradient>
<linearGradient id="paint2_linear_801_3129" x1="-15.2319" y1="98.7233" x2="96.2046" y2="35.3799" gradientUnits="userSpaceOnUse">
<stop stop-color="#4F52FF"/>
<stop offset="1" stop-color="#4042E2"/>
</linearGradient>
<linearGradient id="paint3_linear_801_3129" x1="54.3676" y1="-6.82744" x2="22.7374" y2="449.141" gradientUnits="userSpaceOnUse">
<stop stop-color="#FF928E"/>
<stop offset="1" stop-color="#FE7062"/>
</linearGradient>
<linearGradient id="paint4_linear_801_3129" x1="-12.3387" y1="-66.5363" x2="79.1294" y2="134.715" gradientUnits="userSpaceOnUse">
<stop stop-color="#4F52FF"/>
<stop offset="1" stop-color="#4042E2"/>
</linearGradient>
<linearGradient id="paint5_linear_801_3129" x1="-12.3428" y1="-66.5005" x2="79.1253" y2="134.751" gradientUnits="userSpaceOnUse">
<stop stop-color="#4F52FF"/>
<stop offset="1" stop-color="#4042E2"/>
</linearGradient>
<linearGradient id="paint6_linear_801_3129" x1="-12.3852" y1="-66.5139" x2="79.0827" y2="134.738" gradientUnits="userSpaceOnUse">
<stop stop-color="#4F52FF"/>
<stop offset="1" stop-color="#4042E2"/>
</linearGradient>
<linearGradient id="paint7_linear_801_3129" x1="-12.3109" y1="-66.4738" x2="79.1572" y2="134.778" gradientUnits="userSpaceOnUse">
<stop stop-color="#4F52FF"/>
<stop offset="1" stop-color="#4042E2"/>
</linearGradient>
<linearGradient id="paint8_linear_801_3129" x1="-47.3018" y1="-64.8092" x2="9.10816" y2="159.699" gradientUnits="userSpaceOnUse">
<stop stop-color="#FF928E"/>
<stop offset="1" stop-color="#FE7062"/>
</linearGradient>
<linearGradient id="paint9_linear_801_3129" x1="-47.3115" y1="-64.8099" x2="9.09077" y2="159.72" gradientUnits="userSpaceOnUse">
<stop stop-color="#FF928E"/>
<stop offset="1" stop-color="#FE7062"/>
</linearGradient>
<linearGradient id="paint10_linear_801_3129" x1="-47.2576" y1="-64.8119" x2="9.12739" y2="159.66" gradientUnits="userSpaceOnUse">
<stop stop-color="#FF928E"/>
<stop offset="1" stop-color="#FE7062"/>
</linearGradient>
<linearGradient id="paint11_linear_801_3129" x1="-47.3331" y1="-64.8303" x2="9.03233" y2="159.71" gradientUnits="userSpaceOnUse">
<stop stop-color="#FF928E"/>
<stop offset="1" stop-color="#FE7062"/>
</linearGradient>
<linearGradient id="paint12_linear_801_3129" x1="21.2356" y1="4.00573" x2="68.1281" y2="77.1218" gradientUnits="userSpaceOnUse">
<stop stop-color="#FEBBBA"/>
<stop offset="1" stop-color="#FF928E"/>
</linearGradient>
<linearGradient id="paint13_linear_801_3129" x1="-191.31" y1="228.601" x2="8.27393" y2="33.7184" gradientUnits="userSpaceOnUse">
<stop stop-color="#FF928E"/>
<stop offset="1" stop-color="#FE7062"/>
</linearGradient>
<linearGradient id="paint14_linear_801_3129" x1="95.8784" y1="-14.9525" x2="36.881" y2="146.448" gradientUnits="userSpaceOnUse">
<stop stop-color="#E1473D"/>
<stop offset="1" stop-color="#E9605A"/>
</linearGradient>
<linearGradient id="paint15_linear_801_3129" x1="-88.0857" y1="97.7369" x2="-15.844" y2="-30.0279" gradientUnits="userSpaceOnUse">
<stop stop-color="#FF928E"/>
<stop offset="1" stop-color="#FE7062"/>
</linearGradient>
<linearGradient id="paint16_linear_801_3129" x1="53.749" y1="110.872" x2="52.471" y2="8.13529" gradientUnits="userSpaceOnUse">
<stop stop-color="#FEBBBA"/>
<stop offset="1" stop-color="#FF928E"/>
</linearGradient>
<linearGradient id="paint17_linear_801_3129" x1="67.678" y1="12.1866" x2="27.0168" y2="137.275" gradientUnits="userSpaceOnUse">
<stop stop-color="#FEBBBA"/>
<stop offset="1" stop-color="#FF928E"/>
</linearGradient>
<linearGradient id="paint18_linear_801_3129" x1="109.992" y1="-65.961" x2="-77.9635" y2="425.498" gradientUnits="userSpaceOnUse">
<stop stop-color="#E1473D"/>
<stop offset="1" stop-color="#E9605A"/>
</linearGradient>
<linearGradient id="paint19_linear_801_3129" x1="131.709" y1="-138.44" x2="-56.0708" y2="297.734" gradientUnits="userSpaceOnUse">
<stop stop-color="#FEBBBA"/>
<stop offset="1" stop-color="#FF928E"/>
</linearGradient>
<linearGradient id="paint20_linear_801_3129" x1="-37.8261" y1="106.02" x2="-11.6534" y2="-10.5568" gradientUnits="userSpaceOnUse">
<stop stop-color="#FEBBBA"/>
<stop offset="1" stop-color="#FF928E"/>
</linearGradient>
<linearGradient id="paint21_linear_801_3129" x1="-12.2823" y1="-77.9651" x2="27.8064" y2="150.029" gradientUnits="userSpaceOnUse">
<stop stop-color="#09005D"/>
<stop offset="1" stop-color="#1A0F91"/>
</linearGradient>
<linearGradient id="paint22_linear_801_3129" x1="100.277" y1="35.2056" x2="138.269" y2="-75.0783" gradientUnits="userSpaceOnUse">
<stop stop-color="#FEBBBA"/>
<stop offset="1" stop-color="#FF928E"/>
</linearGradient>
<linearGradient id="paint23_linear_801_3129" x1="317.89" y1="-151.439" x2="188.169" y2="-30.0905" gradientUnits="userSpaceOnUse">
<stop stop-color="#09005D"/>
<stop offset="1" stop-color="#1A0F91"/>
</linearGradient>
<linearGradient id="paint24_linear_801_3129" x1="10.1258" y1="8.59468" x2="42.1489" y2="91.3607" gradientUnits="userSpaceOnUse">
<stop stop-color="#4F52FF"/>
<stop offset="1" stop-color="#4042E2"/>
</linearGradient>
<linearGradient id="paint25_linear_801_3129" x1="-103.209" y1="146.379" x2="68.6618" y2="-55.1564" gradientUnits="userSpaceOnUse">
<stop stop-color="#FF928E"/>
<stop offset="1" stop-color="#FE7062"/>
</linearGradient>
<linearGradient id="paint26_linear_801_3129" x1="3.98254" y1="40.9655" x2="97.0114" y2="40.9655" gradientUnits="userSpaceOnUse">
<stop stop-color="#FEBBBA"/>
<stop offset="1" stop-color="#FF928E"/>
</linearGradient>
<linearGradient id="paint27_linear_801_3129" x1="39.7385" y1="-5.10216" x2="89.8961" y2="198.471" gradientUnits="userSpaceOnUse">
<stop stop-color="#09005D"/>
<stop offset="1" stop-color="#1A0F91"/>
</linearGradient>
<linearGradient id="paint28_linear_801_3129" x1="90.7107" y1="-287.077" x2="-73.8049" y2="100.925" gradientUnits="userSpaceOnUse">
<stop stop-color="#4F52FF"/>
<stop offset="1" stop-color="#4042E2"/>
</linearGradient>
<linearGradient id="paint29_linear_801_3129" x1="60.228" y1="-101.179" x2="-9.53591" y2="70.8987" gradientUnits="userSpaceOnUse">
<stop stop-color="#4F52FF"/>
<stop offset="1" stop-color="#4042E2"/>
</linearGradient>
<linearGradient id="paint30_linear_801_3129" x1="3.98454" y1="40.9736" x2="96.869" y2="40.9736" gradientUnits="userSpaceOnUse">
<stop stop-color="#FEBBBA"/>
<stop offset="1" stop-color="#FF928E"/>
</linearGradient>
<linearGradient id="paint31_linear_801_3129" x1="3.97059" y1="41.0801" x2="96.9969" y2="41.0801" gradientUnits="userSpaceOnUse">
<stop stop-color="#4F52FF"/>
<stop offset="1" stop-color="#4042E2"/>
</linearGradient>
<linearGradient id="paint32_linear_801_3129" x1="97.0439" y1="41.0198" x2="3.99466" y2="41.0198" gradientUnits="userSpaceOnUse">
<stop stop-color="#09005D"/>
<stop offset="1" stop-color="#1A0F91"/>
</linearGradient>
<linearGradient id="paint33_linear_801_3129" x1="97.0022" y1="41.0018" x2="4.11246" y2="41.0018" gradientUnits="userSpaceOnUse">
<stop stop-color="#FEBBBA"/>
<stop offset="1" stop-color="#FF928E"/>
</linearGradient>
<linearGradient id="paint34_linear_801_3129" x1="4.07211" y1="40.9841" x2="97.0139" y2="40.9841" gradientUnits="userSpaceOnUse">
<stop stop-color="#4F52FF"/>
<stop offset="1" stop-color="#4042E2"/>
</linearGradient>
<linearGradient id="paint35_linear_801_3129" x1="96.9656" y1="41.0087" x2="3.95321" y2="41.0087" gradientUnits="userSpaceOnUse">
<stop stop-color="#09005D"/>
<stop offset="1" stop-color="#1A0F91"/>
</linearGradient>
<linearGradient id="paint36_linear_801_3129" x1="96.9069" y1="41.0328" x2="3.95745" y2="41.0328" gradientUnits="userSpaceOnUse">
<stop stop-color="#FEBBBA"/>
<stop offset="1" stop-color="#FF928E"/>
</linearGradient>
<linearGradient id="paint37_linear_801_3129" x1="-23.5912" y1="-11.9829" x2="16.2898" y2="107.191" gradientUnits="userSpaceOnUse">
<stop stop-color="#09005D"/>
<stop offset="1" stop-color="#1A0F91"/>
</linearGradient>
<linearGradient id="paint38_linear_801_3129" x1="578.17" y1="-371.697" x2="287.001" y2="-74.9004" gradientUnits="userSpaceOnUse">
<stop stop-color="#4F52FF"/>
<stop offset="1" stop-color="#4042E2"/>
</linearGradient>
<linearGradient id="paint39_linear_801_3129" x1="152.137" y1="100.727" x2="30.2893" y2="-14.0605" gradientUnits="userSpaceOnUse">
<stop stop-color="#FEBBBA"/>
<stop offset="1" stop-color="#FF928E"/>
</linearGradient>
<linearGradient id="paint40_linear_801_3129" x1="1.96618" y1="98.3474" x2="74.4947" y2="18.4688" gradientUnits="userSpaceOnUse">
<stop stop-color="#FF928E"/>
<stop offset="1" stop-color="#FE7062"/>
</linearGradient>
<linearGradient id="paint41_linear_801_3129" x1="586.914" y1="-366.28" x2="557.622" y2="-96.4362" gradientUnits="userSpaceOnUse">
<stop stop-color="#E1473D"/>
<stop offset="1" stop-color="#E9605A"/>
</linearGradient>
<linearGradient id="paint42_linear_801_3129" x1="68.9778" y1="121.194" x2="58.2565" y2="33.7586" gradientUnits="userSpaceOnUse">
<stop stop-color="#FEBBBA"/>
<stop offset="1" stop-color="#FF928E"/>
</linearGradient>
<linearGradient id="paint43_linear_801_3129" x1="20.6284" y1="28.6542" x2="104.609" y2="110.592" gradientUnits="userSpaceOnUse">
<stop stop-color="#FEBBBA"/>
<stop offset="1" stop-color="#FF928E"/>
</linearGradient>
<linearGradient id="paint44_linear_801_3129" x1="70.8857" y1="12.4187" x2="10.7815" y2="99.1793" gradientUnits="userSpaceOnUse">
<stop stop-color="#09005D"/>
<stop offset="1" stop-color="#1A0F91"/>
</linearGradient>
<linearGradient id="paint45_linear_801_3129" x1="-157.757" y1="-56.0917" x2="110.469" y2="272.553" gradientUnits="userSpaceOnUse">
<stop stop-color="#FEBBBA"/>
<stop offset="1" stop-color="#FF928E"/>
</linearGradient>
<linearGradient id="paint46_linear_801_3129" x1="4.05758" y1="41.0775" x2="97.1145" y2="41.0775" gradientUnits="userSpaceOnUse">
<stop stop-color="#FF928E"/>
<stop offset="1" stop-color="#FE7062"/>
</linearGradient>
<linearGradient id="paint47_linear_801_3129" x1="43.667" y1="88.4995" x2="232.213" y2="-77.2352" gradientUnits="userSpaceOnUse">
<stop stop-color="#FEBBBA"/>
<stop offset="1" stop-color="#FF928E"/>
</linearGradient>
<linearGradient id="paint48_linear_801_3129" x1="107.852" y1="-161.489" x2="32.897" y2="-159.203" gradientUnits="userSpaceOnUse">
<stop stop-color="#09005D"/>
<stop offset="1" stop-color="#1A0F91"/>
</linearGradient>
<linearGradient id="paint49_linear_801_3129" x1="21.1501" y1="100.063" x2="90.8228" y2="31.2418" gradientUnits="userSpaceOnUse">
<stop stop-color="#09005D"/>
<stop offset="1" stop-color="#1A0F91"/>
</linearGradient>
<linearGradient id="paint50_linear_801_3129" x1="69.9544" y1="46.6956" x2="71.3853" y2="46.6956" gradientUnits="userSpaceOnUse">
<stop stop-color="#4F52FF"/>
<stop offset="1" stop-color="#4042E2"/>
</linearGradient>
</defs>
</svg>
