<svg width="58" height="55" viewBox="0 0 58 55" fill="none" xmlns="http://www.w3.org/2000/svg">
<g filter="url(#filter0_d_775_3865)">
<path d="M4.59701 37.7979L8.80326 35.2781C9.03392 35.1419 9.18317 34.8831 9.18317 34.6107V7.3144C9.18317 7.19181 9.04749 7.12371 8.95251 7.17819L4.42062 9.88875C4.16282 10.0522 4 10.3246 4 10.6243V37.4574C4 37.7571 4.33921 37.9614 4.59701 37.7979Z" fill="#FD9A0A"/>
<path d="M4.18996 37.7979L4.40706 37.9205C4.40706 37.9205 4.43419 37.7843 4.33921 37.7707C4.24423 37.7571 4.23066 37.7298 4.23066 37.7298L4.18996 37.7979Z" fill="#FD9A0A"/>
<path d="M9.0882 7.17819L9.27816 7.28716C9.27816 7.28716 9.346 7.39613 9.19674 7.36889C9.04749 7.34164 9.07463 7.40975 9.04749 7.34164C9.00678 7.27354 9.00678 7.27354 9.00678 7.27354" fill="#FD9A0A"/>
<path d="M4.78697 37.9069L8.97965 35.387C9.21031 35.2508 9.35957 34.992 9.35957 34.7196V7.42337C9.35957 7.30078 9.22388 7.23268 9.1289 7.28716L4.61058 9.99772C4.35278 10.1475 4.18996 10.4336 4.18996 10.7332V37.5664C4.18996 37.8661 4.52917 38.0567 4.78697 37.9069Z" fill="#FDCD0A"/>
<path d="M7.70421 9.88875L9.37313 8.89443V8.33597L7.70421 9.33029V9.88875Z" fill="#FDFF0A"/>
<path d="M7.70421 13.866L9.37313 12.8581V12.3133L7.70421 13.3076V13.866Z" fill="#FDFF0A"/>
<path d="M8.64043 10.2293L9.37313 9.7934V9.54823L8.64043 9.9841V10.2293Z" fill="#FDFF0A"/>
<path d="M8.64043 11.1555L9.37313 10.7196V10.4744L8.64043 10.9103V11.1555Z" fill="#FDFF0A"/>
<path d="M8.64043 12.0681L9.37313 11.6322V11.387L8.64043 11.8229V12.0681Z" fill="#FDFF0A"/>
<path d="M7.70421 17.9115L9.37313 16.9171V16.3587L7.70421 17.353V17.9115Z" fill="#FDFF0A"/>
<path d="M8.64043 14.2747L9.37313 13.8388V13.5936L8.64043 14.0431V14.2747Z" fill="#FDFF0A"/>
<path d="M8.64043 15.2009L9.37313 14.765V14.5199L8.64043 14.9557V15.2009Z" fill="#FDFF0A"/>
<path d="M8.64043 16.1135L9.37313 15.6776V15.4325L8.64043 15.8819V16.1135Z" fill="#FDFF0A"/>
<path d="M7.70421 21.9569L9.37313 20.9625V20.4041L7.70421 21.3984V21.9569Z" fill="#FDFF0A"/>
<path d="M8.64043 18.3337L9.37313 17.8978V17.6527L8.64043 18.0885V18.3337Z" fill="#FDFF0A"/>
<path d="M8.64043 19.2463L9.37313 18.8104V18.5653L8.64043 19.0011V19.2463Z" fill="#FDFF0A"/>
<path d="M8.64043 20.1725L9.37313 19.7367V19.4915L8.64043 19.9273V20.1725Z" fill="#FDFF0A"/>
<path d="M7.70421 26.0159L9.37313 25.0216V24.4631L7.70421 25.4574V26.0159Z" fill="#FDFF0A"/>
<path d="M8.64043 22.3791L9.37313 21.9432V21.6981L8.64043 22.1339V22.3791Z" fill="#FDFF0A"/>
<path d="M8.64043 23.3053L9.37313 22.8695V22.6243L8.64043 23.0601V23.3053Z" fill="#FDFF0A"/>
<path d="M8.64043 24.2179L9.37313 23.7821V23.5369L8.64043 23.9727V24.2179Z" fill="#FDFF0A"/>
<path d="M7.70421 30.0613L9.37313 29.067V28.5085L7.70421 29.5028V30.0613Z" fill="#FDFF0A"/>
<path d="M8.64043 26.4381L9.37313 25.9886V25.7571L8.64043 26.193V26.4381Z" fill="#FDFF0A"/>
<path d="M8.64043 27.3507L9.37313 26.9149V26.6697L8.64043 27.1055V27.3507Z" fill="#FDFF0A"/>
<path d="M8.64043 28.2769L9.37313 27.8411V27.5959L8.64043 28.0318V28.2769Z" fill="#FDFF0A"/>
<path d="M7.70421 34.1067L9.37313 33.1124V32.5539L7.70421 33.5619V34.1067Z" fill="#FDFF0A"/>
<path d="M8.64043 30.4835L9.37313 30.0477V29.8025L8.64043 30.2384V30.4835Z" fill="#FDFF0A"/>
<path d="M8.64043 31.3961L9.37313 30.9603V30.7151L8.64043 31.1646V31.3961Z" fill="#FDFF0A"/>
<path d="M8.64043 32.3223L9.37313 31.8865V31.6413L8.64043 32.0772V32.3223Z" fill="#FDFF0A"/>
<path d="M4.61058 9.99772L5.69607 9.34391V37.3621L4.80054 37.8933C4.52917 38.0567 4.20353 37.8661 4.20353 37.5528V10.7196C4.18996 10.4336 4.35278 10.1475 4.61058 9.99772Z" fill="#FDC10A"/>
<path d="M29.3324 19.0965L27.2293 18.9739H25.3297L23.4708 19.3689V32.0091C23.4708 33.2349 25.6147 34.2429 28.2605 34.2429C30.9064 34.2429 33.0502 33.2486 33.0502 32.0091V19.3689L29.3324 19.0965Z" fill="#FDCD0A"/>
<path d="M28.2605 21.6163C25.6147 21.6163 23.4708 20.622 23.4708 19.3825V20.5267C23.4708 21.7525 25.6147 22.7605 28.2605 22.7605C30.8657 22.7605 32.9959 21.7934 33.0502 20.5811V19.3825C33.0638 20.6084 30.9199 21.6163 28.2605 21.6163Z" fill="#FC9609"/>
<path d="M28.2605 24.7219C25.6147 24.7219 23.4708 23.7276 23.4708 22.4881V23.6322C23.4708 24.8581 25.6147 25.866 28.2605 25.866C30.8657 25.866 32.9959 24.899 33.0502 23.6867V22.4881C33.0638 23.7276 30.9199 24.7219 28.2605 24.7219Z" fill="#FC9609"/>
<path d="M28.2605 27.8411C25.6147 27.8411 23.4708 26.8468 23.4708 25.6073V26.7514C23.4708 27.9773 25.6147 28.9852 28.2605 28.9852C30.8657 28.9852 32.9959 28.0182 33.0502 26.8059V25.6073C33.0638 26.8468 30.9199 27.8411 28.2605 27.8411Z" fill="#FC9609"/>
<path d="M28.2605 30.9603C25.6147 30.9603 23.4708 29.9659 23.4708 28.7264V29.8706C23.4708 31.0965 25.6147 32.1044 28.2605 32.1044C30.8657 32.1044 32.9959 31.1373 33.0502 29.9251V28.7401C33.0638 29.9659 30.9199 30.9603 28.2605 30.9603Z" fill="#FC9609"/>
<path d="M23.4708 19.3825C23.4708 20.6084 25.6147 21.6163 28.2605 21.6163C30.9064 21.6163 33.0502 20.622 33.0502 19.3825C33.0502 18.1566 30.9064 17.1487 28.2605 17.1487C25.6147 17.1487 23.4708 18.1566 23.4708 19.3825Z" fill="#FDCD0A"/>
<path d="M28.2605 17.5709C26.1031 17.5709 24.3528 18.3882 24.3528 19.3825C24.3528 20.3905 26.1031 21.1941 28.2605 21.1941C30.4179 21.1941 32.1682 20.3768 32.1682 19.3825C32.1682 18.3746 30.4179 17.5709 28.2605 17.5709Z" fill="#FC8909"/>
<path d="M28.2605 17.5709C26.1031 17.5709 24.3528 18.3882 24.3528 19.3825C24.3528 20.3905 26.1031 21.1941 28.2605 21.1941C30.4179 21.1941 32.1682 20.3768 32.1682 19.3825C32.1682 18.3746 30.4179 17.5709 28.2605 17.5709Z" fill="black"/>
<path d="M24.3664 20.2542C24.3664 21.2622 26.1167 22.0658 28.2741 22.0658C30.4315 22.0658 32.1818 21.2486 32.1818 20.2542C32.1818 19.2463 30.4315 18.4427 28.2741 18.4427C26.1167 18.429 24.3664 19.2463 24.3664 20.2542Z" fill="#FD550A"/>
<path d="M28.6947 19.1373V12.0953L29.0068 12.0272H29.3189L29.6716 12.0409L30.2822 12.0953V23.1964L29.7123 22.6515" fill="#8100C8"/>
<path d="M30.2958 12.0272L30.2008 12.109C30.1872 12.0953 30.1737 12.0953 30.1601 12.0817L29.6716 12.0409L29.3189 12.0272H29.0068L28.8575 12.0545C28.8304 12.0681 28.8168 12.0817 28.8033 12.0953C28.7354 12.0953 28.6947 12.0136 28.6947 12.0136V12.286C28.6947 12.4903 29.0475 12.6538 29.4952 12.6538C29.9294 12.6538 30.2958 12.4903 30.2958 12.286V12.0272Z" fill="#AA33E3"/>
<path d="M28.6947 12.0272C28.6947 12.2315 29.0475 12.395 29.4952 12.395C29.9294 12.395 30.2958 12.2315 30.2958 12.0272C30.2958 11.8229 29.943 10.9376 29.4952 10.9376C29.0475 10.9376 28.6947 11.8229 28.6947 12.0272Z" fill="#FDDB4B"/>
<path d="M29.4681 11.1419C29.3867 11.1419 29.3324 11.0738 29.3324 11.0057V10.6243C29.3324 10.5426 29.4003 10.4881 29.4681 10.4881C29.5495 10.4881 29.6038 10.5562 29.6038 10.6243V11.0057C29.6038 11.0874 29.5495 11.1419 29.4681 11.1419Z" fill="#8100C8"/>
<path d="M30.5807 24.4086V17.3666L30.8928 17.2985H31.2049L31.5577 17.3121L32.1682 17.3666V24.4086L31.5984 24.5448" fill="#023BA2"/>
<path d="M32.1682 17.2985L32.0733 17.3802C32.0597 17.3666 32.0461 17.3666 32.0326 17.353L31.5441 17.3121L31.1913 17.2985H30.8792L30.73 17.3258C30.7028 17.3394 30.6893 17.353 30.6757 17.3666C30.6079 17.3666 30.5672 17.2849 30.5672 17.2849V17.5573C30.5672 17.7616 30.9199 17.9251 31.3677 17.9251C31.8019 17.9251 32.1682 17.7616 32.1682 17.5573V17.2985Z" fill="#0259B2"/>
<path d="M30.5807 17.2985C30.5807 17.5028 30.9335 17.6663 31.3813 17.6663C31.8155 17.6663 32.1818 17.5028 32.1818 17.2985C32.1818 17.0942 31.829 16.2088 31.3813 16.2088C30.9335 16.2088 30.5807 17.0942 30.5807 17.2985Z" fill="#FDDB4B"/>
<path d="M31.3541 16.4132C31.2727 16.4132 31.2185 16.345 31.2185 16.2769V15.8956C31.2185 15.8138 31.2863 15.7594 31.3541 15.7594C31.4356 15.7594 31.4898 15.8275 31.4898 15.8956V16.2769C31.4898 16.3587 31.4356 16.4132 31.3541 16.4132Z" fill="#023BA2"/>
<path d="M24.9769 21.126V14.084L25.289 14.0159H25.6011L25.9539 14.0295L26.5644 14.084V21.126L25.9946 21.2622" fill="#FB3A68"/>
<path d="M26.5644 14.0159L26.4695 14.0976C26.4559 14.084 26.4423 14.084 26.4288 14.0704L25.9403 14.0295L25.5875 14.0159H25.2754L25.1262 14.0431C25.099 14.0567 25.0855 14.0704 25.0719 14.084C25.0041 14.084 24.9634 14.0023 24.9634 14.0023V14.2747C24.9634 14.479 25.3161 14.6424 25.7639 14.6424C26.1981 14.6424 26.5644 14.479 26.5644 14.2747V14.0159Z" fill="#FC9609"/>
<path d="M24.9769 14.0159C24.9769 14.2202 25.3297 14.3836 25.7775 14.3836C26.2117 14.3836 26.578 14.2202 26.578 14.0159C26.578 13.8116 26.2252 12.9262 25.7775 12.9262C25.3297 12.9262 24.9769 13.8116 24.9769 14.0159Z" fill="#FDDB4B"/>
<path d="M25.7503 13.1441C25.6689 13.1441 25.6147 13.076 25.6147 13.0079V12.6265C25.6147 12.5448 25.6825 12.4903 25.7503 12.4903C25.8318 12.4903 25.886 12.5584 25.886 12.6265V13.0079C25.886 13.076 25.8318 13.1441 25.7503 13.1441Z" fill="#FB3A68"/>
<path d="M25.9403 24.1362V17.0806L26.2524 17.0125H26.5644L26.9172 17.0397L27.5278 17.0806V24.1362L26.9579 24.2588" fill="#094C92"/>
<path d="M27.5414 17.0125L27.4464 17.0942C27.4328 17.0806 27.4193 17.0806 27.4057 17.067L26.9172 17.0261L26.5644 17.0125H26.2524L26.1031 17.0397C26.076 17.0533 26.0624 17.067 26.0488 17.0806C25.981 17.0806 25.9403 16.9989 25.9403 16.9989V17.2713C25.9403 17.4756 26.2931 17.639 26.7408 17.639C27.175 17.639 27.5414 17.4756 27.5414 17.2713V17.0125Z" fill="#09387A"/>
<path d="M25.9403 17.0125C25.9403 17.2168 26.2931 17.3802 26.7408 17.3802C27.175 17.3802 27.5414 17.2168 27.5414 17.0125C27.5414 16.8082 27.1886 15.9228 26.7408 15.9228C26.2931 15.9228 25.9403 16.8082 25.9403 17.0125Z" fill="#FDE783"/>
<path d="M26.7137 16.1407C26.6323 16.1407 26.578 16.0726 26.578 16.0045V15.6231C26.578 15.5414 26.6459 15.4869 26.7137 15.4869C26.7951 15.4869 26.8494 15.555 26.8494 15.6231V16.0045C26.8494 16.0726 26.7951 16.1407 26.7137 16.1407Z" fill="#094C92"/>
<path d="M27.7042 23.2372V16.1952L28.0163 16.1271H28.3284L28.6811 16.1407L29.2917 16.1952V23.2372L28.7218 23.3734" fill="#009D8C"/>
<path d="M29.2917 16.1271L29.1967 16.2088C29.1832 16.1952 29.1696 16.1952 29.156 16.1816L28.6676 16.1407L28.3148 16.1271H28.0163L27.867 16.1544C27.8399 16.168 27.8263 16.1816 27.8128 16.1952C27.7449 16.1952 27.7042 16.1135 27.7042 16.1135V16.3859C27.7042 16.5902 28.057 16.7537 28.5047 16.7537C28.9389 16.7537 29.3053 16.5902 29.3053 16.3859V16.1271H29.2917Z" fill="#007377"/>
<path d="M27.7042 16.1271C27.7042 16.3314 28.057 16.4949 28.5047 16.4949C28.9389 16.4949 29.3053 16.3314 29.3053 16.1271C29.3053 15.9228 28.9525 15.0374 28.5047 15.0374C28.057 15.0374 27.7042 15.9228 27.7042 16.1271Z" fill="#FDDB4B"/>
<path d="M28.4776 15.2554C28.3962 15.2554 28.3419 15.1873 28.3419 15.1192V14.7378C28.3419 14.6561 28.4098 14.6016 28.4776 14.6016C28.559 14.6016 28.6133 14.6697 28.6133 14.7378V15.1192C28.6133 15.1873 28.559 15.2554 28.4776 15.2554Z" fill="#009D8C"/>
<path d="M26.768 33.9432C26.768 33.9432 28.0163 35.6595 26.768 36.9943L15.8725 43.2599L16.0488 41.462L15.9539 40.2769L26.768 33.9432Z" fill="#FC9609"/>
<path d="M7.8806 38.0704L8.8711 37.7298L16.076 41.7344L15.6825 42.8241L7.8806 38.0704Z" fill="#E23200"/>
<path d="M15.8725 42.2792L8.30122 37.9342V35.6186L12.9145 36.5993L14.9634 37.3621L15.8725 38.0431L15.289 39.4461L15.9674 41.0942L15.8725 42.2792Z" fill="#ECFFFF"/>
<path d="M7.8806 38.0704L15.6689 42.5653C16.0217 41.6663 15.6961 40.8626 15.5875 40.6583L7.8806 36.2043V35.6186L15.9674 40.2906L15.9946 40.3451C16.0217 40.3995 16.7273 41.6663 15.9946 43.042L15.8725 43.2735L7.8806 38.6424V38.0704Z" fill="#FC7009"/>
<path d="M5.50611 38.3292L8.30122 36.5993V37.2259L11.1099 38.9012L8.92537 40.3042L5.50611 38.3292Z" fill="#00DBFF"/>
<path d="M6.68657 37.7435L8.30122 36.7491V37.1033L9.91587 38.0704L8.654 38.8876L6.68657 37.7435Z" fill="#FB3A68"/>
<path d="M7.8806 35.6186L18.9796 29.2168L26.768 33.9432L15.9674 40.2906L7.8806 35.6186Z" fill="#FDCD0A"/>
<path d="M15.8725 39.7321L16.0488 37.9342L15.9539 36.7491L26.768 30.4018C26.768 30.4018 28.0163 32.118 26.768 33.4529" fill="#A6B6F7"/>
<path d="M7.8806 34.5153L8.8711 34.1748L16.076 38.193L15.6825 39.2826L7.8806 34.5153Z" fill="#4F669F"/>
<path d="M15.8725 38.7378L8.30122 34.3927V32.0772L12.9145 33.0579L14.9634 33.8206L15.8725 34.5017L15.289 35.9046L15.9674 37.5392L15.8725 38.7378Z" fill="#ECFFFF"/>
<path d="M7.8806 34.5153L15.6689 39.0238C16.0217 38.1248 15.6961 37.3212 15.5875 37.1169L7.8806 32.6629V32.0772L15.9674 36.7491L15.9946 36.8036C16.0217 36.8581 16.7273 38.1248 15.9946 39.5006L15.8725 39.7321L7.8806 35.101V34.5153Z" fill="#7D96DB"/>
<path d="M7.8806 32.0772L18.9796 25.6754L26.768 30.4018L15.9674 36.7491L7.8806 32.0772Z" fill="#DCEBFF"/>
<path d="M26.768 26.8604C26.768 26.8604 28.0163 28.5766 26.768 29.9115L15.8725 36.1771L16.0488 34.3791L15.9539 33.1941L26.768 26.8604Z" fill="#004FB6"/>
<path d="M7.8806 30.9739L8.8711 30.6334L16.076 34.6515L15.6825 35.7412L7.8806 30.9739Z" fill="#001A65"/>
<path d="M15.8725 35.1964L8.30122 30.8513V28.5221L12.9145 29.5164L14.9634 30.2656L15.8725 30.9603L15.289 32.3496L15.9674 33.9977L15.8725 35.1964Z" fill="#ECFFFF"/>
<path d="M7.8806 30.9739L15.6689 35.4824C16.0217 34.5834 15.6961 33.7798 15.5875 33.5755L7.8806 29.1214V28.5357L15.9674 33.2077L15.9946 33.2622C16.0217 33.3167 16.7273 34.5834 15.9946 35.9591L15.8725 36.1907L7.8806 31.5596V30.9739Z" fill="#00258F"/>
<path d="M7.8806 28.5221L18.9796 22.1203L26.768 26.8604L15.9674 33.2077L7.8806 28.5221Z" fill="#009AFF"/>
<path d="M12.3582 30.3065L21.3948 25.1441L24.7327 27.1192L15.7775 32.2815L12.3582 30.3065Z" fill="#00DBFF"/>
<path d="M29.9701 45.6708C29.9701 45.6708 28.5726 47.2781 26.9986 46.3519L18.5047 37.0624L20.2822 36.8445L21.422 36.4903L29.9701 45.6708Z" fill="#EC1E59"/>
<path d="M21.8019 28.0726L22.3446 28.9716L20.038 36.9126L18.8982 36.7764L21.8019 28.0726Z" fill="#860023"/>
<path d="M19.4681 36.8445L22.0054 28.454L24.2714 27.9364L24.3256 32.6765L24.0407 34.8558L23.5794 35.9046L22.1004 35.6322L20.6486 36.6674L19.4681 36.8445Z" fill="#ECFFFF"/>
<path d="M21.8019 28.0726L19.1425 36.6947C20.0923 36.8445 20.7978 36.3541 20.9878 36.1907L23.6201 27.664L24.19 27.5414L21.4356 36.4903L21.3813 36.5312C21.3406 36.5721 20.2687 37.5391 18.7626 37.1305L18.5183 37.0624L21.2456 28.2088L21.8019 28.0726Z" fill="#C4013A"/>
<path d="M24.1764 27.5414L32.8467 36.9807L29.9701 45.6708L21.422 36.4767L24.1764 27.5414Z" fill="#FB3A68"/>
<path d="M24.0271 30.538L27.1072 34.0794L25.289 39.7866L22.2225 36.3678L24.0271 30.538Z" fill="#FDCD0A"/>
<path d="M28.0706 33.3848L29.3053 34.7877L28.6133 36.9671L27.3786 35.605L28.0706 33.3848Z" fill="#009AFF"/>
<path d="M23.4573 5.0942L23.3623 4.87626L21.2727 3.63676C21.232 3.60952 21.1913 3.58228 21.1506 3.56866L21.1099 3.54142C20.1737 3.03744 18.9118 3.14641 17.5278 3.96366C14.6513 5.69352 12.3039 9.90237 12.3039 13.3621C12.3039 15.0102 12.8331 16.1816 13.7015 16.7945L13.7151 16.8082C13.81 16.8763 15.6011 17.9523 15.6961 18.0068L16.0624 17.8433L16.5509 18.1702C17.3107 18.2247 18.1791 18.0068 19.1018 17.4483C21.9919 15.7321 24.3256 11.5233 24.3256 8.06355C24.3392 6.75595 24.0136 5.76162 23.4573 5.0942ZM19.1153 14.588C17.5278 15.5278 16.2524 14.7514 16.2524 12.8581C16.2524 10.9648 17.5278 8.66287 19.1153 7.72303C20.7029 6.78319 21.9783 7.55958 21.9783 9.45288C21.9783 11.3462 20.7029 13.6481 19.1153 14.588Z" fill="#0083FF"/>
<path d="M16.0353 5.13506L18.8711 6.87853L19.0475 6.27921L16.4966 4.71281C16.3474 4.84902 16.1845 4.98523 16.0353 5.13506Z" fill="#009EFF"/>
<path d="M19.1153 14.588C17.5278 15.5278 16.2524 14.7514 16.2524 12.8581C16.2524 12.8445 16.2524 12.8309 16.2524 12.8172L12.7246 10.6379C12.4532 11.5505 12.3039 12.4767 12.3039 13.3485C12.3039 13.4166 12.3039 13.471 12.3039 13.5391L18.8575 17.5573C18.9389 17.5164 19.0204 17.462 19.1153 17.4211C19.8073 17.0125 20.4722 16.454 21.0828 15.8002L19.1153 14.588Z" fill="#009EFF"/>
<path d="M16.6459 9.73892L16.8223 9.1396L14.1493 7.5051C14.0407 7.68217 13.9457 7.84562 13.8372 8.02269L16.6459 9.73892Z" fill="#009EFF"/>
<path d="M16.3609 11.8502C16.4559 11.4143 16.6052 10.9648 16.7951 10.5426L13.5658 8.5539C13.3623 8.96253 13.1723 9.38478 13.0231 9.80702L16.3609 11.8502Z" fill="#009EFF"/>
<path d="M19.6581 5.21679C16.7815 6.96026 14.4342 11.1419 14.4342 14.6016C14.4342 18.0613 16.7815 19.4779 19.6581 17.7616C22.5482 16.0454 24.9091 11.8365 24.882 8.37683C24.8684 4.90351 22.5075 3.50055 19.6581 5.21679ZM19.6581 14.9149C18.0706 15.8547 16.7951 15.0783 16.7951 13.185C16.7951 11.2917 18.0706 8.98977 19.6581 8.04993C21.2456 7.11009 22.521 7.88648 22.521 9.77978C22.521 11.6731 21.232 13.975 19.6581 14.9149Z" fill="#0041DD"/>
<path d="M23.8779 8.96253C23.8779 6.17025 21.9919 5.02609 19.6445 6.41542C17.3107 7.80475 15.4111 11.1964 15.4111 14.0023C15.4111 16.7945 17.2972 17.9387 19.6445 16.5494C21.9919 15.16 23.8779 11.7684 23.8779 8.96253Z" fill="#C6D7FF"/>
<path d="M23.5794 9.15322C23.5794 6.55163 21.829 5.50282 19.6581 6.78319C17.4871 8.07717 15.7368 11.2236 15.7368 13.8252C15.7368 16.4268 17.4871 17.4756 19.6581 16.1952C21.829 14.9012 23.5794 11.7412 23.5794 9.15322Z" fill="#EAF5FF"/>
<path d="M20.4586 8.29511L19.8752 7.70941C19.7666 7.60044 19.5767 7.62768 19.5088 7.77751L18.8847 9.08512C18.8304 9.20771 18.9525 9.33029 19.0746 9.26219L19.1967 9.19409V11.3734L20.0787 10.8831V8.70373L20.4179 8.51304C20.5129 8.45856 20.5265 8.34959 20.4586 8.29511Z" fill="#FFB000"/>
<path d="M21.6798 12.8853L19.8209 11.605L19.6445 11.8638L21.5034 13.1441C21.5712 13.1986 21.6662 13.1714 21.7205 13.1033C21.7612 13.0352 21.7476 12.9262 21.6798 12.8853Z" fill="#009EFF"/>
<path d="M20.4315 11.0465C20.4315 10.5426 20.0923 10.3246 19.6581 10.5834C19.2374 10.8422 18.8847 11.4552 18.8847 11.9591C18.8847 12.4631 19.2239 12.681 19.6581 12.4222C20.0787 12.1771 20.4315 11.5641 20.4315 11.0465Z" fill="#00081E"/>
<path d="M20.0651 11.2645C20.0651 10.992 19.8752 10.8831 19.6581 11.0193C19.4274 11.1555 19.251 11.4824 19.251 11.7548C19.251 12.0272 19.441 12.1362 19.6581 12C19.8887 11.8638 20.0651 11.5369 20.0651 11.2645Z" fill="#FFB000"/>
<path d="M19.9159 11.3598C19.9159 11.1827 19.7938 11.1146 19.6581 11.21C19.5088 11.2917 19.4003 11.5096 19.4003 11.6731C19.4003 11.8502 19.5224 11.9183 19.6581 11.8229C19.7938 11.7412 19.9159 11.5233 19.9159 11.3598Z" fill="#0041DD"/>
<path d="M50.0651 28.4404L49.8616 28.563L34.0136 19.042L33.81 0.721894L34.0136 0.599306L50.0651 9.99772V28.4404Z" fill="#BAE5FF"/>
<path d="M49.8616 28.563L33.81 19.1646V0.721894L49.8616 10.1203L49.8616 28.563Z" fill="#DFFFFF"/>
<path d="M49.8616 12.6674L33.81 3.269V0.721894L49.8616 10.1203V12.6674Z" fill="#FE1211"/>
<path d="M45.9132 13.6073L43.905 12.3814V9.83427L45.9132 11.0601V13.6073Z" fill="#A7D1FF"/>
<path d="M49.1696 15.5142L47.1615 14.2883V11.7412L49.1696 12.9671V15.5142Z" fill="#A7D1FF"/>
<path d="M42.7788 11.9319L40.7707 10.706V8.1589L42.7788 9.37116V11.9319Z" fill="#A7D1FF"/>
<path d="M39.5902 10.1475L37.5821 8.92167V6.36094L39.5902 7.58682V10.1475Z" fill="#A7D1FF"/>
<path d="M36.4288 8.39045L34.4342 7.16457V4.61747L36.4288 5.84335V8.39045Z" fill="#A7D1FF"/>
<path d="M45.9132 17.244L43.905 16.0181V13.4574L45.9132 14.6833V17.244Z" fill="#A7D1FF"/>
<path d="M49.1696 19.151L47.1615 17.9251V15.378L49.1696 16.5902V19.151Z" fill="#A7D1FF"/>
<path d="M42.7788 15.555L40.7707 14.3292V11.7821L42.7788 13.0079V15.555Z" fill="#A7D1FF"/>
<path d="M39.5902 13.7707L37.5821 12.5448V9.99772L39.5902 11.2236V13.7707Z" fill="#A7D1FF"/>
<path d="M36.4288 12.0272L34.4342 10.8013V8.24062L36.4288 9.4665V12.0272Z" fill="#A7D1FF"/>
<path d="M45.9132 20.8672L43.905 19.6413V17.0942L45.9132 18.3201V20.8672Z" fill="#A7D1FF"/>
<path d="M49.1696 22.7741L47.1615 21.5482V19.0011L49.1696 20.227V22.7741Z" fill="#A7D1FF"/>
<path d="M42.7788 19.1918L40.7707 17.9659V15.4188L42.7788 16.6311V19.1918Z" fill="#A7D1FF"/>
<path d="M39.5902 17.4075L37.5821 16.1816V13.6345L39.5902 14.8468V17.4075Z" fill="#A7D1FF"/>
<path d="M36.4288 15.6504L34.4342 14.4245V11.8774L36.4288 13.1033V15.6504Z" fill="#A7D1FF"/>
<path d="M45.9132 24.504L43.905 23.2781V20.7174L45.9132 21.9432V24.504Z" fill="#A7D1FF"/>
<path d="M49.1696 26.4109L47.1615 25.185V22.6379L49.1696 23.8502V26.4109Z" fill="#A7D1FF"/>
<path d="M42.7788 22.815L40.7707 21.5891V19.042L42.7788 20.2679V22.815Z" fill="#A7D1FF"/>
<path d="M39.5902 21.0306L37.5821 19.8048V17.2576L39.5902 18.4835V21.0306Z" fill="#A7D1FF"/>
<path d="M36.4288 19.2872L34.4342 18.0613V15.5142L36.4288 16.7264V19.2872Z" fill="#A7D1FF"/>
<path d="M48.7535 10.7209C48.9088 10.6457 48.9238 10.3541 48.7871 10.0695C48.6504 9.78495 48.4137 9.61519 48.2584 9.69035C48.1032 9.76551 48.0882 10.0571 48.2249 10.3417C48.3616 10.6263 48.5983 10.796 48.7535 10.7209Z" fill="#D80011"/>
<path d="M48.6946 10.5982C48.8161 10.5394 48.8301 10.3159 48.726 10.0991C48.6218 9.88229 48.4389 9.75421 48.3174 9.81303C48.1959 9.87185 48.1818 10.0953 48.286 10.3121C48.3902 10.5289 48.5731 10.657 48.6946 10.5982Z" fill="#990009"/>
<path d="M48.5455 9.86151C48.4369 9.9841 48.3148 10.025 48.2334 9.97048C48.1927 9.94323 48.1248 9.84789 48.1248 9.6572C48.1248 9.19409 48.4369 8.59477 48.8168 8.36321C48.8982 8.30873 48.9796 8.28149 49.0339 8.28149C49.0611 8.28149 49.0746 8.28149 49.0882 8.29511C49.1289 8.32235 49.1967 8.4177 49.1967 8.60839C49.1967 8.85356 49.1153 9.12598 48.9796 9.37116L49.4681 9.6572C49.6581 9.33029 49.7666 8.94891 49.7666 8.60839C49.7666 8.227 49.6174 7.92734 49.3731 7.79113C49.2239 7.70941 48.9254 7.61406 48.5183 7.88648C47.9891 8.227 47.5685 9.00339 47.5685 9.6572C47.5685 10.0386 47.7178 10.3382 47.962 10.4744C48.0299 10.5153 48.1384 10.5562 48.2877 10.5562C48.3555 10.5562 48.5726 10.5426 48.8033 10.3791C48.8033 10.3791 48.8168 10.2565 48.7354 10.0794C48.654 9.92961 48.5455 9.86151 48.5455 9.86151Z" fill="#A7D1FF"/>
<path d="M44.1243 7.9941C44.2796 7.91894 44.2946 7.62732 44.1579 7.34274C44.0211 7.05816 43.7845 6.8884 43.6292 6.96356C43.474 7.03872 43.459 7.33034 43.5957 7.61492C43.7324 7.8995 43.9691 8.06926 44.1243 7.9941Z" fill="#D80011"/>
<path d="M44.0654 7.87142C44.1869 7.8126 44.2009 7.58914 44.0968 7.37232C43.9926 7.15551 43.8097 7.02742 43.6882 7.08624C43.5667 7.14506 43.5526 7.36851 43.6568 7.58533C43.761 7.80215 43.9439 7.93024 44.0654 7.87142Z" fill="#990009"/>
<path d="M43.905 7.13733C43.7965 7.25992 43.6744 7.30078 43.5929 7.2463C43.5522 7.21906 43.4844 7.12371 43.4844 6.93302C43.4844 6.46991 43.7965 5.87059 44.1764 5.63903C44.2578 5.58455 44.3392 5.55731 44.3935 5.55731C44.4206 5.55731 44.4342 5.55731 44.4478 5.57093C44.4885 5.59817 44.5563 5.69352 44.5563 5.88421C44.5563 6.12939 44.4749 6.4018 44.3392 6.64698L44.8277 6.93302C45.0176 6.60612 45.1262 6.22473 45.1262 5.88421C45.1262 5.50282 44.9769 5.20317 44.7327 5.06696C44.5834 4.98523 44.2849 4.88989 43.8779 5.1623C43.3487 5.50283 42.9281 6.27922 42.9281 6.93302C42.9281 7.3144 43.0773 7.61406 43.3216 7.75027C43.3894 7.79113 43.498 7.832 43.6472 7.832C43.7151 7.832 43.9322 7.81838 44.1628 7.65492C44.1628 7.65492 44.1764 7.53234 44.095 7.35527C44.0136 7.20544 43.905 7.13733 43.905 7.13733Z" fill="#A7D1FF"/>
<path d="M39.5272 5.30832C39.6825 5.23316 39.6975 4.94153 39.5608 4.65696C39.424 4.37238 39.1874 4.20262 39.0321 4.27778C38.8769 4.35294 38.8619 4.64456 38.9986 4.92913C39.1353 5.21371 39.372 5.38348 39.5272 5.30832Z" fill="#D80011"/>
<path d="M39.4683 5.18563C39.5898 5.12681 39.6038 4.90336 39.4997 4.68654C39.3955 4.46972 39.2126 4.34164 39.0911 4.40046C38.9696 4.45928 38.9555 4.68273 39.0597 4.89955C39.1639 5.11637 39.3468 5.24445 39.4683 5.18563Z" fill="#990009"/>
<path d="M39.3053 4.45402C39.1967 4.5766 39.0746 4.61747 38.9932 4.56298C38.9525 4.53574 38.8847 4.4404 38.8847 4.2497C38.8847 3.78659 39.1967 3.18727 39.5767 2.95572C39.6581 2.90124 39.7395 2.87399 39.7938 2.87399C39.8209 2.87399 39.8345 2.87399 39.848 2.88761C39.8887 2.91486 39.9566 3.0102 39.9566 3.2009C39.9566 3.44607 39.8752 3.71849 39.7395 3.96366L40.228 4.2497C40.4179 3.9228 40.5265 3.54142 40.5265 3.2009C40.5265 2.81951 40.3772 2.51985 40.133 2.38364C39.9837 2.30192 39.6852 2.20657 39.2782 2.47899C38.749 2.81951 38.3284 3.5959 38.3284 4.2497C38.3284 4.63109 38.4776 4.93075 38.7218 5.06696C38.7897 5.10782 38.8982 5.14868 39.0475 5.14868C39.1153 5.14868 39.3324 5.13506 39.5631 4.97161C39.5631 4.97161 39.5767 4.84902 39.4953 4.67195C39.4138 4.52212 39.3053 4.45402 39.3053 4.45402Z" fill="#A7D1FF"/>
<path d="M35.6028 3.00922C35.7581 2.93406 35.7731 2.64244 35.6364 2.35786C35.4997 2.07329 35.263 1.90352 35.1077 1.97868C34.9525 2.05384 34.9375 2.34547 35.0742 2.63004C35.2109 2.91462 35.4476 3.08438 35.6028 3.00922Z" fill="#D80011"/>
<path d="M35.5439 2.88654C35.6654 2.82772 35.6794 2.60427 35.5753 2.38745C35.4711 2.17063 35.2882 2.04255 35.1667 2.10137C35.0452 2.16019 35.0311 2.38364 35.1353 2.60046C35.2395 2.81728 35.4224 2.94536 35.5439 2.88654Z" fill="#990009"/>
<path d="M35.384 2.15209C35.2754 2.27467 35.1533 2.31554 35.0719 2.26105C35.0312 2.23381 34.9634 2.13847 34.9634 1.94777C34.9634 1.48466 35.2754 0.885345 35.6554 0.65379C35.7368 0.599306 35.8182 0.572064 35.8725 0.572064C35.8996 0.572064 35.9132 0.572064 35.9267 0.585685C35.9674 0.612927 36.0353 0.708273 36.0353 0.898966C36.0353 1.14414 35.9539 1.41656 35.8182 1.66174L36.3066 1.94777C36.4966 1.62087 36.6052 1.23949 36.6052 0.898966C36.6052 0.517581 36.4559 0.217921 36.2117 0.0817126C36.0624 -1.27405e-05 35.7503 -0.095359 35.3433 0.177059C34.8141 0.517581 34.3935 1.29397 34.3935 1.94777C34.3935 2.32916 34.5427 2.62882 34.787 2.76503C34.8548 2.80589 34.9634 2.84675 35.1126 2.84675C35.1805 2.84675 35.3976 2.83313 35.6282 2.66968C35.6282 2.66968 35.6418 2.54709 35.5604 2.37002C35.4925 2.23381 35.384 2.15209 35.384 2.15209Z" fill="#A7D1FF"/>
<path d="M49.8209 34.8286V30.7151H46.3202C42.9688 29.1487 38.2605 29.1351 35.2347 30.7151H32.6567V33.8206C32.4939 35.2372 33.403 36.7355 35.3569 37.8661C38.8168 39.8683 44.2578 39.9909 47.5007 38.1248C49.0611 37.2259 49.8209 36.0409 49.8209 34.8286Z" fill="#0C1860"/>
<path d="M48.6404 37.294V30.7151H46.3066V38.6833C46.7273 38.5199 47.1343 38.3292 47.5007 38.1248C47.9484 37.8661 48.3284 37.58 48.6404 37.294Z" fill="#0C187F"/>
<path d="M44.597 39.1737V30.4018H43.4301V39.3643C43.8236 39.3235 44.2171 39.2554 44.597 39.1737Z" fill="#0C187F"/>
<path d="M41.2255 37.5729L39.6233 39.1814L41.2255 40.7898L42.8278 39.1814L41.2255 37.5729Z" fill="#0C1860"/>
<path d="M54 29.0533L40.9471 36.5721L28.4505 29.3258V28.5221L41.5034 21.807L54 28.2497V29.0533Z" fill="#0C0F44"/>
<path d="M40.9471 36.5721L54 29.0533V28.2497L51.4763 26.9557H40.9471V36.5721Z" fill="#0C002E"/>
<path d="M54 28.2497L40.9471 35.7684L28.4505 28.5221L41.5034 21.0034L54 28.2497Z" fill="#0C256D"/>
<path d="M41.232 29.0942C41.839 29.0942 42.3311 28.7771 42.3311 28.3859C42.3311 27.9947 41.839 27.6776 41.232 27.6776C40.625 27.6776 40.133 27.9947 40.133 28.3859C40.133 28.7771 40.625 29.0942 41.232 29.0942Z" fill="#0C1860"/>
<path d="M41.232 28.672C41.839 28.672 42.3311 28.178 42.3311 27.5687C42.3311 26.9593 41.839 26.4654 41.232 26.4654C40.625 26.4654 40.133 26.9593 40.133 27.5687C40.133 28.178 40.625 28.672 41.232 28.672Z" fill="#FDCD0A"/>
</g>
<defs>
<filter id="filter0_d_775_3865" x="0" y="-0.00341797" width="58" height="54.6428" filterUnits="userSpaceOnUse" color-interpolation-filters="sRGB">
<feFlood flood-opacity="0" result="BackgroundImageFix"/>
<feColorMatrix in="SourceAlpha" type="matrix" values="0 0 0 0 0 0 0 0 0 0 0 0 0 0 0 0 0 0 127 0" result="hardAlpha"/>
<feOffset dy="4"/>
<feGaussianBlur stdDeviation="2"/>
<feComposite in2="hardAlpha" operator="out"/>
<feColorMatrix type="matrix" values="0 0 0 0 0 0 0 0 0 0 0 0 0 0 0 0 0 0 0.25 0"/>
<feBlend mode="normal" in2="BackgroundImageFix" result="effect1_dropShadow_775_3865"/>
<feBlend mode="normal" in="SourceGraphic" in2="effect1_dropShadow_775_3865" result="shape"/>
</filter>
</defs>
</svg>
