<svg width="21" height="15" viewBox="0 0 21 15" fill="none" xmlns="http://www.w3.org/2000/svg">
<path d="M20 9.45652C20.5523 9.45652 21.006 9.00725 20.9414 8.45875C20.6892 6.31751 19.6309 4.30643 17.9246 2.76975C15.9555 0.99631 13.2848 1.89351e-07 10.5 0C7.71523 -1.89351e-07 5.04451 0.996309 3.07538 2.76975C1.36914 4.30642 0.310764 6.31751 0.0585748 8.45875C-0.00602511 9.00725 0.447715 9.45652 1 9.45652L20 9.45652Z" fill="#F2994A"/>
<path d="M15.5806 10.1087C15.5806 12.8101 13.306 15 10.5 15C7.69404 15 5.41935 12.8101 5.41935 10.1087C5.41935 7.4073 7.69404 5.21739 10.5 5.21739C13.306 5.21739 15.5806 7.4073 15.5806 10.1087Z" fill="#333333"/>
</svg>
