<svg width="67" height="60" viewBox="0 0 67 60" fill="none" xmlns="http://www.w3.org/2000/svg">
<g filter="url(#filter0_d_775_3219)">
<path d="M51.6443 0.0124512L8.26703 14.2696L16.2036 38.0363L59.5809 23.7792L51.6443 0.0124512Z" fill="#00A083"/>
<path d="M55.1459 18.3151L51.3673 7.01541C49.2081 7.73838 46.86 6.56021 46.1583 4.41809L15.3088 14.5396C16.0375 16.6817 14.85 19.0113 12.6908 19.7075L16.4694 31.0072C18.6285 30.2842 20.9767 31.4624 21.6784 33.6045L52.5009 23.483C51.7992 21.3408 52.9867 19.0113 55.1459 18.3151Z" fill="#007863"/>
<path d="M40.5984 16.8156C41.8129 20.4572 39.8156 24.4201 36.145 25.6251C32.4744 26.83 28.4799 24.8486 27.2653 21.207C26.0508 17.5654 28.048 13.6024 31.7187 12.3975C35.3893 11.1925 39.3568 13.174 40.5984 16.8156Z" fill="#00A083"/>
<path d="M32.1775 20.9928C32.5284 21.0195 32.8253 21.0463 33.1221 21.0195C33.392 20.9928 33.635 20.966 33.7969 20.8856C33.9588 20.8321 34.0938 20.7518 34.1748 20.6447C34.2557 20.5376 34.2827 20.4037 34.2287 20.2698C34.2287 20.243 34.2017 20.1895 34.1748 20.1627C34.1478 20.1359 34.1208 20.1091 34.0938 20.0824C34.0668 20.0556 34.0398 20.0288 33.9858 20.002C33.9318 19.9752 33.9049 19.9485 33.8509 19.9217C33.8239 19.8949 33.6889 19.8414 33.446 19.7343C32.7983 19.4129 32.3394 19.1987 32.1235 19.0381C31.9346 18.931 31.7996 18.7971 31.6647 18.6096C31.5297 18.449 31.4218 18.2615 31.3678 18.1009C31.3138 17.967 31.2868 17.8063 31.2868 17.6725C31.2868 17.5118 31.3138 17.3779 31.3408 17.2173C31.3678 17.0566 31.4488 16.9227 31.5297 16.7888C31.6107 16.655 31.7187 16.5211 31.8266 16.414C31.9346 16.3069 32.1235 16.173 32.3664 16.0123C32.3394 15.9052 32.3124 15.8517 32.3124 15.8249L32.2045 15.5303L32.0156 14.9948C32.3664 14.8877 32.6363 14.8074 32.8522 14.727C33.0952 14.6467 33.3651 14.5396 33.6889 14.4325C33.7969 14.7806 33.8509 14.968 33.8779 15.0484L34.0128 15.45C34.3367 15.3965 34.6606 15.3429 34.9844 15.3429C35.1734 15.8249 35.3623 16.3336 35.5782 16.8692C35.2813 16.8424 35.0384 16.8424 34.7955 16.8424C34.5796 16.8692 34.3907 16.8959 34.2557 16.9495C34.0938 17.0031 33.9858 17.0834 33.9049 17.1905C33.8239 17.2976 33.7969 17.4047 33.8509 17.5118C33.8779 17.6189 33.9318 17.6992 34.0398 17.7528C34.1478 17.8063 34.2557 17.8867 34.3907 17.967C34.9305 18.208 35.3083 18.4222 35.5782 18.5829C35.8481 18.7435 36.0371 18.9042 36.199 19.0916C36.3339 19.2791 36.4419 19.4665 36.5229 19.6539C36.5769 19.8146 36.6038 19.9752 36.6038 20.1359C36.6038 20.2966 36.6038 20.4572 36.5499 20.5911C36.4959 20.725 36.4419 20.8856 36.3879 20.9928C36.307 21.1266 36.226 21.2337 36.145 21.3408C36.064 21.448 35.9291 21.5818 35.7402 21.7425L35.9291 22.3316C35.9831 22.519 36.064 22.7065 36.118 22.8939C35.7672 23.001 35.4973 23.0813 35.3083 23.1617C35.1194 23.2152 34.8225 23.3223 34.4447 23.4562C34.3907 23.242 34.3097 22.9742 34.2017 22.6261L34.1478 22.4387C33.8779 22.4922 33.6619 22.519 33.473 22.5458C33.2841 22.5726 33.0682 22.5726 32.7983 22.5726C32.5014 21.796 32.2855 21.2873 32.1775 20.9928Z" fill="#FFFAD1"/>
<path d="M63 20.5108H17.306V45.5468H63V20.5108Z" fill="#00A083"/>
<path d="M60.5169 38.9866V27.071C58.2498 27.071 56.3875 25.2502 56.3875 22.9742H23.9186C23.9186 25.2234 22.0833 27.071 19.7891 27.071V38.9866C22.0563 38.9866 23.9186 40.8074 23.9186 43.0834H56.3875C56.3875 40.8342 58.2498 38.9866 60.5169 38.9866Z" fill="#007863"/>
<path d="M40.1395 39.9773C44.0151 39.9773 47.1569 36.8604 47.1569 33.0154C47.1569 29.1705 44.0151 26.0535 40.1395 26.0535C36.2639 26.0535 33.1221 29.1705 33.1221 33.0154C33.1221 36.8604 36.2639 39.9773 40.1395 39.9773Z" fill="#00A083"/>
<path d="M37.8724 34.381C38.1962 34.5149 38.4931 34.622 38.763 34.7023C39.0329 34.7559 39.2489 34.8094 39.4648 34.8094C39.6267 34.8094 39.7887 34.7559 39.8966 34.6756C40.0046 34.5952 40.0855 34.4881 40.0855 34.3275C40.0855 34.3007 40.0855 34.2471 40.0855 34.2204C40.0855 34.1936 40.0586 34.14 40.0586 34.1133C40.0316 34.0865 40.0046 34.0329 39.9776 33.9794C39.9506 33.9258 39.9236 33.899 39.8966 33.8723C39.8696 33.8455 39.7617 33.7384 39.5727 33.5777C39.0599 33.069 38.7091 32.7209 38.5201 32.5067C38.3852 32.346 38.2772 32.1586 38.1962 31.9711C38.1153 31.7837 38.0883 31.5695 38.0883 31.382C38.0883 31.2214 38.1153 31.0875 38.1423 30.9536C38.1962 30.8197 38.2502 30.6859 38.3312 30.552C38.4122 30.4181 38.5201 30.311 38.6281 30.2039C38.736 30.0968 38.871 30.0164 39.0329 29.9361C39.1679 29.8826 39.3838 29.8022 39.6537 29.7219C39.6537 29.6148 39.6537 29.5612 39.6537 29.5345V28.6508C40.0046 28.6508 40.3015 28.6508 40.5444 28.6508C40.8143 28.6508 41.1112 28.6508 41.435 28.6508C41.408 28.9989 41.4081 29.2131 41.4081 29.2935V29.7219C41.7319 29.7755 42.0558 29.829 42.3527 29.9093C42.3797 30.4449 42.4067 30.9804 42.4337 31.5427C42.1638 31.4356 41.9209 31.3285 41.7049 31.2749C41.489 31.2214 41.3001 31.1946 41.1381 31.1946C40.9762 31.1946 40.8413 31.2214 40.7333 31.3017C40.6253 31.382 40.5714 31.4892 40.5714 31.5963C40.5714 31.7034 40.5983 31.8105 40.6793 31.8908C40.7333 31.9711 40.8413 32.0782 40.9492 32.1853C41.3811 32.587 41.6779 32.9083 41.8939 33.1225C42.0828 33.3635 42.2447 33.5777 42.3257 33.7919C42.4067 34.0061 42.4607 34.2204 42.4607 34.4078C42.4607 34.5685 42.4337 34.7291 42.4067 34.8898C42.3527 35.0504 42.2987 35.1843 42.2177 35.3182C42.1368 35.4521 42.0288 35.5592 41.9209 35.6663C41.8129 35.7734 41.7049 35.8537 41.57 35.9341C41.462 36.0144 41.2731 36.0947 41.0572 36.175V36.7909C41.0572 37.0051 41.0572 37.1926 41.0572 37.38C40.7063 37.38 40.4094 37.38 40.2205 37.38C40.0046 37.38 39.7077 37.38 39.3028 37.38C39.3298 37.1658 39.3298 36.8712 39.3298 36.5231V36.3357C39.0599 36.3089 38.844 36.2554 38.6551 36.2286C38.4661 36.2018 38.2502 36.1215 38.0073 36.0412C37.9263 35.2379 37.8994 34.6756 37.8724 34.381Z" fill="#FFFAD1"/>
<path d="M49.559 19.9752H11.6382C8.45334 19.9752 5.8893 22.519 5.8893 25.6519V46.3233C5.8893 49.4562 8.45334 52 11.6112 52H49.532C52.6898 52 55.2539 49.4562 55.2539 46.3233V25.6519C55.2809 22.519 52.7168 19.9752 49.559 19.9752Z" fill="#C99B36"/>
<path d="M47.6697 19.9752H9.72187C6.56404 19.9752 4 22.519 4 25.6519V46.3233C4 49.4562 6.56404 52 9.72187 52H47.6427C50.8005 52 53.3646 49.4562 53.3646 46.3233V25.6519C53.3916 22.519 50.8275 19.9752 47.6697 19.9752Z" fill="#F7CA41"/>
<path d="M53.3916 38.3975H4V44.8506H53.3916V38.3975Z" fill="#4D4D4F"/>
<path d="M49.1272 28.0885H41.8939V35.2646H49.1272V28.0885Z" fill="#FFFAD1"/>
<path d="M23.7296 33.9258H8.26441V35.2914H23.7296V33.9258Z" fill="#FFFAD1"/>
<path d="M23.7296 31.0072H8.26441V32.3728H23.7296V31.0072Z" fill="#FFFAD1"/>
<path d="M23.7296 28.0885H8.26441V29.4541H23.7296V28.0885Z" fill="#FFFAD1"/>
</g>
<defs>
<filter id="filter0_d_775_3219" x="0" y="0.0124512" width="67" height="59.9875" filterUnits="userSpaceOnUse" color-interpolation-filters="sRGB">
<feFlood flood-opacity="0" result="BackgroundImageFix"/>
<feColorMatrix in="SourceAlpha" type="matrix" values="0 0 0 0 0 0 0 0 0 0 0 0 0 0 0 0 0 0 127 0" result="hardAlpha"/>
<feOffset dy="4"/>
<feGaussianBlur stdDeviation="2"/>
<feComposite in2="hardAlpha" operator="out"/>
<feColorMatrix type="matrix" values="0 0 0 0 0 0 0 0 0 0 0 0 0 0 0 0 0 0 0.25 0"/>
<feBlend mode="normal" in2="BackgroundImageFix" result="effect1_dropShadow_775_3219"/>
<feBlend mode="normal" in="SourceGraphic" in2="effect1_dropShadow_775_3219" result="shape"/>
</filter>
</defs>
</svg>
