<svg width="42" height="52" viewBox="0 0 42 52" fill="none" xmlns="http://www.w3.org/2000/svg">
<path d="M18.2059 26.9267C16.14 27.1768 14.3512 28.7527 13.9481 30.6787C13.8473 31.179 13.8221 31.7293 13.5702 32.1545C13.2427 32.6798 12.638 33.0049 12.1341 33.3801C10.5469 34.6058 10.043 36.857 10.9752 38.583C18.0044 38.583 25.0335 38.8081 32.0627 39.2333C32.4154 38.5329 32.7681 37.8326 32.8941 37.0571C33.0201 36.2817 32.8941 35.4563 32.3398 34.881C31.4328 33.9304 29.644 33.8554 29.0142 32.7298C28.6111 31.9794 28.8882 31.0789 28.8378 30.2284C28.7371 28.5275 27.2254 27.0767 25.4618 26.5515C23.7234 26.0262 21.8339 26.5014 18.2059 26.9267Z" fill="#382733"/>
<path d="M16.0391 27.5019C14.9054 27.4519 14.0488 28.4774 13.5701 29.503C13.1166 30.5285 12.8395 31.6791 12.0333 32.4546C11.4538 33.0299 10.6728 33.33 10.0933 33.8803C9.43828 34.5057 9.08556 35.4312 9.00998 36.3316C8.90921 37.2321 9.06037 38.1576 9.26192 39.0331C9.21154 37.5323 9.21153 35.8814 10.1689 34.7058C10.8995 33.8303 12.0585 33.3801 12.7639 32.4796C13.2426 31.8542 13.4441 31.1038 13.8473 30.4285C14.2504 29.7531 14.981 29.1778 15.7368 29.3279C15.9132 28.7275 16.0895 28.1272 16.0391 27.5019Z" fill="#382733"/>
<path d="M41.7326 51.141H0.313477L1.39682 44.3623C1.57318 43.2617 1.97629 42.2112 2.53056 41.3107C3.56352 39.6348 5.17594 38.3341 7.14108 37.7087L12.2555 36.0578C14.5985 35.3074 16.3621 33.3564 16.8912 31.0301C16.9668 30.705 17.0172 30.3798 17.0424 30.0546L17.1431 28.7539L21.023 28.929L24.9029 28.7539L25.0037 30.0546C25.0793 31.0552 25.3816 32.0057 25.8603 32.8561C26.6917 34.3569 28.0774 35.5076 29.7906 36.0578L34.905 37.7087C37.0465 38.3841 38.7597 39.8849 39.7926 41.7859C40.2209 42.5864 40.5233 43.4618 40.6492 44.3873L41.7326 51.141Z" fill="#A25548"/>
<path d="M25.8602 32.8556C21.5772 33.3559 18.6547 32.1552 16.8911 31.0046C16.9667 30.6794 17.0171 30.3543 17.0423 30.0291L17.1431 28.7284L21.0229 28.9035L24.9028 28.7284L25.0036 30.0291C25.0792 31.0547 25.3815 32.0052 25.8602 32.8556Z" fill="#813F3F"/>
<path d="M41.7328 51.1404H0.313721L1.39707 44.3617C1.57343 43.2611 1.97653 42.2105 2.5308 41.3101C14.4476 44.912 27.347 45.1371 39.7929 41.7853C40.2212 42.5857 40.5235 43.4612 40.6495 44.3867L41.7328 51.1404Z" fill="#E98A55"/>
<path d="M18.8064 44.2621C18.8064 46.5383 18.756 48.5144 18.756 50.9657" stroke="#8C3E32" stroke-miterlimit="10"/>
<path d="M20.1166 46.4137C20.4784 46.4137 20.7716 46.1226 20.7716 45.7634C20.7716 45.4042 20.4784 45.113 20.1166 45.113C19.7548 45.113 19.4615 45.4042 19.4615 45.7634C19.4615 46.1226 19.7548 46.4137 20.1166 46.4137Z" fill="#F7CCA1"/>
<path d="M20.1166 50.2408C20.4784 50.2408 20.7716 49.9496 20.7716 49.5904C20.7716 49.2312 20.4784 48.9401 20.1166 48.9401C19.7548 48.9401 19.4615 49.2312 19.4615 49.5904C19.4615 49.9496 19.7548 50.2408 20.1166 50.2408Z" fill="#F7CCA1"/>
<path d="M5.22653 38.3088C15.3546 42.0358 26.7927 42.1608 37.0215 38.6089C38.0293 38.5339 39.037 38.9341 39.6921 39.7095C40.3471 40.4849 40.5739 41.5605 40.3975 42.6111C27.8004 45.7128 14.372 45.5126 1.95129 41.9607C2.00168 40.9852 2.42998 40.0597 3.16061 39.3843C3.86605 38.734 4.87381 38.1837 5.22653 38.3088Z" fill="white"/>
<path d="M10.2778 16.0463C10.2778 8.4422 15.0647 3.2644 20.9853 3.2644C26.9059 3.2644 31.6928 8.46721 31.6928 16.0463C31.6928 23.6254 26.9059 30.7793 20.9853 30.7793C15.0647 30.7793 10.2778 23.6254 10.2778 16.0463Z" fill="#A25548"/>
<path d="M17.2811 19.3471C17.6429 19.3471 17.9362 19.0559 17.9362 18.6967C17.9362 18.3376 17.6429 18.0464 17.2811 18.0464C16.9194 18.0464 16.6261 18.3376 16.6261 18.6967C16.6261 19.0559 16.9194 19.3471 17.2811 19.3471Z" fill="#27283D"/>
<path d="M24.4616 19.3471C24.8233 19.3471 25.1166 19.0559 25.1166 18.6967C25.1166 18.3376 24.8233 18.0464 24.4616 18.0464C24.0998 18.0464 23.8065 18.3376 23.8065 18.6967C23.8065 19.0559 24.0998 19.3471 24.4616 19.3471Z" fill="#27283D"/>
<path opacity="0.2902" d="M16.374 22.625C18.3777 22.625 20.002 21.0124 20.002 19.0231C20.002 17.0338 18.3777 15.4211 16.374 15.4211C14.3704 15.4211 12.7461 17.0338 12.7461 19.0231C12.7461 21.0124 14.3704 22.625 16.374 22.625Z" fill="#FDEEEF"/>
<path d="M16.374 22.625C18.3777 22.625 20.002 21.0124 20.002 19.0231C20.002 17.0338 18.3777 15.4211 16.374 15.4211C14.3704 15.4211 12.7461 17.0338 12.7461 19.0231C12.7461 21.0124 14.3704 22.625 16.374 22.625Z" stroke="#CED1D2" stroke-miterlimit="10"/>
<path opacity="0.2902" d="M25.8974 22.625C27.901 22.625 29.5253 21.0124 29.5253 19.0231C29.5253 17.0338 27.901 15.4211 25.8974 15.4211C23.8937 15.4211 22.2694 17.0338 22.2694 19.0231C22.2694 21.0124 23.8937 22.625 25.8974 22.625Z" fill="#FDEEEF"/>
<path d="M25.8974 22.625C27.901 22.625 29.5253 21.0124 29.5253 19.0231C29.5253 17.0338 27.901 15.4211 25.8974 15.4211C23.8937 15.4211 22.2694 17.0338 22.2694 19.0231C22.2694 21.0124 23.8937 22.625 25.8974 22.625Z" stroke="#CED1D2" stroke-miterlimit="10"/>
<path d="M19.1454 16.6211C19.1454 16.6211 20.7578 14.9202 23.1261 16.7712" stroke="#CED1D2" stroke-miterlimit="10"/>
<path d="M29.5505 18.3221L30.7599 18.5223" stroke="#CED1D2" stroke-miterlimit="10" stroke-linecap="round"/>
<path d="M12.6704 18.3221L11.3604 18.5223" stroke="#CED1D2" stroke-miterlimit="10" stroke-linecap="round"/>
<path d="M28.9207 15.6947C28.4924 14.6192 27.4846 13.7937 26.3257 13.5936C25.1668 13.3935 23.9323 13.7937 23.1512 14.7943C24.9904 14.344 26.9807 14.6692 28.9207 15.6947Z" fill="#382733"/>
<path d="M13.1996 15.6698C13.6279 14.5943 14.6356 13.7688 15.7946 13.5687C16.9283 13.3686 18.188 13.7688 18.969 14.7694C17.1299 14.2941 15.1395 14.6443 13.1996 15.6698Z" fill="#382733"/>
<path d="M21.0853 20.798L21.0601 23.2493" stroke="#6B303C" stroke-miterlimit="10" stroke-linecap="round"/>
<path d="M18.3895 24.9751C19.1957 25.7005 20.2791 26.1007 21.3624 26.1007C22.4458 26.1007 23.5291 25.6504 24.3101 24.925" stroke="#6B303C" stroke-miterlimit="10" stroke-linecap="round"/>
<path d="M28.4233 26.8521C36.1579 6.61617 22.2256 14.8706 20.7643 6.71623C19.7314 13.62 5.49669 8.06695 13.8611 26.5519C7.10911 24.6759 6.50445 19.5732 7.78935 11.919C8.4444 8.09197 10.082 4.91525 12.2739 2.98921C14.6422 0.963118 17.6403 0.337781 20.7895 1.83859C27.3652 -1.23807 32.404 2.7891 34.3943 11.894C34.6211 12.9946 34.7974 14.0202 34.873 15.0207C35.3769 21.199 32.9583 25.3013 28.4233 26.8521Z" fill="#382733"/>
<path d="M34.8477 15.021C33.9155 12.0443 33.0589 8.69254 30.6906 6.14116C28.1208 3.38967 23.863 1.28854 20.8649 3.26461C18.144 1.81382 15.0199 1.98892 12.299 3.01447C14.642 0.963363 17.6401 0.338025 20.7894 1.83884C27.365 -1.23783 32.4038 2.78935 34.3942 11.8943C34.6209 12.9949 34.7721 14.0204 34.8477 15.021Z" fill="#4F374B"/>
</svg>
