<svg width="48" height="50" viewBox="0 0 48 50" fill="none" xmlns="http://www.w3.org/2000/svg">
<path d="M27 31H21C15.3431 31 12.5147 31 10.7574 29.2426C9 27.4854 9 24.6568 9 19V16C9 10.3431 9 7.51472 10.7574 5.75735C12.5147 4 15.3431 4 21 4H27C32.6568 4 35.4854 4 37.2426 5.75735C39 7.51472 39 10.3431 39 16V19C39 24.6568 39 27.4854 37.2426 29.2426C36.2628 30.2224 34.9502 30.6559 33 30.8478M16.5 4V1.75M31.5 4V1.75M38.25 11.5H22.125M9 11.5H14.8125" stroke="#333333" stroke-width="3" stroke-linecap="round"/>
<path d="M6.14062 44.2871H7.26562C7.20703 44.8262 7.05273 45.3086 6.80273 45.7344C6.55273 46.1602 6.19922 46.498 5.74219 46.748C5.28516 46.9941 4.71484 47.1172 4.03125 47.1172C3.53125 47.1172 3.07617 47.0234 2.66602 46.8359C2.25977 46.6484 1.91016 46.3828 1.61719 46.0391C1.32422 45.6914 1.09766 45.2754 0.9375 44.791C0.78125 44.3027 0.703125 43.7598 0.703125 43.1621V42.3125C0.703125 41.7148 0.78125 41.1738 0.9375 40.6895C1.09766 40.2012 1.32617 39.7832 1.62305 39.4355C1.92383 39.0879 2.28516 38.8203 2.70703 38.6328C3.12891 38.4453 3.60352 38.3516 4.13086 38.3516C4.77539 38.3516 5.32031 38.4727 5.76562 38.7148C6.21094 38.957 6.55664 39.293 6.80273 39.7227C7.05273 40.1484 7.20703 40.6426 7.26562 41.2051H6.14062C6.08594 40.8066 5.98438 40.4648 5.83594 40.1797C5.6875 39.8906 5.47656 39.668 5.20312 39.5117C4.92969 39.3555 4.57227 39.2773 4.13086 39.2773C3.75195 39.2773 3.41797 39.3496 3.12891 39.4941C2.84375 39.6387 2.60352 39.8438 2.4082 40.1094C2.2168 40.375 2.07227 40.6934 1.97461 41.0645C1.87695 41.4355 1.82812 41.8477 1.82812 42.3008V43.1621C1.82812 43.5801 1.87109 43.9727 1.95703 44.3398C2.04688 44.707 2.18164 45.0293 2.36133 45.3066C2.54102 45.584 2.76953 45.8027 3.04688 45.9629C3.32422 46.1191 3.65234 46.1973 4.03125 46.1973C4.51172 46.1973 4.89453 46.1211 5.17969 45.9688C5.46484 45.8164 5.67969 45.5977 5.82422 45.3125C5.97266 45.0273 6.07812 44.6855 6.14062 44.2871ZM12.3809 45.916V42.6523C12.3809 42.4023 12.3301 42.1855 12.2285 42.002C12.1309 41.8145 11.9824 41.6699 11.7832 41.5684C11.584 41.4668 11.3379 41.416 11.0449 41.416C10.7715 41.416 10.5312 41.4629 10.3242 41.5566C10.1211 41.6504 9.96094 41.7734 9.84375 41.9258C9.73047 42.0781 9.67383 42.2422 9.67383 42.418H8.58984C8.58984 42.1914 8.64844 41.9668 8.76562 41.7441C8.88281 41.5215 9.05078 41.3203 9.26953 41.1406C9.49219 40.957 9.75781 40.8125 10.0664 40.707C10.3789 40.5977 10.7266 40.543 11.1094 40.543C11.5703 40.543 11.9766 40.6211 12.3281 40.7773C12.6836 40.9336 12.9609 41.1699 13.1602 41.4863C13.3633 41.7988 13.4648 42.1914 13.4648 42.6641V45.6172C13.4648 45.8281 13.4824 46.0527 13.5176 46.291C13.5566 46.5293 13.6133 46.7344 13.6875 46.9062V47H12.5566C12.502 46.875 12.459 46.709 12.4277 46.502C12.3965 46.291 12.3809 46.0957 12.3809 45.916ZM12.5684 43.1562L12.5801 43.918H11.4844C11.1758 43.918 10.9004 43.9434 10.6582 43.9941C10.416 44.041 10.2129 44.1133 10.0488 44.2109C9.88477 44.3086 9.75977 44.4316 9.67383 44.5801C9.58789 44.7246 9.54492 44.8945 9.54492 45.0898C9.54492 45.2891 9.58984 45.4707 9.67969 45.6348C9.76953 45.7988 9.9043 45.9297 10.084 46.0273C10.2676 46.1211 10.4922 46.168 10.7578 46.168C11.0898 46.168 11.3828 46.0977 11.6367 45.957C11.8906 45.8164 12.0918 45.6445 12.2402 45.4414C12.3926 45.2383 12.4746 45.041 12.4863 44.8496L12.9492 45.3711C12.9219 45.5352 12.8477 45.7168 12.7266 45.916C12.6055 46.1152 12.4434 46.3066 12.2402 46.4902C12.041 46.6699 11.8027 46.8203 11.5254 46.9414C11.252 47.0586 10.9434 47.1172 10.5996 47.1172C10.1699 47.1172 9.79297 47.0332 9.46875 46.8652C9.14844 46.6973 8.89844 46.4727 8.71875 46.1914C8.54297 45.9062 8.45508 45.5879 8.45508 45.2363C8.45508 44.8965 8.52148 44.5977 8.6543 44.3398C8.78711 44.0781 8.97852 43.8613 9.22852 43.6895C9.47852 43.5137 9.7793 43.3809 10.1309 43.291C10.4824 43.2012 10.875 43.1562 11.3086 43.1562H12.5684ZM16.3477 38V47H15.2578V38H16.3477ZM20.7188 47.1172C20.2773 47.1172 19.877 47.043 19.5176 46.8945C19.1621 46.7422 18.8555 46.5293 18.5977 46.2559C18.3438 45.9824 18.1484 45.6582 18.0117 45.2832C17.875 44.9082 17.8066 44.498 17.8066 44.0527V43.8066C17.8066 43.291 17.8828 42.832 18.0352 42.4297C18.1875 42.0234 18.3945 41.6797 18.6562 41.3984C18.918 41.1172 19.2148 40.9043 19.5469 40.7598C19.8789 40.6152 20.2227 40.543 20.5781 40.543C21.0312 40.543 21.4219 40.6211 21.75 40.7773C22.082 40.9336 22.3535 41.1523 22.5645 41.4336C22.7754 41.7109 22.9316 42.0391 23.0332 42.418C23.1348 42.793 23.1855 43.2031 23.1855 43.6484V44.1348H18.4512V43.25H22.1016V43.168C22.0859 42.8867 22.0273 42.6133 21.9258 42.3477C21.8281 42.082 21.6719 41.8633 21.457 41.6914C21.2422 41.5195 20.9492 41.4336 20.5781 41.4336C20.332 41.4336 20.1055 41.4863 19.8984 41.5918C19.6914 41.6934 19.5137 41.8457 19.3652 42.0488C19.2168 42.252 19.1016 42.5 19.0195 42.793C18.9375 43.0859 18.8965 43.4238 18.8965 43.8066V44.0527C18.8965 44.3535 18.9375 44.6367 19.0195 44.9023C19.1055 45.1641 19.2285 45.3945 19.3887 45.5938C19.5527 45.793 19.75 45.9492 19.9805 46.0625C20.2148 46.1758 20.4805 46.2324 20.7773 46.2324C21.1602 46.2324 21.4844 46.1543 21.75 45.998C22.0156 45.8418 22.248 45.6328 22.4473 45.3711L23.1035 45.8926C22.9668 46.0996 22.793 46.2969 22.582 46.4844C22.3711 46.6719 22.1113 46.8242 21.8027 46.9414C21.498 47.0586 21.1367 47.1172 20.7188 47.1172ZM25.5352 42.0137V47H24.4512V40.6602H25.4766L25.5352 42.0137ZM25.2773 43.5898L24.8262 43.5723C24.8301 43.1387 24.8945 42.7383 25.0195 42.3711C25.1445 42 25.3203 41.6777 25.5469 41.4043C25.7734 41.1309 26.043 40.9199 26.3555 40.7715C26.6719 40.6191 27.0215 40.543 27.4043 40.543C27.7168 40.543 27.998 40.5859 28.248 40.6719C28.498 40.7539 28.7109 40.8867 28.8867 41.0703C29.0664 41.2539 29.2031 41.4922 29.2969 41.7852C29.3906 42.0742 29.4375 42.4277 29.4375 42.8457V47H28.3477V42.834C28.3477 42.502 28.2988 42.2363 28.2012 42.0371C28.1035 41.834 27.9609 41.6875 27.7734 41.5977C27.5859 41.5039 27.3555 41.457 27.082 41.457C26.8125 41.457 26.5664 41.5137 26.3438 41.627C26.125 41.7402 25.9355 41.8965 25.7754 42.0957C25.6191 42.2949 25.4961 42.5234 25.4062 42.7812C25.3203 43.0352 25.2773 43.3047 25.2773 43.5898ZM35.0801 45.7695V38H36.1699V47H35.1738L35.0801 45.7695ZM30.8145 43.9004V43.7773C30.8145 43.293 30.873 42.8535 30.9902 42.459C31.1113 42.0605 31.2812 41.7188 31.5 41.4336C31.7227 41.1484 31.9863 40.9297 32.291 40.7773C32.5996 40.6211 32.9434 40.543 33.3223 40.543C33.7207 40.543 34.0684 40.6133 34.3652 40.7539C34.666 40.8906 34.9199 41.0918 35.127 41.3574C35.3379 41.6191 35.5039 41.9355 35.625 42.3066C35.7461 42.6777 35.8301 43.0977 35.877 43.5664V44.1055C35.834 44.5703 35.75 44.9883 35.625 45.3594C35.5039 45.7305 35.3379 46.0469 35.127 46.3086C34.9199 46.5703 34.666 46.7715 34.3652 46.9121C34.0645 47.0488 33.7129 47.1172 33.3105 47.1172C32.9395 47.1172 32.5996 47.0371 32.291 46.877C31.9863 46.7168 31.7227 46.4922 31.5 46.2031C31.2812 45.9141 31.1113 45.5742 30.9902 45.1836C30.873 44.7891 30.8145 44.3613 30.8145 43.9004ZM31.9043 43.7773V43.9004C31.9043 44.2168 31.9355 44.5137 31.998 44.791C32.0645 45.0684 32.166 45.3125 32.3027 45.5234C32.4395 45.7344 32.6133 45.9004 32.8242 46.0215C33.0352 46.1387 33.2871 46.1973 33.5801 46.1973C33.9395 46.1973 34.2344 46.1211 34.4648 45.9688C34.6992 45.8164 34.8867 45.6152 35.0273 45.3652C35.168 45.1152 35.2773 44.8438 35.3555 44.5508V43.1387C35.3086 42.9238 35.2402 42.7168 35.1504 42.5176C35.0645 42.3145 34.9512 42.1348 34.8105 41.9785C34.6738 41.8184 34.5039 41.6914 34.3008 41.5977C34.1016 41.5039 33.8652 41.457 33.5918 41.457C33.2949 41.457 33.0391 41.5195 32.8242 41.6445C32.6133 41.7656 32.4395 41.9336 32.3027 42.1484C32.166 42.3594 32.0645 42.6055 31.998 42.8867C31.9355 43.1641 31.9043 43.4609 31.9043 43.7773ZM41.5957 45.916V42.6523C41.5957 42.4023 41.5449 42.1855 41.4434 42.002C41.3457 41.8145 41.1973 41.6699 40.998 41.5684C40.7988 41.4668 40.5527 41.416 40.2598 41.416C39.9863 41.416 39.7461 41.4629 39.5391 41.5566C39.3359 41.6504 39.1758 41.7734 39.0586 41.9258C38.9453 42.0781 38.8887 42.2422 38.8887 42.418H37.8047C37.8047 42.1914 37.8633 41.9668 37.9805 41.7441C38.0977 41.5215 38.2656 41.3203 38.4844 41.1406C38.707 40.957 38.9727 40.8125 39.2812 40.707C39.5938 40.5977 39.9414 40.543 40.3242 40.543C40.7852 40.543 41.1914 40.6211 41.543 40.7773C41.8984 40.9336 42.1758 41.1699 42.375 41.4863C42.5781 41.7988 42.6797 42.1914 42.6797 42.6641V45.6172C42.6797 45.8281 42.6973 46.0527 42.7324 46.291C42.7715 46.5293 42.8281 46.7344 42.9023 46.9062V47H41.7715C41.7168 46.875 41.6738 46.709 41.6426 46.502C41.6113 46.291 41.5957 46.0957 41.5957 45.916ZM41.7832 43.1562L41.7949 43.918H40.6992C40.3906 43.918 40.1152 43.9434 39.873 43.9941C39.6309 44.041 39.4277 44.1133 39.2637 44.2109C39.0996 44.3086 38.9746 44.4316 38.8887 44.5801C38.8027 44.7246 38.7598 44.8945 38.7598 45.0898C38.7598 45.2891 38.8047 45.4707 38.8945 45.6348C38.9844 45.7988 39.1191 45.9297 39.2988 46.0273C39.4824 46.1211 39.707 46.168 39.9727 46.168C40.3047 46.168 40.5977 46.0977 40.8516 45.957C41.1055 45.8164 41.3066 45.6445 41.4551 45.4414C41.6074 45.2383 41.6895 45.041 41.7012 44.8496L42.1641 45.3711C42.1367 45.5352 42.0625 45.7168 41.9414 45.916C41.8203 46.1152 41.6582 46.3066 41.4551 46.4902C41.2559 46.6699 41.0176 46.8203 40.7402 46.9414C40.4668 47.0586 40.1582 47.1172 39.8145 47.1172C39.3848 47.1172 39.0078 47.0332 38.6836 46.8652C38.3633 46.6973 38.1133 46.4727 37.9336 46.1914C37.7578 45.9062 37.6699 45.5879 37.6699 45.2363C37.6699 44.8965 37.7363 44.5977 37.8691 44.3398C38.002 44.0781 38.1934 43.8613 38.4434 43.6895C38.6934 43.5137 38.9941 43.3809 39.3457 43.291C39.6973 43.2012 40.0898 43.1562 40.5234 43.1562H41.7832ZM45.4688 41.6562V47H44.3848V40.6602H45.4395L45.4688 41.6562ZM47.4492 40.625L47.4434 41.6328C47.3535 41.6133 47.2676 41.6016 47.1855 41.5977C47.1074 41.5898 47.0176 41.5859 46.916 41.5859C46.666 41.5859 46.4453 41.625 46.2539 41.7031C46.0625 41.7812 45.9004 41.8906 45.7676 42.0312C45.6348 42.1719 45.5293 42.3398 45.4512 42.5352C45.377 42.7266 45.3281 42.9375 45.3047 43.168L45 43.3438C45 42.9609 45.0371 42.6016 45.1113 42.2656C45.1895 41.9297 45.3086 41.6328 45.4688 41.375C45.6289 41.1133 45.832 40.9102 46.0781 40.7656C46.3281 40.6172 46.625 40.543 46.9688 40.543C47.0469 40.543 47.1367 40.5527 47.2383 40.5723C47.3398 40.5879 47.4102 40.6055 47.4492 40.625Z" fill="#333333"/>
</svg>
