<svg width="68" height="72" viewBox="0 0 68 72" fill="none" xmlns="http://www.w3.org/2000/svg">
<g filter="url(#filter0_dd_3696_107152)">
<rect x="4" y="6" width="60" height="60" rx="30" fill="#F5E6DB" shape-rendering="crispEdges"/>
<path d="M29.6791 42C30.9764 42.9455 32.5542 43.5 34.2558 43.5C35.9575 43.5 37.5352 42.9455 38.8326 42M48.9562 37.4369L48.531 40.3428C47.7873 45.4241 47.4155 47.9646 45.623 49.4823C43.8303 51 41.2012 51 35.9433 51H32.5684C27.3104 51 24.6814 51 22.8888 49.4823C21.0961 47.9646 20.7243 45.4241 19.9807 40.3428L19.5554 37.4369C18.9765 33.4812 18.6871 31.5034 19.5116 29.8124C20.3361 28.1214 22.0911 27.0935 25.6011 25.0377L27.7138 23.8003C30.9011 21.9334 32.4949 21 34.2558 21C36.0168 21 37.6106 21.9334 40.7978 23.8003L42.9106 25.0377C46.4205 27.0935 48.1756 28.1214 49 29.8124" stroke="#333333" stroke-width="3" stroke-linecap="round"/>
</g>
<defs>
<filter id="filter0_dd_3696_107152" x="0" y="0" width="68" height="72" filterUnits="userSpaceOnUse" color-interpolation-filters="sRGB">
<feFlood flood-opacity="0" result="BackgroundImageFix"/>
<feColorMatrix in="SourceAlpha" type="matrix" values="0 0 0 0 0 0 0 0 0 0 0 0 0 0 0 0 0 0 127 0" result="hardAlpha"/>
<feOffset dy="2"/>
<feGaussianBlur stdDeviation="2"/>
<feComposite in2="hardAlpha" operator="out"/>
<feColorMatrix type="matrix" values="0 0 0 0 0 0 0 0 0 0 0 0 0 0 0 0 0 0 0.25 0"/>
<feBlend mode="normal" in2="BackgroundImageFix" result="effect1_dropShadow_3696_107152"/>
<feColorMatrix in="SourceAlpha" type="matrix" values="0 0 0 0 0 0 0 0 0 0 0 0 0 0 0 0 0 0 127 0" result="hardAlpha"/>
<feOffset dy="-2"/>
<feGaussianBlur stdDeviation="2"/>
<feComposite in2="hardAlpha" operator="out"/>
<feColorMatrix type="matrix" values="0 0 0 0 0 0 0 0 0 0 0 0 0 0 0 0 0 0 0.25 0"/>
<feBlend mode="normal" in2="effect1_dropShadow_3696_107152" result="effect2_dropShadow_3696_107152"/>
<feBlend mode="normal" in="SourceGraphic" in2="effect2_dropShadow_3696_107152" result="shape"/>
</filter>
</defs>
</svg>
