<svg width="56" height="51" viewBox="0 0 56 51" fill="none" xmlns="http://www.w3.org/2000/svg">
<path d="M20.5 20H34M20.5 25.25H29.5M13 17C13 24.071 13 27.6067 15.1967 29.8033C17.3934 32 20.9289 32 28 32C35.071 32 38.6067 32 40.8033 29.8033C43 27.6067 43 24.071 43 17V14.75M30.25 2H28C20.9289 2 17.3934 2 15.1967 4.1967C13.7361 5.65732 13.2467 7.70983 13.0826 11M43 6.5C43 8.98528 40.9853 11 38.5 11C36.0147 11 34 8.98528 34 6.5C34 4.01472 36.0147 2 38.5 2C40.9853 2 43 4.01472 43 6.5Z" stroke="#333333" stroke-width="3" stroke-linecap="round"/>
<path d="M1.34766 39.4688H2.44336L5.23828 46.4238L8.02734 39.4688H9.12891L5.66016 48H4.80469L1.34766 39.4688ZM0.990234 39.4688H1.95703L2.11523 44.6719V48H0.990234V39.4688ZM8.51367 39.4688H9.48047V48H8.35547V44.6719L8.51367 39.4688ZM13.9336 48.1172C13.4922 48.1172 13.0918 48.043 12.7324 47.8945C12.377 47.7422 12.0703 47.5293 11.8125 47.2559C11.5586 46.9824 11.3633 46.6582 11.2266 46.2832C11.0898 45.9082 11.0215 45.498 11.0215 45.0527V44.8066C11.0215 44.291 11.0977 43.832 11.25 43.4297C11.4023 43.0234 11.6094 42.6797 11.8711 42.3984C12.1328 42.1172 12.4297 41.9043 12.7617 41.7598C13.0938 41.6152 13.4375 41.543 13.793 41.543C14.2461 41.543 14.6367 41.6211 14.9648 41.7773C15.2969 41.9336 15.5684 42.1523 15.7793 42.4336C15.9902 42.7109 16.1465 43.0391 16.248 43.418C16.3496 43.793 16.4004 44.2031 16.4004 44.6484V45.1348H11.666V44.25H15.3164V44.168C15.3008 43.8867 15.2422 43.6133 15.1406 43.3477C15.043 43.082 14.8867 42.8633 14.6719 42.6914C14.457 42.5195 14.1641 42.4336 13.793 42.4336C13.5469 42.4336 13.3203 42.4863 13.1133 42.5918C12.9062 42.6934 12.7285 42.8457 12.5801 43.0488C12.4316 43.252 12.3164 43.5 12.2344 43.793C12.1523 44.0859 12.1113 44.4238 12.1113 44.8066V45.0527C12.1113 45.3535 12.1523 45.6367 12.2344 45.9023C12.3203 46.1641 12.4434 46.3945 12.6035 46.5938C12.7676 46.793 12.9648 46.9492 13.1953 47.0625C13.4297 47.1758 13.6953 47.2324 13.9922 47.2324C14.375 47.2324 14.6992 47.1543 14.9648 46.998C15.2305 46.8418 15.4629 46.6328 15.6621 46.3711L16.3184 46.8926C16.1816 47.0996 16.0078 47.2969 15.7969 47.4844C15.5859 47.6719 15.3262 47.8242 15.0176 47.9414C14.7129 48.0586 14.3516 48.1172 13.9336 48.1172ZM21.3574 46.3184C21.3574 46.1621 21.3223 46.0176 21.252 45.8848C21.1855 45.748 21.0469 45.625 20.8359 45.5156C20.6289 45.4023 20.3164 45.3047 19.8984 45.2227C19.5469 45.1484 19.2285 45.0605 18.9434 44.959C18.6621 44.8574 18.4219 44.7344 18.2227 44.5898C18.0273 44.4453 17.877 44.2754 17.7715 44.0801C17.666 43.8848 17.6133 43.6562 17.6133 43.3945C17.6133 43.1445 17.668 42.9082 17.7773 42.6855C17.8906 42.4629 18.0488 42.2656 18.252 42.0938C18.459 41.9219 18.707 41.7871 18.9961 41.6895C19.2852 41.5918 19.6074 41.543 19.9629 41.543C20.4707 41.543 20.9043 41.6328 21.2637 41.8125C21.623 41.9922 21.8984 42.2324 22.0898 42.5332C22.2812 42.8301 22.377 43.1602 22.377 43.5234H21.293C21.293 43.3477 21.2402 43.1777 21.1348 43.0137C21.0332 42.8457 20.8828 42.707 20.6836 42.5977C20.4883 42.4883 20.248 42.4336 19.9629 42.4336C19.6621 42.4336 19.418 42.4805 19.2305 42.5742C19.0469 42.6641 18.9121 42.7793 18.8262 42.9199C18.7441 43.0605 18.7031 43.209 18.7031 43.3652C18.7031 43.4824 18.7227 43.5879 18.7617 43.6816C18.8047 43.7715 18.8789 43.8555 18.9844 43.9336C19.0898 44.0078 19.2383 44.0781 19.4297 44.1445C19.6211 44.2109 19.8652 44.2773 20.1621 44.3438C20.6816 44.4609 21.1094 44.6016 21.4453 44.7656C21.7812 44.9297 22.0312 45.1309 22.1953 45.3691C22.3594 45.6074 22.4414 45.8965 22.4414 46.2363C22.4414 46.5137 22.3828 46.7676 22.2656 46.998C22.1523 47.2285 21.9863 47.4277 21.7676 47.5957C21.5527 47.7598 21.2949 47.8887 20.9941 47.9824C20.6973 48.0723 20.3633 48.1172 19.9922 48.1172C19.4336 48.1172 18.9609 48.0176 18.5742 47.8184C18.1875 47.6191 17.8945 47.3613 17.6953 47.0449C17.4961 46.7285 17.3965 46.3945 17.3965 46.043H18.4863C18.502 46.3398 18.5879 46.5762 18.7441 46.752C18.9004 46.9238 19.0918 47.0469 19.3184 47.1211C19.5449 47.1914 19.7695 47.2266 19.9922 47.2266C20.2891 47.2266 20.5371 47.1875 20.7363 47.1094C20.9395 47.0312 21.0938 46.9238 21.1992 46.7871C21.3047 46.6504 21.3574 46.4941 21.3574 46.3184ZM27.5566 46.3184C27.5566 46.1621 27.5215 46.0176 27.4512 45.8848C27.3848 45.748 27.2461 45.625 27.0352 45.5156C26.8281 45.4023 26.5156 45.3047 26.0977 45.2227C25.7461 45.1484 25.4277 45.0605 25.1426 44.959C24.8613 44.8574 24.6211 44.7344 24.4219 44.5898C24.2266 44.4453 24.0762 44.2754 23.9707 44.0801C23.8652 43.8848 23.8125 43.6562 23.8125 43.3945C23.8125 43.1445 23.8672 42.9082 23.9766 42.6855C24.0898 42.4629 24.248 42.2656 24.4512 42.0938C24.6582 41.9219 24.9062 41.7871 25.1953 41.6895C25.4844 41.5918 25.8066 41.543 26.1621 41.543C26.6699 41.543 27.1035 41.6328 27.4629 41.8125C27.8223 41.9922 28.0977 42.2324 28.2891 42.5332C28.4805 42.8301 28.5762 43.1602 28.5762 43.5234H27.4922C27.4922 43.3477 27.4395 43.1777 27.334 43.0137C27.2324 42.8457 27.082 42.707 26.8828 42.5977C26.6875 42.4883 26.4473 42.4336 26.1621 42.4336C25.8613 42.4336 25.6172 42.4805 25.4297 42.5742C25.2461 42.6641 25.1113 42.7793 25.0254 42.9199C24.9434 43.0605 24.9023 43.209 24.9023 43.3652C24.9023 43.4824 24.9219 43.5879 24.9609 43.6816C25.0039 43.7715 25.0781 43.8555 25.1836 43.9336C25.2891 44.0078 25.4375 44.0781 25.6289 44.1445C25.8203 44.2109 26.0645 44.2773 26.3613 44.3438C26.8809 44.4609 27.3086 44.6016 27.6445 44.7656C27.9805 44.9297 28.2305 45.1309 28.3945 45.3691C28.5586 45.6074 28.6406 45.8965 28.6406 46.2363C28.6406 46.5137 28.582 46.7676 28.4648 46.998C28.3516 47.2285 28.1855 47.4277 27.9668 47.5957C27.752 47.7598 27.4941 47.8887 27.1934 47.9824C26.8965 48.0723 26.5625 48.1172 26.1914 48.1172C25.6328 48.1172 25.1602 48.0176 24.7734 47.8184C24.3867 47.6191 24.0938 47.3613 23.8945 47.0449C23.6953 46.7285 23.5957 46.3945 23.5957 46.043H24.6855C24.7012 46.3398 24.7871 46.5762 24.9434 46.752C25.0996 46.9238 25.291 47.0469 25.5176 47.1211C25.7441 47.1914 25.9688 47.2266 26.1914 47.2266C26.4883 47.2266 26.7363 47.1875 26.9355 47.1094C27.1387 47.0312 27.293 46.9238 27.3984 46.7871C27.5039 46.6504 27.5566 46.4941 27.5566 46.3184ZM33.8027 46.916V43.6523C33.8027 43.4023 33.752 43.1855 33.6504 43.002C33.5527 42.8145 33.4043 42.6699 33.2051 42.5684C33.0059 42.4668 32.7598 42.416 32.4668 42.416C32.1934 42.416 31.9531 42.4629 31.7461 42.5566C31.543 42.6504 31.3828 42.7734 31.2656 42.9258C31.1523 43.0781 31.0957 43.2422 31.0957 43.418H30.0117C30.0117 43.1914 30.0703 42.9668 30.1875 42.7441C30.3047 42.5215 30.4727 42.3203 30.6914 42.1406C30.9141 41.957 31.1797 41.8125 31.4883 41.707C31.8008 41.5977 32.1484 41.543 32.5312 41.543C32.9922 41.543 33.3984 41.6211 33.75 41.7773C34.1055 41.9336 34.3828 42.1699 34.582 42.4863C34.7852 42.7988 34.8867 43.1914 34.8867 43.6641V46.6172C34.8867 46.8281 34.9043 47.0527 34.9395 47.291C34.9785 47.5293 35.0352 47.7344 35.1094 47.9062V48H33.9785C33.9238 47.875 33.8809 47.709 33.8496 47.502C33.8184 47.291 33.8027 47.0957 33.8027 46.916ZM33.9902 44.1562L34.002 44.918H32.9062C32.5977 44.918 32.3223 44.9434 32.0801 44.9941C31.8379 45.041 31.6348 45.1133 31.4707 45.2109C31.3066 45.3086 31.1816 45.4316 31.0957 45.5801C31.0098 45.7246 30.9668 45.8945 30.9668 46.0898C30.9668 46.2891 31.0117 46.4707 31.1016 46.6348C31.1914 46.7988 31.3262 46.9297 31.5059 47.0273C31.6895 47.1211 31.9141 47.168 32.1797 47.168C32.5117 47.168 32.8047 47.0977 33.0586 46.957C33.3125 46.8164 33.5137 46.6445 33.6621 46.4414C33.8145 46.2383 33.8965 46.041 33.9082 45.8496L34.3711 46.3711C34.3438 46.5352 34.2695 46.7168 34.1484 46.916C34.0273 47.1152 33.8652 47.3066 33.6621 47.4902C33.4629 47.6699 33.2246 47.8203 32.9473 47.9414C32.6738 48.0586 32.3652 48.1172 32.0215 48.1172C31.5918 48.1172 31.2148 48.0332 30.8906 47.8652C30.5703 47.6973 30.3203 47.4727 30.1406 47.1914C29.9648 46.9062 29.877 46.5879 29.877 46.2363C29.877 45.8965 29.9434 45.5977 30.0762 45.3398C30.209 45.0781 30.4004 44.8613 30.6504 44.6895C30.9004 44.5137 31.2012 44.3809 31.5527 44.291C31.9043 44.2012 32.2969 44.1562 32.7305 44.1562H33.9902ZM40.6992 41.6602H41.6836V47.8652C41.6836 48.4238 41.5703 48.9004 41.3438 49.2949C41.1172 49.6895 40.8008 49.9883 40.3945 50.1914C39.9922 50.3984 39.5273 50.502 39 50.502C38.7812 50.502 38.5234 50.4668 38.2266 50.3965C37.9336 50.3301 37.6445 50.2148 37.3594 50.0508C37.0781 49.8906 36.8418 49.6738 36.6504 49.4004L37.2188 48.7559C37.4844 49.0762 37.7617 49.2988 38.0508 49.4238C38.3438 49.5488 38.6328 49.6113 38.918 49.6113C39.2617 49.6113 39.5586 49.5469 39.8086 49.418C40.0586 49.2891 40.252 49.0977 40.3887 48.8438C40.5293 48.5938 40.5996 48.2852 40.5996 47.918V43.0547L40.6992 41.6602ZM36.334 44.9004V44.7773C36.334 44.293 36.3906 43.8535 36.5039 43.459C36.6211 43.0605 36.7871 42.7188 37.002 42.4336C37.2207 42.1484 37.4844 41.9297 37.793 41.7773C38.1016 41.6211 38.4492 41.543 38.8359 41.543C39.2344 41.543 39.582 41.6133 39.8789 41.7539C40.1797 41.8906 40.4336 42.0918 40.6406 42.3574C40.8516 42.6191 41.0176 42.9355 41.1387 43.3066C41.2598 43.6777 41.3438 44.0977 41.3906 44.5664V45.1055C41.3477 45.5703 41.2637 45.9883 41.1387 46.3594C41.0176 46.7305 40.8516 47.0469 40.6406 47.3086C40.4336 47.5703 40.1797 47.7715 39.8789 47.9121C39.5781 48.0488 39.2266 48.1172 38.8242 48.1172C38.4453 48.1172 38.1016 48.0371 37.793 47.877C37.4883 47.7168 37.2266 47.4922 37.0078 47.2031C36.7891 46.9141 36.6211 46.5742 36.5039 46.1836C36.3906 45.7891 36.334 45.3613 36.334 44.9004ZM37.418 44.7773V44.9004C37.418 45.2168 37.4492 45.5137 37.5117 45.791C37.5781 46.0684 37.6777 46.3125 37.8105 46.5234C37.9473 46.7344 38.1211 46.9004 38.332 47.0215C38.543 47.1387 38.7949 47.1973 39.0879 47.1973C39.4473 47.1973 39.7441 47.1211 39.9785 46.9688C40.2129 46.8164 40.3984 46.6152 40.5352 46.3652C40.6758 46.1152 40.7852 45.8438 40.8633 45.5508V44.1387C40.8203 43.9238 40.7539 43.7168 40.6641 43.5176C40.5781 43.3145 40.4648 43.1348 40.3242 42.9785C40.1875 42.8184 40.0176 42.6914 39.8145 42.5977C39.6113 42.5039 39.373 42.457 39.0996 42.457C38.8027 42.457 38.5469 42.5195 38.332 42.6445C38.1211 42.7656 37.9473 42.9336 37.8105 43.1484C37.6777 43.3594 37.5781 43.6055 37.5117 43.8867C37.4492 44.1641 37.418 44.4609 37.418 44.7773ZM45.9609 48.1172C45.5195 48.1172 45.1191 48.043 44.7598 47.8945C44.4043 47.7422 44.0977 47.5293 43.8398 47.2559C43.5859 46.9824 43.3906 46.6582 43.2539 46.2832C43.1172 45.9082 43.0488 45.498 43.0488 45.0527V44.8066C43.0488 44.291 43.125 43.832 43.2773 43.4297C43.4297 43.0234 43.6367 42.6797 43.8984 42.3984C44.1602 42.1172 44.457 41.9043 44.7891 41.7598C45.1211 41.6152 45.4648 41.543 45.8203 41.543C46.2734 41.543 46.6641 41.6211 46.9922 41.7773C47.3242 41.9336 47.5957 42.1523 47.8066 42.4336C48.0176 42.7109 48.1738 43.0391 48.2754 43.418C48.377 43.793 48.4277 44.2031 48.4277 44.6484V45.1348H43.6934V44.25H47.3438V44.168C47.3281 43.8867 47.2695 43.6133 47.168 43.3477C47.0703 43.082 46.9141 42.8633 46.6992 42.6914C46.4844 42.5195 46.1914 42.4336 45.8203 42.4336C45.5742 42.4336 45.3477 42.4863 45.1406 42.5918C44.9336 42.6934 44.7559 42.8457 44.6074 43.0488C44.459 43.252 44.3438 43.5 44.2617 43.793C44.1797 44.0859 44.1387 44.4238 44.1387 44.8066V45.0527C44.1387 45.3535 44.1797 45.6367 44.2617 45.9023C44.3477 46.1641 44.4707 46.3945 44.6309 46.5938C44.7949 46.793 44.9922 46.9492 45.2227 47.0625C45.457 47.1758 45.7227 47.2324 46.0195 47.2324C46.4023 47.2324 46.7266 47.1543 46.9922 46.998C47.2578 46.8418 47.4902 46.6328 47.6895 46.3711L48.3457 46.8926C48.209 47.0996 48.0352 47.2969 47.8242 47.4844C47.6133 47.6719 47.3535 47.8242 47.0449 47.9414C46.7402 48.0586 46.3789 48.1172 45.9609 48.1172ZM53.3848 46.3184C53.3848 46.1621 53.3496 46.0176 53.2793 45.8848C53.2129 45.748 53.0742 45.625 52.8633 45.5156C52.6562 45.4023 52.3438 45.3047 51.9258 45.2227C51.5742 45.1484 51.2559 45.0605 50.9707 44.959C50.6895 44.8574 50.4492 44.7344 50.25 44.5898C50.0547 44.4453 49.9043 44.2754 49.7988 44.0801C49.6934 43.8848 49.6406 43.6562 49.6406 43.3945C49.6406 43.1445 49.6953 42.9082 49.8047 42.6855C49.918 42.4629 50.0762 42.2656 50.2793 42.0938C50.4863 41.9219 50.7344 41.7871 51.0234 41.6895C51.3125 41.5918 51.6348 41.543 51.9902 41.543C52.498 41.543 52.9316 41.6328 53.291 41.8125C53.6504 41.9922 53.9258 42.2324 54.1172 42.5332C54.3086 42.8301 54.4043 43.1602 54.4043 43.5234H53.3203C53.3203 43.3477 53.2676 43.1777 53.1621 43.0137C53.0605 42.8457 52.9102 42.707 52.7109 42.5977C52.5156 42.4883 52.2754 42.4336 51.9902 42.4336C51.6895 42.4336 51.4453 42.4805 51.2578 42.5742C51.0742 42.6641 50.9395 42.7793 50.8535 42.9199C50.7715 43.0605 50.7305 43.209 50.7305 43.3652C50.7305 43.4824 50.75 43.5879 50.7891 43.6816C50.832 43.7715 50.9062 43.8555 51.0117 43.9336C51.1172 44.0078 51.2656 44.0781 51.457 44.1445C51.6484 44.2109 51.8926 44.2773 52.1895 44.3438C52.709 44.4609 53.1367 44.6016 53.4727 44.7656C53.8086 44.9297 54.0586 45.1309 54.2227 45.3691C54.3867 45.6074 54.4688 45.8965 54.4688 46.2363C54.4688 46.5137 54.4102 46.7676 54.293 46.998C54.1797 47.2285 54.0137 47.4277 53.7949 47.5957C53.5801 47.7598 53.3223 47.8887 53.0215 47.9824C52.7246 48.0723 52.3906 48.1172 52.0195 48.1172C51.4609 48.1172 50.9883 48.0176 50.6016 47.8184C50.2148 47.6191 49.9219 47.3613 49.7227 47.0449C49.5234 46.7285 49.4238 46.3945 49.4238 46.043H50.5137C50.5293 46.3398 50.6152 46.5762 50.7715 46.752C50.9277 46.9238 51.1191 47.0469 51.3457 47.1211C51.5723 47.1914 51.7969 47.2266 52.0195 47.2266C52.3164 47.2266 52.5645 47.1875 52.7637 47.1094C52.9668 47.0312 53.1211 46.9238 53.2266 46.7871C53.332 46.6504 53.3848 46.4941 53.3848 46.3184Z" fill="#333333"/>
</svg>
