<svg width="48" height="54" viewBox="0 0 48 54" fill="none" xmlns="http://www.w3.org/2000/svg">
<path d="M45.8829 48.1451C44.9703 44.4293 42.2975 41.3654 38.7447 39.9312L34.3771 38.2037C34.4097 38.6601 34.3445 39.149 34.2141 39.6053L29.6509 54.4684H47.4475L45.8829 48.1451Z" fill="#454F6B"/>
<path d="M28.4453 36.5744C27.4023 38.0737 25.7074 38.9538 23.8821 38.9538C22.0568 38.9538 20.3619 38.0737 19.3189 36.5744L18.9277 36.0203L21.0464 54.4687H23.8821H26.7504L28.869 36.0203L28.4453 36.5744Z" fill="#B0B369"/>
<path d="M13.3864 38.2037L9.01876 39.9312C5.43337 41.3328 2.79322 44.3967 1.88057 48.1451L0.348633 54.4684H18.1452L13.582 39.6053C13.419 39.149 13.3538 38.6927 13.3864 38.2037Z" fill="#454F6B"/>
<path d="M19.9051 35.6287V32.4996L15.5701 34.7812C14.2663 35.4657 13.4514 36.8021 13.3862 38.2037C13.3536 38.66 13.4188 39.1489 13.5492 39.6052L18.1124 54.4683H21.0133L18.9273 36.0198L19.9051 35.6287Z" fill="#55617C"/>
<path d="M34.4097 38.2037C34.3445 36.8021 33.5297 35.4657 32.2259 34.7812L27.8908 32.4996V35.6287L28.8686 36.0198L26.75 54.4683H29.6509L34.2141 39.6052C34.3771 39.1489 34.4097 38.6926 34.4097 38.2037Z" fill="#55617C"/>
<g opacity="0.5">
<path d="M9.21424 53.8808C9.50759 52.3489 9.50759 50.2628 9.05127 48.2746C8.59494 46.2537 7.74749 44.3632 6.80225 43.1246C7.29116 44.624 7.87786 46.5145 8.30159 48.4375C8.75791 50.3606 9.01867 52.3163 9.21424 53.8808Z" fill="#3C3247"/>
</g>
<g opacity="0.5">
<path d="M38.5819 53.8808C38.2885 52.3489 38.2885 50.2628 38.7449 48.2746C39.2012 46.2537 40.0486 44.3632 40.9939 43.1246C40.505 44.624 39.9183 46.5145 39.4945 48.4375C39.0382 50.3606 38.7775 52.3163 38.5819 53.8808Z" fill="#3C3247"/>
</g>
<path d="M27.63 32.4668C26.6521 33.8032 25.381 34.5529 24.0772 34.5529H23.8816H23.686C22.3823 34.5529 21.1111 33.8032 20.1332 32.4668L19.9051 32.1083V35.6285L18.9272 36.0196L19.3184 36.5737C20.3614 38.0731 22.0563 38.9531 23.8816 38.9531C25.7069 38.9531 27.4018 38.0731 28.4448 36.5737L28.836 36.0196L27.8581 35.6285V32.1083L27.63 32.4668Z" fill="#BD6C67"/>
<path d="M23.7188 34.5527H23.9144H24.11C25.4137 34.5527 26.6849 33.8031 27.6628 32.4667L27.9235 32.1082V27.4471H23.8818H19.9053V32.1082L20.166 32.4667C21.1113 33.8031 22.3825 34.5527 23.7188 34.5527Z" fill="#3C3247"/>
<path d="M23.881 32.694C32.8457 32.694 40.113 25.4266 40.113 16.4619C40.113 7.49719 32.8457 0.229858 23.881 0.229858C14.9163 0.229858 7.64893 7.49719 7.64893 16.4619C7.64893 25.4266 14.9163 32.694 23.881 32.694Z" fill="#3C3247"/>
<path d="M14.7669 25.3931C16.265 24.7765 16.9796 23.0621 16.363 21.564C15.7464 20.0658 14.032 19.3512 12.5339 19.9679C11.0358 20.5845 10.3212 22.2988 10.9378 23.797C11.5544 25.2951 13.2687 26.0097 14.7669 25.3931Z" fill="#A64F5A"/>
<path d="M15.2763 22.6881C15.2763 23.6007 14.5266 24.3504 13.614 24.3504C12.7013 24.3504 11.9517 23.6007 11.9517 22.6881C11.9517 21.7754 12.7013 21.0258 13.614 21.0258C14.5592 21.0258 15.2763 21.7754 15.2763 22.6881Z" fill="#8C404C"/>
<path d="M36.8796 23.8046C37.4962 22.3064 36.7816 20.5921 35.2835 19.9755C33.7853 19.3588 32.071 20.0734 31.4544 21.5716C30.8378 23.0697 31.5524 24.784 33.0505 25.4007C34.5486 26.0173 36.263 25.3027 36.8796 23.8046Z" fill="#A64F5A"/>
<path d="M32.5186 22.6878C32.5186 23.6005 33.2682 24.3501 34.1809 24.3501C35.0935 24.3501 35.8432 23.6005 35.8432 22.6878C35.8432 21.7752 35.0935 21.0255 34.1809 21.0255C33.2356 21.0255 32.5186 21.7752 32.5186 22.6878Z" fill="#8C404C"/>
<path d="M14.0702 21.449H14.9829L15.5696 16.2013H13.6465L14.0702 21.449Z" fill="#3C3247"/>
<path d="M32.1924 16.2013L32.8117 21.449H33.7243L34.1481 16.2013H32.1924Z" fill="#3C3247"/>
<path d="M23.8811 11.2144C20.2957 11.2144 17.2318 11.9314 15.7325 13.0071C15.2435 14.1153 14.9502 15.3539 14.9502 16.625V21.8402C14.9502 25.1322 16.3518 28.2939 18.7637 30.5429L19.1223 30.8688C20.3609 31.977 21.958 32.5963 23.6203 32.5963H23.8485H24.1418C25.8042 32.5963 27.4013 31.977 28.6399 30.8688L28.9984 30.5429C31.443 28.2939 32.812 25.1648 32.812 21.8402V16.625C32.812 15.3213 32.5186 14.1153 32.0297 13.0071C30.5629 11.964 27.4665 11.2144 23.8811 11.2144Z" fill="#BD6C67"/>
<path d="M19.9047 20.5691C20.3547 20.5691 20.7196 20.2042 20.7196 19.7542C20.7196 19.3042 20.3547 18.9393 19.9047 18.9393C19.4547 18.9393 19.0898 19.3042 19.0898 19.7542C19.0898 20.2042 19.4547 20.5691 19.9047 20.5691Z" fill="#3C3247"/>
<path d="M27.8901 20.5691C28.3401 20.5691 28.7049 20.2042 28.7049 19.7542C28.7049 19.3042 28.3401 18.9393 27.8901 18.9393C27.44 18.9393 27.0752 19.3042 27.0752 19.7542C27.0752 20.2042 27.44 20.5691 27.8901 20.5691Z" fill="#3C3247"/>
<path d="M25.967 23.9262C24.598 23.6328 23.1639 23.6328 21.7949 23.9262C22.2838 24.5781 23.0987 25.067 23.9136 25.0996C24.761 25.1322 25.6085 24.6433 25.967 23.9262Z" fill="#A64F5A"/>
<path d="M19.7089 16.4627C18.6333 16.3976 17.6228 16.8213 16.9058 17.571C18.7311 17.7665 20.5563 17.8969 22.3816 17.8969C21.7623 17.082 20.8171 16.5279 19.7089 16.4627Z" fill="#3C3247"/>
<path d="M28.0531 16.4627C29.1287 16.3976 30.1392 16.8213 30.8562 17.571C29.031 17.7665 27.2057 17.8969 25.3804 17.8969C26.0323 17.082 26.9775 16.5279 28.0531 16.4627Z" fill="#3C3247"/>
<path d="M27.0101 26.5992C24.9566 27.1533 22.8054 27.2511 20.752 26.8926C21.4364 28.0008 22.7076 28.7831 23.9788 28.7505C25.2826 28.7179 26.3908 27.7075 27.0101 26.5992Z" fill="white"/>
<path opacity="0.3" d="M19.9046 23.2748C21.3987 23.2748 22.6099 22.0636 22.6099 20.5695C22.6099 19.0754 21.3987 17.8641 19.9046 17.8641C18.4104 17.8641 17.1992 19.0754 17.1992 20.5695C17.1992 22.0636 18.4104 23.2748 19.9046 23.2748Z" fill="white"/>
<path opacity="0.3" d="M27.8899 23.2748C29.384 23.2748 30.5953 22.0636 30.5953 20.5695C30.5953 19.0754 29.384 17.8641 27.8899 17.8641C26.3958 17.8641 25.1846 19.0754 25.1846 20.5695C25.1846 22.0636 26.3958 23.2748 27.8899 23.2748Z" fill="white"/>
<path d="M27.8904 17.2123C26.4236 17.2123 25.185 18.1575 24.7287 19.4939C24.5005 19.3309 24.2072 19.2331 23.9138 19.2331C23.5879 19.2331 23.3271 19.3309 23.099 19.4939C22.6427 18.1575 21.4041 17.2123 19.9373 17.2123C18.0794 17.2123 16.5801 18.7116 16.5801 20.5695C16.5801 22.4274 18.0794 23.9267 19.9373 23.9267C21.7952 23.9267 23.2945 22.4274 23.2945 20.5695C23.2945 20.4717 23.2945 20.4065 23.2945 20.3088C23.2945 20.1132 23.5553 19.9176 23.9464 19.9176C24.3376 19.9176 24.5983 20.1458 24.5983 20.3088C24.5983 20.4065 24.5983 20.4717 24.5983 20.5695C24.5983 22.4274 26.0977 23.9267 27.9556 23.9267C29.8134 23.9267 31.3128 22.4274 31.3128 20.5695C31.215 18.7116 29.7157 17.2123 27.8904 17.2123ZM17.232 20.5695C17.232 19.1028 18.438 17.8642 19.9373 17.8642C21.4041 17.8642 22.6427 19.0702 22.6427 20.5695C22.6427 22.0363 21.4367 23.2749 19.9373 23.2749C18.438 23.2423 17.232 22.0363 17.232 20.5695ZM25.185 20.5695C25.185 19.1028 26.391 17.8642 27.8904 17.8642C29.3571 17.8642 30.5957 19.0702 30.5957 20.5695C30.5957 22.0363 29.3897 23.2749 27.8904 23.2749C26.391 23.2423 25.185 22.0363 25.185 20.5695Z" fill="#454F6B"/>
<path opacity="0.5" d="M18.731 19.3305C18.731 19.5586 18.5354 19.7216 18.3399 19.7216C18.1117 19.7216 17.9487 19.526 17.9487 19.3305C17.9487 19.1349 18.1443 18.9393 18.3399 18.9393C18.568 18.9393 18.731 19.1349 18.731 19.3305Z" fill="white"/>
<path opacity="0.5" d="M18.1446 20.1126C18.1446 20.2103 18.0468 20.3081 17.949 20.3081C17.8512 20.3081 17.7534 20.2103 17.7534 20.1126C17.7534 20.0148 17.8512 19.917 17.949 19.917C18.0468 19.917 18.1446 20.0148 18.1446 20.1126Z" fill="white"/>
<path opacity="0.5" d="M26.7168 19.3305C26.7168 19.5586 26.5213 19.7216 26.3257 19.7216C26.0975 19.7216 25.9346 19.526 25.9346 19.3305C25.9346 19.1349 26.1301 18.9393 26.3257 18.9393C26.5539 18.9393 26.7168 19.1349 26.7168 19.3305Z" fill="white"/>
<path opacity="0.5" d="M26.1304 20.1126C26.1304 20.2103 26.0326 20.3081 25.9348 20.3081C25.837 20.3081 25.7393 20.2103 25.7393 20.1126C25.7393 20.0148 25.837 19.917 25.9348 19.917C26.0326 19.917 26.1304 20.0148 26.1304 20.1126Z" fill="white"/>
<path d="M32.8447 21.4489L31.541 25.0994C31.378 25.5232 30.9217 25.7187 30.5305 25.4906L29.6179 25.0017C29.0312 24.7083 28.3793 24.6105 27.7274 24.6757L23.8812 25.0994L20.1003 24.6757C19.4484 24.6105 18.7965 24.7409 18.2424 25.0342L17.2972 25.4906C16.906 25.6861 16.4171 25.4906 16.2867 25.0994L14.983 21.4489H14.0703V23.7305C14.0703 25.8491 14.657 27.9352 15.7326 29.7604L15.9934 30.2168C17.3298 32.4332 19.7092 33.8022 22.3167 33.8022H23.9138H25.511C28.1185 33.8022 30.4979 32.4332 31.8343 30.2168L32.0951 29.7604C33.1707 27.9352 33.7574 25.8491 33.7574 23.7305V21.4489H32.8447ZM28.0859 27.0225L27.4015 29.0434C27.2059 29.6301 26.6518 29.9886 26.0325 29.9234H25.7717C25.3154 29.8908 24.9243 29.6953 24.5983 29.3693H23.9138H23.2294C22.936 29.6953 22.5123 29.8908 22.056 29.9234L21.7626 29.956C21.1759 30.0212 20.5892 29.6301 20.3936 29.076L19.7092 27.0551C19.5788 26.664 19.9047 26.3054 20.2959 26.338L21.6974 26.501C22.4145 26.5988 23.1316 26.501 23.8161 26.2728L23.8812 26.2402L23.979 26.2728C24.6635 26.501 25.3806 26.5988 26.0977 26.501L27.4992 26.338C27.8904 26.2728 28.2163 26.6314 28.0859 27.0225Z" fill="#3C3247"/>
</svg>
