<svg width="51" height="48" viewBox="0 0 51 48" fill="none" xmlns="http://www.w3.org/2000/svg">
<path d="M3.54945 47.3007C1.55678 47.3007 0 45.6477 0 43.6768V11.8887C0 9.85431 1.61905 8.2649 3.54945 8.2649H47.4505C49.4432 8.2649 51 9.91788 51 11.8887V43.6768C51 45.7113 49.381 47.3007 47.4505 47.3007H3.54945Z" fill="#3B6096"/>
<path d="M50.5018 43.6132C50.5018 45.3298 49.1319 46.7285 47.4505 46.7285H3.54945C1.86813 46.7285 0.498168 45.3298 0.498168 43.6132V11.8252C0.498168 10.1086 1.86813 8.70993 3.54945 8.70993H47.4505C49.1319 8.70993 50.5018 10.1086 50.5018 11.8252V43.6132Z" fill="#FF3332"/>
<path d="M50.1282 23.2689V12.0795C50.1282 10.3629 48.7582 9.02781 47.1392 9.02781H3.92308C2.24176 9.02781 0.934066 10.4265 0.934066 12.0795V23.2053H50.1282V23.2689Z" fill="#FF4D4D"/>
<path d="M0.934066 43.804C1.12088 45.3298 2.3663 46.4742 3.92308 46.4742H47.0769C48.5714 46.4742 49.8791 45.3298 50.0659 43.804H0.934066Z" fill="#D81E1E"/>
<path d="M45.956 19.2636H39.7289V12.906H34.2491V19.2636H28.022V24.9219H34.2491V31.2795H39.7289V24.9219H45.956V19.2636Z" fill="white"/>
<path d="M14.8828 47.6185C14.8828 47.8093 14.696 48 14.5092 48H3.54945C3.36264 48 3.17582 47.8093 3.17582 47.6185C3.17582 47.4278 3.36264 47.2371 3.54945 47.2371H14.5092C14.696 47.2371 14.8828 47.4278 14.8828 47.6185Z" fill="#1B395E"/>
<path d="M47.3883 47.6185C47.3883 47.8093 47.2015 48 47.0146 48H36.0549C35.8681 48 35.6813 47.8093 35.6813 47.6185C35.6813 47.4278 35.8681 47.2371 36.0549 47.2371H47.0146C47.2637 47.2371 47.3883 47.4278 47.3883 47.6185Z" fill="#1B395E"/>
<path d="M12.7033 7.75629C12.7033 8.13775 12.3919 8.39205 12.0806 8.39205H5.54212C5.1685 8.39205 4.91941 8.07417 4.91941 7.75629C4.91941 7.37483 5.23077 7.12053 5.54212 7.12053H12.0183C12.4542 7.12053 12.7033 7.43841 12.7033 7.75629Z" fill="#1B395E"/>
<path d="M45.7692 7.75629C45.7692 8.13775 45.4579 8.39205 45.1465 8.39205H38.6081C38.2344 8.39205 37.9853 8.07417 37.9853 7.75629C37.9853 7.37483 38.2967 7.12053 38.6081 7.12053H45.0842C45.4579 7.12053 45.7692 7.43841 45.7692 7.75629Z" fill="#1B395E"/>
<path d="M4.04762 13.9868C4.79487 11.8887 7.0989 10.2358 9.09158 10.2358H49.4432C48.8828 9.53642 48.011 9.09139 47.0769 9.09139H3.92308C2.24176 9.09139 0.934066 10.4901 0.934066 12.143V22.6331L4.04762 13.9868Z" fill="#FFB0B0"/>
<path d="M48.5092 41.3881C47.6996 45.0119 46.1429 45.1391 43.4652 45.1391H1.55678C2.11722 45.8384 2.98901 46.2834 3.92308 46.2834H47.0769C48.7582 46.2834 50.0659 44.8848 50.0659 43.2318V32.7417L48.5092 41.3881Z" fill="#BC1515"/>
<path d="M36.0549 1.84371C36.0549 2.86093 35.2454 3.68742 34.2491 3.68742H16.7509C15.7546 3.68742 14.9451 2.86093 14.9451 1.84371C14.9451 0.82649 15.7546 0 16.7509 0H34.2491C35.2454 0 36.0549 0.82649 36.0549 1.84371Z" fill="#1B395E"/>
<path d="M35.7436 1.84371C35.7436 0.890066 34.9341 0.127152 34 0.127152H17C16.0659 0.127152 15.2564 0.890066 15.2564 1.84371H35.7436Z" fill="#3B6096"/>
<path d="M15.5678 3.17881C15.8791 3.49669 16.315 3.62384 16.7509 3.62384H34.2491C34.685 3.62384 35.1209 3.43311 35.4322 3.17881H15.5678Z" fill="#112A44"/>
<path d="M14.3846 8.2649H12.9524L16.4396 3.62384H17.8718L14.3846 8.2649Z" fill="#3B6096"/>
<path d="M36.2418 8.2649H37.674L34.1868 3.62384H32.7546L36.2418 8.2649Z" fill="#3B6096"/>
</svg>
