<svg width="60" height="60" viewBox="0 0 60 60" fill="none" xmlns="http://www.w3.org/2000/svg">
<g filter="url(#filter0_d_775_3462)">
<path d="M56 26.0171C56 40.3913 44.3572 52 29.9829 52C15.6428 52 4 40.3572 4 26.0171C4 11.6428 15.6428 0 29.9829 0C44.3572 0 56 11.6428 56 26.0171Z" fill="url(#paint0_linear_775_3462)"/>
<path d="M29.9829 45.7859C19.3303 45.7859 10.6238 37.3526 10.2141 26.7682C10.2141 27.0414 10.1799 27.2804 10.1799 27.5535C10.1799 38.4793 19.0571 47.3565 29.9829 47.3565C40.9087 47.3565 49.7859 38.4793 49.7859 27.5535C49.7859 27.2804 49.7859 27.0414 49.7518 26.7682C49.3421 37.3526 40.6697 45.7859 29.9829 45.7859Z" fill="url(#paint1_linear_775_3462)"/>
<path d="M29.9829 5.66776C42.2745 5.66776 52.3467 15.1596 53.2686 27.1779C53.3027 26.5634 53.3368 25.9488 53.3368 25.3342C53.3368 12.4281 42.889 1.9803 29.9829 1.9803C17.111 1.9803 6.62902 12.4622 6.62902 25.3684C6.62902 25.9829 6.66316 26.5975 6.69731 27.2121C7.65332 15.1596 17.7255 5.66776 29.9829 5.66776Z" fill="url(#paint2_linear_775_3462)"/>
<path d="M49.2397 26.0171C49.2397 36.6356 40.6356 45.2738 29.9829 45.2738C19.3644 45.2738 10.7262 36.6697 10.7262 26.0171C10.7603 15.3644 19.3644 6.76034 29.9829 6.76034C40.6356 6.76034 49.2397 15.3644 49.2397 26.0171Z" fill="#003848"/>
<path d="M48.8299 26.0171C48.8299 36.3966 40.3966 44.8299 30.0171 44.8299C19.6376 44.8299 11.2042 36.3966 11.2042 26.0171C11.1701 15.6034 19.6034 7.17006 29.9829 7.17006C40.3966 7.17006 48.8299 15.6034 48.8299 26.0171Z" fill="url(#paint3_radial_775_3462)"/>
<path d="M45.9619 26.2219C45.9619 34.9284 38.9284 41.9619 30.2219 41.9619C21.5154 41.9619 14.4819 34.9284 14.4819 26.2219C14.4819 17.5154 21.5154 10.4819 30.2219 10.4819C38.9284 10.4819 45.9619 17.5496 45.9619 26.2219Z" fill="url(#paint4_radial_775_3462)"/>
<path d="M45.0059 26.0171C45.0059 34.2797 38.2797 41.0059 30.0171 41.0059C21.7203 41.0059 15.0282 34.2797 15.0282 26.0171C15.0282 17.7203 21.7544 11.0282 30.0171 11.0282C38.2797 10.9941 45.0059 17.7203 45.0059 26.0171Z" fill="#003848"/>
<path d="M44.6645 26.0171C44.6645 34.109 38.109 40.6645 30.0171 40.6645C21.9251 40.6645 15.3697 34.109 15.3697 26.0171C15.3697 17.9251 21.9251 11.3697 30.0171 11.3697C38.109 11.3355 44.6645 17.891 44.6645 26.0171Z" fill="url(#paint5_radial_775_3462)"/>
<path d="M41.5233 26.4951C41.5233 32.5726 36.6408 37.5233 30.6316 37.5233C24.5883 37.5233 19.7058 32.5726 19.7058 26.4951C19.7058 20.4176 24.5883 15.501 30.5975 15.501C36.6408 15.501 41.5233 20.4176 41.5233 26.4951Z" fill="url(#paint6_radial_775_3462)"/>
<path d="M31.0072 8.12607C37.392 8.12607 43.0256 11.3014 46.4399 16.1838C43.0939 10.9258 37.2213 7.4432 30.5634 7.4432C20.1838 7.4432 11.7505 15.8766 11.7505 26.2561C11.7505 30.2508 13.0138 33.9724 15.1307 37.0453C13.2528 34.109 12.1944 30.6605 12.1944 26.9389C12.1944 16.5594 20.6277 8.12607 31.0072 8.12607Z" fill="url(#paint7_radial_775_3462)"/>
<path d="M31.1438 12.5988C36.1287 12.5988 40.499 15.0913 43.1622 18.8812C40.5673 14.784 35.9921 12.0867 30.8024 12.0867C22.7104 12.0867 16.155 18.6422 16.155 26.7341C16.155 29.8411 17.1451 32.7433 18.784 35.1333C17.35 32.8457 16.4964 30.1825 16.4964 27.2804C16.4622 19.1543 23.0519 12.5988 31.1438 12.5988Z" fill="url(#paint8_radial_775_3462)"/>
<path d="M40.738 26.0171C40.738 31.958 35.9238 36.7722 29.9829 36.7722C24.042 36.7722 19.2278 31.958 19.2278 26.0171C19.2278 20.0762 24.042 15.262 29.9829 15.262C35.9238 15.262 40.738 20.0762 40.738 26.0171Z" fill="#003848"/>
<path d="M40.499 26.0171C40.499 31.8214 35.7873 36.5332 29.9829 36.5332C24.1786 36.5332 19.4668 31.8214 19.4668 26.0171C19.4668 20.2127 24.1786 15.501 29.9829 15.501C35.7873 15.501 40.499 20.2127 40.499 26.0171Z" fill="url(#paint9_radial_775_3462)"/>
<path d="M31.7242 17.0716C35.2751 17.0716 38.4504 18.847 40.3283 21.5785C38.4504 18.6422 35.2068 16.696 31.4511 16.696C25.6467 16.696 20.935 21.4077 20.935 27.2121C20.935 29.4655 21.652 31.5141 22.847 33.2213C21.8227 31.5824 21.2081 29.6704 21.2081 27.5877C21.2423 21.7833 25.9199 17.0716 31.7242 17.0716Z" fill="url(#paint10_radial_775_3462)"/>
<path d="M40.3966 25.9829C40.3966 31.719 35.7531 36.3624 30.0171 36.3624C24.281 36.3624 19.6376 31.719 19.6376 25.9829C19.6376 20.2469 24.281 15.6034 30.0171 15.6034C35.719 15.6034 40.3966 20.281 40.3966 25.9829Z" fill="#404C57"/>
<path d="M38.6894 25.9829C38.6894 30.6264 34.9337 34.3821 30.2902 34.3821C25.6467 34.3821 21.891 30.6264 21.891 25.9829C21.891 21.3395 25.6467 17.5837 30.2902 17.5837C34.9337 17.6179 38.6894 21.3736 38.6894 25.9829Z" fill="url(#paint11_radial_775_3462)"/>
<path d="M38.6553 25.9829C38.6553 30.763 34.7971 34.6211 30.0171 34.6211C25.237 34.6211 21.3789 30.763 21.3789 25.9829C21.3789 21.2029 25.237 17.3447 30.0171 17.3447C34.763 17.3447 38.6553 21.237 38.6553 25.9829Z" fill="#343F49"/>
<path d="M30.6316 17.9934C32.851 17.9934 34.8995 18.847 36.436 20.2127C34.8654 18.4714 32.5778 17.3789 30.0171 17.3789C25.237 17.3789 21.3789 21.237 21.3789 26.0171C21.3789 28.5437 22.4714 30.8654 24.2127 32.436C22.8129 30.8995 21.9934 28.8851 21.9934 26.6316C21.9934 21.8516 25.8516 17.9934 30.6316 17.9934Z" fill="black"/>
<path d="M35.7873 19.5982C37.1871 21.1346 38.0066 23.149 38.0066 25.3684C38.0066 30.1484 34.1484 34.0066 29.3684 34.0066C27.149 34.0066 25.1005 33.153 23.564 31.7873C25.1346 33.5286 27.4222 34.6211 29.9829 34.6211C34.763 34.6211 38.6211 30.763 38.6211 25.9829C38.6553 23.4563 37.5286 21.1687 35.7873 19.5982Z" fill="url(#paint12_linear_775_3462)"/>
<path d="M38.2114 25.9829C38.2114 30.524 34.524 34.1773 30.0171 34.1773C25.476 34.1773 21.8227 30.4898 21.8227 25.9829C21.8227 21.4419 25.5102 17.7886 30.0171 17.7886C34.524 17.7886 38.2114 21.476 38.2114 25.9829Z" fill="url(#paint13_radial_775_3462)"/>
<path d="M34.285 25.9829C34.285 28.3388 32.3729 30.285 29.9829 30.285C27.6271 30.285 25.6809 28.3729 25.6809 25.9829C25.6809 23.6271 27.5929 21.6809 29.9829 21.6809C32.3729 21.715 34.285 23.6271 34.285 25.9829Z" fill="url(#paint14_radial_775_3462)"/>
<path d="M27.8661 22.0906C27.8661 23.1832 28.8221 24.0709 30.0171 24.0709C31.2121 24.0709 32.1681 23.1832 32.1681 22.0906C32.1681 20.998 31.2121 20.1103 30.0171 20.1103C28.8221 20.1103 27.8661 20.998 27.8661 22.0906Z" fill="white"/>
</g>
<defs>
<filter id="filter0_d_775_3462" x="0" y="0" width="60" height="60" filterUnits="userSpaceOnUse" color-interpolation-filters="sRGB">
<feFlood flood-opacity="0" result="BackgroundImageFix"/>
<feColorMatrix in="SourceAlpha" type="matrix" values="0 0 0 0 0 0 0 0 0 0 0 0 0 0 0 0 0 0 127 0" result="hardAlpha"/>
<feOffset dy="4"/>
<feGaussianBlur stdDeviation="2"/>
<feComposite in2="hardAlpha" operator="out"/>
<feColorMatrix type="matrix" values="0 0 0 0 0 0 0 0 0 0 0 0 0 0 0 0 0 0 0.25 0"/>
<feBlend mode="normal" in2="BackgroundImageFix" result="effect1_dropShadow_775_3462"/>
<feBlend mode="normal" in="SourceGraphic" in2="effect1_dropShadow_775_3462" result="shape"/>
</filter>
<linearGradient id="paint0_linear_775_3462" x1="29.8935" y1="-0.836795" x2="30.1219" y2="56.6306" gradientUnits="userSpaceOnUse">
<stop stop-color="#5A5B5D"/>
<stop offset="0.5637" stop-color="#393738"/>
<stop offset="1" stop-color="#231F20"/>
</linearGradient>
<linearGradient id="paint1_linear_775_3462" x1="30.693" y1="49.488" x2="28.2304" y2="2.53149" gradientUnits="userSpaceOnUse">
<stop stop-color="#909295"/>
<stop offset="0.2422" stop-color="#737376"/>
<stop offset="0.7558" stop-color="#393738"/>
<stop offset="1" stop-color="#231F20"/>
</linearGradient>
<linearGradient id="paint2_linear_775_3462" x1="29.8707" y1="17.981" x2="30.5167" y2="56.3633" gradientUnits="userSpaceOnUse">
<stop stop-color="#909295"/>
<stop offset="0.2004" stop-color="#7F8083"/>
<stop offset="0.6003" stop-color="#545254"/>
<stop offset="1" stop-color="#231F20"/>
</linearGradient>
<radialGradient id="paint3_radial_775_3462" cx="0" cy="0" r="1" gradientUnits="userSpaceOnUse" gradientTransform="translate(10.2132 -0.150499) scale(62.8572 62.8004)">
<stop stop-color="#7D8089"/>
<stop offset="0.2024" stop-color="#A4A6AC"/>
<stop offset="0.4438" stop-color="#CBCCD0"/>
<stop offset="0.6654" stop-color="#E8E8EA"/>
<stop offset="0.858" stop-color="#F9F9F9"/>
<stop offset="1" stop-color="white"/>
</radialGradient>
<radialGradient id="paint4_radial_775_3462" cx="0" cy="0" r="1" gradientUnits="userSpaceOnUse" gradientTransform="translate(51.7674 43.3541) scale(64.7922 64.7867)">
<stop stop-color="#A5A9B2"/>
<stop offset="0.000562984" stop-color="#A6AAB3"/>
<stop offset="0.0197324" stop-color="#B7BAC4"/>
<stop offset="0.033898" stop-color="#BDC0CA"/>
<stop offset="1" stop-color="white"/>
</radialGradient>
<radialGradient id="paint5_radial_775_3462" cx="0" cy="0" r="1" gradientUnits="userSpaceOnUse" gradientTransform="translate(8.95403 -1.4175) scale(62.8671 62.8668)">
<stop stop-color="#747880"/>
<stop offset="0.2339" stop-color="#A3A6AB"/>
<stop offset="0.467" stop-color="#CBCDD0"/>
<stop offset="0.6794" stop-color="#E8E8EA"/>
<stop offset="0.8639" stop-color="#F9F9F9"/>
<stop offset="1" stop-color="white"/>
</radialGradient>
<radialGradient id="paint6_radial_775_3462" cx="0" cy="0" r="1" gradientUnits="userSpaceOnUse" gradientTransform="translate(30.9193 26.8433) scale(26.1181 25.8751)">
<stop stop-color="white"/>
<stop offset="0.3193" stop-color="#EBECEE"/>
<stop offset="0.9725" stop-color="#B6BAC4"/>
<stop offset="1" stop-color="#B4B8C2"/>
</radialGradient>
<radialGradient id="paint7_radial_775_3462" cx="0" cy="0" r="1" gradientUnits="userSpaceOnUse" gradientTransform="translate(10.7374 -0.227974) scale(68.1729 79.8889)">
<stop stop-color="white"/>
<stop offset="1" stop-color="white"/>
</radialGradient>
<radialGradient id="paint8_radial_775_3462" cx="0" cy="0" r="1" gradientUnits="userSpaceOnUse" gradientTransform="translate(9.35574 -1.80738) scale(68.1975 79.9174)">
<stop stop-color="white"/>
<stop offset="1" stop-color="white"/>
</radialGradient>
<radialGradient id="paint9_radial_775_3462" cx="0" cy="0" r="1" gradientUnits="userSpaceOnUse" gradientTransform="translate(9.78117 -0.689386) scale(62.7549)">
<stop stop-color="#A5A9B2"/>
<stop offset="0.2967" stop-color="#CBCDD3"/>
<stop offset="0.5768" stop-color="#E8E9EB"/>
<stop offset="0.8204" stop-color="#F9F9FA"/>
<stop offset="1" stop-color="white"/>
</radialGradient>
<radialGradient id="paint10_radial_775_3462" cx="0" cy="0" r="1" gradientUnits="userSpaceOnUse" gradientTransform="translate(10.2887 -0.912733) scale(68.0631 79.8757)">
<stop stop-color="white"/>
<stop offset="1" stop-color="white"/>
</radialGradient>
<radialGradient id="paint11_radial_775_3462" cx="0" cy="0" r="1" gradientUnits="userSpaceOnUse" gradientTransform="translate(31.1619 27.1365) scale(25.9793)">
<stop stop-color="#00B0ED"/>
<stop offset="0.3119" stop-color="#01ADEB"/>
<stop offset="0.4981" stop-color="#02A5E5"/>
<stop offset="0.6513" stop-color="#0597D9"/>
<stop offset="0.7866" stop-color="#0A83CA"/>
<stop offset="0.9088" stop-color="#1069B5"/>
<stop offset="1" stop-color="#1550A2"/>
</radialGradient>
<linearGradient id="paint12_linear_775_3462" x1="27.5347" y1="23.3406" x2="49.9072" y2="43.5152" gradientUnits="userSpaceOnUse">
<stop stop-color="#324659"/>
<stop offset="0.2831" stop-color="#35485B"/>
<stop offset="0.4521" stop-color="#3D5062"/>
<stop offset="0.5912" stop-color="#4B5C6D"/>
<stop offset="0.714" stop-color="#5F6E7E"/>
<stop offset="0.8261" stop-color="#7A8593"/>
<stop offset="0.9288" stop-color="#99A1AC"/>
<stop offset="1" stop-color="#B4B8C2"/>
</linearGradient>
<radialGradient id="paint13_radial_775_3462" cx="0" cy="0" r="1" gradientUnits="userSpaceOnUse" gradientTransform="translate(31.849 27.9354) scale(26.0278)">
<stop stop-color="#00B0ED"/>
<stop offset="0.3119" stop-color="#01ADEB"/>
<stop offset="0.4981" stop-color="#02A5E5"/>
<stop offset="0.6513" stop-color="#0597D9"/>
<stop offset="0.7866" stop-color="#0A83CA"/>
<stop offset="0.9088" stop-color="#1069B5"/>
<stop offset="1" stop-color="#1550A2"/>
</radialGradient>
<radialGradient id="paint14_radial_775_3462" cx="0" cy="0" r="1" gradientUnits="userSpaceOnUse" gradientTransform="translate(23.0659 19.1621) scale(25.9004)">
<stop stop-color="#ADDCF6"/>
<stop offset="0.2583" stop-color="#AADCF6"/>
<stop offset="0.4126" stop-color="#A2DAF6"/>
<stop offset="0.5395" stop-color="#94D7F5"/>
<stop offset="0.6516" stop-color="#80D3F5"/>
<stop offset="0.7539" stop-color="#65CEF4"/>
<stop offset="0.8491" stop-color="#45C8F3"/>
<stop offset="0.9371" stop-color="#20C1F2"/>
<stop offset="1" stop-color="#00BBF1"/>
</radialGradient>
</defs>
</svg>
