<svg width="81" height="52" viewBox="0 0 81 52" fill="none" xmlns="http://www.w3.org/2000/svg">
<g filter="url(#filter0_d_775_3632)">
<path d="M8.65795 42.4726C8.61105 42.2118 8.52897 41.9567 8.47035 41.6988C8.40879 41.4379 8.31791 41.1887 8.25342 40.9337C8.16255 40.6904 8.09806 40.4353 8.00133 40.2067C7.90752 39.9751 7.82837 39.7465 7.73164 39.5383C7.6437 39.3243 7.54403 39.1309 7.46195 38.9462C7.36522 38.7703 7.28607 38.5974 7.20399 38.4567C7.12484 38.313 7.04863 38.187 6.98707 38.0844C6.86102 37.8792 6.77894 37.7648 6.77894 37.7648C6.77894 37.7648 6.89913 37.8352 7.0926 37.9906C7.28314 38.1489 7.53524 38.3951 7.80199 38.7263C7.92804 38.8964 8.07461 39.0781 8.1948 39.2892C8.32671 39.4944 8.45276 39.7171 8.57001 39.9575C8.6902 40.195 8.7928 40.45 8.89833 40.708C8.98627 40.9718 9.08007 41.2415 9.15336 41.5141C9.21198 41.7896 9.29406 42.0622 9.32924 42.3407C9.33803 42.3935 9.34389 42.4492 9.35269 42.502H16.4994L16.7984 39.3595L15.6815 37.1405L15.8515 36.5659L16.9391 35.8888L17.5136 35.8419L19.4132 36.1995L18.9295 37.1375L17.8126 39.3566L18.0999 42.499H25.1733C25.2144 42.2733 25.2759 42.0476 25.3257 41.8219C25.3961 41.5463 25.4928 41.2796 25.5808 41.0157C25.6863 40.7578 25.7889 40.5028 25.9091 40.2653C26.0234 40.0249 26.1495 39.8022 26.2843 39.597C26.4045 39.3859 26.554 39.2042 26.6771 39.0341C26.9439 38.7029 27.196 38.4537 27.3865 38.2984C27.58 38.143 27.7002 38.0726 27.7002 38.0726C27.7002 38.0726 27.6181 38.187 27.492 38.3922C27.4305 38.4948 27.3572 38.6208 27.2751 38.7644C27.1901 38.9052 27.1139 39.0781 27.0171 39.254C26.9351 39.4387 26.8354 39.6321 26.7475 39.8461C26.6507 40.0543 26.5716 40.2829 26.4778 40.5145C26.381 40.7461 26.3195 40.9982 26.2257 41.2415C26.1583 41.4965 26.0703 41.7457 26.0088 42.0066C25.9706 42.1736 25.9237 42.3378 25.8827 42.502H30.485C29.8137 39.9048 27.6738 33.9423 22.0162 32.7317L17.3583 35.8507L12.9847 32.8284C12.9847 32.8284 5.45982 33.8808 4 42.502H8.66382C8.66382 42.4932 8.66088 42.4844 8.65795 42.4726Z" fill="#00A4A1"/>
<path d="M18.9266 37.1405L18.5015 36.8825L17.5107 35.8419L16.9362 35.8888L15.9424 36.6861L15.6815 37.1405L16.7984 39.3595L16.4964 42.502H18.097L17.8097 39.3595L18.9266 37.1405Z" fill="#CCCBC9"/>
<path d="M9.15042 41.517C9.08007 41.2415 8.98334 40.9747 8.89539 40.7109C8.78986 40.4529 8.68727 40.1979 8.56708 39.9604C8.45276 39.7201 8.32671 39.4973 8.19186 39.2921C8.07168 39.081 7.92511 38.8993 7.79906 38.7293C7.53231 38.398 7.28021 38.1489 7.08967 37.9935C6.8962 37.8381 6.77601 37.7678 6.77601 37.7678C6.77601 37.7678 6.85809 37.8821 6.98414 38.0873C7.0457 38.1899 7.11898 38.3159 7.20106 38.4596C7.28607 38.6003 7.36229 38.7732 7.45902 38.9491C7.5411 39.1338 7.64077 39.3273 7.72871 39.5413C7.82544 39.7494 7.90459 39.978 7.99839 40.2096C8.09513 40.4412 8.15669 40.6933 8.25049 40.9366C8.31791 41.1916 8.40585 41.4408 8.46741 41.7017C8.52604 41.9626 8.60519 42.2176 8.65502 42.4756C8.65795 42.4844 8.65795 42.4961 8.66088 42.5049H9.34683C9.33803 42.4521 9.33217 42.3964 9.32337 42.3437C9.29113 42.0652 9.20905 41.7926 9.15042 41.517Z" fill="#00847E"/>
<path d="M26.2198 41.2415C26.3107 40.9982 26.3752 40.7431 26.4719 40.5145C26.5657 40.2829 26.6449 40.0543 26.7416 39.8461C26.8295 39.6321 26.9292 39.4387 27.0113 39.254C27.108 39.0781 27.1872 38.9052 27.2692 38.7645C27.3484 38.6208 27.4246 38.4948 27.4862 38.3922C27.6122 38.187 27.6943 38.0726 27.6943 38.0726C27.6943 38.0726 27.5741 38.143 27.3806 38.2984C27.1901 38.4567 26.938 38.7029 26.6712 39.0341C26.5452 39.2042 26.3986 39.3859 26.2784 39.597C26.1465 39.8022 26.0205 40.0249 25.9032 40.2653C25.783 40.5028 25.6804 40.7578 25.5749 41.0157C25.487 41.2796 25.3932 41.5493 25.3199 41.8219C25.27 42.0505 25.2085 42.2733 25.1674 42.499H25.8739C25.9149 42.3349 25.9619 42.1707 26 42.0036C26.0644 41.7457 26.1553 41.4965 26.2198 41.2415Z" fill="#00847E"/>
<path d="M20.5476 28.0532H13.9549V35.8536H20.5476V28.0532Z" fill="#E3CAB2"/>
<path d="M13.9462 32.1513L20.7411 28.3434L13.9432 26.7839L13.9462 32.1513Z" fill="#CFAE94"/>
<path d="M18.9266 37.1405L19.4102 36.2024L17.5107 35.8419L18.5015 36.8825L18.9266 37.1405Z" fill="#87C2BF"/>
<path d="M16.9362 35.8888L15.8486 36.5659L15.6815 37.1405L15.9424 36.6861L16.9362 35.8888Z" fill="#87C2BF"/>
<path d="M13.3745 31.8552L17.3583 35.8507L14.849 37.8704L12.5977 32.7317L13.3745 31.8552Z" fill="#00847E"/>
<path d="M21.2365 31.8552L17.3583 35.8507L19.9496 37.9495L22.0104 32.7317L21.2365 31.8552Z" fill="#00847E"/>
<path d="M8.88953 18.4705C8.88953 24.3303 12.5508 29.0909 17.1032 29.2228V9.83467C12.63 9.9783 8.88953 12.6957 8.88953 18.4705Z" fill="#E3CAB2"/>
<path d="M17.4873 9.82587C17.3583 9.82587 17.2322 9.8288 17.1062 9.83174V29.2199C17.1707 29.2228 17.2322 29.2257 17.2967 29.2257C21.94 29.2257 25.701 24.4095 25.701 18.4676C25.701 12.5315 22.1276 9.82587 17.4873 9.82587Z" fill="#F5D7B9"/>
<path d="M26.2609 16.8876C26.0586 14.2317 24.9769 12.3088 24.9769 12.3088C25.701 9.07544 22.6787 8.17551 19.4952 8.09929C16.5492 8.02601 13.4625 8.65918 13.0638 8.80282C12.63 8.96112 12.0261 9.01388 11.5424 9.03147C11.0998 9.04613 10.7627 9.02854 10.7627 9.02854C10.7803 9.10182 10.8536 9.27184 10.921 9.42721C10.9943 9.59429 11.0646 9.74379 11.0646 9.74379C10.9796 9.75259 10.8272 9.70862 10.6396 9.6412C9.99466 9.40375 8.95402 8.838 8.95402 8.838C8.84263 9.70569 9.04783 10.4796 9.28527 11.0336C9.51978 11.5906 9.7836 11.9277 9.7836 11.9277C9.59599 11.9658 9.06835 11.7401 9.06835 11.7401C9.21784 12.4553 9.37028 12.7954 9.37028 12.7954C8.23584 13.622 7.97201 16.014 7.95149 17.8813L9.89792 20.1502L10.5663 18.5262C10.5809 18.5291 10.5956 18.5291 10.6073 18.5291C11.0822 16.8143 11.4779 14.2288 11.4779 14.2288C16.5492 17.4856 21.216 14.8825 22.0221 14.3842C22.1745 14.2171 22.2566 14.1145 22.2566 14.1145C22.5439 17.3742 24.7483 19.5756 24.7483 19.5756C24.5636 18.192 26.1524 17.1074 26.2696 17.0283C26.2726 17.0253 26.2814 17.0195 26.2814 17.0195C26.2755 16.9784 26.2667 16.9345 26.2609 16.8876Z" fill="#77401B"/>
<path d="M24.8538 19.1477C24.672 20.3876 25.0209 21.4664 25.6306 21.5543C26.2403 21.6452 26.8794 20.7101 27.0611 19.4701C27.2429 18.2301 26.894 17.1514 26.2843 17.0634C25.6746 16.9726 25.0326 17.9077 24.8538 19.1477Z" fill="#F5D7B9"/>
<path d="M9.46115 19.0451C9.5784 20.2704 9.22078 21.3052 8.66382 21.3608C8.10685 21.4165 7.55576 20.4668 7.4385 19.2444C7.32125 18.0191 7.67887 16.9843 8.23584 16.9286C8.7928 16.8729 9.34096 17.8227 9.46115 19.0451Z" fill="#E3CAB2"/>
<path d="M68.3202 32.9838L65.6585 34.5696L63.3515 34.5286L60.4934 33.3736L60.4553 33.4147L60.2794 33.5847L62.8473 40.9307L63.1053 38.6765L63.2255 37.6388H64.5358H65.4709L65.808 38.9198L66.2389 40.5643L68.3906 33.0893L68.3202 32.9838Z" fill="#E2E8E4"/>
<path d="M56.1315 20.8625C56.1315 20.8625 55.8501 27.4288 54.2467 29.7798C54.2467 29.7798 63.0086 35.1764 74.9774 29.6185C74.9774 29.6185 72.7348 26.1449 73.4267 21.5514L56.1315 20.8625Z" fill="#77401B"/>
<path d="M67.5639 28.8095H61.2937V36.2288H67.5639V28.8095Z" fill="#E3CAB2"/>
<path d="M61.2849 32.7112L67.7486 29.088L61.282 27.6047L61.2849 32.7112Z" fill="#CFAE94"/>
<path d="M56.4745 19.6958C56.4745 25.2684 59.957 29.8003 64.2866 29.9234V11.4792C60.0332 11.6199 56.4745 14.2024 56.4745 19.6958Z" fill="#E3CAB2"/>
<path d="M64.6531 11.4733C64.5299 11.4733 64.4097 11.4762 64.2896 11.4792V29.9234C64.3511 29.9263 64.4097 29.9293 64.4713 29.9293C68.886 29.9293 72.4681 25.3475 72.4681 19.6958C72.4652 14.0441 69.0677 11.4733 64.6531 11.4733Z" fill="#F5D7B9"/>
<path d="M65.4709 37.6388L66.3914 35.5956L64.5358 34.1299V37.6388H65.4709Z" fill="#00A4A1"/>
<path d="M64.5358 34.1299L64.4508 34.0625L62.4076 35.9034L63.2255 37.6388H64.5358V34.1299Z" fill="#00847E"/>
<path d="M61.282 32.3271L64.4508 34.0625L61.71 37.7033L60.1593 33.2447L61.282 32.3271Z" fill="#CAC9C7"/>
<path d="M67.6167 32.2245L68.4345 32.9398L67.1858 37.29L64.4508 34.0625L67.6167 32.2245Z" fill="#CAC9C7"/>
<path d="M71.2281 18.4529C71.2281 18.4529 70.4542 18.0074 69.2084 18.0074L68.6866 18.0455C67.6987 18.0396 66.7988 18.1422 66.2507 18.2213L65.7523 18.2565C65.7523 18.2565 65.3947 18.3533 64.9843 18.4265C64.7146 18.4646 64.4185 18.4969 64.1782 18.5028C63.9378 18.4969 63.6388 18.4617 63.3691 18.4265C62.9587 18.3533 62.6011 18.2565 62.6011 18.2565L62.1028 18.2213C61.5517 18.1422 60.6517 18.0396 59.6668 18.0455L59.145 18.0074C57.9021 18.0074 57.1253 18.4529 57.1253 18.4529L57.1311 18.5057C57.1282 18.5057 57.1282 18.5086 57.1253 18.5086L57.137 18.5526L56.7178 19.0216L57.5972 19.2121L57.65 19.2327C57.65 19.2327 56.8116 22.2109 59.5056 22.8412C59.7694 22.9145 60.0713 22.9585 60.4172 22.9585C60.4407 22.9585 60.4583 22.9555 60.4817 22.9555C63.7033 22.9145 63.7062 19.9831 63.7062 19.9831H64.6472C64.6472 19.9831 64.6501 22.9145 67.8717 22.9555C67.8952 22.9555 67.9127 22.9585 67.9362 22.9585C68.2821 22.9585 68.5811 22.9145 68.8478 22.8412C71.5388 22.2109 70.7034 19.2327 70.7034 19.2327L70.7591 19.2121L71.146 19.2327L71.2193 18.5555L71.2311 18.5115C71.2281 18.5115 71.2281 18.5086 71.2252 18.5086L71.2281 18.4529ZM60.4641 22.2696C57.8405 22.2491 58.4268 19.1858 58.4268 19.1858C59.274 18.4148 61.2732 18.6992 61.9181 18.963C62.563 19.2268 62.8063 20.0593 62.8063 20.1179C62.8034 20.1795 63.0848 22.2901 60.4641 22.2696ZM67.7603 22.2696C65.1367 22.2901 65.4181 20.1795 65.4181 20.1179C65.4181 20.0564 65.6614 19.2239 66.3063 18.963C66.9512 18.6992 68.9504 18.4148 69.7976 19.1858C69.7976 19.1858 70.3839 22.2491 67.7603 22.2696Z" fill="#00847E"/>
<path d="M67.7457 14.6304C67.7457 14.6304 68.5723 18.5526 72.9049 19.3763C72.9049 19.3763 74.7634 8.85266 65.2686 8.85266C55.7769 8.85266 55.3635 15.0437 55.3635 19.3763C55.3635 19.3763 62.3812 19.9948 67.7457 14.6304Z" fill="#77401B"/>
<path d="M71.659 20.3378C71.4861 21.5162 71.8173 22.5422 72.3977 22.6272C72.9782 22.7122 73.5849 21.824 73.7579 20.6456C73.9308 19.4672 73.5996 18.4412 73.0192 18.3562C72.4417 18.2712 71.832 19.1594 71.659 20.3378Z" fill="#F5D7B9"/>
<path d="M57.0168 20.244C57.1282 21.4078 56.7882 22.3956 56.2576 22.4455C55.727 22.4982 55.2052 21.5954 55.0938 20.4316C54.9824 19.2678 55.3225 18.28 55.8531 18.2301C56.3836 18.1774 56.9054 19.0773 57.0168 20.244Z" fill="#E3CAB2"/>
<path d="M69.9676 37.7414L68.5371 37.844L69.6598 38.7644L67.8951 42.5049H71.9698C72.0079 42.3085 72.0636 42.1121 72.1046 41.9157C72.172 41.6548 72.2629 41.3998 72.345 41.1477C72.4446 40.9014 72.5443 40.6581 72.6586 40.4324C72.7671 40.2038 72.8873 39.9898 73.0133 39.7963C73.1277 39.597 73.2684 39.424 73.3885 39.2628C73.6406 38.9462 73.881 38.7117 74.0628 38.5622C74.2445 38.4127 74.3618 38.3482 74.3618 38.3482C74.3618 38.3482 74.2826 38.4567 74.1624 38.6501C74.1038 38.7498 74.0334 38.867 73.9572 39.0048C73.8781 39.1397 73.8019 39.3038 73.711 39.4709C73.6319 39.6468 73.538 39.8315 73.453 40.0337C73.3622 40.2331 73.2859 40.45 73.1951 40.6698C73.1042 40.8897 73.0426 41.1301 72.9547 41.3616C72.8902 41.605 72.8081 41.8424 72.7466 42.0886C72.7143 42.2293 72.6762 42.3671 72.6411 42.5049H76.9912C76.3668 40.1187 74.4761 34.9185 69.6657 33.4499L70.164 33.6551L69.9676 37.7414Z" fill="#598692"/>
<path d="M56.0759 41.7926C56.0172 41.5463 55.9322 41.306 55.8677 41.0656C55.7798 40.834 55.7182 40.5936 55.6274 40.3738C55.5394 40.1539 55.4632 39.9341 55.3694 39.7377C55.2844 39.5354 55.1906 39.3507 55.1114 39.1748C55.0176 39.0078 54.9443 38.8436 54.8652 38.7087C54.789 38.571 54.7186 38.4537 54.66 38.3541C54.5398 38.1606 54.4607 38.0521 54.4607 38.0521C54.4607 38.0521 54.575 38.1195 54.7597 38.2661C54.9385 38.4156 55.1818 38.6501 55.4339 38.9667C55.5541 39.1279 55.6918 39.3009 55.8091 39.5002C55.9351 39.6937 56.0553 39.9077 56.1667 40.1363C56.281 40.362 56.3778 40.6054 56.4804 40.8516C56.5625 41.1037 56.6533 41.3587 56.7208 41.6196C56.7765 41.8834 56.8556 42.1414 56.8878 42.4052C56.8937 42.4375 56.8966 42.4726 56.9025 42.5049H61.0152L58.8313 38.7644L60.0567 37.7414L58.421 37.6388L58.6261 34.0625L59.6551 33.5143C57.8142 34.0127 52.9686 35.9386 51.8312 42.502H56.2459C56.2019 42.2645 56.1315 42.03 56.0759 41.7926Z" fill="#598692"/>
<path d="M56.7208 41.6196C56.6533 41.3587 56.5625 41.1037 56.4804 40.8516C56.3807 40.6054 56.281 40.362 56.1667 40.1363C56.0583 39.9077 55.9381 39.6937 55.8091 39.5002C55.6948 39.3009 55.5541 39.1279 55.4339 38.9667C55.1818 38.6501 54.9414 38.4156 54.7597 38.2661C54.5779 38.1166 54.4607 38.0521 54.4607 38.0521C54.4607 38.0521 54.5398 38.1606 54.66 38.3541C54.7186 38.4537 54.789 38.571 54.8652 38.7087C54.9443 38.8436 55.0206 39.0078 55.1114 39.1748C55.1906 39.3507 55.2844 39.5354 55.3694 39.7377C55.4603 39.937 55.5365 40.1539 55.6274 40.3738C55.7182 40.5936 55.7798 40.834 55.8677 41.0656C55.9322 41.3089 56.0143 41.5463 56.0759 41.7926C56.1315 42.0329 56.2019 42.2645 56.2488 42.5049H56.9054C56.8996 42.4726 56.8966 42.4375 56.8908 42.4052C56.8556 42.1414 56.7794 41.8805 56.7208 41.6196Z" fill="#425D75"/>
<path d="M72.9606 41.3587C73.0485 41.1271 73.1101 40.8868 73.2009 40.6669C73.2889 40.4471 73.3651 40.2272 73.4589 40.0308C73.5439 39.8285 73.6377 39.6439 73.7169 39.468C73.8077 39.3009 73.8839 39.1367 73.9631 39.0019C74.0393 38.8641 74.1097 38.7469 74.1683 38.6472C74.2885 38.4537 74.3676 38.3453 74.3676 38.3453C74.3676 38.3453 74.2533 38.4127 74.0686 38.5592C73.8869 38.7088 73.6465 38.9433 73.3944 39.2598C73.2742 39.4211 73.1365 39.594 73.0192 39.7934C72.8931 39.9898 72.773 40.2008 72.6645 40.4295C72.5502 40.6552 72.4534 40.8985 72.3508 41.1447C72.2688 41.3968 72.1779 41.6519 72.1105 41.9127C72.0665 42.1121 72.0137 42.3055 71.9756 42.502H72.6528C72.688 42.3642 72.7261 42.2235 72.7583 42.0857C72.814 41.8395 72.8961 41.5991 72.9606 41.3587Z" fill="#5D8194"/>
<path d="M63.2255 37.6388L63.1053 38.6765L62.8473 40.9307L63.3955 42.502H64.5358V37.6388H63.2255Z" fill="#00847E"/>
<path d="M65.808 38.9198L65.4709 37.6388H64.5358V42.502H65.682L66.2389 40.5643L65.808 38.9198Z" fill="#00A4A1"/>
<path d="M70.1728 33.6551L69.6716 33.4499L68.4345 32.9398L68.3906 33.0893L66.2389 40.5643L65.682 42.502L67.8981 42.502L69.6598 38.7615L68.5371 37.844L69.9676 37.7414L70.1728 33.6551Z" fill="#3C556C"/>
<path d="M62.8473 40.9307L60.2794 33.5847L60.2091 33.3854L60.1593 33.2447L59.658 33.5144L58.6261 34.0625L58.4239 37.6388L60.0567 37.7414L58.8313 38.7615L61.0152 42.502L63.3955 42.502L62.8473 40.9307Z" fill="#425D75"/>
<path d="M46.0095 31.307L42.4772 33.4088L39.411 33.3561L35.6207 31.8259L35.568 31.8757L35.3335 32.1044L38.7426 41.8512L39.2439 37.4834H40.9851H42.228L43.2452 41.3646L46.1004 31.4448L46.0095 31.307Z" fill="#E2E8E4"/>
<path d="M45.0041 25.7696H36.6819V35.6161H45.0041V25.7696Z" fill="#E3CAB2"/>
<path d="M36.6702 30.9435L45.2474 26.139L36.6672 24.1691L36.6702 30.9435Z" fill="#CFAE94"/>
<path d="M30.2886 13.6748C30.2886 21.0706 34.9084 27.0829 40.6568 27.2471V2.77004C35.0081 2.95472 30.2886 6.3815 30.2886 13.6748Z" fill="#E3CAB2"/>
<path d="M41.1405 2.76125C40.9793 2.76125 40.8181 2.76418 40.6568 2.77004V27.2471C40.7389 27.25 40.8181 27.2559 40.9001 27.2559C46.76 27.2559 51.5117 21.1762 51.5117 13.6748C51.5088 6.17337 47.0003 2.76125 41.1405 2.76125Z" fill="#F5D7B9"/>
<path d="M47.2876 8.21655C47.2876 8.21655 43.5501 14.4018 36.676 13.795C36.676 13.795 38.9684 13.068 38.9684 11.8544C38.9684 11.8544 37.2799 13.068 35.5914 13.4315C35.5914 13.4315 36.7962 11.8544 36.5558 11.1274C36.5558 11.1274 32.6981 11.9775 32.578 13.795L31.7337 15.8557L28.8405 12.4612C28.8405 12.4612 27.7559 3.24493 36.3155 0.70049C44.878 -1.84688 46.6837 3.36804 46.6837 3.36804C46.6837 3.36804 51.0485 3.57324 52.2416 11.8984C52.2416 11.8984 50.1809 13.3113 50.4212 15.1317C50.4242 15.1287 47.6511 12.341 47.2876 8.21655Z" fill="#141719"/>
<path d="M50.4388 14.5278C50.2102 16.0932 50.6499 17.4533 51.4179 17.5676C52.1859 17.682 52.995 16.5036 53.2236 14.9382C53.4523 13.3728 53.0126 12.0127 52.2446 11.8984C51.4765 11.784 50.6675 12.9595 50.4388 14.5278Z" fill="#F5D7B9"/>
<path d="M31.0067 14.3988C31.1562 15.9437 30.7048 17.2511 29.9984 17.3214C29.2948 17.3888 28.6001 16.1928 28.4535 14.648C28.304 13.1032 28.7555 11.7928 29.4619 11.7254C30.1654 11.6551 30.8572 12.854 31.0067 14.3988Z" fill="#E3CAB2"/>
<path d="M42.228 37.4834L43.4475 34.7719L40.9851 32.8284L40.9851 37.4834H42.228Z" fill="#52A0B7"/>
<path d="M40.9851 32.8284L40.8708 32.7375L38.1593 35.1794L39.2439 37.4834H40.9851L40.9851 32.8284Z" fill="#58BBC8"/>
<path d="M36.6702 30.4335L40.8708 32.7375L37.4822 37.4834L35.1781 31.6529L36.6702 30.4335Z" fill="#CAC9C7"/>
<path d="M45.0744 30.2986L46.159 31.2484L43.9898 36.6714L40.8708 32.7375L45.0744 30.2986Z" fill="#CAC9C7"/>
<path d="M47.8006 31.9226L48.4631 32.1952L48.1934 37.6183L46.2939 37.7531L47.7859 38.9726L45.4174 43.997H50.8434C50.8961 43.7155 50.9723 43.4371 51.0339 43.1527C51.1218 42.8068 51.245 42.4668 51.3534 42.1326C51.4883 41.8072 51.6172 41.4848 51.7697 41.1828C51.9162 40.8809 52.0745 40.5966 52.2416 40.3386C52.394 40.0718 52.5817 39.8432 52.737 39.6292C53.0741 39.21 53.3936 38.8964 53.6311 38.7C53.8744 38.5036 54.0268 38.4127 54.0268 38.4127C54.0268 38.4127 53.9242 38.5563 53.763 38.8143C53.6839 38.9433 53.59 39.1016 53.4904 39.2833C53.3849 39.4621 53.2852 39.679 53.165 39.9018C53.0595 40.1363 52.9364 40.3796 52.825 40.6493C52.7048 40.9131 52.6022 41.2034 52.4849 41.4936C52.3647 41.7838 52.2827 42.1033 52.1683 42.4111C52.0833 42.7335 51.9719 43.0501 51.8928 43.3784C51.8459 43.5836 51.7902 43.7888 51.7374 43.994H57.5415C56.7266 40.8633 54.2262 33.8837 47.8006 31.9226Z" fill="#3C556C"/>
<path d="M29.9954 43.9735C29.9339 43.6452 29.8342 43.3227 29.758 42.9944C29.6788 42.6661 29.5674 42.3495 29.4824 42.0271C29.3652 41.7193 29.286 41.3998 29.1658 41.1096C29.0486 40.8164 28.946 40.5262 28.8258 40.2653C28.7144 39.9956 28.5884 39.7523 28.4828 39.5178C28.3597 39.295 28.263 39.0781 28.1574 38.8993C28.0549 38.7175 27.961 38.5593 27.8848 38.4303C27.7265 38.1723 27.621 38.0287 27.621 38.0287C27.621 38.0287 27.7734 38.1166 28.0167 38.313C28.2571 38.5124 28.5766 38.8231 28.9108 39.2423C29.0691 39.4563 29.2538 39.6849 29.4062 39.9517C29.5733 40.2096 29.7345 40.494 29.8782 40.7959C30.0306 41.0949 30.1596 41.4173 30.2944 41.7457C30.4058 42.0798 30.526 42.4169 30.6139 42.7658C30.6902 43.1146 30.7928 43.4605 30.8367 43.8064C30.8455 43.8709 30.8572 43.9354 30.866 43.9999H36.3477L33.4134 38.9755L35.0403 37.6183L32.8711 37.4834L33.1408 32.7375L34.5068 32.0076C32.0591 32.673 25.6042 35.2351 24.1122 43.997H30.0013C29.9984 43.9911 29.9954 43.9823 29.9954 43.9735Z" fill="#598692"/>
<path d="M30.6169 42.7658C30.5289 42.4199 30.4058 42.0798 30.2974 41.7457C30.1625 41.4173 30.0335 41.0978 29.8811 40.7959C29.7345 40.494 29.5762 40.2096 29.4091 39.9517C29.2567 39.6849 29.072 39.4563 28.9137 39.2423C28.5766 38.8231 28.2571 38.5094 28.0197 38.313C27.7764 38.1166 27.6239 38.0287 27.6239 38.0287C27.6239 38.0287 27.7265 38.1723 27.8878 38.4303C27.9669 38.5622 28.0607 38.7175 28.1604 38.8993C28.2659 39.0781 28.3656 39.295 28.4858 39.5178C28.5913 39.7523 28.7144 39.9956 28.8287 40.2653C28.9489 40.5291 29.0515 40.8193 29.1688 41.1096C29.289 41.3998 29.371 41.7193 29.4854 42.0271C29.5704 42.3495 29.6818 42.6661 29.7609 42.9944C29.8371 43.3227 29.9368 43.6452 29.9984 43.9735C29.9984 43.9823 30.0013 43.9911 30.0042 43.9999H30.8719C30.8631 43.9354 30.8543 43.8709 30.8426 43.8064C30.7957 43.4576 30.6902 43.1146 30.6169 42.7658Z" fill="#425D75"/>
<path d="M51.8899 43.3843C51.969 43.056 52.0804 42.7394 52.1654 42.4169C52.2827 42.1091 52.3618 41.7896 52.482 41.4994C52.5992 41.2063 52.7018 40.9161 52.822 40.6552C52.9334 40.3855 53.0595 40.1422 53.1621 39.9077C53.2852 39.6849 53.3819 39.468 53.4874 39.2892C53.59 39.1074 53.6839 38.9491 53.7601 38.8201C53.9213 38.5622 54.0239 38.4185 54.0239 38.4185C54.0239 38.4185 53.8715 38.5065 53.6282 38.7058C53.3878 38.9052 53.0683 39.2159 52.7341 39.6351C52.5758 39.8491 52.3911 40.0777 52.2387 40.3445C52.0716 40.6024 51.9104 40.8868 51.7667 41.1887C51.6143 41.4877 51.4853 41.8102 51.3505 42.1385C51.242 42.4726 51.1189 42.8098 51.031 43.1586C50.9694 43.4429 50.8932 43.7214 50.8404 44.0028H51.7345C51.7873 43.7947 51.8429 43.5895 51.8899 43.3843Z" fill="#5D8194"/>
<path d="M39.2439 37.4834L38.7426 41.8512L39.4931 43.9999H40.9851L40.9851 37.4834H39.2439Z" fill="#56B6C4"/>
<path d="M42.228 37.4834H40.9851L40.9851 43.9999H42.4889L43.2452 41.3646L42.228 37.4834Z" fill="#52A0B7"/>
<path d="M48.4631 32.1952L47.8006 31.9226L46.159 31.2484L46.1004 31.4448L43.2452 41.3646L42.4889 43.9999L45.4174 43.9999L47.7859 38.9755L46.2939 37.7561L48.1934 37.6183L48.4631 32.1952Z" fill="#5D8194"/>
<path d="M38.7426 41.8512L35.3335 32.1044L35.2426 31.8376L35.1781 31.6529L34.5097 32.0106L33.1437 32.7375L32.874 37.4834L35.0403 37.6183L33.4134 38.9755L36.3506 43.9999L39.4931 43.9999L38.7426 41.8512Z" fill="#425D75"/>
</g>
<defs>
<filter id="filter0_d_775_3632" x="0" y="-0.000488281" width="80.9912" height="52.0034" filterUnits="userSpaceOnUse" color-interpolation-filters="sRGB">
<feFlood flood-opacity="0" result="BackgroundImageFix"/>
<feColorMatrix in="SourceAlpha" type="matrix" values="0 0 0 0 0 0 0 0 0 0 0 0 0 0 0 0 0 0 127 0" result="hardAlpha"/>
<feOffset dy="4"/>
<feGaussianBlur stdDeviation="2"/>
<feComposite in2="hardAlpha" operator="out"/>
<feColorMatrix type="matrix" values="0 0 0 0 0 0 0 0 0 0 0 0 0 0 0 0 0 0 0.25 0"/>
<feBlend mode="normal" in2="BackgroundImageFix" result="effect1_dropShadow_775_3632"/>
<feBlend mode="normal" in="SourceGraphic" in2="effect1_dropShadow_775_3632" result="shape"/>
</filter>
</defs>
</svg>
