<svg width="57" height="57" viewBox="0 0 57 57" fill="none" xmlns="http://www.w3.org/2000/svg">
<g filter="url(#filter0_d_2863_19665)">
<rect x="4.42041" y="0.209961" width="48.5797" height="48.5797" rx="24.2899" fill="#C00808" shape-rendering="crispEdges"/>
<g filter="url(#filter1_d_2863_19665)">
<path d="M46.118 24.4998C46.118 34.1138 38.3243 41.9075 28.7103 41.9075C19.0962 41.9075 11.3025 34.1138 11.3025 24.4998C11.3025 14.8857 19.0962 7.09204 28.7103 7.09204C38.3243 7.09204 46.118 14.8857 46.118 24.4998Z" fill="#333333"/>
<path d="M24.8158 23.8439C24.23 24.4297 24.23 25.3795 24.8158 25.9653L34.3617 35.5112C34.9475 36.097 35.8973 36.097 36.4831 35.5112C37.0688 34.9254 37.0688 33.9757 36.4831 33.3899L27.9978 24.9046L36.4831 16.4193C37.0688 15.8335 37.0688 14.8838 36.4831 14.298C35.8973 13.7122 34.9475 13.7122 34.3617 14.298L24.8158 23.8439ZM44.618 24.4998C44.618 33.2854 37.4959 40.4075 28.7103 40.4075V43.4075C39.1527 43.4075 47.618 34.9422 47.618 24.4998H44.618ZM28.7103 40.4075C19.9247 40.4075 12.8025 33.2854 12.8025 24.4998H9.80254C9.80254 34.9422 18.2678 43.4075 28.7103 43.4075V40.4075ZM12.8025 24.4998C12.8025 15.7142 19.9247 8.59204 28.7103 8.59204V5.59204C18.2678 5.59204 9.80254 14.0573 9.80254 24.4998H12.8025ZM28.7103 8.59204C37.4959 8.59204 44.618 15.7142 44.618 24.4998H47.618C47.618 14.0573 39.1527 5.59204 28.7103 5.59204V8.59204ZM46.118 23.4046H25.8765V26.4046H46.118V23.4046Z" fill="#F2994A"/>
</g>
</g>
<defs>
<filter id="filter0_d_2863_19665" x="0.42041" y="0.209961" width="56.5797" height="56.5798" filterUnits="userSpaceOnUse" color-interpolation-filters="sRGB">
<feFlood flood-opacity="0" result="BackgroundImageFix"/>
<feColorMatrix in="SourceAlpha" type="matrix" values="0 0 0 0 0 0 0 0 0 0 0 0 0 0 0 0 0 0 127 0" result="hardAlpha"/>
<feOffset dy="4"/>
<feGaussianBlur stdDeviation="2"/>
<feComposite in2="hardAlpha" operator="out"/>
<feColorMatrix type="matrix" values="0 0 0 0 0 0 0 0 0 0 0 0 0 0 0 0 0 0 0.25 0"/>
<feBlend mode="normal" in2="BackgroundImageFix" result="effect1_dropShadow_2863_19665"/>
<feBlend mode="normal" in="SourceGraphic" in2="effect1_dropShadow_2863_19665" result="shape"/>
</filter>
<filter id="filter1_d_2863_19665" x="5.80254" y="5.59204" width="45.8155" height="45.8154" filterUnits="userSpaceOnUse" color-interpolation-filters="sRGB">
<feFlood flood-opacity="0" result="BackgroundImageFix"/>
<feColorMatrix in="SourceAlpha" type="matrix" values="0 0 0 0 0 0 0 0 0 0 0 0 0 0 0 0 0 0 127 0" result="hardAlpha"/>
<feOffset dy="4"/>
<feGaussianBlur stdDeviation="2"/>
<feComposite in2="hardAlpha" operator="out"/>
<feColorMatrix type="matrix" values="0 0 0 0 0 0 0 0 0 0 0 0 0 0 0 0 0 0 0.25 0"/>
<feBlend mode="normal" in2="BackgroundImageFix" result="effect1_dropShadow_2863_19665"/>
<feBlend mode="normal" in="SourceGraphic" in2="effect1_dropShadow_2863_19665" result="shape"/>
</filter>
</defs>
</svg>
