<svg width="48" height="48" viewBox="0 0 48 48" fill="none" xmlns="http://www.w3.org/2000/svg">
<g filter="url(#filter0_d_3104_27849)">
<rect x="4" width="40" height="40" rx="20" fill="#F2C94C" shape-rendering="crispEdges"/>
<path d="M15.6796 10.873L17.3455 9.20711C17.736 8.81658 18.3692 8.81658 18.7597 9.20711L22.1876 12.635C22.5782 13.0255 22.5782 13.6587 22.1876 14.0492L19.869 16.3678C19.5072 16.7296 19.4175 17.2824 19.6463 17.74C20.9691 20.3856 23.1144 22.5309 25.76 23.8537C26.2176 24.0825 26.7704 23.9928 27.1322 23.631L29.4508 21.3124C29.8413 20.9218 30.4745 20.9218 30.865 21.3124L34.2929 24.7403C34.6834 25.1308 34.6834 25.764 34.2929 26.1545L32.627 27.8204C30.5156 29.9317 27.1731 30.1693 24.7843 28.3777L21.8917 26.2083C20.1482 24.9006 18.5994 23.3518 17.2917 21.6083L15.1223 18.7156C13.3307 16.3269 13.5683 12.9844 15.6796 10.873Z" fill="#222222"/>
</g>
<defs>
<filter id="filter0_d_3104_27849" x="0" y="0" width="48" height="48" filterUnits="userSpaceOnUse" color-interpolation-filters="sRGB">
<feFlood flood-opacity="0" result="BackgroundImageFix"/>
<feColorMatrix in="SourceAlpha" type="matrix" values="0 0 0 0 0 0 0 0 0 0 0 0 0 0 0 0 0 0 127 0" result="hardAlpha"/>
<feOffset dy="4"/>
<feGaussianBlur stdDeviation="2"/>
<feComposite in2="hardAlpha" operator="out"/>
<feColorMatrix type="matrix" values="0 0 0 0 0 0 0 0 0 0 0 0 0 0 0 0 0 0 0.25 0"/>
<feBlend mode="normal" in2="BackgroundImageFix" result="effect1_dropShadow_3104_27849"/>
<feBlend mode="normal" in="SourceGraphic" in2="effect1_dropShadow_3104_27849" result="shape"/>
</filter>
</defs>
</svg>
