<svg width="28" height="28" viewBox="0 0 28 28" fill="none" xmlns="http://www.w3.org/2000/svg">
<path d="M3.67962 2.5426L5.51512 0.707107C5.90564 0.316583 6.5388 0.316582 6.92933 0.707106L11.7373 5.51512C12.1279 5.90564 12.1279 6.53881 11.7373 6.92933L9.75605 8.91062C9.50361 9.16306 9.44102 9.54871 9.60068 9.86803C11.4466 13.5599 14.4401 16.5534 18.132 18.3993C18.4513 18.559 18.8369 18.4964 19.0894 18.244L21.0707 16.2627C21.4612 15.8721 22.0944 15.8721 22.4849 16.2627L27.2929 21.0707C27.6834 21.4612 27.6834 22.0944 27.2929 22.4849L25.4574 24.3204C23.346 26.4317 20.0035 26.6693 17.6148 24.8777L11.9619 20.6381C10.2184 19.3304 8.66955 17.7816 7.3619 16.0381L3.12226 10.3852C1.33072 7.99652 1.56827 4.65395 3.67962 2.5426Z" fill="#E68139"/>
<path fill-rule="evenodd" clip-rule="evenodd" d="M27.2931 22.4845C27.6837 22.094 27.6837 21.4608 27.2931 21.0703L22.4851 16.2623C22.0946 15.8717 21.4614 15.8717 21.0709 16.2623L19.4447 17.8885L25.6669 24.1107L27.2931 22.4845ZM10.1114 8.55515L11.7376 6.92893C12.1281 6.53841 12.1281 5.90524 11.7376 5.51472L6.92957 0.706711C6.54053 0.317665 5.91067 0.316193 5.5198 0.702294L3.88916 2.33294L10.1114 8.55515Z" fill="white"/>
</svg>
