<svg width="39" height="39" viewBox="0 0 39 39" fill="none" xmlns="http://www.w3.org/2000/svg">
<g filter="url(#filter0_d_3465_111568)">
<rect x="4.28857" y="2.98022" width="30.4228" height="29.0396" rx="5" fill="#B0270B" shape-rendering="crispEdges"/>
<path d="M16.6334 9.43164H10.8149V14.8293H16.6046V9.43164H16.6334ZM15.7981 14.0774H11.6503V10.1835H15.7981V14.0774Z" fill="white"/>
<path d="M14.9054 11.0156H12.5435V13.2176H14.9054V11.0156Z" fill="white"/>
<path d="M10.8149 25.5983H16.6046V20.2007H10.8149V25.5983ZM11.6503 20.9526H15.7981V24.8464H11.6503V20.9526Z" fill="white"/>
<path d="M14.9054 21.7847H12.5435V23.9867H14.9054V21.7847Z" fill="white"/>
<path d="M22.3945 9.4325V14.8301H28.1842V9.4325H22.3945ZM27.3489 14.0782H23.2011V10.1844H27.3489V14.0782Z" fill="white"/>
<path d="M26.4555 11.0156H24.0935V13.2176H26.4555V11.0156Z" fill="white"/>
<path d="M27.1758 15.501H26.3405V16.1723H25.4764V15.501H24.7274V16.1723H24.0361V15.501H22.3079V16.1992H21.5302V18.5623H19.8883V17.8373H20.6948V17.0585H20.0035V16.2529H20.666V15.501H19.9747V14.7759H20.6948V15.501H21.4437V13.299H20.7236V12.5202H21.4437V11.7146V11.4192V10.9358H19.9459V10.1839H21.4437V9.40515H19.8595V10.1302H18.9954V9.40515H17.4111V10.9627H18.1889V11.6877H17.4111V13.2453H18.1889V13.9972H17.4111V14.7222V15.1519V15.501H14.8764V16.2797H14.1274V15.501H13.2921V16.2797H12.8601H12.5144V15.5278H10.8149V16.414H11.7079V17.0854H10.8149V19.3411H11.7079H13.2633V18.6697H14.1274V19.3411H14.934V18.6697H15.7117V19.3411H16.547V18.616H17.4111V19.3411H18.16V20.093H17.4111V20.8717H18.16V21.6505H17.4111V23.9062H18.16V24.7656H17.4111V25.598H18.16H19.053H19.9171V24.8193H20.7524V23.9062H21.5014V24.8193H22.2791V25.598H23.172V24.8193H23.9209V25.598H25.5628V24.8193H26.3405V25.598H27.147H27.3486H28.1552V23.9331H27.147V24.7656H26.3981V23.9868V23.9331V23.1812H27.2334V22.4024H28.1552V19.2874H27.2046V18.616H28.1552V17.7836H27.147V18.5623H26.4269V17.7567H24.7562V16.2529H25.4187V17.0854H26.3981V16.2529H27.147V17.0585H28.1552V15.501H27.3486H27.1758ZM24.7562 22.4293H26.3693V23.1275H24.7562V22.4293ZM24.7562 21.5699V20.8717V20.818V20.093H25.5628V20.8986H26.3693V21.5968H24.7562V21.5699ZM23.1432 22.3487H22.2791V23.1275H21.5014V22.3487V21.6774H23.1432V22.3487ZM19.8307 23.1275H19.053H18.2465V21.7042H19.053V22.3487H20.666V23.1275H19.8307ZM18.2177 18.616H19.8019V19.2605H18.2177V18.616ZM22.2215 19.3411V20.0393H21.559V19.3411H22.2215ZM23.172 19.3411H23.9209V20.0393H23.172V19.3411ZM23.9209 17.7567H23.2008V17.0585H22.3079V16.2529H23.9209V17.7567ZM23.0856 20.818H22.3367V20.093H23.0856V20.818ZM21.4437 21.6505H20.7236V20.8717H21.4437V21.6505ZM20.6084 20.8449H19.9171V19.3411H20.6084V20.8449ZM19.8307 20.8449V21.6237H19.0242V20.8449H19.8307ZM23.2296 20.8986H23.9497V21.5968H23.2296V20.8986ZM26.4845 20.093V19.3411H27.1758V20.8449H26.4845V20.093ZM25.5916 19.2605V18.616H26.4269V19.2605H25.5916ZM23.9497 18.5623V17.7836H24.7274V18.5623H23.9497ZM22.3079 17.8104H23.0856V18.5892V19.2874H22.3079V18.5892V17.8104ZM18.16 18.5623H17.4399V17.8373H18.16V18.5623ZM19.1394 10.9895H19.8595V11.6877H19.1394V10.9895ZM19.8883 12.5471V13.2453H18.2753V12.5471H19.8883ZM19.9459 13.9435V13.3527H20.666V13.9435H19.9459ZM20.7236 12.4665H19.9459V11.7146H20.7236V12.4665ZM18.2753 14.024H19.8883V14.7222H18.2753V14.024ZM19.8883 15.501V16.1992H18.9378V15.501H19.8883ZM18.909 16.3066V17.0585H17.4111V17.8104H16.547V18.5623H15.8557V18.1864V17.8104V17.0585H14.9628V16.3066H15.7405V17.0316H16.547V16.3066H18.909ZM11.7367 18.616V17.1122H12.572V17.8373H13.3209V18.616H11.7367ZM13.3497 17.8104V16.3066H14.1562V17.8104H13.3497ZM19.8307 24.7656H19.053V23.9062H19.8307V24.7656ZM22.3079 23.1812H23.172V22.4293H23.9497V23.1812H24.641V23.9331H23.1432V24.7656H22.3079V23.9062V23.1812ZM25.534 24.7656H24.7562V23.9868H25.534V24.7656Z" fill="white"/>
<path d="M9.28857 10.8267V7.98022H12.2554" stroke="white" stroke-miterlimit="10" stroke-linecap="round" stroke-linejoin="round"/>
<path d="M29.7112 10.8267V7.98022H26.7732" stroke="white" stroke-miterlimit="10" stroke-linecap="round" stroke-linejoin="round"/>
<path d="M9.28882 24.2001V27.0197H12.2557" stroke="white" stroke-miterlimit="10" stroke-linecap="round" stroke-linejoin="round"/>
<path d="M29.7112 24.2002V27.0198H26.7732" stroke="white" stroke-miterlimit="10" stroke-linecap="round" stroke-linejoin="round"/>
</g>
<defs>
<filter id="filter0_d_3465_111568" x="0.288574" y="0.980225" width="38.4229" height="37.0396" filterUnits="userSpaceOnUse" color-interpolation-filters="sRGB">
<feFlood flood-opacity="0" result="BackgroundImageFix"/>
<feColorMatrix in="SourceAlpha" type="matrix" values="0 0 0 0 0 0 0 0 0 0 0 0 0 0 0 0 0 0 127 0" result="hardAlpha"/>
<feOffset dy="2"/>
<feGaussianBlur stdDeviation="2"/>
<feComposite in2="hardAlpha" operator="out"/>
<feColorMatrix type="matrix" values="0 0 0 0 0 0 0 0 0 0 0 0 0 0 0 0 0 0 0.25 0"/>
<feBlend mode="normal" in2="BackgroundImageFix" result="effect1_dropShadow_3465_111568"/>
<feBlend mode="normal" in="SourceGraphic" in2="effect1_dropShadow_3465_111568" result="shape"/>
</filter>
</defs>
</svg>
