<svg width="65" height="57" viewBox="0 0 65 57" fill="none" xmlns="http://www.w3.org/2000/svg">
<g filter="url(#filter0_d_775_3403)">
<path d="M8.5 0L28.8 0.2C30.3 0.2 32 1.1 32.6 2.3L33.8 4.8V33.1H9.6C8.1 33.1 6.8 32.1 6.8 30.9L5.6 2.3C5.6 1.1 6.9 0 8.5 0Z" fill="#DE8E0D"/>
<path d="M56.1 4.9C57.7 4.9 59 6 59 7.2L57.7 30.9C57.7 32.1 56.5 33.1 54.9 33.1H33.8V4.8L56.1 4.9Z" fill="#FFB700"/>
<path d="M57.9 32.4L57.8 35.2C57.8 36.4 56.6 37.4 55 37.4H33.8V32.4H57.9Z" fill="#FFB700"/>
<path d="M55.7 6.7H8.8V22.2H55.7V6.7Z" fill="#CFCFCF"/>
<path d="M56.7 9.5H7.1V25H56.7V9.5Z" fill="#F0F0F0"/>
<path d="M58.6 12.3H5.3V27.8H58.6V12.3Z" fill="white"/>
<path d="M57.3 16.6C59.1 16.6 60.6 17.8 60.6 19.2L59.2 45.8C59.2 47.2 57.8 48.3 56.1 48.3H32.3V16.5L57.3 16.6Z" fill="#FFB700"/>
<path d="M7.3 16.6C5.5 16.6 4 17.8 4 19.2L5.4 45.8C5.4 47.2 6.8 48.3 8.5 48.3H32.3V16.5L7.3 16.6Z" fill="#FFCA00"/>
<path d="M5.2 41.4L5.4 45.8C5.4 47.2 6.8 48.3 8.5 48.3H32.3V41.4H5.2Z" fill="#FFB700"/>
<path d="M40.1 38.1C39.4 38.1 38.9 37.6 38.9 36.9V26.6C38.9 25.9 39.4 25.4 40.1 25.4C40.8 25.4 41.3 25.9 41.3 26.6V36.9C41.3 37.6 40.8 38.1 40.1 38.1Z" fill="white"/>
<path d="M36.5 35.9L40.1 42.1L43.7 35.9H36.5Z" fill="white"/>
<path d="M13.9 31.4C13.9 33 12.6 34.3 11 34.3C9.4 34.3 8.1 33 8.1 31.4V25C8 23.4 9.4 22 11 22C12.6 22 13.9 23.3 13.9 24.9V31.4Z" fill="white"/>
<path d="M30 2.5C30 3.3 29.4 3.9 28.6 3.9H8.5C7.7 3.9 7.1 3.3 7.1 2.5C7.1 1.7 7.7 1.1 8.5 1.1H28.6C29.4 1.1 30 1.7 30 2.5Z" fill="#FFCA00"/>
<path d="M48.9 45.6C48.9 46.3 48.3 46.8 47.7 46.8C47 46.8 46.5 46.2 46.5 45.6V42.6C46.5 41.9 47.1 41.4 47.7 41.4C48.4 41.4 48.9 42 48.9 42.6V45.6Z" fill="white"/>
</g>
<defs>
<filter id="filter0_d_775_3403" x="0" y="0" width="64.6" height="56.3" filterUnits="userSpaceOnUse" color-interpolation-filters="sRGB">
<feFlood flood-opacity="0" result="BackgroundImageFix"/>
<feColorMatrix in="SourceAlpha" type="matrix" values="0 0 0 0 0 0 0 0 0 0 0 0 0 0 0 0 0 0 127 0" result="hardAlpha"/>
<feOffset dy="4"/>
<feGaussianBlur stdDeviation="2"/>
<feComposite in2="hardAlpha" operator="out"/>
<feColorMatrix type="matrix" values="0 0 0 0 0 0 0 0 0 0 0 0 0 0 0 0 0 0 0.25 0"/>
<feBlend mode="normal" in2="BackgroundImageFix" result="effect1_dropShadow_775_3403"/>
<feBlend mode="normal" in="SourceGraphic" in2="effect1_dropShadow_775_3403" result="shape"/>
</filter>
</defs>
</svg>
