<svg width="65" height="65" viewBox="0 0 65 65" fill="none" xmlns="http://www.w3.org/2000/svg">
<g filter="url(#filter0_d_761_1864)">
<path d="M50.7006 10.2994C51.7786 9.2214 51.7864 7.46169 50.6091 6.49295C47.4708 3.91052 43.8077 2.02213 39.8608 0.966964C35.0225 -0.326536 29.9287 -0.322225 25.0926 0.979464C20.2565 2.28115 15.8487 4.83425 12.3134 8.3816C8.77801 11.929 6.23985 16.3453 4.95454 21.1858C3.66923 26.0263 3.68217 31.1201 4.99204 35.954C6.30191 40.7879 8.86246 45.1913 12.4158 48.7206C15.9691 52.25 20.3898 54.7807 25.2324 56.0578C29.1828 57.0996 33.3003 57.2772 37.3063 56.5918C38.809 56.3347 39.6753 54.803 39.274 53.3321C38.8728 51.8612 37.3554 51.0118 35.8471 51.2339C32.7843 51.6848 29.6521 51.5135 26.6403 50.7193C22.7358 49.6896 19.1715 47.6491 16.3065 44.8035C13.4416 41.9578 11.377 38.4075 10.3209 34.51C9.26479 30.6125 9.25436 26.5055 10.2907 22.6027C11.327 18.6999 13.3735 15.1391 16.224 12.279C19.0744 9.41881 22.6283 7.3603 26.5276 6.31077C30.4268 5.26125 34.5338 5.25777 38.4349 6.30069C41.4439 7.10515 44.2485 8.51028 46.6841 10.4212C47.8836 11.3623 49.6225 11.3775 50.7006 10.2994Z" fill="#D9D9D9"/>
<path d="M32.5 54.2395C32.5 55.7641 33.7388 57.0139 35.2563 56.8664C40.2221 56.384 44.9918 54.604 49.0765 51.6834C53.9123 48.2257 57.5458 43.3424 59.4684 37.7172C61.391 32.0919 61.5064 26.0062 59.7985 20.3121C58.0906 14.6179 54.6448 9.60037 49.9436 5.96183C45.2425 2.3233 39.5211 0.245915 33.5807 0.0205033C27.6402 -0.204908 21.7779 1.43293 16.8145 4.70475C11.8511 7.97656 8.03501 12.7186 5.9005 18.2669C4.09754 22.9535 3.57057 28.0171 4.34879 32.9453C4.5866 34.4512 6.10712 35.337 7.583 34.9547C9.05888 34.5724 9.9277 33.066 9.72501 31.555C9.21451 27.7492 9.66415 23.8604 11.0534 20.2493C12.7744 15.7758 15.8512 11.9524 19.8531 9.31439C23.855 6.6764 28.5816 5.35584 33.3713 5.53758C38.161 5.71933 42.774 7.39428 46.5644 10.328C50.3549 13.2616 53.1331 17.3072 54.5102 21.8982C55.8872 26.4893 55.7942 31.3961 54.244 35.9316C52.6939 40.4672 49.7643 44.4044 45.8653 47.1923C42.7179 49.4427 39.0661 50.8532 35.254 51.3134C33.7404 51.4961 32.5 52.7149 32.5 54.2395Z" fill="#3286AA"/>
<path d="M48.1622 29.7838C48.1622 33.2908 47.0402 36.7058 44.9603 39.5295C42.8803 42.3531 39.9516 44.4373 36.6023 45.4772C33.2531 46.5171 29.6589 46.4582 26.3455 45.3091C23.0321 44.16 20.1733 41.981 18.187 39.0907C16.2007 36.2004 15.1912 32.7505 15.3061 29.2454C15.421 25.7403 16.6543 22.3638 18.8256 19.6099C20.9969 16.8559 23.9924 14.8688 27.3739 13.9392C30.7555 13.0096 34.3457 13.1862 37.6197 14.4432L31.7297 29.7838H48.1622Z" fill="#EDD714"/>
<path d="M51.2432 27.2162C51.2432 23.8576 50.2141 20.5797 48.2944 17.8238C46.3747 15.068 43.6567 12.9665 40.5063 11.8024L34.8108 27.2162H51.2432Z" fill="#E97A2A"/>
<path d="M23.57 32.3411L22.2811 35.4324H21.3824L22.6868 32.4387H21.0897V31.6889H23.57V32.3411Z" fill="black"/>
<path d="M26.5646 32.4489H24.9624V33.1576C25.0309 33.0823 25.1268 33.0206 25.25 32.9727C25.3732 32.9248 25.5068 32.9008 25.6505 32.9008C25.9073 32.9008 26.1195 32.959 26.2873 33.0754C26.4585 33.1918 26.5834 33.3424 26.6622 33.5273C26.7409 33.7122 26.7803 33.9124 26.7803 34.1281C26.7803 34.5287 26.6673 34.847 26.4413 35.0832C26.2154 35.316 25.897 35.4324 25.4862 35.4324C25.2123 35.4324 24.9744 35.3862 24.7724 35.2938C24.5704 35.1979 24.4147 35.0661 24.3051 34.8984C24.1956 34.7306 24.1357 34.5372 24.1254 34.3181H24.983C25.0035 34.4242 25.0531 34.5132 25.1319 34.5851C25.2106 34.6536 25.3185 34.6878 25.4554 34.6878C25.6163 34.6878 25.7361 34.6365 25.8149 34.5338C25.8936 34.4311 25.933 34.2941 25.933 34.123C25.933 33.9552 25.8919 33.8268 25.8097 33.7378C25.7276 33.6488 25.6077 33.6043 25.4503 33.6043C25.3339 33.6043 25.238 33.6334 25.1627 33.6916C25.0874 33.7464 25.0377 33.82 25.0138 33.9124H24.1665V31.6787H26.5646V32.4489Z" fill="black"/>
<path d="M27.1931 32.6287C27.1931 32.3514 27.2718 32.1374 27.4293 31.9868C27.5902 31.8361 27.7973 31.7608 28.0506 31.7608C28.304 31.7608 28.5094 31.8361 28.6669 31.9868C28.8243 32.1374 28.9031 32.3514 28.9031 32.6287C28.9031 32.906 28.8243 33.1199 28.6669 33.2705C28.5094 33.4212 28.304 33.4965 28.0506 33.4965C27.7973 33.4965 27.5902 33.4212 27.4293 33.2705C27.2718 33.1199 27.1931 32.906 27.1931 32.6287ZM30.6798 31.8173L28.7028 35.4324H27.8555L29.8325 31.8173H30.6798ZM28.0455 32.2743C27.8812 32.2743 27.799 32.3924 27.799 32.6287C27.799 32.8614 27.8812 32.9778 28.0455 32.9778C28.1243 32.9778 28.1859 32.9487 28.2304 32.8905C28.2749 32.8323 28.2971 32.7451 28.2971 32.6287C28.2971 32.3924 28.2133 32.2743 28.0455 32.2743ZM29.6374 34.6211C29.6374 34.3438 29.7161 34.1298 29.8736 33.9792C30.0311 33.8286 30.2365 33.7533 30.4898 33.7533C30.7432 33.7533 30.9486 33.8286 31.1061 33.9792C31.2635 34.1298 31.3423 34.3438 31.3423 34.6211C31.3423 34.8984 31.2635 35.1123 31.1061 35.263C30.9486 35.4136 30.7432 35.4889 30.4898 35.4889C30.2365 35.4889 30.0311 35.4136 29.8736 35.263C29.7161 35.1123 29.6374 34.8984 29.6374 34.6211ZM30.4847 34.2668C30.406 34.2668 30.3443 34.2959 30.2998 34.3541C30.2588 34.4123 30.2382 34.5013 30.2382 34.6211C30.2382 34.8539 30.3204 34.9703 30.4847 34.9703C30.5634 34.9703 30.6251 34.9412 30.6696 34.883C30.7141 34.8248 30.7363 34.7375 30.7363 34.6211C30.7363 34.5047 30.7141 34.4174 30.6696 34.3592C30.6251 34.2976 30.5634 34.2668 30.4847 34.2668Z" fill="black"/>
<path d="M39.0576 21.203V20.3865H40.48V24.1351H39.5659V21.203H39.0576Z" fill="white"/>
<path d="M41.0807 22.2095C41.0807 21.6206 41.1937 21.1568 41.4196 20.8178C41.649 20.4789 42.017 20.3095 42.5237 20.3095C43.0303 20.3095 43.3966 20.4789 43.6226 20.8178C43.852 21.1568 43.9666 21.6206 43.9666 22.2095C43.9666 22.8051 43.852 23.2724 43.6226 23.6114C43.3966 23.9503 43.0303 24.1197 42.5237 24.1197C42.017 24.1197 41.649 23.9503 41.4196 23.6114C41.1937 23.2724 41.0807 22.8051 41.0807 22.2095ZM43.1039 22.2095C43.1039 21.8637 43.0663 21.5984 42.991 21.4135C42.9156 21.2252 42.7599 21.1311 42.5237 21.1311C42.2874 21.1311 42.1317 21.2252 42.0564 21.4135C41.9811 21.5984 41.9434 21.8637 41.9434 22.2095C41.9434 22.4423 41.9571 22.6357 41.9845 22.7897C42.0119 22.9404 42.0666 23.0636 42.1488 23.1595C42.2344 23.2519 42.3593 23.2981 42.5237 23.2981C42.688 23.2981 42.8112 23.2519 42.8934 23.1595C42.979 23.0636 43.0355 22.9404 43.0629 22.7897C43.0902 22.6357 43.1039 22.4423 43.1039 22.2095Z" fill="white"/>
<path d="M44.3587 21.3314C44.3587 21.0541 44.4374 20.8401 44.5949 20.6895C44.7558 20.5388 44.9629 20.4635 45.2162 20.4635C45.4696 20.4635 45.675 20.5388 45.8325 20.6895C45.9899 20.8401 46.0687 21.0541 46.0687 21.3314C46.0687 21.6087 45.9899 21.8226 45.8325 21.9732C45.675 22.1239 45.4696 22.1992 45.2162 22.1992C44.9629 22.1992 44.7558 22.1239 44.5949 21.9732C44.4374 21.8226 44.3587 21.6087 44.3587 21.3314ZM47.8454 20.52L45.8684 24.1351H45.0211L46.9981 20.52H47.8454ZM45.2111 20.977C45.0468 20.977 44.9646 21.0951 44.9646 21.3314C44.9646 21.5641 45.0468 21.6805 45.2111 21.6805C45.2898 21.6805 45.3515 21.6514 45.396 21.5932C45.4405 21.535 45.4627 21.4478 45.4627 21.3314C45.4627 21.0951 45.3788 20.977 45.2111 20.977ZM46.803 23.3238C46.803 23.0465 46.8817 22.8325 47.0392 22.6819C47.1967 22.5313 47.4021 22.4559 47.6554 22.4559C47.9088 22.4559 48.1142 22.5313 48.2716 22.6819C48.4291 22.8325 48.5079 23.0465 48.5079 23.3238C48.5079 23.6011 48.4291 23.8151 48.2716 23.9657C48.1142 24.1163 47.9088 24.1916 47.6554 24.1916C47.4021 24.1916 47.1967 24.1163 47.0392 23.9657C46.8817 23.8151 46.803 23.6011 46.803 23.3238ZM47.6503 22.9695C47.5716 22.9695 47.5099 22.9986 47.4654 23.0568C47.4244 23.115 47.4038 23.204 47.4038 23.3238C47.4038 23.5566 47.486 23.673 47.6503 23.673C47.729 23.673 47.7907 23.6439 47.8352 23.5857C47.8797 23.5275 47.9019 23.4402 47.9019 23.3238C47.9019 23.2074 47.8797 23.1201 47.8352 23.0619C47.7907 23.0003 47.729 22.9695 47.6503 22.9695Z" fill="white"/>
</g>
<defs>
<filter id="filter0_d_761_1864" x="0" y="0" width="65" height="65" filterUnits="userSpaceOnUse" color-interpolation-filters="sRGB">
<feFlood flood-opacity="0" result="BackgroundImageFix"/>
<feColorMatrix in="SourceAlpha" type="matrix" values="0 0 0 0 0 0 0 0 0 0 0 0 0 0 0 0 0 0 127 0" result="hardAlpha"/>
<feOffset dy="4"/>
<feGaussianBlur stdDeviation="2"/>
<feComposite in2="hardAlpha" operator="out"/>
<feColorMatrix type="matrix" values="0 0 0 0 0 0 0 0 0 0 0 0 0 0 0 0 0 0 0.25 0"/>
<feBlend mode="normal" in2="BackgroundImageFix" result="effect1_dropShadow_761_1864"/>
<feBlend mode="normal" in="SourceGraphic" in2="effect1_dropShadow_761_1864" result="shape"/>
</filter>
</defs>
</svg>
