<svg width="57" height="61" viewBox="0 0 57 61" fill="none" xmlns="http://www.w3.org/2000/svg">
<g filter="url(#filter0_d_775_3533)">
<path d="M44.3716 1.02562C36.5983 -0.340572 20.5686 -0.340572 12.7953 1.02562C10.4175 1.44278 8.78702 4.49499 8.54367 7.87745H48.6267C48.3799 4.49499 46.7494 1.44626 44.3716 1.02562Z" fill="#F07F00"/>
<path d="M39.3794 20.8024V22.252H43.0888C44.2464 22.252 45.185 23.1907 45.185 24.3483V25.5789C46.5269 25.8535 47.7298 26.7191 48.6545 27.981V20.8024H39.3794Z" fill="#F07F00"/>
<path d="M8.50891 27.9775C9.43363 26.7156 10.6365 25.85 11.9784 25.5754V24.3448C11.9784 23.1872 12.917 22.2486 14.0746 22.2486H17.784V20.7989H8.50891V27.9775Z" fill="#F07F00"/>
<path d="M9.92033 9.36184C9.89947 9.58433 9.88904 9.81029 9.88904 10.0397V19.318H18.0412C18.2881 18.9739 18.6913 18.7479 19.1467 18.7479H27.8482V9.36184H9.92033Z" fill="#414C72"/>
<path d="M47.2778 10.0397C47.2778 9.81376 47.2674 9.5878 47.2465 9.36184H29.3152V18.7479H38.0167C38.4721 18.7479 38.8754 18.9739 39.1222 19.318H47.2744V10.0397H47.2778Z" fill="#414C72"/>
<path d="M45.185 25.5754V24.3448C45.185 23.1872 44.2464 22.2486 43.0888 22.2486H39.3794V20.1072C39.3794 19.8117 39.2821 19.537 39.1222 19.3146C38.8753 18.9704 38.4721 18.7444 38.0167 18.7444H19.1502C18.6948 18.7444 18.2915 18.9704 18.0447 19.3146C17.8848 19.537 17.7874 19.8117 17.7874 20.1072V22.2486L14.0746 22.2486C12.917 22.2486 11.9784 23.1872 11.9784 24.3448V25.5754C10.6365 25.85 9.43363 26.7156 8.50891 27.9775C7.34431 29.5627 6.62122 31.7772 6.62122 34.2245C6.62122 35.7854 6.62122 37.1272 6.62122 38.3996C6.73942 38.3717 6.85761 38.3578 6.98277 38.3578H50.1841C50.3093 38.3578 50.4309 38.3717 50.5457 38.3996C50.5457 37.0195 50.5457 35.8758 50.5457 34.2245C50.5457 31.7772 49.8226 29.5662 48.658 27.9775C47.7332 26.7156 46.5304 25.85 45.185 25.5754Z" fill="#F8AC00"/>
<path d="M51.4043 10.4186C51.008 10.4186 50.65 10.4986 50.3823 10.6307C50.2815 10.5264 50.1737 10.4326 50.0485 10.3665C49.899 10.2865 49.7287 10.2379 49.5549 10.2379C49.2281 10.2379 48.9222 10.29 48.6614 10.3804V8.75001C48.6614 8.60748 48.658 8.46843 48.6545 8.32938C48.6545 8.31199 48.6545 8.29461 48.651 8.27723C48.6441 8.14513 48.6371 8.00955 48.6302 7.87745C48.6302 7.87398 48.6302 7.87398 48.6302 7.87398H8.54715C8.53672 8.00955 8.52977 8.14861 8.52281 8.28418C8.52281 8.29809 8.52281 8.31199 8.51934 8.3259C8.51586 8.46843 8.51239 8.61096 8.51239 8.75349V10.4499C8.46372 10.4291 8.41157 10.4047 8.35942 10.3874C8.09174 10.2935 7.78234 10.2414 7.45208 10.2414C7.27478 10.2414 7.10792 10.2865 6.95843 10.37C6.83328 10.4395 6.72551 10.5299 6.62469 10.6342C6.35701 10.5021 5.99894 10.4221 5.60263 10.4221C3.47507 10.4221 3.47507 19.0434 5.60263 19.0434C5.99894 19.0434 6.35701 18.9634 6.62469 18.8313C6.72551 18.9391 6.83328 19.0295 6.95843 19.0955C7.10792 19.1755 7.27826 19.2242 7.45208 19.2242C7.85187 19.2242 8.21341 19.1477 8.51239 19.0121V20.8059H17.7909V20.1141C17.7909 19.8186 17.8883 19.544 18.0482 19.3215H9.88904L9.88904 10.0397C9.88904 9.81376 9.89947 9.5878 9.92033 9.36184H27.8482V18.7479H29.3152V9.36184H47.2465C47.2674 9.58433 47.2778 9.81029 47.2778 10.0397V19.318H39.1257C39.2856 19.5405 39.3829 19.8151 39.3829 20.1106V20.8024H48.6614V19.0782C48.9257 19.1685 49.2281 19.2207 49.5549 19.2207C49.7322 19.2207 49.899 19.1755 50.0485 19.0921C50.1737 19.0225 50.2815 18.9322 50.3823 18.8279C50.65 18.96 51.008 19.0399 51.4043 19.0399C53.5319 19.0434 53.5319 10.4186 51.4043 10.4186ZM8.50891 18.3899C8.43243 18.4524 8.31771 18.5185 8.17517 18.5671C7.97354 18.6367 7.72324 18.6819 7.4486 18.6819C7.36517 18.6819 7.28869 18.661 7.21221 18.6193C7.15311 18.588 7.09401 18.5393 7.03143 18.4768C7.06968 18.4072 7.09053 18.3342 7.09053 18.2577V11.2043C7.09053 11.1278 7.06968 11.0548 7.02796 10.9818C7.09053 10.9192 7.14963 10.874 7.20873 10.8428C7.28869 10.801 7.36169 10.7802 7.44513 10.7802C7.81015 10.7802 8.14041 10.8601 8.35247 10.9749C8.41157 11.0061 8.46372 11.0409 8.50543 11.0722V18.3899H8.50891ZM49.7913 18.6193C49.7113 18.661 49.6383 18.6819 49.5549 18.6819C49.1968 18.6819 48.8735 18.6054 48.6614 18.4941V10.9679C48.7136 10.9436 48.7657 10.9158 48.8283 10.8949C49.0299 10.8219 49.2803 10.7802 49.5549 10.7802C49.6383 10.7802 49.7148 10.801 49.7913 10.8428C49.8504 10.874 49.9095 10.9227 49.9721 10.9853C49.9338 11.0548 49.913 11.1278 49.913 11.2043V18.2577C49.913 18.3342 49.9338 18.4072 49.9755 18.4802C49.9095 18.5428 49.8504 18.588 49.7913 18.6193Z" fill="#010202"/>
<path d="M50.5457 38.3961C50.4275 38.3683 50.3093 38.3544 50.1841 38.3544H6.98277C6.85761 38.3544 6.73594 38.3683 6.62122 38.3961C5.90508 38.5595 5.36623 39.2026 5.36623 39.9709V42.3035C5.36623 43.1969 6.08933 43.92 6.98277 43.92H7.19135V51.5157C7.19135 52.3361 7.85534 53.0036 8.67925 53.0036H13.3898C14.2102 53.0036 14.8777 52.3396 14.8777 51.5157V44.8655H16.4734V46.3325C16.4734 46.6941 16.9288 46.9861 17.4885 46.9861H40.0156C40.5753 46.9861 41.0307 46.6941 41.0307 46.3325V44.8655H42.2961V51.5157C42.2961 52.3361 42.9601 53.0036 43.784 53.0036H48.4946C49.315 53.0036 49.9825 52.3396 49.9825 51.5157V43.92H50.1911C51.0845 43.92 51.8076 43.1969 51.8076 42.3035V39.9709C51.7972 39.2026 51.2618 38.5629 50.5457 38.3961Z" fill="#010202"/>
<path d="M47.9905 4.82524C47.2674 2.82288 45.9916 1.31068 44.3716 1.02562C36.5983 -0.340572 20.5686 -0.340572 12.7953 1.02562C11.1718 1.31068 9.89947 2.8194 9.17638 4.82524H47.9905Z" fill="#F8AC00"/>
<path d="M39.0353 36.0183C39.0353 36.9117 38.3122 37.6348 37.4187 37.6348H19.5813C18.6878 37.6348 17.9647 36.9117 17.9647 36.0183V26.9625C17.9647 26.069 18.6878 25.346 19.5813 25.346H37.4187C38.3122 25.346 39.0353 26.069 39.0353 26.9625V36.0183Z" fill="#FFCE00"/>
<path d="M33.7268 42.4182C33.7268 43.0856 33.1845 43.6245 32.5205 43.6245H24.483C23.8155 43.6245 23.2767 43.0822 23.2767 42.4182V40.6731C23.2767 40.0056 23.819 39.4668 24.483 39.4668H32.517C33.1845 39.4668 33.7233 40.0091 33.7233 40.6731V42.4182H33.7268Z" fill="#EFEEEE"/>
<path d="M17.0852 36.5745H8.96432C8.31771 36.5745 7.79277 35.9661 7.79277 35.2187V31.9266C7.79277 31.1792 8.31771 30.5709 8.96432 30.5709C8.96432 30.5709 15.8337 32.1039 16.2683 32.6567C16.9601 33.5431 17.7318 36.5745 17.0852 36.5745Z" fill="#EDEDED"/>
<path d="M16.6924 35.7715H12.4129C12.0722 35.7715 11.7976 35.4308 11.7976 35.0101V33.1573C11.7976 32.7366 12.0722 32.3925 12.4129 32.3925C12.4129 32.3925 16.0319 33.2546 16.2613 33.5675C16.6298 34.0646 17.0331 35.7715 16.6924 35.7715Z" fill="#C6C6C6"/>
<path d="M11.1545 35.6533H8.83569C8.65144 35.6533 8.50196 35.2326 8.50196 34.7147V32.4307C8.50196 31.9127 8.65144 31.4921 8.83569 31.4921C8.83569 31.4921 10.9806 31.944 11.1058 32.3299C11.3039 32.9417 11.3387 35.6533 11.1545 35.6533Z" fill="#F07F00"/>
<path d="M14.9681 34.6138C14.8186 35.0414 14.0816 35.1492 13.3237 34.8572C12.5659 34.5652 12.0688 33.9812 12.2182 33.5536C12.3677 33.126 13.1047 33.0182 13.8626 33.3102C14.6239 33.6022 15.1176 34.1863 14.9681 34.6138Z" fill="white"/>
<path d="M10.925 33.265C10.8138 33.5883 10.2575 33.6683 9.68394 33.4493C9.11033 33.2268 8.73835 32.7853 8.8496 32.4655C8.96084 32.1422 9.51707 32.0622 10.0907 32.2812C10.6678 32.5037 11.0397 32.9417 10.925 33.265Z" fill="#F8AC00"/>
<path d="M40.0817 36.5745H48.2026C48.8492 36.5745 49.3741 35.9661 49.3741 35.2187V31.9266C49.3741 31.1792 48.8492 30.5709 48.2026 30.5709C48.2026 30.5709 41.3332 32.1039 40.8986 32.6567C40.2033 33.5431 39.4351 36.5745 40.0817 36.5745Z" fill="#EDEDED"/>
<path d="M40.471 35.7715H44.7505C45.0912 35.7715 45.3658 35.4308 45.3658 35.0101V33.1573C45.3658 32.7366 45.0912 32.3925 44.7505 32.3925C44.7505 32.3925 41.1315 33.2546 40.9021 33.5675C40.5371 34.0646 40.1303 35.7715 40.471 35.7715Z" fill="#C6C6C6"/>
<path d="M46.0124 35.6533H48.3312C48.5154 35.6533 48.6649 35.2326 48.6649 34.7147V32.4307C48.6649 31.9127 48.5154 31.4921 48.3312 31.4921C48.3312 31.4921 46.1862 31.944 46.0611 32.3299C45.8629 32.9417 45.8282 35.6533 46.0124 35.6533Z" fill="#F07F00"/>
<path d="M42.1988 34.6138C42.3483 35.0414 43.0853 35.1492 43.8431 34.8572C44.601 34.5652 45.0981 33.9812 44.9486 33.5536C44.7992 33.126 44.0622 33.0182 43.3043 33.3102C42.543 33.6022 42.0493 34.1863 42.1988 34.6138Z" fill="white"/>
<path d="M46.2384 33.265C46.3496 33.5883 46.9059 33.6683 47.4795 33.4493C48.0531 33.2268 48.4251 32.7853 48.3138 32.4655C48.2026 32.1422 47.6463 32.0622 47.0727 32.2812C46.4991 32.5037 46.1271 32.9417 46.2384 33.265Z" fill="#F8AC00"/>
<path d="M36.7443 20.0793C36.7443 20.3366 36.5357 20.5452 36.2785 20.5452H20.7215C20.4643 20.5452 20.2557 20.3366 20.2557 20.0793C20.2557 19.8221 20.4643 19.6135 20.7215 19.6135H36.2785C36.5357 19.6135 36.7443 19.8221 36.7443 20.0793Z" fill="#FFCE00"/>
<path d="M42.536 23.4896C42.536 23.7469 42.3274 23.9554 42.0702 23.9554H14.9298C14.6726 23.9554 14.464 23.7469 14.464 23.4896C14.464 23.2324 14.6726 23.0238 14.9298 23.0238H42.0702C42.3274 23.0203 42.536 23.2324 42.536 23.4896Z" fill="#F07F00"/>
<path d="M19.5535 41.6777C19.5535 41.935 19.3449 42.1436 19.0876 42.1436H7.21221C6.95495 42.1436 6.74637 41.935 6.74637 41.6777C6.74637 41.4205 6.95495 41.2119 7.21221 41.2119H19.0876C19.3449 41.2119 19.5535 41.4205 19.5535 41.6777Z" fill="#414C72"/>
<path d="M50.4205 41.6777C50.4205 41.935 50.2119 42.1436 49.9547 42.1436H38.0793C37.822 42.1436 37.6134 41.935 37.6134 41.6777C37.6134 41.4205 37.822 41.2119 38.0793 41.2119H49.9512C50.2119 41.2119 50.4205 41.4205 50.4205 41.6777Z" fill="#414C72"/>
<path d="M8.98865 51.5574C8.98865 51.8043 8.78702 52.0059 8.5402 52.0059C8.29337 52.0059 8.09174 51.8043 8.09174 51.5574V45.5921C8.09174 45.3452 8.29337 45.1436 8.5402 45.1436C8.78702 45.1436 8.98865 45.3452 8.98865 45.5921V51.5574Z" fill="#414C72"/>
<path d="M11.3943 51.5574C11.3943 51.8043 11.1927 52.0059 10.9459 52.0059C10.699 52.0059 10.4974 51.8043 10.4974 51.5574V45.5921C10.4974 45.3452 10.699 45.1436 10.9459 45.1436C11.1927 45.1436 11.3943 45.3452 11.3943 45.5921V51.5574Z" fill="#414C72"/>
<path d="M13.7965 51.5574C13.7965 51.8043 13.5949 52.0059 13.3481 52.0059C13.1012 52.0059 12.8996 51.8043 12.8996 51.5574V45.5921C12.8996 45.3452 13.1012 45.1436 13.3481 45.1436C13.5949 45.1436 13.7965 45.3452 13.7965 45.5921V51.5574Z" fill="#414C72"/>
<path d="M44.2534 51.5574C44.2534 51.8043 44.0517 52.0059 43.8049 52.0059C43.5581 52.0059 43.3564 51.8043 43.3564 51.5574V45.5921C43.3564 45.3452 43.5581 45.1436 43.8049 45.1436C44.0517 45.1436 44.2534 45.3452 44.2534 45.5921V51.5574Z" fill="#414C72"/>
<path d="M46.6556 51.5574C46.6556 51.8043 46.4539 52.0059 46.2071 52.0059C45.9603 52.0059 45.7586 51.8043 45.7586 51.5574V45.5921C45.7586 45.3452 45.9603 45.1436 46.2071 45.1436C46.4539 45.1436 46.6556 45.3452 46.6556 45.5921V51.5574Z" fill="#414C72"/>
<path d="M49.0612 51.5574C49.0612 51.8043 48.8596 52.0059 48.6128 52.0059C48.366 52.0059 48.1643 51.8043 48.1643 51.5574V45.5921C48.1643 45.3452 48.366 45.1436 48.6128 45.1436C48.8596 45.1436 49.0612 45.3452 49.0612 45.5921V51.5574Z" fill="#414C72"/>
<path d="M38.785 45.679C38.785 45.9084 38.6007 46.0927 38.3713 46.0927H18.7956C18.5662 46.0927 18.3819 45.9084 18.3819 45.679C18.3819 45.4495 18.5662 45.2653 18.7956 45.2653H38.3713C38.6007 45.2653 38.785 45.4495 38.785 45.679Z" fill="#414C72"/>
<path d="M38.0932 2.77421C38.0932 3.62591 38.7815 4.31422 39.6332 4.31422H41.9937C42.8454 4.31422 43.5337 3.62591 43.5337 2.77421C43.5337 1.92251 42.8454 1.2342 41.9937 1.2342H39.6332C38.785 1.2342 38.0932 1.92599 38.0932 2.77421Z" fill="#010202"/>
<path d="M38.7085 2.83331C38.7085 3.44862 39.2056 3.94573 39.8209 3.94573C40.4363 3.94573 40.9334 3.44862 40.9334 2.83331C40.9334 2.218 40.4363 1.72089 39.8209 1.72089C39.2056 1.72089 38.7085 2.218 38.7085 2.83331Z" fill="#FFCE00"/>
<path d="M42.3214 3.5483C42.7175 3.45477 42.9628 3.05783 42.8693 2.66171C42.7758 2.2656 42.3788 2.02031 41.9827 2.11384C41.5866 2.20738 41.3413 2.60431 41.4348 3.00043C41.5283 3.39654 41.9253 3.64183 42.3214 3.5483Z" fill="#FFCE00"/>
<path d="M39.8731 2.46482C39.8731 2.66992 40.0399 2.83331 40.2416 2.83331C40.4467 2.83331 40.6101 2.66645 40.6101 2.46482C40.6101 2.25972 40.4432 2.09633 40.2416 2.09633C40.0399 2.09285 39.8731 2.25972 39.8731 2.46482Z" fill="white"/>
<path d="M42.0458 2.57259C42.0458 2.71859 42.164 2.83331 42.3066 2.83331C42.4491 2.83331 42.5673 2.71511 42.5673 2.57259C42.5673 2.43006 42.4491 2.31186 42.3066 2.31186C42.1606 2.31186 42.0458 2.42658 42.0458 2.57259Z" fill="white"/>
<path d="M19.0702 2.77421C19.0702 3.62591 18.3819 4.31422 17.5302 4.31422H15.1697C14.318 4.31422 13.6297 3.62591 13.6297 2.77421C13.6297 1.92251 14.318 1.2342 15.1697 1.2342H17.5302C18.3819 1.2342 19.0702 1.92599 19.0702 2.77421Z" fill="#010202"/>
<path d="M18.4549 2.83331C18.4549 3.44862 17.9578 3.94573 17.3425 3.94573C16.7271 3.94573 16.23 3.44862 16.23 2.83331C16.23 2.218 16.7271 1.72089 17.3425 1.72089C17.9578 1.72089 18.4549 2.218 18.4549 2.83331Z" fill="#FFCE00"/>
<path d="M15.7413 2.95172C15.8069 2.55003 15.5344 2.17121 15.1327 2.10559C14.731 2.03998 14.3522 2.31243 14.2866 2.71412C14.221 3.11581 14.4934 3.49463 14.8951 3.56025C15.2968 3.62586 15.6756 3.35341 15.7413 2.95172Z" fill="#FFCE00"/>
<path d="M17.2903 2.46482C17.2903 2.66992 17.1235 2.83331 16.9218 2.83331C16.7167 2.83331 16.5533 2.66645 16.5533 2.46482C16.5533 2.25972 16.7202 2.09633 16.9218 2.09633C17.1269 2.09285 17.2903 2.25972 17.2903 2.46482Z" fill="white"/>
<path d="M15.121 2.57259C15.121 2.71859 15.0028 2.83331 14.8603 2.83331C14.7178 2.83331 14.5996 2.71511 14.5996 2.57259C14.5996 2.43006 14.7178 2.31186 14.8603 2.31186C15.0028 2.31186 15.121 2.42658 15.121 2.57259Z" fill="white"/>
<path d="M37.0954 3.77887C36.7791 2.46482 36.2194 1.47754 35.5067 1.28982C32.0998 0.389456 25.067 0.389456 21.6567 1.28635C20.944 1.47407 20.3878 2.46482 20.068 3.77539H37.0954V3.77887Z" fill="#EDEDED"/>
<path d="M41.6148 14.6041C41.6843 14.764 41.6113 14.9518 41.4514 15.0248L34.5924 18.0666C34.4325 18.1361 34.2448 18.0631 34.1718 17.9032C34.1022 17.7433 34.1752 17.5555 34.3352 17.4825L41.1941 14.4373C41.3575 14.3677 41.5452 14.4407 41.6148 14.6041Z" fill="white"/>
<path d="M45.491 10.5264C45.5605 10.6863 45.4875 10.874 45.3276 10.947L33.4695 16.1268C33.3096 16.1963 33.1219 16.1233 33.0489 15.9634C32.9794 15.8035 33.0524 15.6157 33.2123 15.5427L45.0703 10.363C45.2337 10.29 45.4214 10.363 45.491 10.5264Z" fill="white"/>
<path d="M20.2418 14.6041C20.3113 14.764 20.2383 14.9518 20.0784 15.0248L13.2194 18.07C13.0595 18.1396 12.8718 18.0665 12.7988 17.9066C12.7293 17.7467 12.8023 17.559 12.9622 17.486L19.8211 14.4407C19.9811 14.3677 20.1688 14.4407 20.2418 14.6041Z" fill="white"/>
<path d="M24.118 10.5264C24.1875 10.6863 24.1145 10.874 23.9546 10.947L12.0966 16.1268C11.9366 16.1963 11.7489 16.1233 11.6759 15.9634C11.6064 15.8035 11.6794 15.6157 11.8393 15.5427L23.6973 10.363C23.8573 10.29 24.045 10.363 24.118 10.5264Z" fill="white"/>
<path d="M35.3711 2.7325C35.3711 2.90979 35.2286 3.05232 35.0513 3.05232H22.1121C21.9348 3.05232 21.7923 2.90979 21.7923 2.7325C21.7923 2.5552 21.9348 2.41267 22.1121 2.41267H35.0513C35.2286 2.41267 35.3711 2.5552 35.3711 2.7325Z" fill="white"/>
<path d="M51.5851 17.8371C51.5851 17.9796 51.4704 18.0944 51.3279 18.0944C51.1853 18.0944 51.0706 17.9796 51.0706 17.8371V11.4685C51.0706 11.326 51.1853 11.2112 51.3279 11.2112C51.4704 11.2112 51.5851 11.326 51.5851 11.4685V17.8371Z" fill="#414C72"/>
<path d="M6.09628 17.8371C6.09628 17.9796 5.98156 18.0944 5.83903 18.0944C5.69649 18.0944 5.58177 17.9796 5.58177 17.8371V11.4685C5.58177 11.326 5.69649 11.2112 5.83903 11.2112C5.98156 11.2112 6.09628 11.326 6.09628 11.4685V17.8371Z" fill="#414C72"/>
<path d="M47.0067 6.55645C47.0067 6.8137 46.7981 7.02228 46.5408 7.02228H10.6295C10.3723 7.02228 10.1637 6.8137 10.1637 6.55645C10.1637 6.2992 10.3723 6.09062 10.6295 6.09062H46.5408C46.7981 6.09062 47.0067 6.2992 47.0067 6.55645Z" fill="#FFCE00"/>
<path d="M20.1062 35.987C19.8629 35.987 19.6682 35.7923 19.6682 35.549V27.4352C19.6682 27.1919 19.8629 26.9972 20.1062 26.9972C20.3496 26.9972 20.5442 27.1919 20.5442 27.4352V35.549C20.5442 35.7888 20.3496 35.987 20.1062 35.987Z" fill="#010202"/>
<path d="M22.206 35.987C21.9626 35.987 21.7679 35.7923 21.7679 35.549V27.4352C21.7679 27.1919 21.9626 26.9972 22.206 26.9972C22.4493 26.9972 22.644 27.1919 22.644 27.4352V35.549C22.644 35.7888 22.4458 35.987 22.206 35.987Z" fill="#010202"/>
<path d="M24.3022 35.987C24.0589 35.987 23.8642 35.7923 23.8642 35.549V27.4352C23.8642 27.1919 24.0589 26.9972 24.3022 26.9972C24.5456 26.9972 24.7403 27.1919 24.7403 27.4352V35.549C24.7403 35.7888 24.5456 35.987 24.3022 35.987Z" fill="#010202"/>
<path d="M26.402 35.987C26.1586 35.987 25.964 35.7923 25.964 35.549V27.4352C25.964 27.1919 26.1586 26.9972 26.402 26.9972C26.6453 26.9972 26.84 27.1919 26.84 27.4352V35.549C26.84 35.7888 26.6453 35.987 26.402 35.987Z" fill="#010202"/>
<path d="M28.5017 35.987C28.2584 35.987 28.0637 35.7923 28.0637 35.549V27.4352C28.0637 27.1919 28.2584 26.9972 28.5017 26.9972C28.7451 26.9972 28.9398 27.1919 28.9398 27.4352V35.549C28.9398 35.7888 28.7416 35.987 28.5017 35.987Z" fill="#010202"/>
<path d="M30.598 35.987C30.3547 35.987 30.16 35.7923 30.16 35.549V27.4352C30.16 27.1919 30.3547 26.9972 30.598 26.9972C30.8414 26.9972 31.036 27.1919 31.036 27.4352V35.549C31.036 35.7888 30.8414 35.987 30.598 35.987Z" fill="#010202"/>
<path d="M32.6978 35.987C32.4544 35.987 32.2597 35.7923 32.2597 35.549V27.4352C32.2597 27.1919 32.4544 26.9972 32.6978 26.9972C32.9411 26.9972 33.1358 27.1919 33.1358 27.4352V35.549C33.1358 35.7888 32.9411 35.987 32.6978 35.987Z" fill="#010202"/>
<path d="M34.7975 35.987C34.5542 35.987 34.3595 35.7923 34.3595 35.549V27.4352C34.3595 27.1919 34.5542 26.9972 34.7975 26.9972C35.0409 26.9972 35.2355 27.1919 35.2355 27.4352V35.549C35.2355 35.7888 35.0374 35.987 34.7975 35.987Z" fill="#010202"/>
<path d="M36.8938 35.987C36.6504 35.987 36.4558 35.7923 36.4558 35.549V27.4352C36.4558 27.1919 36.6504 26.9972 36.8938 26.9972C37.1371 26.9972 37.3318 27.1919 37.3318 27.4352V35.549C37.3318 35.7888 37.1371 35.987 36.8938 35.987Z" fill="#010202"/>
<path d="M40.9473 28.7076C41.2011 29.2951 42.5464 29.2812 43.944 28.6728C45.345 28.0645 46.2732 27.0946 46.0194 26.5071C45.7656 25.9196 44.4202 25.9335 43.0192 26.5418C41.6182 27.1502 40.69 28.1166 40.9473 28.7076Z" fill="#FFCE00"/>
<path d="M16.2196 28.7076C15.9658 29.2951 14.6204 29.2812 13.2229 28.6728C11.8219 28.0645 10.8937 27.0946 11.1475 26.5071C11.4013 25.9196 12.7467 25.9335 14.1476 26.5418C15.5486 27.1502 16.4768 28.1166 16.2196 28.7076Z" fill="#FFCE00"/>
<path d="M32.2597 40.7461C32.2597 41.0033 32.0512 41.2154 31.7904 41.2154H25.2096C24.9523 41.2154 24.7403 41.0068 24.7403 40.7461C24.7403 40.4888 24.9489 40.2768 25.2096 40.2768H31.7904C32.0477 40.2768 32.2597 40.4853 32.2597 40.7461Z" fill="white"/>
</g>
<defs>
<filter id="filter0_d_775_3533" x="0.00695801" y="0.000976562" width="56.993" height="61.0027" filterUnits="userSpaceOnUse" color-interpolation-filters="sRGB">
<feFlood flood-opacity="0" result="BackgroundImageFix"/>
<feColorMatrix in="SourceAlpha" type="matrix" values="0 0 0 0 0 0 0 0 0 0 0 0 0 0 0 0 0 0 127 0" result="hardAlpha"/>
<feOffset dy="4"/>
<feGaussianBlur stdDeviation="2"/>
<feComposite in2="hardAlpha" operator="out"/>
<feColorMatrix type="matrix" values="0 0 0 0 0 0 0 0 0 0 0 0 0 0 0 0 0 0 0.25 0"/>
<feBlend mode="normal" in2="BackgroundImageFix" result="effect1_dropShadow_775_3533"/>
<feBlend mode="normal" in="SourceGraphic" in2="effect1_dropShadow_775_3533" result="shape"/>
</filter>
</defs>
</svg>
