<svg width="24" height="28" viewBox="0 0 24 28" fill="none" xmlns="http://www.w3.org/2000/svg">
<path fill-rule="evenodd" clip-rule="evenodd" d="M12 0.734619C11.3426 0.734619 10.7706 1.1562 9.62669 1.99936L6.79203 4.08874C6.61182 4.22157 6.52172 4.28798 6.42499 4.34383C6.32825 4.39968 6.22569 4.44451 6.02056 4.53415L6.02055 4.53416L2.79376 5.94435C1.49161 6.51343 0.840529 6.79797 0.51181 7.36733C0.183091 7.93668 0.262212 8.6428 0.420454 10.055L0.812585 13.5546C0.837514 13.7771 0.849978 13.8883 0.849978 14C0.849978 14.1117 0.837514 14.223 0.812585 14.4454L0.420454 17.945C0.262212 19.3573 0.183091 20.0634 0.51181 20.6327C0.840529 21.2021 1.4916 21.4866 2.79375 22.0557L6.02055 23.4659C6.22568 23.5556 6.32825 23.6004 6.42499 23.6562C6.52172 23.7121 6.61182 23.7785 6.79203 23.9113L9.62669 26.0007C10.7706 26.8439 11.3426 27.2654 12 27.2654C12.6574 27.2654 13.2294 26.8439 14.3733 26.0007L17.208 23.9113C17.3882 23.7785 17.4783 23.7121 17.575 23.6562C17.6717 23.6004 17.7743 23.5556 17.9794 23.4659L21.2062 22.0557C22.5084 21.4866 23.1595 21.2021 23.4882 20.6327C23.8169 20.0634 23.7378 19.3573 23.5795 17.945L23.1874 14.4454C23.1625 14.223 23.15 14.1117 23.15 14C23.15 13.8883 23.1625 13.7771 23.1874 13.5546L23.5795 10.055C23.7378 8.6428 23.8169 7.93668 23.4882 7.36733C23.1595 6.79797 22.5084 6.51343 21.2062 5.94436L17.9794 4.53416C17.7743 4.44451 17.6717 4.39968 17.575 4.34383C17.4783 4.28799 17.3882 4.22158 17.208 4.08878L17.208 4.08874L14.3733 1.99936C13.2294 1.1562 12.6574 0.734619 12 0.734619ZM12 19C14.7614 19 17 16.7615 17 14C17 11.2386 14.7614 9.00003 12 9.00003C9.23857 9.00003 6.99999 11.2386 6.99999 14C6.99999 16.7615 9.23857 19 12 19Z" fill="#222222"/>
</svg>
