<svg width="86" height="90" viewBox="0 0 86 90" fill="none" xmlns="http://www.w3.org/2000/svg">
<g filter="url(#filter0_d_3379_126883)">
<path d="M4.13264 2.90032H50.9592V13.9743H4.13264V2.90032Z" fill="#F8B4B4"/>
<path d="M4.13264 2.90032H27.6122V13.9743H4.13264V2.90032Z" fill="#EB5757"/>
<path d="M4.13264 13.9743H50.9592V46.0097C50.9592 48.91 48.5714 51.4148 45.5204 51.4148H15.2755L4 40.209V13.9743H4.13264Z" fill="#4FC2D9"/>
<path d="M15.4082 51.4148L4.13265 40.209H11.2959C13.551 40.209 15.2755 42.0547 15.2755 44.164L15.2755 51.4148L15.4082 51.4148Z" fill="#1490BD"/>
<path d="M50.9592 13.9743H27.6122L27.6122 51.4148H45.6531C48.5714 51.4148 51.0918 49.0418 51.0918 46.0097V13.9743H50.9592Z" fill="#96E0F4"/>
<path d="M42.3367 7.38264C43.1327 7.38264 43.7959 6.72347 43.7959 5.93248V1.45016C43.7959 0.659164 43.1327 0 42.3367 0C41.5408 0 40.8775 0.659164 40.8775 1.45016V6.06431C41.0102 6.85531 41.5408 7.38264 42.3367 7.38264Z" fill="#004592"/>
<path d="M32.9184 7.38264C33.7143 7.38264 34.3775 6.72347 34.3775 5.93248V1.45016C34.3775 0.659164 33.7143 0 32.9184 0C32.1224 0 31.4592 0.659164 31.4592 1.45016V6.06431C31.4592 6.85531 32.1224 7.38264 32.9184 7.38264Z" fill="#004592"/>
<path d="M22.3061 7.38264C23.102 7.38264 23.7653 6.72347 23.7653 5.93248V1.45016C23.6327 0.659164 23.102 0 22.3061 0C21.5102 0 20.8469 0.659164 20.8469 1.45016V6.06431C20.8469 6.85531 21.5102 7.38264 22.3061 7.38264Z" fill="#002541"/>
<path d="M12.8878 7.38264C13.6837 7.38264 14.3469 6.72347 14.3469 5.93248V1.45016C14.3469 0.659164 13.6837 0 12.8878 0C12.0918 0 11.4286 0.659164 11.4286 1.45016V6.06431C11.4286 6.85531 12.0918 7.38264 12.8878 7.38264Z" fill="#002541"/>
<path d="M55.3367 29.0032C40.6122 29.0032 28.6735 40.8682 28.6735 55.5016C28.6735 70.135 40.6122 82 55.3367 82V29.0032Z" fill="#EB5757"/>
<path d="M55.3367 82C70.0612 82 82 70.135 82 55.5016C82 40.8682 70.0612 29.0032 55.3367 29.0032V82Z" fill="#F8B4B4"/>
<path d="M55.3367 35.8585C44.4592 35.8585 35.7041 44.5595 35.7041 55.3698C35.7041 66.1801 44.4592 74.881 55.3367 74.881V35.8585Z" fill="#002541"/>
<path d="M55.3367 75.0129C66.2143 75.0129 74.9694 66.3119 74.9694 55.5016C74.9694 44.6913 66.2143 35.9904 55.3367 35.9904V75.0129Z" fill="#004592"/>
<path d="M55.3367 56.5563C55.602 56.5563 55.8674 56.4244 56.1327 56.2926L63.0306 49.5691C63.4286 49.1736 63.4286 48.5145 63.0306 48.119C62.6327 47.7235 61.9694 47.7235 61.5714 48.119L55.2041 54.4469L41.2755 49.8328C40.7449 49.701 40.0816 49.9646 39.949 50.492C39.8163 51.0193 40.0816 51.6785 40.6122 51.8103L55.0714 56.6881C55.0714 56.5563 55.2041 56.5563 55.3367 56.5563Z" fill="white"/>
<path d="M54.5408 35.8585H56V40.209H54.5408V35.8585Z" fill="#96E0F4"/>
<path d="M54.5408 70.6624H56V75.0129H54.5408V70.6624Z" fill="#96E0F4"/>
<path d="M35.5714 54.7106H39.949V56.1608H35.5714V54.7106Z" fill="#96E0F4"/>
<path d="M70.5918 54.7106H74.9694V56.1608H70.5918V54.7106Z" fill="#96E0F4"/>
<path d="M26.2246 21.6537C26.2246 22.6679 25.9779 23.4286 25.3614 24.1892C24.7448 24.8231 24.0049 25.3302 22.895 25.7106C25.3614 26.0909 26.7178 27.2319 26.7178 29.3871C26.7178 30.7817 26.2246 31.9227 25.1147 32.8101C24.0049 33.6976 22.5251 34.0779 20.5521 34.0779C19.6889 34.0779 18.949 34.0779 18.3324 33.9511C17.5925 33.8244 16.8526 33.5708 16.1127 33.3173V29.7675C16.7293 30.1478 17.4692 30.4014 18.0858 30.5281C18.579 30.6549 19.1956 30.7817 19.8122 30.7817C20.6754 30.7817 21.4153 30.6549 21.7852 30.4014C22.1552 30.1478 22.4018 29.7675 22.4018 29.1336C22.4018 28.7532 22.2785 28.3729 22.0318 28.1194C21.7852 27.8658 21.4153 27.739 21.0453 27.6122C20.5521 27.4855 19.9355 27.4855 19.0723 27.4855H18.2091V24.316H19.1956C21.292 24.316 22.2785 23.8089 22.2785 22.6679C22.2785 22.2876 22.1552 21.9072 21.7852 21.7805C21.5386 21.5269 21.0453 21.5269 20.5521 21.5269C19.5655 21.5269 18.579 21.7805 17.5925 22.4143L15.8661 19.6252C16.606 19.1181 17.4692 18.611 18.3324 18.3575C19.1956 18.2307 20.1821 18.1039 21.1686 18.1039C22.7717 18.1039 24.0049 18.4842 24.8681 19.1181C25.7313 19.752 26.2246 20.5127 26.2246 21.6537Z" fill="#002541"/>
<path d="M33.1302 33.8244V25.5838C33.1302 24.5696 33.1302 23.6821 33.2535 22.7947C33.0069 23.175 32.6369 23.4286 32.267 23.8089L30.5406 25.2035L28.4442 22.5411L33.6235 18.2307H37.3229V33.8244H33.1302Z" fill="#002541"/>
</g>
<defs>
<filter id="filter0_d_3379_126883" x="0" y="0" width="86" height="90" filterUnits="userSpaceOnUse" color-interpolation-filters="sRGB">
<feFlood flood-opacity="0" result="BackgroundImageFix"/>
<feColorMatrix in="SourceAlpha" type="matrix" values="0 0 0 0 0 0 0 0 0 0 0 0 0 0 0 0 0 0 127 0" result="hardAlpha"/>
<feOffset dy="4"/>
<feGaussianBlur stdDeviation="2"/>
<feComposite in2="hardAlpha" operator="out"/>
<feColorMatrix type="matrix" values="0 0 0 0 0 0 0 0 0 0 0 0 0 0 0 0 0 0 0.25 0"/>
<feBlend mode="normal" in2="BackgroundImageFix" result="effect1_dropShadow_3379_126883"/>
<feBlend mode="normal" in="SourceGraphic" in2="effect1_dropShadow_3379_126883" result="shape"/>
</filter>
</defs>
</svg>
