<svg xmlns="http://www.w3.org/2000/svg" version="1.1" xmlns:xlink="http://www.w3.org/1999/xlink" width="50" height="50" x="0" y="0" viewBox="0 0 64 64" style="enable-background:new 0 0 512 512" xml:space="preserve"><g><path fill="#C8CDED" d="M36 49a13 13 0 0 1 18-12V4a2 2 0 0 0-2-2H6a2 2 0 0 0-2 2v56a2 2 0 0 0 2 2h42.471v-.027A12.989 12.989 0 0 1 36 49z" opacity="1" data-original="#c8cded"></path><path fill="#E2E7F6" d="M32 44V2H6a2 2 0 0 0-2 2v42h26a2 2 0 0 0 2-2z" opacity="1" data-original="#e2e7f6"></path><path fill="#C0DAFC" d="M16 6h34v52H16z" opacity="1" data-original="#c0dafc"></path><path fill="#C0DAFC" d="M16 6h34v52H16z" opacity="1" data-original="#c0dafc"></path><path fill="#5E87CA" d="M5.949 62h4V2h-4a2 2 0 0 0-2 2v56a2 2 0 0 0 2 2z" opacity="1" data-original="#5e87ca"></path><path fill="#78A0D4" d="M5.949 2a2 2 0 0 0-2 2v56a2 2 0 0 0 2 2h2V2z" opacity="1" data-original="#78a0d4"></path><g fill="#3B5892"><rect width="10" height="8" x="2" y="7.051" rx="1" fill="#3B5892" opacity="1" data-original="#3b5892"></rect><rect width="10" height="8" x="2" y="21.051" rx="1" fill="#3B5892" opacity="1" data-original="#3b5892"></rect><rect width="10" height="8" x="2" y="35.051" rx="1" fill="#3B5892" opacity="1" data-original="#3b5892"></rect><rect width="10" height="8" x="2" y="49.051" rx="1" fill="#3B5892" opacity="1" data-original="#3b5892"></rect></g><path fill="#4C6CB5" d="M7.949 7.051H3a1 1 0 0 0-1 1v6a1 1 0 0 0 1 1h4.949zM7.949 21.051H3a1 1 0 0 0-1 1v6a1 1 0 0 0 1 1h4.949zM7.949 35.051H3a1 1 0 0 0-1 1v6a1 1 0 0 0 1 1h4.949zM7.949 49.051H3a1 1 0 0 0-1 1v6a1 1 0 0 0 1 1h4.949z" opacity="1" data-original="#4c6cb5"></path><path fill="#3B5892" d="M54 28H41a5 5 0 0 0-5 5 5 5 0 0 0 5 5h13z" opacity="1" data-original="#3b5892"></path><circle cx="49" cy="49" r="13" fill="#F0AE42" opacity="1" data-original="#f0ae42"></circle><circle cx="49" cy="49" r="13" fill="#F0AE42" opacity="1" data-original="#f0ae42"></circle><path fill="#F9D266" d="M36 49a12.922 12.922 0 0 0 1.878 6.7 12.98 12.98 0 0 0 15.244-19.022A12.982 12.982 0 0 0 36 49z" opacity="1" data-original="#f9d266"></path><circle cx="49" cy="49" r="9" fill="#FAD85D" opacity="1" data-original="#fad85d"></circle><path fill="#3B5892" d="M50 48v-7.941a8.5 8.5 0 0 0-2 0V49a1 1 0 0 0 1 1h8.941a8.5 8.5 0 0 0 0-2z" opacity="1" data-original="#3b5892"></path><path fill="#FCE797" d="M40 49a8.98 8.98 0 0 0 3.7 7.26A12.993 12.993 0 0 0 55 43.383c0-.381-.025-.757-.057-1.13A8.99 8.99 0 0 0 40 49z" opacity="1" data-original="#fce797"></path><path fill="#4C6CB5" d="M48 49a1 1 0 0 0 1 1h4.175a12.892 12.892 0 0 0 .966-2H50v-7.941a8.5 8.5 0 0 0-2 0z" opacity="1" data-original="#4c6cb5"></path><path fill="#5E87CA" d="M20 10h26v14H20z" opacity="1" data-original="#5e87ca"></path><path fill="#F7FAFD" d="M39 32h4v2h-4zM32 44V6H16v40h14a2 2 0 0 0 2-2z" opacity="1" data-original="#f7fafd"></path><path fill="#78A0D4" d="M20 10h12v14H20z" opacity="1" data-original="#78a0d4"></path><path d="M63 49a14 14 0 0 0-8-12.63V4a3 3 0 0 0-3-3H6a3 3 0 0 0-3 3v2a2 2 0 0 0-2 2v6a2 2 0 0 0 2 2v4a2 2 0 0 0-2 2v6a2 2 0 0 0 2 2v4a2 2 0 0 0-2 2v6a2 2 0 0 0 2 2v4a2 2 0 0 0-2 2v6a2 2 0 0 0 2 2v2a3 3 0 0 0 3 3h44v-.051A14.007 14.007 0 0 0 63 49zM49 35a13.894 13.894 0 0 0-7.174 2H41a4 4 0 0 1 0-8h12v6.59a13.917 13.917 0 0 0-4-.59zm0-8h-8a6 6 0 0 0-1.548 11.79A13.931 13.931 0 0 0 37.527 57H17V7h32zM5 4a1 1 0 0 1 1-1h3v3H5zM3 8h8v6H3zm2 8h4v4H5zm-2 6h8v6H3zm2 8h4v4H5zm-2 6h8v6H3zm2 8h4v4H5zm-2 6h8v6H3zm2 10v-2h4v3H6a1 1 0 0 1-1-1zm6 1v-3a2 2 0 0 0 2-2v-6a2 2 0 0 0-2-2v-4a2 2 0 0 0 2-2v-6a2 2 0 0 0-2-2v-4a2 2 0 0 0 2-2v-6a2 2 0 0 0-2-2v-4a2 2 0 0 0 2-2V8a2 2 0 0 0-2-2V3h41a1 1 0 0 1 1 1v23h-2V6a1 1 0 0 0-1-1H16a1 1 0 0 0-1 1v52a1 1 0 0 0 1 1h23.221a14.065 14.065 0 0 0 2.605 2zm38 0a12 12 0 1 1 12-12 12.013 12.013 0 0 1-12 12z" fill="#000000" opacity="1" data-original="#000000"></path><path d="M49 39a10 10 0 1 0 10 10 10.011 10.011 0 0 0-10-10zm7.931 9H50v-6.931A8.008 8.008 0 0 1 56.931 48zM49 57a8 8 0 0 1-1-15.931V49a1 1 0 0 0 1 1h7.931A8.008 8.008 0 0 1 49 57zM20 25h26a1 1 0 0 0 1-1V10a1 1 0 0 0-1-1H20a1 1 0 0 0-1 1v14a1 1 0 0 0 1 1zm1-14h24v12H21zM39 32h4v2h-4z" fill="#000000" opacity="1" data-original="#000000"></path></g></svg>