<svg width="72" height="86" viewBox="0 0 72 86" fill="none" xmlns="http://www.w3.org/2000/svg">
<g filter="url(#filter0_d_885_6138)">
<path d="M44.9835 19.4785C44.8515 20.0567 44.7194 20.6086 44.5081 21.1605C44.1647 21.9489 43.5044 22.5008 43.0026 23.1578C42.7121 23.5257 42.5008 23.8148 42.5536 24.3142C42.6064 24.866 43.0554 25.1551 43.3724 25.6019C44.1647 26.6531 42.7913 27.7307 43.029 28.9396C43.2931 30.3324 44.5873 31.4362 45.9079 31.8042C45.6702 31.3574 45.8551 30.6741 46.0664 30.2536C46.1985 30.6478 46.2513 31.41 46.6475 31.6465C46.9644 31.3048 47.2286 30.3062 47.836 30.3587C48.0209 30.385 48.4699 30.8318 48.7077 30.9106C49.2095 31.0946 49.6849 31.0946 50.1867 31.1734C50.8471 31.2786 51.3489 31.5151 52.062 31.3837C52.8808 31.226 53.5675 31.0157 54.4127 31.0683C55.7597 31.1734 56.7106 31.1734 57.8727 30.385C58.0576 30.2799 58.2689 29.9908 58.5066 30.0696C58.7179 30.1485 58.7708 30.4376 59.1141 30.4901C59.5631 30.5953 60.1706 30.4113 60.5668 30.201C61.0686 29.9382 61.5969 29.4915 61.5705 28.887C62.0459 28.9396 62.0987 29.4915 62.0195 29.8857C62.8383 29.4915 63.4457 27.9146 62.759 27.205C62.5741 27.0211 62.4421 27.1788 62.4949 26.8897C62.5477 26.5217 63.4193 26.3641 63.6042 25.9961C63.8683 25.4179 63.657 24.3142 63.3929 23.7885C63.0231 23.0264 62.1251 22.5796 61.6233 21.8963C61.0158 21.0816 60.5668 20.1618 60.2498 19.2157C59.9593 18.3484 59.9593 17.3497 59.5895 16.535C59.1669 15.6152 58.5859 14.748 57.6614 14.2223C56.5785 13.5916 55.39 13.5128 54.1486 13.3288C53.6203 13.2499 53.0657 13.1974 52.511 13.1974C50.8735 13.1974 49.0774 13.539 47.7568 14.5903C46.2513 15.7992 45.4061 17.6388 44.9835 19.4785Z" fill="#7E3D27"/>
<path d="M51.5602 14.8531C51.4545 14.8531 51.3753 14.9057 51.2696 14.932L50.398 15.1159C49.3944 15.4313 48.153 16.0095 47.704 17.0607C47.0437 18.5062 47.2021 20.0304 47.2286 21.5547C47.2814 23.1578 46.5418 24.7084 46.9908 26.259C47.4927 28.0198 49.7377 28.8871 51.4281 29.0447C51.5338 29.0447 51.6394 29.0447 51.7451 29.0447V31.6728C51.7451 31.6728 53.2241 32.1984 54.175 31.2786L53.2241 28.8608C54.3599 28.5454 55.3635 27.8358 56.1559 26.916C57.2388 25.6545 57.3709 23.9463 57.2916 22.3431C57.2388 19.242 55.6805 14.0384 51.5602 14.8531Z" fill="#F1CCB9"/>
<path d="M47.4663 16.4299C48.0738 15.5626 49.0247 14.8793 50.2925 14.6165C51.6395 14.3537 51.5338 14.1435 52.9337 14.3011C54.0166 14.4325 54.9674 14.4851 56.605 15.5363C56.8691 15.694 57.3181 16.1934 57.5559 16.4036C57.5559 17.0081 59.7217 19.9778 57.3974 22.2905C57.3446 22.1854 57.9785 20.8713 56.922 19.347C56.6314 18.9528 56.3409 18.5061 55.9711 18.1644C56.2352 18.8477 56.4729 19.4522 55.39 20.0041C55.6278 19.8989 55.5221 19.0317 55.4957 18.8477C54.9674 19.9252 52.1149 20.1618 51.0848 20.1092C51.2697 19.8989 51.5867 19.6624 51.8244 19.4785C50.9528 19.8201 50.0548 19.8464 49.1039 19.8727C49.2624 19.6887 49.4473 19.5047 49.685 19.347C48.1795 19.7413 47.8361 20.7662 47.3871 21.7912C47.4663 21.5809 46.9645 20.8451 46.8853 20.6085C46.357 19.2682 46.5683 17.6651 47.4663 16.4299Z" fill="#7E3D27"/>
<path d="M50.9528 23.4731C50.8735 23.6834 50.7151 23.7622 50.5302 23.8674C50.4509 23.9199 50.3717 23.9988 50.2925 24.0776C50.2132 24.1827 50.1604 24.2878 50.134 24.4193C50.134 24.5507 50.1604 24.6821 50.2396 24.7872C50.3189 24.8923 50.4245 24.9711 50.5302 24.9974C50.7415 25.0763 50.9792 25.0763 51.1641 24.9711C50.9528 24.9711 50.7679 24.8923 50.6094 24.8135C50.4509 24.7083 50.3717 24.5769 50.3717 24.4455C50.3717 24.3141 50.5038 24.1564 50.6358 24.025C50.7151 23.9462 50.7943 23.8674 50.8471 23.7885C50.9264 23.6834 50.9528 23.5783 50.9528 23.4731Z" fill="#D87979"/>
<path d="M52.7749 26.1538C52.7749 26.5743 52.2467 26.8371 51.8505 26.9422C51.0845 27.1525 50.4242 26.9685 50.0808 26.2064L52.7749 26.1538Z" fill="white"/>
<path d="M49.9487 22.527C49.9487 22.8424 49.7374 23.1052 49.4733 23.1052C49.2092 23.1052 48.9979 22.8424 48.9979 22.527C48.9979 22.2117 49.2092 21.9489 49.4733 21.9489C49.7374 21.9489 49.9487 22.2117 49.9487 22.527Z" fill="black"/>
<path d="M54.4395 22.527C54.4395 22.8424 54.2282 23.1052 53.964 23.1052C53.6999 23.1052 53.4886 22.8424 53.4886 22.527C53.4886 22.2117 53.6999 21.9489 53.964 21.9489C54.2282 21.9489 54.4395 22.2117 54.4395 22.527Z" fill="black"/>
<path d="M48.3378 20.8976C48.4171 20.6348 48.4699 20.3983 48.6284 20.2406C48.7604 20.0829 48.9981 19.9778 49.2358 19.8464C49.1038 19.7938 48.9453 19.7938 48.8132 19.8201C48.6812 19.8464 48.5227 19.9252 48.4171 20.0566C48.3114 20.1881 48.2586 20.3195 48.2586 20.4771C48.2586 20.6348 48.285 20.7925 48.3378 20.8976Z" fill="#42240E"/>
<path d="M55.0466 20.8976C55.0994 20.7662 55.1522 20.6348 55.1258 20.4771C55.1258 20.3195 55.073 20.1881 54.9673 20.0566C54.8617 19.9515 54.7296 19.8727 54.5711 19.8201C54.4391 19.7938 54.2806 19.7938 54.1485 19.8464C54.4127 19.9778 54.624 20.0566 54.756 20.2406C54.9145 20.3983 54.9673 20.6348 55.0466 20.8976Z" fill="#42240E"/>
<path d="M60.9634 66.2058C60.937 66.2058 60.937 66.1795 60.9106 66.1795C58.0316 64.4975 57.0808 63.9456 56.394 58.2953C56.3676 58.1639 56.394 58.0062 56.394 57.8222C56.394 57.6908 56.394 57.5331 56.394 57.4017H54.0169C54.0169 57.5069 54.0169 57.612 54.0169 57.7171C54.0169 57.9799 53.9905 58.2953 54.0434 58.6369C54.7829 64.918 56.4997 66.416 59.5107 68.2294C59.8012 67.8352 60.0918 67.441 60.3559 67.0731C60.5408 66.8102 60.8049 66.5212 60.9634 66.2058Z" fill="#F1D3C3"/>
<path d="M60.9633 66.2058C60.8048 66.5212 60.5671 66.8103 60.3822 67.0468C60.1181 67.4147 59.8276 67.8089 59.5371 68.2032C59.7484 68.3346 59.9332 68.4397 60.1445 68.5711C60.7256 68.9127 61.1746 69.3069 61.8878 69.78L62.9971 67.441C62.2311 66.968 61.5444 66.5737 60.9633 66.2058Z" fill="#F2F2F2"/>
<path d="M65.4004 73.4856C65.6382 72.7234 66.14 69.9902 66.4305 68.6499C66.7211 68.755 67.1701 68.8076 67.3021 69.0704C67.4342 69.3595 66.14 74.274 65.4797 76.2188C65.2684 76.7444 64.7137 78.0847 64.0798 78.0059C64.0006 78.0059 63.9478 77.9796 63.8685 77.9533C64.7137 76.7181 65.1099 74.5368 65.4004 73.4856Z" fill="#DFD4CF"/>
<path d="M62.2577 74.2214C62.3105 74.1162 62.337 74.0374 62.3898 73.9323C62.9973 73.2227 63.9745 72.8548 64.6877 73.0124C64.9518 73.065 65.2159 73.1701 65.4536 73.2753C65.4272 73.3541 65.4008 73.4329 65.4008 73.5118C65.1103 74.563 64.7141 76.7443 63.8425 78.0058C63.1822 77.8218 62.5483 77.1122 62.2841 76.6129C61.8351 75.7456 61.8879 75.0098 62.2577 74.2214Z" fill="#F6EAE4"/>
<path d="M62.2311 68.7024C62.0199 68.5185 61.7029 68.3082 61.386 68.1242C61.7029 67.6512 61.9934 67.1519 62.2311 66.7051C63.8423 67.6512 65.744 68.4133 66.2986 68.6236C66.3251 68.6499 66.3779 68.6499 66.4043 68.6761C66.1402 69.8851 65.6912 72.3029 65.4535 73.2753C65.2157 73.1701 64.9516 73.065 64.6875 73.0125C64.2649 72.9336 63.7631 73.0125 63.3141 73.2227C63.5782 72.1452 63.8687 71.2517 63.3405 70.0953C63.1028 69.5434 62.733 69.0966 62.2311 68.7024Z" fill="#B0527B"/>
<path d="M62.2311 68.7024C62.0199 68.5185 61.7029 68.3082 61.386 68.1242C61.7029 67.6512 61.9934 67.1519 62.2311 66.7051C63.8423 67.6512 65.744 68.4133 66.2986 68.6236C66.3251 68.6499 66.3779 68.6499 66.4043 68.6761C66.1402 69.8851 65.6912 72.3029 65.4535 73.2753C65.2157 73.1701 64.9516 73.065 64.6875 73.0125C64.2649 72.9336 63.7631 73.0125 63.3141 73.2227C63.5782 72.1452 63.8687 71.2517 63.3405 70.0953C63.1028 69.5434 62.733 69.0966 62.2311 68.7024Z" fill="#B0527B"/>
<path d="M62.4163 71.8824C62.1257 70.6472 61.4654 69.9639 60.6202 69.2543C60.8843 68.9127 61.1485 68.5185 61.4126 68.1243C61.7295 68.3345 62.0465 68.5448 62.2578 68.7024C62.7332 69.0967 63.103 69.5434 63.3671 70.1216C63.8689 71.2517 63.6048 72.1715 63.3407 73.249C62.9973 73.4067 62.6804 73.6432 62.4163 73.9586C62.6275 73.249 62.6011 72.5657 62.4163 71.8824Z" fill="#99456E"/>
<path d="M63.8421 68.2557C64.2119 68.2294 64.7138 68.4134 64.9779 68.6236C65.242 68.8601 65.3741 69.2544 65.1099 69.5434C64.7138 69.9902 63.7629 69.3858 63.578 68.9915C63.3931 68.7025 63.446 68.282 63.8421 68.2557Z" fill="#F6EAE4"/>
<path d="M62.522 73.538C62.5484 73.5117 62.5484 73.538 62.522 73.538C62.6805 73.3015 62.9446 73.0649 63.1559 72.8547C63.2616 72.7496 63.3936 72.6444 63.4729 72.5656C63.4993 72.5393 63.4993 72.513 63.4729 72.4868C63.4465 72.4605 63.42 72.4605 63.3936 72.4868C63.3144 72.5656 63.2087 72.6707 63.0767 72.7758C62.839 72.9861 62.5748 73.2226 62.4428 73.4591C62.4164 73.4854 62.4428 73.5117 62.4692 73.538C62.4956 73.538 62.522 73.538 62.522 73.538Z" fill="white"/>
<path d="M62.5485 72.9073C62.5749 72.881 62.5749 72.9073 62.5485 72.9073C62.7334 72.6182 63.0504 72.3292 63.5522 72.0401C63.5786 72.0138 63.5786 71.9875 63.5786 71.9612C63.5522 71.9349 63.5258 71.9349 63.4994 71.9349C62.9975 72.2503 62.6542 72.5394 62.4957 72.8285C62.4693 72.8548 62.4957 72.881 62.5221 72.9073H62.5485Z" fill="white"/>
<path d="M62.4956 72.1977C62.8918 71.8035 63.2879 71.4881 63.6313 71.2516C63.6577 71.2253 63.6577 71.199 63.6577 71.1728C63.6313 71.1465 63.6049 71.1465 63.5785 71.1465C63.2351 71.383 62.8389 71.6984 62.4427 72.0926C62.4163 72.1189 62.4163 72.1452 62.4427 72.1714C62.4427 72.1977 62.4692 72.1977 62.4956 72.1977Z" fill="white"/>
<path d="M62.3376 71.5144C62.5225 71.3567 62.7074 71.199 62.8658 71.0413C63.0507 70.8574 63.262 70.6471 63.4997 70.4894C63.5261 70.4631 63.5261 70.4369 63.4997 70.4106C63.4733 70.3843 63.4469 70.3843 63.4205 70.4106C63.1828 70.5945 62.9715 70.7785 62.7866 70.9888C62.6281 71.1464 62.4696 71.3041 62.2848 71.4618C62.2583 71.4881 62.2583 71.5144 62.2848 71.5406C62.2848 71.5144 62.3112 71.5144 62.3376 71.5144Z" fill="white"/>
<path d="M62.1258 71.0413C62.2579 70.726 62.522 70.6471 62.7069 70.4106C62.8654 70.2266 62.9975 70.0164 63.1823 69.9113C63.2088 69.885 63.2088 69.8587 63.1823 69.8324C63.1559 69.8061 63.1295 69.8062 63.1031 69.8062C62.9182 69.9376 62.7597 70.1215 62.6013 70.3055C62.4164 70.5157 62.2315 70.7523 62.0466 70.8311C62.0202 70.8574 62.0202 70.9362 62.0466 70.9625C62.0202 71.0151 62.0994 71.0676 62.1258 71.0413Z" fill="white"/>
<path d="M61.7563 70.4105C61.7827 70.4105 61.7827 70.4105 61.7563 70.4105C61.9148 70.2529 62.0733 70.0689 62.2053 69.8849C62.3638 69.6747 62.5487 69.4382 62.76 69.2542C62.7864 69.2279 62.7864 69.2016 62.76 69.1754C62.7336 69.1491 62.7072 69.1491 62.6807 69.1754C62.4694 69.3593 62.2846 69.5958 62.1261 69.8061C61.994 69.9638 61.862 70.1477 61.7035 70.3054C61.6771 70.3317 61.6771 70.358 61.7035 70.3843C61.7299 70.4105 61.7563 70.4105 61.7563 70.4105Z" fill="white"/>
<path d="M61.1485 69.8061C61.1749 69.8061 61.1749 69.8061 61.1485 69.8061C61.3862 69.5433 61.624 69.2542 61.8353 68.9914C61.9145 68.8863 61.9937 68.7812 62.073 68.6761C62.0994 68.6498 62.0994 68.6235 62.073 68.5972C62.0466 68.5709 62.0201 68.5709 61.9937 68.5972C61.9145 68.7023 61.8353 68.8075 61.756 68.9126C61.5447 69.1754 61.3334 69.4645 61.0957 69.7273C61.0693 69.7536 61.0693 69.7799 61.0957 69.8061C61.1221 69.8061 61.1485 69.8061 61.1485 69.8061Z" fill="white"/>
<path d="M47.2555 70.6998C46.9385 70.6209 46.5952 70.5683 46.2782 70.4895C46.0141 71.6459 45.6971 72.8811 45.3538 74.2739L47.6252 74.9047C47.995 73.433 48.3384 72.0926 48.6289 70.8574C48.1799 70.8049 47.7045 70.7786 47.2555 70.6998Z" fill="#F2F2F2"/>
<path d="M50.7946 59.583C50.8474 59.0311 50.9267 58.5318 50.9795 58.0062V57.9536L48.2062 57.6119L48.6288 57.7171C48.576 58.2164 48.4967 58.742 48.4439 59.2939C47.8628 63.4988 47.2818 66.3897 46.3045 70.4895C46.6215 70.5684 46.9384 70.6209 47.2818 70.6998C47.7044 70.7786 48.1798 70.7786 48.6552 70.8312C49.5796 66.9153 50.1871 63.8668 50.7946 59.6093V59.583Z" fill="#E8C0AE"/>
<path d="M42.2636 77.4015C41.075 77.2438 39.7808 76.9021 38.5923 76.7444C38.4338 76.7182 38.2489 76.6656 38.0904 76.613C38.064 76.8496 38.0376 77.1124 38.0376 77.3226L47.0178 79.0571C47.2291 79.0571 47.3611 78.7155 47.4668 78.3213C45.7236 78.0059 44.086 77.6905 42.2636 77.4015Z" fill="#DFD4CF"/>
<path d="M42.6071 75.0362C42.3958 74.7733 42.1053 74.5894 41.7883 74.4317C41.7619 74.4317 41.7355 74.4317 41.7091 74.4317C41.0488 74.4054 40.3357 74.2477 39.7546 74.5894C39.2792 74.8522 38.6717 75.2727 38.3811 75.7195C38.2227 75.9823 38.1434 76.2976 38.0906 76.613C38.2755 76.6656 38.434 76.7181 38.5924 76.7444C39.781 76.9021 41.0752 77.2437 42.2638 77.4014C42.4751 77.4277 42.6864 77.4803 42.8977 77.5065C43.0825 76.6656 43.1882 75.7457 42.6071 75.0362Z" fill="#F6EAE4"/>
<path d="M45.6708 75.1413C45.9614 74.6945 46.0406 74.1426 46.1991 73.6695C46.384 72.9862 46.4632 72.3292 46.5688 71.6459C46.1463 71.5671 45.7501 71.4882 45.5916 71.4357C45.3011 72.8023 45.3011 74.1163 44.1917 74.3266C43.4258 74.458 42.5542 74.458 41.7618 74.4317C42.0788 74.5631 42.3693 74.7733 42.5806 75.0361C42.7919 75.2989 42.8975 75.5618 42.9504 75.8508C43.8748 75.956 45.2482 75.8246 45.6708 75.1413Z" fill="#99456E"/>
<path d="M47.8366 75.6405C47.863 75.4303 47.9159 75.2463 47.9423 75.0361C48.1272 74.09 48.2064 73.3804 48.5762 72.0138C48.2592 71.9612 47.3348 71.8036 46.5952 71.6459C46.4896 72.2766 46.4104 72.8811 46.2519 73.5118C46.2783 73.906 46.3575 74.3002 46.5424 74.6419C46.7537 74.9572 47.3348 75.5354 47.8366 75.6405Z" fill="#A54C73"/>
<path d="M47.8364 75.6405C47.3346 75.5354 46.7535 74.9572 46.5422 74.6155C46.3573 74.3002 46.2781 73.8797 46.2517 73.4855C46.2253 73.538 46.2253 73.5906 46.1989 73.6694C46.0404 74.1425 45.9612 74.7207 45.6706 75.1412C45.2216 75.7982 43.8482 75.9559 42.9766 75.8507C43.0822 76.3764 43.003 76.9545 42.8973 77.5064C44.4556 77.7692 45.9347 78.032 47.4667 78.2949C47.5987 77.7692 47.6251 77.1122 47.6515 76.8757C47.7044 76.4815 47.7572 76.061 47.8364 75.6405Z" fill="#B0527B"/>
<path d="M46.569 75.3778C46.0936 75.2726 45.8559 75.9034 45.8031 76.245C45.7502 76.5341 45.7767 77.1123 46.0936 77.27C46.7539 77.6116 47.4935 75.5354 46.569 75.3778Z" fill="#F6EAE4"/>
<path d="M42.7388 74.5631C43.2671 74.6682 43.584 75.1413 43.7425 75.6143C43.7425 75.6406 43.8481 75.6669 43.8481 75.6406C43.6897 75.0887 43.2935 74.5894 42.7124 74.4843C42.6332 74.4843 42.7124 74.5631 42.7388 74.5631Z" fill="white"/>
<path d="M43.7691 74.4579C44.1125 74.6945 44.3766 75.0624 44.4822 75.4829C44.4822 75.5092 44.5879 75.5355 44.5879 75.5092C44.4822 75.0624 44.1917 74.6945 43.8219 74.4317C43.7955 74.4054 43.7163 74.4317 43.7691 74.4579Z" fill="white"/>
<path d="M44.4558 74.3265C44.9048 74.4579 45.1689 74.8521 45.4595 75.1938C45.4859 75.22 45.5915 75.22 45.5651 75.1938C45.2482 74.7995 44.9841 74.4316 44.4822 74.2739C44.403 74.2739 44.403 74.3265 44.4558 74.3265Z" fill="white"/>
<path d="M44.9313 74.0112C45.2746 74.0637 45.5652 74.2477 45.8293 74.4579C45.8557 74.4842 45.935 74.4842 45.8821 74.4579C45.5916 74.2214 45.2747 74.0375 44.9049 73.9586C44.8256 73.9323 44.9049 74.0112 44.9313 74.0112Z" fill="white"/>
<path d="M45.2745 73.5118C45.5386 73.5381 45.8291 73.5643 46.0933 73.6958C46.1461 73.722 46.1989 73.6958 46.1461 73.6695C45.8556 73.5381 45.565 73.5118 45.2481 73.4855C45.1688 73.4592 45.2481 73.5118 45.2745 73.5118Z" fill="white"/>
<path d="M45.3273 72.9599C45.5914 73.0388 45.8819 73.065 46.1725 73.1176C46.2517 73.1439 46.1989 73.0913 46.1461 73.065C45.8819 73.0125 45.6178 72.9862 45.3537 72.9073C45.3273 72.9073 45.2745 72.9336 45.3273 72.9599Z" fill="white"/>
<path d="M45.4595 72.0927C45.7501 72.1452 46.0406 72.1978 46.3311 72.2503C46.384 72.2503 46.4368 72.2766 46.3575 72.2503C46.067 72.2241 45.7765 72.1715 45.4595 72.0927C45.4067 72.0927 45.4331 72.0927 45.4595 72.0927Z" fill="white"/>
<path d="M48.6813 49.0707C48.6813 50.595 48.1795 52.6974 47.7041 54.1691C47.0173 56.3767 46.4363 58.558 45.6175 60.6868C45.4062 61.265 45.2477 61.3701 45.7231 61.6066C50.2925 63.893 56.8163 62.8155 60.0122 61.5803C58.5067 57.7696 57.6615 53.5121 57.2389 49.4123C57.2389 49.3335 57.2125 49.0444 57.2125 49.097L48.6813 49.0707Z" fill="#757575"/>
<path d="M49.7643 53.0128C49.6322 54.3268 47.2023 62.0271 47.0174 62.7367C48.3116 63.3148 49.7907 63.2623 51.1641 63.5251C51.1377 61.8168 51.6924 53.039 51.6924 52.9602" fill="#757575"/>
<path d="M49.7642 53.0128C49.6057 53.8275 49.3416 54.6422 49.1303 55.4569L48.3908 57.8748L47.6512 60.2926C47.4135 61.1073 47.1494 61.8957 46.9117 62.7104L46.8852 62.8155L46.9909 62.8681C47.6512 63.1572 48.3643 63.3149 49.0775 63.3937C49.7906 63.4988 50.4773 63.5251 51.164 63.6565L51.3225 63.6828V63.5251C51.3225 62.6579 51.3489 61.7643 51.4018 60.897L51.5074 58.269L51.6395 55.6409L51.7451 53.0128L51.5338 55.6409C51.4546 56.5082 51.4018 57.4017 51.3489 58.269C51.2961 59.1362 51.2169 60.0298 51.1905 60.897C51.1376 61.7906 51.1112 62.6579 51.0848 63.5514L51.2433 63.42C50.5301 63.2886 49.8434 63.236 49.1303 63.1309C48.4436 63.0521 47.7569 62.9207 47.123 62.6316L47.2022 62.763C47.4135 61.9483 47.6776 61.1599 47.9153 60.3452C48.153 59.5304 48.3908 58.7157 48.6021 57.901C48.8398 57.0863 49.0511 56.2716 49.2624 55.4569C49.4208 54.6685 49.6321 53.8538 49.7642 53.0128Z" fill="#474747"/>
<path d="M55.4426 53.0128C55.5746 54.3268 58.0046 62.0271 58.1895 62.7367C56.8952 63.3148 55.4162 63.2623 54.0427 63.5251C54.0691 61.8168 53.5145 53.039 53.5145 52.9602" fill="#757575"/>
<path d="M55.4427 53.0128C55.5484 53.8538 55.7861 54.6685 55.9974 55.4832C56.2087 56.2979 56.4464 57.1126 56.6577 57.9273C56.8954 58.742 57.1067 59.5567 57.3444 60.3714C57.5821 61.1861 57.8199 62.0008 58.0576 62.7893L58.1368 62.6579C57.5029 62.9207 56.8162 63.0521 56.1295 63.1572C55.4427 63.236 54.7296 63.3149 54.0165 63.4463L54.175 63.5777C54.175 62.6841 54.1221 61.8169 54.0693 60.9233C54.0165 60.0298 53.9637 59.1625 53.9108 58.2953C53.858 57.428 53.8052 56.5344 53.7259 55.6672L53.5146 53.0391L53.6203 55.6672L53.7524 58.2953L53.858 60.9233C53.8844 61.7906 53.9372 62.6841 53.9372 63.5514V63.7091L54.0957 63.6828C54.7824 63.5514 55.4956 63.5251 56.1823 63.42C56.8954 63.3149 57.6086 63.1835 58.2689 62.8944L58.3745 62.8418L58.3481 62.7367C58.1104 61.922 57.8727 61.1073 57.6086 60.3189L56.869 57.901L56.1295 55.4832C55.8653 54.6422 55.6012 53.8538 55.4427 53.0128Z" fill="#474747"/>
<path d="M65.3738 42.0011C66.3775 42.4216 67.0378 42.1851 67.434 43.4203C67.7773 44.4978 67.8302 45.7855 67.7773 46.9419C67.7509 48.4399 66.5888 51.4096 64.5286 50.4635C64.5022 50.4635 64.4758 50.4635 64.423 50.4372L65.3738 42.0011Z" fill="#675996"/>
<path d="M58.7441 33.3022C58.6913 33.1708 59.6158 33.1971 60.0119 33.2234C60.8571 33.2759 61.7816 33.4073 62.5739 33.6439C63.7097 33.9855 66.1132 35.9828 65.6378 37.0604C65.268 37.8751 64.8454 37.218 64.5813 36.745C64.2907 36.1668 63.9474 35.4309 63.4984 34.9316C62.7324 33.9855 61.3061 33.7753 60.2497 33.4073L58.7441 33.3022Z" fill="#675996"/>
<path d="M57.8993 52.8551C59.5633 52.8289 61.5178 52.4609 62.6272 51.0418C63.1818 50.3059 63.1818 49.2547 63.261 48.3874C63.3139 47.3887 63.3667 46.4163 63.3667 45.4177C63.3667 42.7108 63.0762 39.925 62.2838 37.2969C61.9668 36.2194 61.2801 34.2484 59.7218 33.3548C58.903 33.3022 58.1106 33.3022 57.3711 33.3022C56.5259 33.3022 55.6015 33.3285 54.8619 33.6439C54.2809 33.9067 53.9111 34.4323 53.4357 34.7214L51.9302 44.603C51.8245 46.7054 51.666 50.779 53.6734 52.3032C53.8583 52.4609 54.0431 52.566 54.228 52.6712C55.4694 52.8551 56.7372 52.8814 57.8993 52.8551Z" fill="#5F548C"/>
<path d="M65.3209 41.7383C65.0832 40.2141 65.2153 38.5321 64.6078 37.0604C64.2644 36.2194 64.0003 35.3521 63.3664 34.6951C62.4156 33.749 61.0686 33.4336 59.7215 33.3285C61.3063 34.222 61.9666 36.1931 62.2835 37.2706C63.0759 39.8987 63.3664 42.6844 63.3664 45.3914C63.3664 46.39 63.34 47.3624 63.2608 48.3611C63.1551 49.2284 63.1551 50.2796 62.6269 51.0154C61.544 52.4609 59.563 52.8025 57.8991 52.8288C56.7105 52.8551 55.4691 52.8025 54.2278 52.6711C55.0994 53.1442 56.103 53.2756 57.1331 53.2756C59.6951 53.2493 61.7817 53.407 63.9211 51.8302C65.2945 50.8315 65.7171 48.9655 65.7699 47.9143C65.902 45.8907 65.6115 43.7882 65.3209 41.7383Z" fill="#7B66B9"/>
<path d="M60.8043 33.6438C60.8043 33.6438 60.8307 33.6701 60.9099 33.6964C60.9627 33.7226 61.0684 33.7489 61.2005 33.8015C61.3061 33.8803 61.4646 33.9329 61.6231 34.038C61.7815 34.1431 61.94 34.2745 62.0985 34.4322C62.257 34.5899 62.4154 34.8002 62.5475 35.0104C62.6267 35.1155 62.706 35.2206 62.7588 35.352C62.838 35.4572 62.8908 35.5886 62.9437 35.72C63.0493 35.9828 63.2078 36.2193 63.287 36.5084C63.3927 36.7975 63.4983 37.0866 63.5776 37.3757C63.604 37.5334 63.6568 37.6648 63.6832 37.8224C63.7096 37.9801 63.736 38.1115 63.7625 38.2692C63.7889 38.4269 63.8153 38.5583 63.8417 38.716C63.8681 38.8474 63.8681 39.0051 63.8945 39.1365C63.9209 39.4256 63.9738 39.6884 63.9738 39.9512C64.0002 40.214 64.0266 40.4505 64.0266 40.687C64.053 41.1338 64.053 41.5018 64.0266 41.7646C64.0266 42.0274 64.0266 42.1851 64.0266 42.1851C64.0266 42.1851 64.0266 42.0274 64.0002 41.7646C64.0002 41.6332 63.9738 41.4755 63.9738 41.2915C63.9473 41.1075 63.9473 40.8973 63.9209 40.687C63.8945 40.4505 63.8681 40.214 63.8417 39.9775C63.8153 39.7147 63.7625 39.4518 63.736 39.189C63.7096 39.0576 63.7096 38.9 63.6832 38.7686C63.6568 38.6371 63.6304 38.4795 63.604 38.3481C63.5776 38.2167 63.5512 38.059 63.4983 37.9276C63.4719 37.7962 63.4191 37.6385 63.3927 37.5071C63.3399 37.218 63.2342 36.9289 63.1286 36.6661C63.0493 36.377 62.9173 36.1405 62.7852 35.8777C62.7324 35.7463 62.6795 35.6149 62.6003 35.5097C62.5475 35.3783 62.4682 35.2732 62.4154 35.1681C62.2834 34.9578 62.1513 34.7476 61.9928 34.5899C61.9136 34.5111 61.8344 34.4322 61.7815 34.3534C61.7023 34.2745 61.6231 34.222 61.5702 34.1694C61.4382 34.038 61.2797 33.9854 61.174 33.9066C61.0684 33.854 60.9627 33.8015 60.9099 33.7752C60.8307 33.6701 60.8043 33.6438 60.8043 33.6438Z" fill="#5F548C"/>
<path d="M56.7632 33.3022C56.2085 32.5137 56.1821 31.226 57.4763 31.1997C58.0838 31.1997 58.7969 31.1997 59.0082 31.9093C59.1931 32.4875 58.7441 32.8028 58.612 33.3547L56.7632 33.3022Z" fill="#7B66B9"/>
<path d="M57.7139 33.092H57.7932C57.8196 32.908 57.9252 32.7503 57.9517 32.5663V32.4349C57.9517 32.3824 57.9517 32.3298 57.9517 32.2773L57.8988 32.1196C57.8724 32.067 57.846 32.0145 57.8196 31.9882L57.6347 31.6202L57.6083 32.0407C57.6083 32.4612 57.5819 32.8817 57.6611 33.2759C57.7139 33.1971 57.7139 33.1445 57.7139 33.092ZM57.846 32.0145L57.6611 32.067C57.6875 32.0933 57.6875 32.1459 57.7139 32.1721L57.7404 32.2773C57.7404 32.3298 57.7404 32.3561 57.7668 32.4087V32.5401C57.7668 32.6189 57.7668 32.724 57.7668 32.8029C57.7668 32.8817 57.7668 32.9868 57.7668 33.0657C57.7668 33.1445 57.7404 33.1971 57.7404 33.2759C57.8196 32.8554 57.846 32.4349 57.846 32.0145Z" fill="#5F548C"/>
<path d="M49.2621 36.1669C49.4734 35.5887 50.0544 35.0368 50.2129 34.5112C50.477 33.6176 49.9488 32.1722 50.0016 31.2261C50.8468 31.3312 51.243 32.0671 51.9297 32.3824C53.3031 32.9869 54.9935 32.3036 56.2085 32.7504C53.937 32.8292 51.4543 36.0092 49.1036 36.6136C49.1564 36.4559 49.2092 36.2983 49.2621 36.1669Z" fill="#BDE8F9"/>
<path d="M50.0016 31.1735C50.5827 31.9619 51.1373 33.2497 51.3486 34.2483H51.4015C51.9297 33.8278 53.1183 33.6701 53.805 33.3548C54.5973 32.9868 55.3633 32.4612 56.2085 32.3561C56.05 31.6202 55.4161 30.9632 55.3105 30.1748L50.0016 31.1735Z" fill="#E3FAFF"/>
<path d="M47.4929 51.1206C47.3872 50.6476 47.0175 50.4373 47.1231 49.8854C47.2288 49.3598 47.5985 49.097 47.7042 48.5977C47.8098 48.2297 47.8098 47.7567 47.8098 47.3625C47.8626 46.4689 47.8098 45.6017 47.9155 44.7081C48.1796 42.4217 48.2324 40.0827 48.8135 37.7963C48.9191 37.4283 49.0248 37.0079 49.1304 36.6136C51.4547 36.0092 53.9639 32.8555 56.2354 32.7504C56.5259 32.8555 56.7636 33.0132 57.0013 33.276C56.0505 33.3811 55.2581 33.7228 54.5186 34.5112C51.2698 37.7963 54.3073 42.5268 58.4012 42.1063C58.454 44.1562 58.4276 46.2587 58.3219 48.2823C58.2691 49.4387 58.3748 50.5687 58.3219 51.6725C58.3219 52.5135 58.6917 53.118 58.6389 54.0115L47.2552 54.3269C47.2552 54.0641 47.0439 52.7763 47.2552 52.2507C47.4401 51.5937 47.7042 51.909 47.4929 51.1206Z" fill="#AB3D26"/>
<path d="M54.4919 34.5111C55.2314 33.7227 56.0238 33.381 56.9747 33.2759C57.1595 33.4861 57.318 33.7752 57.4501 34.1169C57.2652 34.1169 57.0803 34.1169 56.8954 34.1431C54.3863 34.6162 53.3562 37.875 54.8088 39.7672C55.6276 40.8185 57.4501 41.0024 58.3217 41.0287C58.3481 41.3966 58.3481 41.7646 58.3745 42.1325C54.2806 42.5267 51.2432 37.7962 54.4919 34.5111Z" fill="#823629"/>
<path d="M54.8089 39.7411C53.3562 37.8752 54.3863 34.5901 56.8955 34.117C57.0804 34.0907 57.2652 34.0644 57.4501 34.0907C57.4765 34.1696 57.503 34.2484 57.5294 34.3272C58.1104 36.1932 58.2161 38.5322 58.3217 40.5032C58.3217 40.6609 58.3481 40.8186 58.3481 40.9763C57.4501 40.9763 55.6277 40.7923 54.8089 39.7411Z" fill="#BDE8F9"/>
<path d="M59.1668 49.9116C58.2952 49.9116 57.2915 49.8065 56.3935 49.4911C54.6767 48.9655 54.0692 47.4412 53.5409 45.8644C52.5637 42.8158 52.0354 38.9 53.5409 35.9565C54.2277 34.6425 55.8652 33.7489 57.3971 33.9855C58.1895 34.0906 58.9026 34.7476 59.3517 35.4046C59.563 35.6411 59.7743 36.2719 60.0384 36.4033L60.7251 35.9828C60.6987 35.1155 59.9327 34.4848 59.4309 33.9066C58.8498 33.3284 57.9254 32.6451 57.0538 32.5137C55.3106 32.2246 53.99 33.4598 52.7486 34.4322C50.3186 36.2982 50.3451 40.8185 50.8205 43.5517C51.3751 46.6791 52.3788 50.7526 55.9973 51.4096C57.001 51.5936 58.3744 51.6461 59.3517 51.3045L59.1668 49.9116Z" fill="#7B66B9"/>
<path d="M54.7824 46.9157L55.8125 46.0484L55.4163 44.8395C55.4163 44.8395 53.858 45.4965 53.8316 45.4965C53.8052 45.4702 54.7824 46.9157 54.7824 46.9157Z" fill="#F1CCB9"/>
<path d="M54.492 46.1272C54.6241 46.3637 54.8618 46.6266 54.8354 46.9156C54.7825 47.4938 54.1751 47.231 53.8581 47.0733C53.6468 46.9682 53.5412 46.9682 53.3299 47.0733C53.0657 47.1784 53.145 47.2836 52.9865 47.4938C52.8544 47.6515 52.6431 47.5989 52.4847 47.4938C52.3262 47.3887 52.2998 47.2047 52.247 47.0996V47.0733C51.7187 47.2573 51.4018 46.6528 51.5074 46.2849C50.8735 46.1798 50.7415 45.733 50.7943 45.2074C50.3981 45.6016 49.6586 45.1811 50.2396 44.235C50.4773 43.8671 50.8207 43.4991 51.2169 43.2889C52.2206 42.7633 53.277 43.9985 53.7525 44.7343C54.043 45.1811 54.2543 45.6804 54.5712 46.1535L54.492 46.1272Z" fill="#F1CCB9"/>
<path d="M52.2995 47.231C52.2995 47.231 52.2995 47.2047 52.2731 47.1785C52.2731 47.1522 52.2466 47.1259 52.2466 47.0996C52.2466 47.0733 52.2466 47.0208 52.2466 46.9945C52.2466 46.9156 52.2731 46.8368 52.3259 46.7317C52.3787 46.6528 52.4315 46.574 52.4844 46.4951C52.6164 46.3375 52.7749 46.2323 52.8805 46.1535C52.9862 46.0747 53.0654 46.0221 53.0654 46.0221C53.0654 46.0221 53.039 46.1272 52.9334 46.2323C52.8541 46.3637 52.7221 46.4951 52.59 46.6266C52.5636 46.6528 52.5372 46.7054 52.5108 46.7317C52.4844 46.758 52.4579 46.8105 52.4315 46.8368C52.3787 46.9156 52.3523 46.9682 52.3259 47.0208C52.3259 47.047 52.2995 47.0733 52.2995 47.0996C52.2995 47.1259 52.2731 47.1522 52.2995 47.1785C52.2995 47.2047 52.2995 47.231 52.2995 47.231Z" fill="#D8987C"/>
<path d="M51.4805 46.3638C51.4805 46.3638 51.4805 46.2849 51.5334 46.1535C51.5598 46.101 51.5598 46.0221 51.6126 45.9696C51.639 45.9433 51.639 45.8907 51.6654 45.8644C51.6918 45.8382 51.7182 45.7856 51.7447 45.7593C51.7975 45.7068 51.8503 45.6279 51.9295 45.5754C51.9824 45.5228 52.0616 45.4965 52.1144 45.444C52.2201 45.3914 52.2993 45.3651 52.2993 45.3651C52.2993 45.3651 52.2465 45.444 52.1673 45.5228C52.1408 45.5491 52.1144 45.5754 52.1144 45.6016C52.088 45.6279 52.0616 45.6542 52.0352 45.6805C51.9824 45.733 51.9295 45.7856 51.8767 45.8644C51.8503 45.8907 51.8239 45.917 51.7975 45.9433C51.7711 45.9696 51.7447 45.9959 51.7182 46.0221C51.6918 46.0484 51.6654 46.0747 51.639 46.101C51.6126 46.1273 51.6126 46.1535 51.5862 46.1798C51.5598 46.2849 51.4805 46.3638 51.4805 46.3638Z" fill="#D8987C"/>
<path d="M50.7675 45.3126C50.7675 45.3126 50.7675 45.2863 50.7675 45.2337C50.7675 45.2074 50.7675 45.1812 50.7675 45.1549C50.7675 45.1286 50.7675 45.076 50.7939 45.0498C50.8203 44.9972 50.8203 44.9709 50.8467 44.9184C50.8732 44.8658 50.8996 44.8395 50.926 44.787C50.9524 44.7344 50.9788 44.6818 51.0316 44.6555C51.0844 44.6293 51.1109 44.5767 51.1637 44.5241C51.2165 44.4979 51.2429 44.4453 51.2957 44.419C51.3486 44.3927 51.4014 44.3665 51.4278 44.3402C51.507 44.2876 51.6127 44.2613 51.6919 44.2351C51.8504 44.1825 51.9561 44.1825 51.9561 44.1825C51.9561 44.1825 51.8768 44.2613 51.7448 44.3402C51.6919 44.3927 51.6127 44.4453 51.5335 44.4979C51.4542 44.5504 51.375 44.603 51.2957 44.6818C51.2429 44.7081 51.2165 44.7607 51.1901 44.787C51.1637 44.8132 51.1109 44.8658 51.0844 44.8921C51.058 44.9184 51.0052 44.9709 51.0052 44.9972C50.9788 45.0235 50.9524 45.076 50.926 45.1023C50.8996 45.1286 50.8731 45.1549 50.8731 45.2074C50.8467 45.2337 50.8467 45.26 50.8203 45.2863C50.7939 45.2863 50.7675 45.3126 50.7675 45.3126Z" fill="#D8987C"/>
<path d="M51.428 44.3927C51.428 44.3927 51.4016 44.3664 51.3752 44.3401C51.3488 44.3139 51.3488 44.2613 51.3488 44.2087C51.3488 44.1562 51.3752 44.1299 51.4016 44.0773C51.428 44.0511 51.4545 44.0248 51.4545 44.0248C51.4545 44.0248 51.4809 44.0511 51.5073 44.1036C51.5337 44.1299 51.5337 44.1825 51.5337 44.235C51.5337 44.2876 51.5073 44.3139 51.4809 44.3401C51.4809 44.3664 51.428 44.3927 51.428 44.3927Z" fill="#D8987C"/>
<path d="M55.9182 47.4413C54.9938 46.8631 54.3335 45.26 54.2543 44.1825C55.1787 43.9722 56.3937 43.3152 57.2389 42.8947C56.7634 42.4742 56.8955 42.08 57.4766 42.0274C57.0804 40.1089 52.1941 35.4047 55.8918 34.1169C57.8199 33.4599 58.3746 35.2996 59.0877 36.6924C59.7744 38.0853 60.4612 39.4782 61.1743 40.8448C61.4648 41.423 61.8082 42.0012 62.0459 42.6056C62.3893 43.6043 61.8082 43.8671 60.9894 44.3401C60.3027 44.7606 59.5631 45.1286 58.9028 45.6016C58.5859 45.8381 55.9182 47.4413 55.9182 47.4413Z" fill="#BDE8F9"/>
<path d="M17.3511 54.0901L14.3929 53.8273C14.0232 57.9796 15.3702 64.0242 19.2 66.7837C19.8339 66.0215 20.4414 65.1543 20.7583 64.2345C18.1435 62.1846 17.0606 57.4015 17.3511 54.0901Z" fill="#F2B297"/>
<path d="M23.2676 65.3383C22.9771 65.2857 22.7394 65.2594 22.5545 65.1806L22.5016 65.1543C21.8678 64.9703 21.2867 64.6812 20.7584 64.2607C20.4415 65.1806 19.834 66.0216 19.2001 66.81C19.9397 67.3356 20.7584 67.7561 21.7093 68.0189C22.1055 68.1503 22.4752 68.2029 22.8186 68.2554C22.9507 68.2817 23.0827 68.308 23.2412 68.3343L23.8223 65.4434C23.611 65.3908 23.4525 65.3645 23.2676 65.3383Z" fill="#D1D1D1"/>
<path d="M26.9122 71.5404C27.0179 70.6469 26.9387 67.4932 26.9915 65.9426C27.3348 65.9952 27.8367 65.9426 28.048 66.2054C28.2593 66.4945 27.8895 72.25 27.599 74.5627C27.4933 75.1935 27.1764 76.8229 26.4368 76.8754C26.3576 76.8754 26.2783 76.8754 26.1991 76.8754C26.8858 75.2723 26.833 72.7756 26.9122 71.5404Z" fill="#D1D1D1"/>
<path d="M23.6105 73.0384C23.6369 72.907 23.6633 72.8019 23.6897 72.6968C24.218 71.7507 25.1952 71.1725 26.0404 71.1725C26.3309 71.1725 26.6743 71.225 26.9648 71.2776C26.9648 71.3827 26.9648 71.4616 26.9384 71.5404C26.8592 72.7756 26.912 75.2723 26.1989 76.8754C25.4329 76.7966 24.5613 76.1921 24.1651 75.6928C23.4784 74.8255 23.3464 73.9845 23.6105 73.0384Z" fill="#F2F2F2"/>
<path d="M22.3431 66.8888C22.079 66.7311 21.6828 66.5734 21.2866 66.4157C21.5243 65.8113 21.7356 65.2068 21.9205 64.6549C23.9279 65.3645 26.1993 65.785 26.8596 65.9164C26.886 65.9164 26.9389 65.9427 26.9917 65.9427C26.9653 67.3618 27.0181 70.1213 26.9389 71.2777C26.6483 71.2251 26.3314 71.1725 26.0144 71.1725C25.539 71.1725 25.0108 71.3565 24.5354 71.7244C24.5882 70.463 24.6938 69.4117 23.875 68.2554C23.4789 67.6509 22.977 67.2304 22.3431 66.8888Z" fill="#A14848"/>
<path d="M23.2411 70.3842C22.6337 69.0701 21.7356 68.4657 20.6527 67.8612C20.864 67.4144 21.0753 66.9151 21.2866 66.4158C21.6828 66.5735 22.079 66.7311 22.3431 66.8888C22.977 67.2305 23.4789 67.651 23.875 68.2291C24.6938 69.3855 24.5882 70.4367 24.5353 71.6982C24.192 71.961 23.9014 72.2764 23.6637 72.6706C23.7958 71.8822 23.6109 71.12 23.2411 70.3842Z" fill="#7B2A25"/>
<path d="M24.0335 66.0478C24.4296 65.9427 25.0371 66.0215 25.3805 66.2318C25.7238 66.442 25.9616 66.8362 25.7238 67.2305C25.3805 67.8349 24.1919 67.3619 23.875 66.9677C23.6373 66.6523 23.5845 66.1792 24.0335 66.0478Z" fill="#F2F2F2"/>
<path d="M23.743 72.2238L23.7694 72.1975C23.8486 71.9347 24.0863 71.6193 24.2976 71.3303C24.4033 71.1726 24.5089 71.0412 24.5882 70.936C24.6146 70.9098 24.5882 70.8572 24.5618 70.8572C24.5354 70.8309 24.4825 70.8572 24.4825 70.8835C24.4033 70.9886 24.2976 71.12 24.192 71.2777C23.9807 71.5668 23.743 71.9084 23.6373 72.1712C23.6373 72.1975 23.6373 72.2501 23.6902 72.2501C23.7166 72.2238 23.743 72.2238 23.743 72.2238Z" fill="white"/>
<path d="M23.6378 71.5141L23.6642 71.4878C23.7698 71.1725 24.0868 70.7782 24.5622 70.3315C24.5886 70.3052 24.5886 70.2789 24.5622 70.2526C24.5358 70.2263 24.5094 70.2263 24.483 70.2526C23.9812 70.7257 23.6906 71.1199 23.5586 71.4615C23.5586 71.4878 23.5586 71.5404 23.585 71.5404C23.6114 71.5141 23.6114 71.5141 23.6378 71.5141Z" fill="white"/>
<path d="M23.3998 70.7258C23.7695 70.2002 24.1129 69.7534 24.4563 69.438C24.4827 69.4118 24.4827 69.3855 24.4563 69.3592C24.4299 69.3329 24.4034 69.3329 24.377 69.3592C24.0337 69.7008 23.6903 70.1213 23.3205 70.6469C23.2941 70.6732 23.3205 70.7258 23.3469 70.7258C23.3469 70.7521 23.3734 70.7521 23.3998 70.7258Z" fill="white"/>
<path d="M23.0829 69.9899C23.2678 69.7796 23.3998 69.5431 23.5583 69.3329C23.7432 69.0701 23.9017 68.8072 24.1394 68.5707C24.1658 68.5444 24.1658 68.4919 24.1394 68.4919C24.113 68.4656 24.0601 68.4656 24.0601 68.4919C23.8488 68.7284 23.6639 69.0175 23.4791 69.2803C23.347 69.4905 23.1885 69.7008 23.0301 69.911C23.0036 69.9373 23.0036 69.9899 23.0301 69.9899C23.0301 70.0162 23.0565 70.0162 23.0829 69.9899Z" fill="white"/>
<path d="M22.7394 69.5431C22.8186 69.1752 23.0828 69.0175 23.2412 68.7284C23.3733 68.4919 23.4789 68.2291 23.6374 68.0714C23.6638 68.0451 23.6638 67.9925 23.6374 67.9662C23.611 67.94 23.5582 67.94 23.5318 67.9662C23.3469 68.1502 23.2148 68.3867 23.0828 68.6495C22.9243 68.9386 22.7922 69.2014 22.5809 69.3854C22.5545 69.4117 22.5809 69.4905 22.6073 69.5168C22.6337 69.5168 22.713 69.5694 22.7394 69.5431Z" fill="white"/>
<path d="M22.2112 68.9124C22.3697 68.6759 22.4754 68.4656 22.581 68.2554C22.7131 67.9663 22.8716 67.7035 23.0564 67.4407C23.0829 67.4144 23.0564 67.3618 23.03 67.3618C23.0036 67.3356 22.9508 67.3618 22.9508 67.3881C22.7659 67.6509 22.6074 67.94 22.4754 68.2291C22.3697 68.4394 22.2377 68.6759 22.132 68.8598C22.1056 68.8861 22.132 68.9387 22.1584 68.9387C22.1584 68.9387 22.1848 68.9387 22.2112 68.9124Z" fill="white"/>
<path d="M21.392 68.3605C21.6033 68.0188 21.7882 67.6509 21.9731 67.3093C22.0524 67.1779 22.1052 67.0464 22.158 66.915C22.1844 66.8888 22.158 66.8362 22.1316 66.8362C22.1052 66.8099 22.0524 66.8362 22.0524 66.8625C21.9995 66.9939 21.9203 67.1253 21.8411 67.2567C21.6562 67.5983 21.4977 67.9663 21.2864 68.2816C21.26 68.3079 21.2864 68.3605 21.3128 68.3605C21.3392 68.3868 21.3656 68.3868 21.392 68.3605Z" fill="white"/>
<path d="M14.0496 41.9221C14.0496 45.6803 12.8082 54.3529 13.0195 54.4843C14.9741 55.5618 18.1171 54.8523 18.8831 54.6157C20.0452 54.3266 19.9924 53.9061 20.0452 52.8024C20.1245 50.9101 20.1245 49.0179 20.2565 47.1257C20.3622 45.5226 20.2301 43.6829 20.4414 42.1586L14.0496 41.9221Z" fill="#757575"/>
<path d="M18.5922 57.4277C17.6149 57.3226 16.2415 55.8246 16.7169 54.7208C17.3508 53.2228 20.7316 54.8785 21.5768 55.7195C22.2899 56.4554 22.8974 57.6906 21.6296 58.1373C20.8372 58.4264 19.8335 58.1373 19.1204 57.7957L18.5922 57.4277Z" fill="#474747"/>
<path d="M12.9143 68.3606C12.2804 69.99 11.7786 71.304 11.4881 72.0662L14.2614 73.0911C14.5255 72.3816 15.0009 71.1201 15.6084 69.5695C14.9481 68.9388 13.8652 68.4394 12.9143 68.3606Z" fill="#F2F2F2"/>
<path d="M19.6227 50.2532C19.3322 51.0679 19.0416 51.9089 18.7775 52.6973C18.5134 53.4857 18.2493 54.2741 17.9851 55.0363V55.0626C17.3777 56.8234 15.3967 61.9481 13.7856 66.0742C13.4686 66.8626 13.1781 67.6248 12.914 68.3343C13.8648 68.4132 14.9477 68.9125 15.6344 69.5433C15.925 68.8074 16.2419 67.9927 16.5589 67.1254C18.2493 62.7628 20.151 57.8483 20.7848 56.0087C21.0754 55.194 21.3395 54.3793 21.6036 53.5645C21.8677 52.7761 22.1319 51.9614 22.396 51.2256L19.6227 50.2532Z" fill="#F1CCB9"/>
<path d="M11.9368 72.986C11.5142 72.3816 11.118 71.8034 10.7218 71.2778C10.8011 71.3566 10.8539 71.4355 10.9331 71.5143C11.7255 70.1477 11.9368 69.3593 11.9368 69.3593C12.3066 69.333 12.914 69.517 13.4951 69.8061C13.2838 70.358 13.0725 70.6996 12.914 71.1464C12.6235 71.856 12.3858 72.4341 11.9368 72.986Z" fill="#7B2A25"/>
<path d="M10.7218 71.3041C11.118 71.8297 11.5142 72.3816 11.9368 73.0123C12.3594 72.4342 12.6235 71.856 12.914 71.199C13.0989 70.7522 13.2838 70.4105 13.4951 69.8586C14.3667 70.2791 15.1855 70.8836 15.2119 71.2252C15.2119 71.2252 13.2046 75.4039 12.8612 76.4288C12.7027 76.823 12.6499 77.2173 12.333 77.4538C12.2537 76.2974 11.0916 74.3264 10.8539 73.9322C10.2992 73.0649 9.79739 72.1976 9.21632 71.4355C9.37479 71.0413 9.45403 70.5682 9.45403 70.1215C9.8238 70.3843 10.1936 70.7259 10.7218 71.3041Z" fill="#A14848"/>
<path d="M6.46951 68.3869C7.44677 68.492 8.05425 68.8074 8.76738 69.4644C9.00509 69.701 9.21639 69.8849 9.4541 70.0952C9.4541 70.5419 9.37487 71.0413 9.21639 71.4092C8.47685 70.4368 7.60524 69.5958 6.41668 69.1491C5.54508 68.8074 4.93759 68.9388 4.3037 69.2542C4.80553 68.5446 5.70355 68.3081 6.46951 68.3869Z" fill="#F2F2F2"/>
<path d="M13.152 70.6996C13.1784 70.6996 13.1784 70.6996 13.2048 70.6733C13.2312 70.6471 13.2312 70.6208 13.2048 70.5945C12.835 70.2791 12.1219 70.0163 11.6201 70.1214C11.5936 70.1214 11.5672 70.174 11.5672 70.2003C11.5672 70.2266 11.6201 70.2528 11.6465 70.2528C12.0955 70.1477 12.7822 70.4105 13.0991 70.6996C13.1256 70.6996 13.152 70.6996 13.152 70.6996Z" fill="white"/>
<path d="M12.8352 71.2253C12.8616 71.2253 12.888 71.2253 12.888 71.199C12.9144 71.1727 12.888 71.1201 12.8616 71.1201C12.7823 71.0939 12.7031 71.0413 12.6239 70.9887C12.2541 70.7785 11.8579 70.5682 11.4617 70.6471C11.4353 70.6471 11.4089 70.6734 11.4089 70.7259C11.4089 70.7522 11.4353 70.7785 11.4881 70.7785C11.8579 70.7259 12.2277 70.9099 12.571 71.1201C12.6503 71.1727 12.7295 71.199 12.8088 71.2515C12.8352 71.2253 12.8352 71.2253 12.8352 71.2253Z" fill="white"/>
<path d="M12.7028 71.7246C12.7292 71.7246 12.7557 71.7246 12.7557 71.6983C12.7821 71.672 12.7557 71.6195 12.7293 71.6195C12.4123 71.4355 11.5407 71.1202 11.1709 71.0939C11.1445 71.0939 11.1181 71.1201 11.0917 71.1464C11.0917 71.1727 11.1181 71.199 11.1445 71.2253C11.5143 71.2516 12.3595 71.5669 12.65 71.7509C12.6764 71.7246 12.7028 71.7246 12.7028 71.7246Z" fill="white"/>
<path d="M12.4122 72.2764C12.4387 72.2764 12.4387 72.2764 12.4651 72.2501C12.4915 72.2239 12.4915 72.1713 12.4387 72.1713C12.1745 71.9873 11.3029 71.6457 10.9596 71.5143C10.9332 71.5143 10.8803 71.5143 10.8803 71.5406C10.8803 71.5668 10.8803 71.6194 10.9067 71.6194C11.1973 71.7245 12.0953 72.0925 12.3594 72.2501C12.3858 72.2764 12.4122 72.2764 12.4122 72.2764Z" fill="white"/>
<path d="M7.07677 70.3054C8.71433 71.3567 10.0085 73.5642 10.8009 75.2988C11.0386 75.9032 11.7782 76.9282 11.7518 77.5589C11.4876 77.5589 11.1707 77.5064 10.9858 77.4801C10.0085 77.1121 9.0841 75.9821 8.2125 75.4039C6.99753 74.5892 5.94104 73.5905 5.04302 72.4342C4.48836 71.7246 3.90729 70.9624 4.01294 70.0426C4.88455 69.4907 5.99386 69.6221 7.07677 70.3054Z" fill="#A2A2A2"/>
<path d="M4.33003 69.2279C4.96393 68.8862 5.57141 68.7811 6.44302 69.1227C8.556 69.9374 9.6125 71.9085 10.8803 73.8796C11.1444 74.2738 12.2801 76.2448 12.3594 77.4012C12.3066 77.4275 12.2537 77.48 12.1745 77.5063C12.0688 77.5326 11.9368 77.5589 11.7783 77.5589C11.8047 76.9018 11.0652 75.9032 10.8275 75.2987C10.0351 73.5905 8.74089 71.3566 7.10332 70.3054C5.99401 69.6221 4.9111 69.4907 4.03949 70.0163C4.0659 69.8849 4.09232 69.7272 4.14514 69.5958C4.19797 69.4644 4.25079 69.333 4.33003 69.2279Z" fill="#D1D1D1"/>
<mask id="mask0_885_6138" style="mask-type:luminance" maskUnits="userSpaceOnUse" x="4" y="69" width="8" height="9">
<path d="M7.07677 70.3054C8.71433 71.3567 10.0085 73.5642 10.8009 75.2988C11.0386 75.9032 11.7782 76.9282 11.7518 77.5589C11.4876 77.5589 11.1707 77.5064 10.9858 77.4801C10.0085 77.1121 9.0841 75.9821 8.2125 75.4039C6.99753 74.5892 5.94104 73.5905 5.04302 72.4342C4.48836 71.7246 3.90729 70.9624 4.01294 70.0426C4.88455 69.4907 5.99386 69.6221 7.07677 70.3054Z" fill="white"/>
</mask>
<g mask="url(#mask0_885_6138)">
<path d="M11.6727 76.5602C11.1444 76.7179 10.5898 76.8493 10.0351 76.9544C9.90305 76.9807 9.87664 76.8756 10.0087 76.8493C10.5369 76.7442 11.0652 76.639 11.567 76.4814C11.6991 76.4551 11.8576 76.5076 11.6727 76.5602Z" fill="#7E7E7E"/>
<path d="M11.3027 76.0346C10.6952 76.1134 10.1141 76.35 9.55946 76.5602C9.48023 76.5865 9.26893 76.5602 9.4274 76.4814C10.0349 76.2448 10.6688 76.0083 11.3027 75.9295C11.4083 75.9032 11.4347 76.0083 11.3027 76.0346Z" fill="#7E7E7E"/>
<path d="M10.8801 75.3513C10.1669 75.4827 9.55945 75.8507 8.87273 76.0346C8.81991 76.0609 8.5822 75.9821 8.71426 75.9558C9.4274 75.7718 10.0613 75.3776 10.7744 75.2725C10.8272 75.2462 11.0385 75.3251 10.8801 75.3513Z" fill="#7E7E7E"/>
<path d="M10.4312 74.668C9.69167 74.9308 8.84648 75.0622 8.15975 75.4301C8.10693 75.4564 7.86922 75.4564 7.97487 75.4038C8.71441 75.0096 9.55961 74.852 10.352 74.5891C10.4312 74.5629 10.5897 74.6154 10.4312 74.668Z" fill="#7E7E7E"/>
<path d="M10.0878 74.011C9.11051 74.2213 8.13325 74.5103 7.18241 74.8257C7.10317 74.852 6.89187 74.7994 7.05035 74.7469C8.0276 74.4315 9.00486 74.1424 10.0085 73.9322C10.1142 73.9059 10.2462 73.9847 10.0878 74.011Z" fill="#7E7E7E"/>
<path d="M9.82382 73.4065C8.76733 73.7219 7.68442 74.0109 6.62793 74.3C6.49587 74.3526 6.44304 74.2475 6.60152 74.1949C7.65801 73.8795 8.74091 73.5905 9.79741 73.3014C9.92947 73.2751 9.95588 73.3539 9.82382 73.4065Z" fill="#7E7E7E"/>
<path d="M9.53338 72.6444C8.39765 73.0386 7.26192 73.4065 6.09978 73.7482C6.02054 73.7745 5.80924 73.7219 5.96772 73.6693C7.12986 73.3277 8.26559 72.9598 9.40132 72.5656C9.48056 72.5656 9.69185 72.5918 9.53338 72.6444Z" fill="#7E7E7E"/>
<path d="M8.95224 72.1188C7.7901 72.5655 6.57513 72.8021 5.38657 73.17C5.2281 73.2225 5.30734 73.0911 5.41299 73.0649C6.57513 72.7232 7.79009 72.4604 8.92583 72.0399C9.05789 71.9874 9.0843 72.0662 8.95224 72.1188Z" fill="#7E7E7E"/>
<path d="M8.23915 71.3303C7.20907 71.7245 6.12616 71.8822 5.06967 72.1976C5.01685 72.2238 4.77914 72.1713 4.88479 72.1187C5.94128 71.8034 7.02418 71.6194 8.05426 71.2515C8.1335 71.2515 8.37121 71.304 8.23915 71.3303Z" fill="#7E7E7E"/>
<path d="M7.44687 70.6734C6.52244 71.0676 5.51877 71.4355 4.5151 71.5932C4.46228 71.5932 4.22457 71.5143 4.35663 71.4881C5.3603 71.3304 6.31114 70.9624 7.23557 70.5945C7.2884 70.5682 7.52611 70.6208 7.44687 70.6734Z" fill="#7E7E7E"/>
<path d="M6.39031 70.0689C5.65077 70.2791 4.91122 70.5682 4.19809 70.8573C4.14527 70.8836 3.90756 70.831 4.0132 70.8047C4.75275 70.4894 5.49229 70.2265 6.25825 69.99C6.33749 69.9637 6.54879 70.0163 6.39031 70.0689Z" fill="#7E7E7E"/>
</g>
<path d="M16.9019 43.4464C16.9019 44.4188 17.1132 45.4174 17.1924 46.3898C17.2716 47.5462 17.1132 48.3346 18.381 48.6763C17.7999 50.7262 17.2188 52.8023 16.6642 54.826C19.0677 54.9311 20.9429 55.5093 22.3164 57.5066C23.1088 54.2478 24.2445 51.2255 24.9048 47.9141C25.0897 46.9154 25.433 45.9168 25.3274 44.8655C25.301 44.3662 25.0633 43.8669 24.9576 43.3675C24.8784 42.9996 24.9312 42.5528 24.8256 42.2112L16.9019 43.4464Z" fill="#757575"/>
<path d="M15.8191 47.441C16.004 47.5987 16.1889 47.7301 16.4002 47.8615C16.6114 47.9929 16.8228 48.0981 17.034 48.2032C17.4566 48.4134 17.9057 48.5711 18.3283 48.8076L18.2754 48.6762C17.9585 49.7012 17.6679 50.7261 17.4038 51.7511C17.2718 52.2767 17.1397 52.776 17.0076 53.3016C16.9548 53.5645 16.8756 53.8273 16.8227 54.0901C16.7699 54.3529 16.7171 54.6157 16.6643 54.8785C16.8227 54.3792 17.0076 53.8535 17.1661 53.3542C17.3246 52.8549 17.4831 52.3293 17.6415 51.8299C17.9585 50.805 18.249 49.78 18.5131 48.7551L18.5396 48.65L18.4603 48.5974C18.0113 48.3871 17.5623 48.2295 17.1133 48.0718C16.6643 47.8878 16.2153 47.7038 15.8191 47.441Z" fill="#474747"/>
<path d="M15.4492 48.4135C15.6341 48.466 15.7926 48.5449 15.951 48.6237C16.1095 48.7025 16.268 48.7814 16.4793 48.8339C16.8491 48.9128 17.2188 48.9128 17.5094 49.0705L17.4829 48.8602C17.2452 49.0442 16.9019 49.0442 16.5585 49.0705C16.3736 49.0705 16.2152 49.0705 16.0303 49.123C15.8454 49.1493 15.6605 49.2282 15.502 49.3333L15.3435 49.4384L15.502 49.5172C15.6605 49.5961 15.8454 49.6224 16.0039 49.6486C16.1623 49.6749 16.3472 49.6749 16.5057 49.6749C16.8226 49.6749 17.166 49.6224 17.4829 49.5435C17.166 49.5698 16.8226 49.5435 16.5057 49.5172C16.1887 49.491 15.8718 49.4384 15.6077 49.2807V49.4647C15.8718 49.307 16.2152 49.2807 16.5585 49.2807C16.7434 49.2807 16.9019 49.2807 17.0868 49.2282C17.2716 49.2019 17.4565 49.123 17.615 48.9916L17.7471 48.8602L17.5886 48.7814C17.4037 48.7025 17.2188 48.6763 17.0339 48.65L16.5057 48.5974C16.3472 48.5711 16.1623 48.5186 16.0039 48.466C15.7926 48.466 15.6341 48.4135 15.4492 48.4135Z" fill="#474747"/>
<path d="M11.6192 29.8329C11.6192 29.8329 11.672 29.8329 11.7777 29.8329C11.8305 29.8329 11.8833 29.8592 11.9626 29.8592C12.0418 29.8592 12.121 29.9117 12.2003 29.938C12.3587 29.9906 12.57 30.0957 12.7549 30.2271C12.9398 30.3585 13.1247 30.4899 13.3096 30.6476C13.4681 30.8053 13.6529 30.9892 13.785 31.1469C13.9171 31.3046 14.0491 31.4886 14.1548 31.62C14.3397 31.9091 14.4453 32.1456 14.4453 32.1456C14.4453 32.1456 14.3925 32.093 14.3397 32.0142C14.2868 31.9353 14.1812 31.8302 14.0491 31.6988C13.9435 31.5674 13.785 31.436 13.6529 31.2783C13.5737 31.1995 13.4945 31.1206 13.4152 31.0418C13.336 30.963 13.2568 30.8841 13.1775 30.8053C13.0983 30.7264 13.019 30.6476 12.9134 30.5687C12.8342 30.4899 12.7549 30.4111 12.6493 30.3585C12.4908 30.2271 12.3059 30.122 12.1739 30.0169C12.0946 29.9906 12.0418 29.938 11.9626 29.9117C11.9097 29.8854 11.8569 29.8592 11.8041 29.8329C11.672 29.8592 11.6192 29.8329 11.6192 29.8329Z" fill="#AB3D26"/>
<path d="M32.5642 32.566C33.7263 33.0391 34.4923 32.7763 34.9413 34.1954C35.3639 35.4569 35.3903 36.9286 35.3639 38.269C35.3375 40.0035 33.9904 43.4726 31.5869 42.3425C31.5605 42.3425 31.5077 42.3425 31.4813 42.3162L32.5642 32.566Z" fill="#8CAB36"/>
<path d="M24.984 22.5005C25.433 22.6056 25.9085 22.3691 26.3575 22.4217C27.3347 22.5005 28.4176 22.6319 29.3421 22.8947C30.6363 23.3152 33.436 25.6016 32.8813 26.8631C32.4587 27.8092 31.9569 27.0471 31.6399 26.4952C31.2966 25.8382 30.9004 24.9709 30.3721 24.3927C29.4741 23.2889 27.8366 23.0524 26.5952 22.6056L24.984 22.5005Z" fill="#8CAB36"/>
<path d="M23.9277 45.1808C25.8558 45.1545 28.1272 44.734 29.395 43.0783C30.0289 42.2374 30.0289 41.0022 30.1346 40.0035C30.2138 38.8471 30.2402 37.7171 30.2402 36.5607C30.2402 33.407 29.8969 30.1745 28.9724 27.1522C28.6027 25.8907 27.8103 23.6306 25.9878 22.5793C25.037 22.5005 24.1126 22.5268 23.2674 22.5268C22.2901 22.5268 21.2072 22.5531 20.362 22.9473C19.7017 23.2364 19.2527 23.8671 18.7245 24.2088L16.9812 35.6672C16.8756 38.1113 16.6907 42.8155 18.9886 44.6026C19.1999 44.7603 19.4112 44.918 19.6489 45.0494C21.1016 45.1545 22.5542 45.1808 23.9277 45.1808Z" fill="#8CAB36"/>
<path d="M32.538 32.277C32.2738 30.4899 32.4323 28.5714 31.7192 26.8631C31.2966 25.8908 31.006 24.8658 30.2665 24.1299C29.1572 23.0262 27.5989 22.6582 26.0141 22.5531C27.8366 23.6043 28.6025 25.8908 28.9987 27.126C29.9231 30.1745 30.2665 33.3808 30.2665 36.5345C30.2665 37.6908 30.2401 38.8472 30.1609 39.9773C30.0552 40.9759 30.0552 42.2111 29.4213 43.0521C28.1535 44.7341 25.8821 45.1283 23.954 45.1546C22.5805 45.1808 21.1278 45.1283 19.6752 44.9706C20.7052 45.5225 21.8674 45.6802 23.0559 45.6802C26.0405 45.6539 28.4705 45.8116 30.9532 43.9982C32.5644 42.8156 33.0398 40.6606 33.0926 39.4516C33.1983 37.0864 32.8813 34.6423 32.538 32.277Z" fill="#C2D160"/>
<path d="M27.2817 22.8948C27.2817 22.8948 27.3345 22.9211 27.3873 22.9473C27.4666 22.9736 27.5722 23.0262 27.7043 23.0787C27.8363 23.1576 28.0212 23.2364 28.1797 23.3678C28.3646 23.473 28.5495 23.6306 28.7344 23.8409C28.9192 24.0249 29.1041 24.2614 29.2626 24.4979C29.3418 24.6293 29.4211 24.7607 29.5003 24.8921C29.5795 25.0235 29.6588 25.1812 29.7116 25.3126C29.8437 25.6017 30.0021 25.8908 30.1078 26.2324C30.2134 26.5478 30.3455 26.8895 30.4247 27.2311C30.4776 27.3888 30.504 27.5728 30.5568 27.7304C30.6096 27.8881 30.636 28.0721 30.6625 28.2298C30.6889 28.3875 30.7153 28.5714 30.7681 28.7291C30.7945 28.8868 30.8209 29.0708 30.8473 29.2284C30.9002 29.5438 30.9266 29.8592 30.953 30.1746C30.9794 30.4636 31.0058 30.7527 31.0058 31.0155C31.0322 31.5412 31.0322 31.9616 31.0322 32.277C31.0322 32.5924 31.0322 32.7501 31.0322 32.7501C31.0322 32.7501 31.0322 32.5661 31.0058 32.277C31.0058 32.1193 30.9794 31.9354 30.9794 31.7251C30.953 31.5149 30.9266 31.2783 30.9266 31.0155C30.9002 30.7527 30.8737 30.4636 30.8473 30.1746C30.8209 29.8855 30.7681 29.5701 30.7153 29.2547C30.6889 29.097 30.6625 28.9394 30.636 28.7554C30.6096 28.5977 30.5568 28.4137 30.5304 28.2561C30.504 28.0984 30.4776 27.9144 30.4247 27.7567C30.3719 27.599 30.3455 27.4151 30.2927 27.2574C30.2134 26.9157 30.1078 26.6004 29.9757 26.285C29.8701 25.9696 29.7116 25.6543 29.5795 25.3652C29.5003 25.2075 29.4475 25.0761 29.3682 24.9447C29.289 24.8133 29.2362 24.6819 29.1569 24.5505C28.9985 24.2877 28.84 24.0774 28.6815 23.8672C28.6023 23.762 28.4966 23.6832 28.4174 23.6044C28.3382 23.5255 28.2589 23.4467 28.1533 23.3941C27.9948 23.2627 27.8363 23.1576 27.7043 23.0787C27.5722 22.9999 27.4666 22.9473 27.3873 22.9211C27.3345 22.9211 27.2817 22.8948 27.2817 22.8948Z" fill="#8CAB36"/>
<path d="M22.5802 22.4743C21.9463 21.5544 21.9198 20.0564 23.3989 20.0302C24.1121 20.0302 24.9308 20.0302 25.195 20.8449C25.4063 21.5019 24.9044 21.8961 24.746 22.5005L22.5802 22.4743Z" fill="#C2D160"/>
<path d="M23.6102 20.5295L23.8479 20.95C23.8743 21.0026 23.9007 21.0552 23.9271 21.1077L23.9799 21.2654C23.9799 21.318 23.9799 21.3705 24.0063 21.4231V21.5808C23.9799 21.791 23.8215 22.1852 23.8215 22.1852C23.8215 22.1852 23.7422 22.3429 23.7158 22.4218C23.6366 21.9487 23.6366 21.4494 23.6366 20.9763L23.6102 20.5295Z" fill="#8CAB36"/>
<path d="M12.2004 30.2008C11.3288 31.2258 11.0647 32.8289 10.5364 33.9852C10.0082 35.1416 9.13656 36.5608 9.47992 37.7697C9.69122 38.4004 10.2723 38.9786 11.0647 38.6369C11.8042 38.3478 11.857 37.5594 12.0683 36.9812C12.5438 35.7198 13.3361 34.6423 13.8644 33.3808C14.1285 32.8026 14.3398 32.1719 14.6567 31.62L12.2004 30.2008Z" fill="#F2B297"/>
<path d="M14.6834 24.7081C13.9174 25.3126 13.3628 26.4952 12.9137 27.4413C12.3591 28.5977 11.6195 29.5175 10.9064 30.5687C12.095 30.963 13.7061 32.9603 13.7061 32.9603C13.7061 32.9603 16.0304 31.0681 16.2417 30.4899L14.6834 24.7081Z" fill="#823629"/>
<path d="M18.5923 23.5255C18.0376 23.6043 17.5622 23.7358 17.034 23.9197C15.8982 24.3402 15.053 24.7344 14.4191 25.8382C13.8645 26.8106 14.0758 27.783 14.0494 29.0445C14.0229 31.0155 14.0229 32.6712 13.9437 34.616C13.9173 36.8499 14.2607 39.1626 13.9173 41.3964C13.8909 41.7118 13.8116 42.0009 13.7588 42.3163C13.7588 42.4739 13.7852 42.6579 13.7588 42.8156C13.6796 43.0784 13.4419 43.2361 13.4155 43.4989C13.389 43.6829 13.6003 43.8143 13.5739 43.9719C13.5475 44.2085 13.3362 44.2348 13.3098 44.445C13.2306 44.7867 13.3626 45.286 13.2834 45.6539C14.0758 46.0481 19.1998 46.1795 22.4485 46.0481C22.5805 46.0481 25.0369 46.1007 25.5915 45.9167C25.8028 45.8379 25.301 44.9443 25.4067 44.2873C25.7236 42.7368 24.9576 41.2125 24.9312 39.6356C24.8256 36.0614 24.8256 32.461 24.4558 28.8868C24.2709 27.126 24.4294 24.4979 22.3957 23.6569C21.1807 23.1839 19.9129 23.3415 18.5923 23.5255Z" fill="#AB3D26"/>
<path d="M14.4193 44.1296C14.4193 44.1296 14.525 44.1559 14.7099 44.2085C14.8155 44.2348 14.9212 44.261 15.0532 44.2873C15.106 44.3136 15.1853 44.3136 15.2645 44.3399C15.3438 44.3399 15.423 44.3662 15.5022 44.3924C15.6607 44.4187 15.8456 44.445 16.0305 44.4976C16.2154 44.5238 16.4003 44.5501 16.6116 44.5764C16.8228 44.6027 17.0077 44.629 17.2454 44.629C17.4567 44.6553 17.668 44.6553 17.8793 44.6815C18.3019 44.6815 18.751 44.7078 19.1471 44.7078C19.3584 44.7078 19.5433 44.7078 19.7282 44.7078C19.9131 44.7078 20.098 44.7078 20.2565 44.7078C20.5734 44.7078 20.8639 44.7078 21.0488 44.6815C21.2337 44.6815 21.3394 44.6815 21.3394 44.6815C21.3394 44.6815 21.2337 44.7078 21.0488 44.7341C20.8639 44.7604 20.5998 44.8129 20.2565 44.8392C19.9395 44.8655 19.5433 44.9181 19.1471 44.9181C18.9358 44.9181 18.7245 44.9443 18.5132 44.9181C18.3019 44.9181 18.0642 44.9181 17.8529 44.9181C17.6416 44.8918 17.4039 44.8918 17.1926 44.8655C16.9813 44.8655 16.77 44.8129 16.5587 44.7867C16.3474 44.7604 16.1625 44.7341 15.9777 44.6815C15.7928 44.629 15.6079 44.6027 15.4494 44.5501C15.3702 44.5239 15.2909 44.4976 15.2117 44.4976C15.1325 44.4713 15.0796 44.445 15.0004 44.4187C14.8683 44.3662 14.7627 44.3399 14.6835 44.2873C14.525 44.1822 14.4193 44.1296 14.4193 44.1296Z" fill="#823629"/>
<path d="M16.268 43.8143C16.268 43.8143 16.3737 43.8143 16.5585 43.788C16.7434 43.788 17.0075 43.7618 17.3509 43.7355C17.5094 43.7355 17.6943 43.7092 17.8792 43.7092C18.064 43.7092 18.2489 43.6829 18.4602 43.6566C18.8564 43.6303 19.279 43.5778 19.728 43.5515C20.1506 43.4989 20.5732 43.4464 20.9958 43.3938C21.2071 43.3675 21.392 43.3675 21.5769 43.315C21.7618 43.2887 21.9202 43.2624 22.1051 43.2361C22.4221 43.1836 22.6862 43.1573 22.8711 43.131C23.056 43.1047 23.1616 43.1047 23.1616 43.1047C23.1616 43.1047 23.056 43.131 22.8711 43.1836C22.6862 43.2361 22.4221 43.315 22.1051 43.3938C21.9467 43.4201 21.7618 43.4727 21.6033 43.5252C21.4184 43.5778 21.2335 43.6041 21.0222 43.6304C20.626 43.6829 20.177 43.7618 19.7544 43.8143C19.3318 43.8406 18.8828 43.8669 18.4866 43.8932C18.2753 43.8932 18.0905 43.9194 17.9056 43.9194C17.7207 43.9194 17.5358 43.9194 17.3773 43.9194C17.0604 43.9194 16.7698 43.8932 16.585 43.8932C16.3737 43.8143 16.268 43.8143 16.268 43.8143Z" fill="#823629"/>
<path d="M23.5048 36.0877C23.5312 36.4031 23.6633 36.8499 23.4784 37.1389C23.1086 37.7697 22.5804 37.1652 22.2899 36.8236C22.105 36.6133 21.9729 36.5608 21.6824 36.5608C21.339 36.5608 21.3654 36.7185 21.0749 36.8761C20.8372 36.9813 20.6523 36.8499 20.4938 36.6133C20.3882 36.4294 20.441 36.1928 20.441 36.0614V36.0352C19.7543 35.9563 19.7015 35.1416 20.0184 34.7737C19.3581 34.3532 19.4373 33.7487 19.7807 33.1968C19.1468 33.4596 18.5129 32.5924 19.6486 31.8039C20.0976 31.4886 20.6787 31.2521 21.207 31.2258C22.6068 31.1207 23.1615 33.0654 23.3464 34.1429C23.452 34.8 23.4256 35.4833 23.5312 36.1403L23.5048 36.0877Z" fill="#CC9966"/>
<path d="M20.4676 36.2455C20.4676 36.2455 20.4676 36.2192 20.4676 36.1666C20.4676 36.1403 20.4676 36.1141 20.494 36.0615C20.494 36.0089 20.5204 35.9827 20.5468 35.9301C20.5997 35.8512 20.6789 35.7461 20.7581 35.6936C20.8374 35.6147 20.9694 35.5622 21.0751 35.5096C21.2864 35.4045 21.5241 35.3519 21.709 35.3256C21.8939 35.2994 21.9995 35.2731 21.9995 35.2731C21.9995 35.2731 21.9203 35.3519 21.7618 35.457C21.6033 35.5622 21.392 35.641 21.1807 35.7461C21.1279 35.7724 21.0751 35.7987 21.0223 35.825C20.9694 35.8512 20.9166 35.8775 20.8902 35.9038C20.811 35.9564 20.7317 36.0089 20.6525 36.0615C20.6261 36.0878 20.5997 36.1141 20.5732 36.1403C20.5468 36.1666 20.5204 36.1929 20.5204 36.2192C20.4676 36.2192 20.4676 36.2455 20.4676 36.2455Z" fill="#9E7047"/>
<path d="M19.9658 34.8525C19.9658 34.8525 20.0186 34.7474 20.1243 34.6423C20.1771 34.5897 20.2299 34.5109 20.3092 34.4583C20.362 34.432 20.3884 34.4058 20.4412 34.3795C20.4941 34.3532 20.5205 34.3269 20.5733 34.3006C20.679 34.2743 20.7582 34.2218 20.8638 34.1955C20.9431 34.1692 21.0487 34.1692 21.128 34.1429C21.2864 34.1429 21.3921 34.1429 21.3921 34.1429C21.3921 34.1429 21.3129 34.1955 21.1544 34.2743C21.128 34.3006 21.0751 34.3006 21.0487 34.3269C20.9959 34.3269 20.9695 34.3795 20.9431 34.3795C20.8638 34.432 20.7846 34.4583 20.679 34.5109C20.6261 34.5372 20.5997 34.5634 20.5469 34.5897C20.4941 34.616 20.4677 34.6423 20.4148 34.6423C20.3884 34.6686 20.3356 34.6686 20.2828 34.6948C20.2564 34.7211 20.2035 34.7474 20.1771 34.7474C20.0715 34.8 19.9658 34.8525 19.9658 34.8525Z" fill="#9E7047"/>
<path d="M19.7018 33.3283C19.7018 33.3283 19.7282 33.302 19.7546 33.2495C19.781 33.2232 19.781 33.1969 19.8074 33.1706C19.8338 33.1443 19.8603 33.0918 19.8867 33.0655C19.9131 33.0392 19.9659 32.9867 20.0187 32.9341C20.0716 32.8815 20.1244 32.8553 20.1772 32.829C20.23 32.8027 20.2829 32.7501 20.3621 32.7238C20.4149 32.6976 20.4942 32.6713 20.547 32.645C20.6262 32.6187 20.679 32.6187 20.7583 32.5924C20.8375 32.5924 20.8903 32.5924 20.9432 32.5662C21.0752 32.5662 21.1809 32.5662 21.2865 32.5662C21.4978 32.5924 21.6299 32.6187 21.6299 32.6187C21.6299 32.6187 21.4978 32.645 21.3129 32.6976C21.2073 32.7238 21.1016 32.7238 20.996 32.7501C20.8639 32.7764 20.7583 32.8027 20.6262 32.829C20.5734 32.829 20.5206 32.8552 20.4413 32.8815C20.3885 32.9078 20.3357 32.9341 20.2829 32.9604C20.23 32.9867 20.1772 33.0129 20.1244 33.0392C20.0716 33.0655 20.0451 33.0918 19.9923 33.1181C19.9395 33.1443 19.9131 33.1706 19.8867 33.1969C19.8603 33.2232 19.8338 33.2495 19.8074 33.2495C19.7282 33.302 19.7018 33.3283 19.7018 33.3283Z" fill="#9E7047"/>
<path d="M20.917 32.6187C20.917 32.6187 20.8906 32.5661 20.8906 32.5136C20.8906 32.461 20.8906 32.4085 20.9434 32.3559C20.9698 32.3033 21.0227 32.2771 21.0755 32.2508C21.1283 32.2245 21.1811 32.2245 21.1811 32.2245C21.1811 32.2245 21.2075 32.277 21.1811 32.3296C21.1811 32.3822 21.1547 32.4347 21.1283 32.4873C21.1019 32.5399 21.0491 32.5661 20.9962 32.5924C20.9698 32.6187 20.917 32.6187 20.917 32.6187Z" fill="#9E7047"/>
<path d="M23.9277 28.3875C24.1918 29.0708 24.3767 29.7015 24.5352 30.3848C24.6937 31.1732 26.0671 35.4044 26.0671 35.4044C26.0671 35.4044 23.5051 35.8249 22.9505 35.9038C22.343 35.9826 21.6827 36.2191 22.026 37.0075C22.343 37.612 23.2674 37.6646 23.8485 37.7171C24.6408 37.796 27.0972 37.612 27.467 37.5594C27.8632 37.5069 28.048 37.5332 28.1009 37.1389C28.2065 36.4031 27.018 31.4097 25.803 28.624L23.9277 28.3875Z" fill="#F1CCB9"/>
<path d="M21.9204 23.4993C22.2109 23.6307 22.5279 23.6832 22.8184 23.7884C23.2938 23.9723 23.6108 24.0774 24.0598 24.3403C25.037 24.971 25.9351 26.285 26.3841 27.6253C26.6746 28.4926 26.9916 29.3336 27.2029 30.2009C27.3085 30.6214 27.4142 30.7528 27.018 30.9893C26.3577 31.3835 25.5917 31.5412 24.8786 31.6989C24.6937 31.7514 24.0334 31.7251 23.8485 31.7251L21.9204 23.4993Z" fill="#C45847"/>
<path d="M26.9653 31.0156L26.5956 31.2258C26.5427 31.2521 26.4899 31.3047 26.4107 31.3309L26.2258 31.4098C26.0937 31.4623 25.9617 31.5149 25.8296 31.5675L25.4334 31.6726C25.3014 31.6989 25.1693 31.7252 25.0372 31.7777L24.8259 31.8303L24.6146 31.8566C24.4826 31.8566 24.3241 31.8566 24.192 31.8566H23.7694H23.6902L23.6638 31.7777C23.4789 30.9367 23.2676 30.0957 23.0827 29.2548C23.0035 28.8343 22.9242 28.4138 22.8186 27.9933C22.7658 27.783 22.7394 27.5728 22.7129 27.3625C22.6865 27.1523 22.6337 26.9421 22.6073 26.7318C22.6601 26.9421 22.7394 27.1523 22.7922 27.3625C22.845 27.5728 22.9242 27.783 22.9771 27.9933C23.0827 28.4138 23.1884 28.8343 23.294 29.2548C23.5053 30.0957 23.6902 30.9367 23.8751 31.7777L23.7694 31.6989L24.192 31.7252C24.3241 31.7252 24.4562 31.7252 24.5882 31.7252L24.7995 31.6989L25.0108 31.6726C25.1429 31.6463 25.2749 31.62 25.407 31.5938L25.8032 31.5149C25.9353 31.4886 26.0673 31.4361 26.1994 31.4098L26.3843 31.3572C26.4635 31.3309 26.5163 31.3047 26.5691 31.2784L26.9653 31.0156Z" fill="#823629"/>
<path d="M23.9543 30.9367C23.9543 30.9367 24.1392 30.8842 24.4297 30.8053C24.5089 30.7791 24.5882 30.7791 24.6674 30.7528C24.7467 30.7265 24.8259 30.7265 24.9315 30.7002C25.1164 30.6476 25.3013 30.6214 25.4862 30.5688C25.5918 30.5425 25.6711 30.5162 25.7767 30.49C25.856 30.4637 25.9616 30.4374 26.0409 30.4111C26.1201 30.3848 26.2257 30.3586 26.305 30.3586C26.3842 30.3323 26.4635 30.306 26.5163 30.2797C26.8068 30.1746 26.9917 30.1483 26.9917 30.1483C26.9917 30.1483 26.8332 30.2534 26.5691 30.4111C26.5163 30.4374 26.437 30.49 26.3578 30.5162C26.2786 30.5425 26.1993 30.5688 26.0937 30.6214C26.0144 30.6476 25.9088 30.6739 25.8296 30.7265C25.7239 30.7528 25.6447 30.8053 25.539 30.8053C25.3541 30.8316 25.1428 30.8842 24.958 30.9105C24.7731 30.9367 24.5882 30.9367 24.4561 30.963C24.1656 30.9367 23.9543 30.9367 23.9543 30.9367Z" fill="#823629"/>
<path d="M23.2151 23.4993C22.3963 23.8935 21.4191 24.6556 20.8908 25.6806C19.9928 27.4677 19.8343 29.0971 19.7815 31.0681C19.7287 33.0392 20.0985 35.2993 21.1814 37.0076C21.9473 38.1902 22.6869 39.2414 23.8754 40.1087C24.3508 40.4504 25.2225 40.976 25.8564 40.9497C26.411 40.9234 27.1241 40.7132 27.626 40.4766C26.5167 39.8985 25.513 39.1626 24.5357 38.3216C23.0566 37.0076 22.3699 35.4045 21.9473 33.5385C21.4719 31.6989 21.3663 29.2548 22.0002 27.4414C22.3963 26.3376 23.0566 25.2864 23.9547 24.5768C24.3773 24.2614 24.9847 24.0512 25.4073 23.7358L23.2151 23.4993Z" fill="#C2D160"/>
<path d="M25.9619 40.6081C25.9619 40.6081 25.777 40.5292 25.4865 40.3715C25.328 40.2927 25.1695 40.1876 24.9582 40.0562C24.747 39.9248 24.5357 39.7671 24.2979 39.5831C24.1659 39.5043 24.0602 39.3991 23.9546 39.294C23.8225 39.1889 23.7169 39.0838 23.5848 38.9787C23.4527 38.8735 23.3471 38.7421 23.215 38.6107C23.083 38.4793 22.9773 38.3479 22.8453 38.2165C22.7132 38.0851 22.6076 37.9274 22.5019 37.7697C22.3963 37.6121 22.2642 37.4806 22.1585 37.2967L22.0001 37.0602C21.9737 37.0076 21.9472 36.9813 21.9208 36.9288L21.8416 36.7974C21.7624 36.6397 21.6567 36.4557 21.5775 36.2717C21.4982 36.0878 21.419 35.9038 21.3662 35.7198C21.2869 35.5359 21.2077 35.3519 21.1813 35.1679C21.1285 34.984 21.0756 34.8 21.0228 34.616C20.97 34.4321 20.9436 34.2481 20.9172 34.0641C20.8379 33.6962 20.8115 33.3546 20.7587 33.0129C20.7059 32.6713 20.7059 32.3559 20.6794 32.0668C20.653 31.7777 20.6795 31.5149 20.653 31.2784C20.653 31.0419 20.653 30.8316 20.653 30.6739C20.653 30.3323 20.6794 30.1483 20.6794 30.1483C20.6794 30.1483 20.6795 30.3323 20.7059 30.6739C20.7059 30.8316 20.7323 31.0419 20.7323 31.2784C20.7587 31.5149 20.7587 31.7777 20.7851 32.0668C20.8115 32.3559 20.8379 32.6713 20.8907 32.9866C20.9436 33.3283 20.9964 33.6699 21.0756 34.0116C21.1285 34.1956 21.1285 34.3795 21.1813 34.5372C21.2341 34.7212 21.2869 34.9051 21.3398 35.0891C21.3926 35.2731 21.4718 35.457 21.5246 35.6147C21.6039 35.7987 21.6567 35.9826 21.7359 36.1403C21.8152 36.3243 21.9208 36.482 22.0001 36.6659L22.0793 36.7974C22.1057 36.8236 22.1321 36.8762 22.1585 36.9025L22.317 37.139C22.4227 37.2967 22.5283 37.4544 22.634 37.6121C22.7396 37.7697 22.8453 37.9011 22.9773 38.0325C23.083 38.1639 23.215 38.2954 23.3207 38.4268C23.4527 38.5582 23.5584 38.6896 23.664 38.7947C23.7697 38.9261 23.9018 39.0312 24.0074 39.1363C24.1131 39.2415 24.2187 39.3466 24.3508 39.4517C24.5885 39.6357 24.7734 39.8196 24.9582 39.951C25.1431 40.0824 25.3016 40.2138 25.4601 40.2927C25.777 40.5029 25.9619 40.6081 25.9619 40.6081Z" fill="#8CAB36"/>
<path d="M20.6793 28.4927C20.6793 28.4927 20.6793 28.4664 20.6793 28.4401C20.6793 28.3875 20.7322 28.335 20.7322 28.2561C20.7586 28.0984 20.8114 27.8619 20.8642 27.6254C20.8906 27.494 20.9435 27.3626 20.9963 27.2049C21.0491 27.0472 21.1019 26.8895 21.1548 26.7581C21.2076 26.6004 21.2868 26.4428 21.3661 26.2851C21.4453 26.1274 21.5245 25.9697 21.6302 25.812C21.7358 25.6543 21.8151 25.5229 21.9471 25.3652C22.0528 25.2076 22.1848 25.1024 22.2905 24.971C22.3961 24.8396 22.5282 24.7345 22.6338 24.6294C22.7395 24.5243 22.8716 24.4191 22.9772 24.3666C23.0829 24.2877 23.1885 24.2089 23.2942 24.1563C23.3998 24.1038 23.479 24.0512 23.5319 24.0249C23.6639 23.9461 23.7432 23.9198 23.7432 23.9198C23.7432 23.9198 23.6639 23.9724 23.5319 24.0775C23.479 24.13 23.3998 24.1826 23.3206 24.2352C23.2413 24.314 23.1357 24.3929 23.0564 24.4717C22.9508 24.5505 22.8451 24.6557 22.7395 24.7608C22.6338 24.8659 22.5282 24.9973 22.4225 25.1024C22.3169 25.2338 22.2113 25.3652 22.1056 25.4966C22 25.6281 21.8943 25.7857 21.8151 25.9171C21.7358 26.0748 21.6302 26.2062 21.5509 26.3639C21.5245 26.4428 21.4717 26.5216 21.4453 26.6004C21.4189 26.6793 21.3661 26.7581 21.3396 26.837C21.2604 26.9946 21.2076 27.1261 21.1548 27.2837C21.1019 27.4151 21.0491 27.5465 20.9963 27.678C20.9435 27.8094 20.917 27.9145 20.8642 28.0196C20.8378 28.1247 20.7586 28.2036 20.7322 28.2824C20.7322 28.3875 20.6793 28.4927 20.6793 28.4927Z" fill="#8CAB36"/>
<path d="M23.5058 36.0877C23.5322 36.4031 23.6643 36.8499 23.4794 37.1389C23.1096 37.7697 22.5814 37.1652 22.2908 36.8236C22.106 36.6133 21.9739 36.5608 21.6834 36.5608C21.34 36.5608 21.3664 36.7185 21.0759 36.8761C20.8382 36.9813 20.6533 36.8499 20.4948 36.6133C20.3891 36.4294 20.442 36.1928 20.442 36.0614V36.0352C19.7553 35.9563 19.7024 35.1416 20.0194 34.7737C19.3591 34.3532 19.4383 33.7487 19.7817 33.1968C19.1478 33.4596 18.5139 32.5924 19.6496 31.8039C20.0986 31.4886 20.6797 31.2521 21.2079 31.2258C22.6078 31.1207 23.1624 33.0654 23.3473 34.1429C23.453 34.8 23.4266 35.4833 23.5322 36.1403L23.5058 36.0877Z" fill="#F1CCB9"/>
<path d="M20.4686 36.2455C20.4686 36.2455 20.4686 36.2192 20.4686 36.1666C20.4686 36.1403 20.4686 36.1141 20.495 36.0615C20.495 36.0089 20.5214 35.9827 20.5478 35.9301C20.6006 35.8512 20.6799 35.7461 20.7591 35.6936C20.8383 35.6147 20.9704 35.5622 21.0761 35.5096C21.2874 35.4045 21.5251 35.3519 21.71 35.3256C21.8948 35.2994 22.0005 35.2731 22.0005 35.2731C22.0005 35.2731 21.9213 35.3519 21.7628 35.457C21.6043 35.5622 21.393 35.641 21.1817 35.7461C21.1289 35.7724 21.0761 35.7987 21.0232 35.825C20.9704 35.8512 20.9176 35.8775 20.8912 35.9038C20.8119 35.9564 20.7327 36.0089 20.6535 36.0615C20.627 36.0878 20.6006 36.1141 20.5742 36.1403C20.5478 36.1666 20.5214 36.1929 20.5214 36.2192C20.4686 36.2192 20.4686 36.2455 20.4686 36.2455Z" fill="#D87979"/>
<path d="M19.9668 34.8525C19.9668 34.8525 20.0196 34.7474 20.1253 34.6423C20.1781 34.5897 20.2309 34.5109 20.3102 34.4583C20.363 34.432 20.3894 34.4058 20.4422 34.3795C20.495 34.3532 20.5215 34.3269 20.5743 34.3006C20.6799 34.2743 20.7592 34.2218 20.8648 34.1955C20.9441 34.1692 21.0497 34.1692 21.1289 34.1429C21.2874 34.1429 21.3931 34.1429 21.3931 34.1429C21.3931 34.1429 21.3138 34.1955 21.1554 34.2743C21.1289 34.3006 21.0761 34.3006 21.0497 34.3269C20.9969 34.3269 20.9705 34.3795 20.9441 34.3795C20.8648 34.432 20.7856 34.4583 20.6799 34.5109C20.6271 34.5372 20.6007 34.5634 20.5479 34.5897C20.495 34.616 20.4686 34.6423 20.4158 34.6423C20.3894 34.6686 20.3366 34.6686 20.2837 34.6948C20.2573 34.7211 20.2045 34.7474 20.1781 34.7474C20.0724 34.8 19.9668 34.8525 19.9668 34.8525Z" fill="#D87979"/>
<path d="M19.7028 33.3283C19.7028 33.3283 19.7292 33.302 19.7556 33.2495C19.782 33.2232 19.782 33.1969 19.8084 33.1706C19.8348 33.1443 19.8612 33.0918 19.8876 33.0655C19.9141 33.0392 19.9669 32.9867 20.0197 32.9341C20.0725 32.8815 20.1254 32.8553 20.1782 32.829C20.231 32.8027 20.2838 32.7501 20.3631 32.7238C20.4159 32.6976 20.4951 32.6713 20.548 32.645C20.6272 32.6187 20.68 32.6187 20.7593 32.5924C20.8385 32.5924 20.8913 32.5924 20.9441 32.5662C21.0762 32.5662 21.1818 32.5662 21.2875 32.5662C21.4988 32.5924 21.6309 32.6187 21.6309 32.6187C21.6309 32.6187 21.4988 32.645 21.3139 32.6976C21.2083 32.7238 21.1026 32.7238 20.997 32.7501C20.8649 32.7764 20.7593 32.8027 20.6272 32.829C20.5744 32.829 20.5215 32.8552 20.4423 32.8815C20.3895 32.9078 20.3367 32.9341 20.2838 32.9604C20.231 32.9867 20.1782 33.0129 20.1254 33.0392C20.0725 33.0655 20.0461 33.0918 19.9933 33.1181C19.9405 33.1443 19.9141 33.1706 19.8876 33.1969C19.8612 33.2232 19.8348 33.2495 19.8084 33.2495C19.7292 33.302 19.7028 33.3283 19.7028 33.3283Z" fill="#D87979"/>
<path d="M20.918 32.6187C20.918 32.6187 20.8916 32.5661 20.8916 32.5136C20.8916 32.461 20.8916 32.4085 20.9444 32.3559C20.9708 32.3033 21.0236 32.2771 21.0765 32.2508C21.1293 32.2245 21.1821 32.2245 21.1821 32.2245C21.1821 32.2245 21.2085 32.277 21.1821 32.3296C21.1821 32.3822 21.1557 32.4347 21.1293 32.4873C21.1029 32.5399 21.05 32.5661 20.9972 32.5924C20.9708 32.6187 20.918 32.6187 20.918 32.6187Z" fill="#D87979"/>
<path d="M11.4349 31.436C11.7518 29.465 12.0688 27.8356 13.2045 26.0485C13.8648 25.0235 15.3175 24.2614 16.1891 23.8672L16.9551 23.9723C15.8722 24.3928 15.027 24.787 14.4195 25.8645C14.0497 26.5478 14.0233 27.2048 14.0233 27.967C13.2309 29.7541 13.0461 32.1456 13.3102 33.9327C13.4422 34.9577 13.6271 35.8775 13.9969 36.7448C14.0497 37.8748 14.1025 39.0049 14.0497 40.135C13.2045 39.3466 12.6763 38.4267 12.1216 37.3755C11.2236 35.6673 11.1444 33.4071 11.4349 31.436Z" fill="#C2D160"/>
<path d="M16.4001 24.9447C15.3965 25.6543 14.6305 26.7055 14.1023 27.8093C14.0758 27.8618 14.0494 27.9144 14.0494 27.967C14.023 27.2048 14.0758 26.5478 14.4456 25.8645C15.0531 24.7607 15.8983 24.3928 16.9812 23.9723L17.9849 24.1037C17.5094 24.3928 16.8491 24.603 16.4001 24.9447Z" fill="#C2D160"/>
<path d="M12.6495 28.8342C12.6495 28.8342 12.6495 28.8079 12.6495 28.7816C12.6495 28.7291 12.7023 28.6765 12.7287 28.5977C12.7551 28.44 12.8608 28.2035 12.94 27.9669C12.9929 27.8355 13.0457 27.7041 13.1249 27.5464C13.2041 27.3888 13.257 27.2311 13.3626 27.0997C13.4419 26.942 13.5211 26.7843 13.6267 26.6266C13.706 26.4689 13.838 26.3113 13.9437 26.1536C14.0758 25.9959 14.1814 25.8645 14.3135 25.7068C14.4455 25.5491 14.5776 25.444 14.7097 25.3126C14.8417 25.1812 14.9738 25.0761 15.1058 24.9709C15.2379 24.8658 15.37 24.7607 15.4756 24.7081C15.5813 24.6293 15.7133 24.5504 15.819 24.4979C15.9246 24.4453 16.0039 24.3928 16.0831 24.3665C16.2416 24.2876 16.3208 24.2614 16.3208 24.2614C16.3208 24.2614 16.2416 24.3139 16.1095 24.419C16.0303 24.4716 15.951 24.5242 15.8718 24.5767C15.7661 24.6556 15.6869 24.7344 15.5813 24.8132C15.4756 24.8921 15.37 24.9972 15.2379 25.1023C15.1058 25.2075 15.0002 25.3389 14.8681 25.444C14.7361 25.5754 14.6304 25.7068 14.4984 25.8382C14.3663 25.9696 14.2606 26.1273 14.155 26.2587C14.0493 26.4164 13.9437 26.5478 13.838 26.7055C13.7852 26.7843 13.7324 26.8631 13.706 26.942C13.6532 27.0208 13.6267 27.0997 13.5739 27.1785C13.4947 27.3362 13.4154 27.4676 13.3362 27.6253C13.257 27.7567 13.2041 27.8881 13.1249 28.0195C13.0721 28.1509 13.0193 28.256 12.9664 28.3612C12.9136 28.4663 12.8344 28.5451 12.808 28.624C12.7287 28.7554 12.6495 28.8342 12.6495 28.8342Z" fill="#8CAB36"/>
<path d="M10.7481 36.114C10.7745 36.4556 10.7217 36.8761 10.9594 37.1652C11.4348 37.7171 11.831 37.0338 12.0687 36.6396C12.2272 36.4031 12.3328 36.3242 12.6234 36.2717C12.9667 36.2191 12.9667 36.3768 13.2837 36.4556C13.5214 36.5345 13.7063 36.3505 13.7855 36.0877C13.8648 35.8775 13.7855 35.6672 13.7591 35.5358V35.5095C14.4194 35.3256 14.3402 34.4846 13.944 34.1955C14.5251 33.6699 14.3402 33.0917 13.9176 32.5924C14.5779 32.7238 15.0797 31.7777 13.8119 31.1995C13.3101 30.9892 12.7026 30.8578 12.1744 30.9104C10.7745 31.0681 10.5632 33.0654 10.5896 34.1692C10.5896 34.8262 10.7481 35.4832 10.7481 36.1665V36.114Z" fill="#F1CCB9"/>
<path d="M13.7856 35.7461C13.7856 35.7461 13.7856 35.7198 13.7856 35.6672C13.7856 35.641 13.7592 35.6147 13.7592 35.5621C13.7328 35.5096 13.7064 35.4833 13.68 35.457C13.6272 35.3781 13.5215 35.2993 13.4159 35.2467C13.3102 35.1942 13.2046 35.1416 13.0725 35.1153C12.8348 35.0628 12.5971 35.0365 12.4122 35.0365C12.2273 35.0365 12.1217 35.0365 12.1217 35.0365C12.1217 35.0365 12.2273 35.1153 12.3858 35.1679C12.5443 35.2205 12.782 35.2993 12.9933 35.3519C13.0461 35.3519 13.0989 35.3781 13.1517 35.4044C13.2046 35.4307 13.2574 35.4307 13.3102 35.457C13.4159 35.4833 13.4951 35.5358 13.5479 35.5621C13.5743 35.5884 13.6272 35.6147 13.6272 35.6147C13.6536 35.641 13.68 35.6672 13.68 35.6672C13.7592 35.7198 13.7856 35.7461 13.7856 35.7461Z" fill="#D87979"/>
<path d="M13.9971 34.2743C13.9971 34.2743 13.9178 34.1955 13.8122 34.0904C13.7594 34.0378 13.6801 33.9852 13.6009 33.9327C13.5481 33.9064 13.5216 33.8801 13.4688 33.8801C13.416 33.8538 13.3632 33.8275 13.3103 33.8275C13.2047 33.8013 13.099 33.775 13.0198 33.775C12.9142 33.7487 12.8349 33.775 12.7557 33.775C12.5972 33.8013 12.4916 33.8275 12.4916 33.8275C12.4916 33.8275 12.5972 33.8801 12.7293 33.9064C12.7557 33.9064 12.8085 33.9327 12.8349 33.9327C12.8878 33.9327 12.9142 33.959 12.967 33.959C13.0462 33.9852 13.1519 34.0115 13.2311 34.0378C13.2839 34.0378 13.3103 34.0641 13.3632 34.0904C13.416 34.1166 13.4424 34.1166 13.4952 34.1429C13.5481 34.1692 13.5745 34.1692 13.6273 34.1692C13.6801 34.1955 13.7065 34.1955 13.7329 34.2218C13.8914 34.248 13.9971 34.2743 13.9971 34.2743Z" fill="#D87979"/>
<path d="M14.0234 32.7237C14.0234 32.7237 13.997 32.6975 13.9706 32.6449C13.9442 32.6186 13.9178 32.5923 13.8914 32.5661C13.865 32.5398 13.8386 32.4872 13.7857 32.4609C13.7329 32.4346 13.7065 32.4084 13.6537 32.3558C13.6008 32.3295 13.548 32.3032 13.4952 32.277C13.4424 32.2507 13.3631 32.2244 13.3103 32.2244C13.2311 32.2244 13.1782 32.1981 13.099 32.1981C13.0198 32.1981 12.9669 32.1981 12.8877 32.1981C12.8085 32.1981 12.7556 32.1981 12.7028 32.2244C12.5708 32.2244 12.4651 32.277 12.3595 32.3032C12.1746 32.3558 12.0425 32.4084 12.0425 32.4084C12.0425 32.4084 12.1746 32.4346 12.3859 32.4346C12.4915 32.4346 12.5972 32.4346 12.7292 32.4346C12.8613 32.4346 12.9669 32.4346 13.099 32.4609C13.1518 32.4609 13.2311 32.4872 13.2839 32.4872C13.3367 32.4872 13.3895 32.5135 13.4688 32.5135C13.5216 32.5398 13.5744 32.5398 13.6273 32.5661C13.6801 32.5923 13.7329 32.5923 13.7593 32.6186C13.8121 32.6449 13.8386 32.6449 13.8914 32.6712C13.9178 32.6975 13.9706 32.6975 13.997 32.7237C13.9706 32.7237 14.0234 32.7237 14.0234 32.7237Z" fill="#D87979"/>
<path d="M12.6763 32.2245C12.6763 32.2245 12.6763 32.1719 12.6763 32.1193C12.6763 32.0668 12.6499 32.0142 12.597 31.9617C12.5442 31.9091 12.4914 31.8828 12.4386 31.8828C12.3857 31.8828 12.3329 31.8828 12.3329 31.8828C12.3329 31.8828 12.3329 31.9354 12.3329 31.9879C12.3329 32.0405 12.3593 32.0931 12.4121 32.1193C12.4386 32.1456 12.4914 32.1982 12.5442 32.1982C12.6499 32.2507 12.6763 32.2245 12.6763 32.2245Z" fill="#D87979"/>
<path d="M17.8789 22.7108C16.4262 23.0262 15.1584 24.0249 15.7659 25.628C16.347 25.3126 16.9016 25.1024 17.5355 24.8921C17.4035 25.7594 17.0601 26.9157 17.245 27.783C17.7204 27.8093 18.1694 27.8356 18.6184 27.8093C18.8033 26.8895 18.7241 25.8119 18.8826 24.8658C19.4636 25.0498 20.0183 25.3915 20.5465 25.7068C21.0484 25.2863 22.1049 24.1825 21.7351 23.473C21.3389 22.6057 19.7277 22.6845 19.0146 22.7634L17.8789 22.7108Z" fill="#823629"/>
<path d="M13.1254 15.5888C11.6992 15.4574 10.1144 13.2235 9.74464 12.0146C9.24281 10.3589 9.50693 8.28271 11.7784 7.70453C12.8085 7.468 13.3631 7.99362 14.0234 8.72948L13.1254 15.5888Z" fill="#3F211B"/>
<path d="M22.3692 15.799C22.7918 14.1171 22.8711 12.3037 22.739 10.5954C22.6069 8.86091 22.7918 7.15266 21.5504 5.75978C20.6788 4.73483 19.2526 4.2355 17.932 3.99897C17.0339 3.84129 15.4228 3.84129 14.604 4.31434L13.5211 4.55087C10.2724 5.52326 10.1403 9.09744 10.8799 11.8569C11.3025 13.4075 11.7779 14.8792 12.042 16.4823C12.1741 17.297 11.9892 18.2431 12.2533 19.0579C12.5702 20.004 13.4947 20.7398 14.3663 21.1603C15.3171 21.6071 16.1887 21.7385 17.0075 21.6596L17.3773 24.5505C17.3773 24.5505 18.8036 25.2601 20.1242 23.8147L18.6979 21.134C20.5468 20.1354 21.8146 17.9541 22.3692 15.799Z" fill="#F1CCB9"/>
<path d="M21.5767 15.7727C21.7351 14.958 22.2634 14.1959 23.0822 14.1433C25.3008 14.0645 24.6933 17.4284 22.8445 17.7438C21.7616 17.954 21.3654 16.824 21.5767 15.7727Z" fill="#F1CCB9"/>
<path d="M15.7137 14.3535C15.6873 14.6163 15.608 14.8791 15.476 15.0894C15.3439 15.3259 15.2119 15.5362 15.0534 15.7464C14.8949 15.9566 14.7364 16.1669 14.578 16.3771C14.4195 16.5874 14.261 16.9027 14.3138 17.2181C14.3403 17.3758 14.4195 17.5335 14.5251 17.6386C14.6308 17.7437 14.7893 17.8226 14.9213 17.8751C15.2119 17.954 15.5024 17.9277 15.7929 17.8489C16.3476 17.6386 16.691 17.1393 16.8758 16.6399C16.9287 16.5611 16.9551 16.456 16.9551 16.3509C16.9287 16.456 16.8758 16.5348 16.823 16.6137C16.5589 17.0604 16.2155 17.5072 15.7401 17.6386C15.5024 17.7175 15.2383 17.7175 15.027 17.6386C14.7893 17.5598 14.6308 17.4021 14.578 17.1918C14.4723 16.7451 14.9742 16.3509 15.2119 15.8778C15.3439 15.6413 15.476 15.4047 15.5816 15.1419C15.6873 14.8791 15.7401 14.6163 15.7137 14.3535Z" fill="#D87979"/>
<path d="M18.5396 17.5072C18.4603 17.9803 18.3811 18.3745 18.117 18.795C17.8528 19.1892 17.4831 19.4783 17.0605 19.6622C16.3737 19.925 15.7663 19.6359 15.238 19.1629L18.5396 17.5072Z" fill="white"/>
<path d="M12.3594 11.6992C12.5443 11.4363 12.7291 11.2261 12.9669 11.0947C13.2046 10.937 13.4687 10.8582 13.7856 10.753C13.4687 10.6216 13.0989 10.6742 12.8348 10.8582C12.7027 10.937 12.5707 11.0684 12.465 11.2261C12.3858 11.3838 12.333 11.5415 12.3594 11.6992Z" fill="#42240E"/>
<path d="M19.2793 10.7268C19.2265 10.5428 19.0944 10.3852 18.9623 10.28C18.8039 10.1749 18.619 10.0961 18.4341 10.0698C18.2492 10.0435 18.0379 10.0698 17.853 10.1486C17.6681 10.2275 17.5361 10.3589 17.4304 10.5166C17.7474 10.3326 18.0643 10.28 18.3813 10.3063C18.6982 10.3589 18.9888 10.4903 19.2793 10.7268Z" fill="#42240E"/>
<path d="M14.6309 14.6952C14.6309 15.0106 14.4196 15.2734 14.1554 15.2734C13.8913 15.2734 13.68 15.0106 13.68 14.6952C13.68 14.3799 13.8913 14.1171 14.1554 14.1171C14.446 14.1171 14.6309 14.3799 14.6309 14.6952Z" fill="black"/>
<path d="M19.2002 14.2485C19.2002 14.5638 18.9889 14.8266 18.7248 14.8266C18.4606 14.8266 18.2493 14.5638 18.2493 14.2485C18.2493 13.9331 18.4606 13.6703 18.7248 13.6703C18.9889 13.6703 19.2002 13.9331 19.2002 14.2485Z" fill="black"/>
<path d="M22.7655 14.8267C21.841 15.0895 21.4184 15.6151 21.5241 14.301C21.5769 13.644 21.8146 12.9344 21.9995 12.33C21.8674 12.6454 21.3392 13.3024 20.9958 13.0396C20.7581 12.8293 20.8109 11.8044 20.8109 11.5416C20.8109 10.5692 20.6789 9.83331 21.0487 8.96604C20.8638 9.28141 20.1771 10.0698 19.7016 9.54422C19.4111 9.20257 19.7016 8.28274 19.8337 7.96737C19.4375 8.67695 18.6716 9.36025 17.9584 9.75447C17.6151 9.96471 17.0868 10.2275 16.7963 9.93843C16.5586 9.72818 16.7435 9.0186 16.9019 8.7558C16.5586 9.41281 15.7398 10.8057 14.8946 11.0422C13.8909 11.305 14.3135 9.59678 14.3135 9.07117C13.8909 9.78075 13.125 10.2012 12.3062 10.5166C11.2497 10.9897 11.1969 10.2538 11.3818 9.46538C10.9856 10.0698 10.6686 10.7794 9.84983 11.0422C8.84617 11.3576 8.84617 10.4378 8.89899 9.78075C8.95182 8.28274 9.53289 6.75846 10.3781 5.52326C9.9819 5.73351 8.68769 6.65333 8.44998 5.86491C8.21227 5.12905 9.5593 4.49831 10.0875 4.2355C11.4346 3.52592 13.0193 3.44708 14.4984 3.39452C14.3663 3.26311 13.4947 3.05287 13.4419 2.8689C13.3891 2.52725 14.2079 2.47469 14.4984 2.47469C15.2644 2.42213 16.136 2.55353 16.8491 2.7375C18.5395 3.13171 20.2035 3.78873 21.26 5.05021C21.2071 4.73484 20.7845 3.07915 21.5505 3.60476C22.0787 3.99898 21.8939 5.18161 21.9467 5.75979C22.5278 5.62838 22.8183 5.28673 23.4258 5.44442C23.3201 5.78607 22.7126 5.83863 22.4221 6.04888C23.2937 5.99632 24.1917 7.88853 24.4294 8.49299C24.5351 8.83464 24.8256 9.54422 24.5615 9.88587C24.1653 10.3589 23.6107 9.80703 23.2673 9.49166C23.9804 9.93843 24.2181 11.5153 24.0333 12.1986C23.7955 13.1184 23.3201 13.9857 22.7919 14.8267H22.7655Z" fill="#7E3D27"/>
</g>
<defs>
<filter id="filter0_d_885_6138" x="0.000488281" y="0.463013" width="71.7944" height="84.5941" filterUnits="userSpaceOnUse" color-interpolation-filters="sRGB">
<feFlood flood-opacity="0" result="BackgroundImageFix"/>
<feColorMatrix in="SourceAlpha" type="matrix" values="0 0 0 0 0 0 0 0 0 0 0 0 0 0 0 0 0 0 127 0" result="hardAlpha"/>
<feOffset dy="2"/>
<feGaussianBlur stdDeviation="2"/>
<feComposite in2="hardAlpha" operator="out"/>
<feColorMatrix type="matrix" values="0 0 0 0 0 0 0 0 0 0 0 0 0 0 0 0 0 0 0.25 0"/>
<feBlend mode="normal" in2="BackgroundImageFix" result="effect1_dropShadow_885_6138"/>
<feBlend mode="normal" in="SourceGraphic" in2="effect1_dropShadow_885_6138" result="shape"/>
</filter>
</defs>
</svg>
