<svg width="63" height="65" viewBox="0 0 63 65" fill="none" xmlns="http://www.w3.org/2000/svg">
<g filter="url(#filter0_d_775_3241)">
<path d="M7.58947 17.7224C5.62105 17.7224 4 19.3362 4 21.3246C4 23.3129 5.62105 24.8979 7.58947 24.8979H52.5447C54.5421 24.8979 56.1632 23.2841 56.1632 21.3246C56.1632 19.3362 54.5421 17.7224 52.5447 17.7224H7.58947Z" fill="#9A5F3B"/>
<path d="M8.51579 24.8979H56.1632V21.6127H11.8158C9.99211 21.6127 8.51579 23.0824 8.51579 24.8979Z" fill="#FFFAD1"/>
<path d="M21.5421 30.4019L19.5447 29.8832L23.9447 14.639C24.1184 14.4085 24.2921 14.1491 24.4947 13.9186C24.9868 13.227 25.6526 12.4778 26.3474 11.6709C26.6947 11.2674 27.1 10.864 27.4763 10.4317C27.6789 10.23 27.8816 9.99949 28.0842 9.79778C28.2868 9.59606 28.5184 9.39434 28.75 9.1638C29.6474 8.29929 30.6316 7.49242 31.7026 6.65672C32.2526 6.2821 32.7737 5.84985 33.3526 5.47523C33.6421 5.30233 33.9316 5.10061 34.2211 4.9277C34.5105 4.7548 34.8 4.55308 35.1184 4.409C35.7263 4.09201 36.3342 3.71739 36.9711 3.42922L37.9263 2.99697C38.2447 2.85288 38.5632 2.73761 38.9105 2.59353C40.2132 2.07482 41.5447 1.67139 42.8474 1.3544C43.5132 1.21031 44.15 1.06623 44.7868 0.950961C45.1053 0.893327 45.4237 0.835693 45.7421 0.806876C46.0605 0.778059 46.3789 0.720425 46.6974 0.691608C47.0158 0.662791 47.3053 0.633974 47.6237 0.605157C47.9421 0.57634 48.2316 0.547523 48.5211 0.547523C49.1289 0.547523 49.7079 0.518706 50.2579 0.518706C51.3868 0.518706 52.4579 0.605157 53.4132 0.720425C55.3526 0.950961 56.5974 1.29676 57.6684 1.61375C58.5368 1.84429 58.9421 2.07482 58.9421 2.07482C58.9421 2.07482 58.8553 2.07482 57.9579 2.07482C56.8579 2.07482 55.2947 2.16127 53.4711 2.44944C52.5737 2.59353 51.5895 2.79525 50.5763 3.08342C50.0842 3.19869 49.5632 3.37159 49.0421 3.54449C48.7816 3.63094 48.521 3.71739 48.2605 3.80384C48 3.89029 47.7395 3.97674 47.4789 4.09201C47.2184 4.20728 46.9579 4.29373 46.6974 4.409C46.4368 4.52427 46.1763 4.63953 45.9158 4.7548C45.3947 4.98534 44.9026 5.27351 44.4105 5.53286C43.4263 6.1092 42.4421 6.71436 41.5447 7.43478L40.8789 7.95349L40.2421 8.50101C39.8079 8.84682 39.4316 9.27907 39.0263 9.65369C38.8237 9.82659 38.65 10.0571 38.4763 10.2588C38.3026 10.4606 38.1289 10.6623 37.9263 10.864C37.5789 11.2674 37.2605 11.6997 36.9421 12.1031C36.3342 12.9388 35.7842 13.7457 35.2921 14.5814C35.1763 14.7831 35.0316 14.9848 34.9447 15.1866C34.8289 15.3883 34.7421 15.59 34.6263 15.7917C34.4237 16.1951 34.2211 16.5409 34.0474 16.9444C33.7289 17.6936 33.3237 18.731 33.0921 19.365L38.1 21.6704L21.5421 30.4019Z" fill="#F6FFF1"/>
<path d="M19.5447 29.8832L16.4474 11.5556L21.9474 14.1203C22.1211 13.8898 22.2947 13.6304 22.4974 13.3999C22.9895 12.7083 23.6553 11.959 24.35 11.1522C24.6974 10.7487 25.1026 10.3453 25.4789 9.91304C25.6816 9.71132 25.8842 9.48079 26.0868 9.27907C26.2895 9.07735 26.5211 8.87563 26.7526 8.6451C27.65 7.78059 28.6342 6.97371 29.7053 6.13802C30.2553 5.7634 30.7763 5.33114 31.3553 4.95652C31.6447 4.78362 31.9342 4.5819 32.2237 4.409C32.5132 4.2361 32.8026 4.03438 33.1211 3.89029C33.7289 3.57331 34.3368 3.19869 34.9737 2.91052L35.9289 2.47826C36.2474 2.33418 36.5658 2.21891 36.9132 2.07482C38.2158 1.55612 39.5474 1.15268 40.85 0.835693C41.5158 0.691608 42.1526 0.547523 42.7895 0.432255C43.1079 0.374621 43.4263 0.316987 43.7447 0.28817C44.0632 0.259353 44.3816 0.201719 44.7 0.172902C45.0184 0.144085 45.3079 0.115268 45.6263 0.086451C45.9447 0.057634 46.2342 0.028817 46.5237 0.028817C47.1316 0.028817 47.7105 0 48.2605 0C49.3895 0 50.4605 0.0864509 51.4158 0.201719C53.3553 0.432255 54.9184 0.778059 55.9895 1.06623C57.0605 1.3544 57.6684 1.58493 57.6684 1.58493C57.6684 1.58493 57.0316 1.5273 55.9316 1.5273C54.8316 1.5273 53.2684 1.61375 51.4447 1.90192C50.5474 2.04601 49.5632 2.24773 48.55 2.53589C48.0579 2.65116 47.5368 2.82406 47.0158 2.99697C46.7553 3.08342 46.4947 3.16987 46.2342 3.25632C45.9737 3.34277 45.7132 3.42922 45.4526 3.54449C45.1921 3.65976 44.9316 3.74621 44.6711 3.86148C44.4105 3.97674 44.15 4.09201 43.8895 4.20728C43.3684 4.43782 42.8763 4.72599 42.3842 4.98534C41.4 5.56168 40.4158 6.16683 39.5184 6.88726L38.8526 7.40597L38.2158 7.95349C37.7816 8.29929 37.4053 8.73155 37 9.10617C36.7974 9.27907 36.6237 9.50961 36.45 9.71132C36.2763 9.91304 36.1026 10.1148 35.9 10.3165C35.5526 10.7199 35.2342 11.1522 34.9158 11.5556C34.3079 12.3913 33.7579 13.1982 33.2658 14.0339C33.15 14.2356 33.0053 14.4373 32.9184 14.639C32.8026 14.8407 32.7158 15.0425 32.6 15.2442C32.3974 15.6476 32.1947 15.9934 32.0211 16.3969C31.7026 17.1461 31.3553 17.8089 31.1526 18.4429L36.5079 20.9211L19.5447 29.8832Z" fill="#BE2713"/>
<path d="M4 21.3246V53.4267C4 55.4151 5.62105 57 7.58947 57H52.5447C54.5421 57 56.1632 55.3862 56.1632 53.4267L56.1632 24.8979H7.58947C5.62105 24.8979 4 23.3129 4 21.3246Z" fill="#B06C45"/>
<path d="M57.1474 36.7417H51.7053C49.4474 36.7417 47.5947 38.5571 47.5947 40.8337V42.044C47.5947 44.2917 49.4184 46.136 51.7053 46.136H57.1474C58.1605 46.136 59 45.3003 59 44.2917V38.6148C59 37.5485 58.1895 36.7417 57.1474 36.7417Z" fill="#9A5F3B"/>
<path d="M54.4263 41.41C54.4263 42.5915 53.4711 43.5713 52.2553 43.5713C51.0684 43.5713 50.0842 42.6203 50.0842 41.41C50.0842 40.2285 51.0395 39.2487 52.2553 39.2487C53.4711 39.2487 54.4263 40.2285 54.4263 41.41Z" fill="#FFFAD1"/>
<path d="M52.5737 55.4727H50.8658V54.8099H52.5737C52.7184 54.8099 52.8632 54.7811 52.9789 54.7523L53.1816 55.3862C52.9789 55.4439 52.7763 55.4727 52.5737 55.4727ZM48.6368 55.4727H46.4079V54.8099H48.6368V55.4727ZM44.2079 55.4727H41.9789V54.8099H44.2079V55.4727ZM39.75 55.4727H37.521V54.8099H39.75V55.4727ZM35.321 55.4727H33.0921V54.8099H35.321V55.4727ZM30.8632 55.4727H28.6342V54.8099H30.8632V55.4727ZM26.4053 55.4727H24.1763V54.8099H26.4053V55.4727ZM21.9763 55.4727H19.7474V54.8099H21.9763V55.4727ZM17.5184 55.4727H15.2895V54.8099H17.5184V55.4727ZM13.0895 55.4727H10.8605V54.8099H13.0895V55.4727ZM8.63158 55.4727H6.43158V54.8099H8.63158V55.4727ZM54.6289 53.3691H53.9632V51.1502H54.6289V53.3691Z" fill="#FFFAD1"/>
<path d="M54.6289 47.9803H53.9632V49.0753H54.6289V47.9803Z" fill="#FFFAD1"/>
<path d="M54.6289 33.7447H53.9632V34.8397H54.6289V33.7447Z" fill="#FFFAD1"/>
<path d="M54.6289 29.8256H53.9632V31.7851H54.6289V29.8256Z" fill="#FFFAD1"/>
<path d="M54.629 27.8948H53.9632V27.1168H53.1816V26.454H54.629V27.8948Z" fill="#FFFAD1"/>
<path d="M51.0395 27.1168H48.8974V26.454H51.0395V27.1168ZM46.7553 27.1168H44.6132V26.454H46.7553V27.1168ZM42.4711 27.1168H40.3289V26.454H42.4711V27.1168ZM38.2158 27.1168H36.0737V26.454H38.2158V27.1168ZM33.9316 27.1168H31.7895V26.454H33.9316V27.1168ZM29.6474 27.1168H27.5053V26.454H29.6474V27.1168ZM25.3632 27.1168H23.2211V26.454H25.3632V27.1168ZM21.0789 27.1168H18.9368V26.454H21.0789V27.1168ZM16.7947 27.1168H14.6526V26.454H16.7947V27.1168ZM12.5395 27.1168H10.3974V26.454H12.5395V27.1168ZM8.25526 27.1168H6.11316V26.454H8.25526V27.1168Z" fill="#FFFAD1"/>
</g>
<defs>
<filter id="filter0_d_775_3241" x="0" y="0" width="63" height="65" filterUnits="userSpaceOnUse" color-interpolation-filters="sRGB">
<feFlood flood-opacity="0" result="BackgroundImageFix"/>
<feColorMatrix in="SourceAlpha" type="matrix" values="0 0 0 0 0 0 0 0 0 0 0 0 0 0 0 0 0 0 127 0" result="hardAlpha"/>
<feOffset dy="4"/>
<feGaussianBlur stdDeviation="2"/>
<feComposite in2="hardAlpha" operator="out"/>
<feColorMatrix type="matrix" values="0 0 0 0 0 0 0 0 0 0 0 0 0 0 0 0 0 0 0.25 0"/>
<feBlend mode="normal" in2="BackgroundImageFix" result="effect1_dropShadow_775_3241"/>
<feBlend mode="normal" in="SourceGraphic" in2="effect1_dropShadow_775_3241" result="shape"/>
</filter>
</defs>
</svg>
